%TF.GenerationSoftware,KiCad,Pcbnew,(7.0.0)*%
%TF.CreationDate,2023-07-04T16:48:58+02:00*%
%TF.ProjectId,attiny85_remote,61747469-6e79-4383-955f-72656d6f7465,rev?*%
%TF.SameCoordinates,Original*%
%TF.FileFunction,Legend,Bot*%
%TF.FilePolarity,Positive*%
%FSLAX46Y46*%
G04 Gerber Fmt 4.6, Leading zero omitted, Abs format (unit mm)*
G04 Created by KiCad (PCBNEW (7.0.0)) date 2023-07-04 16:48:58*
%MOMM*%
%LPD*%
G01*
G04 APERTURE LIST*
%ADD10C,0.150000*%
%ADD11C,0.120000*%
%ADD12C,0.250000*%
G04 APERTURE END LIST*
D10*
X188591306Y-52391306D02*
X193608695Y-52391306D01*
X193608695Y-52391306D02*
X193608695Y-57408695D01*
X193608695Y-57408695D02*
X188591306Y-57408695D01*
X188591306Y-57408695D02*
X188591306Y-52391306D01*
X190575000Y-108825000D02*
X191575000Y-108825000D01*
X191075000Y-92000000D02*
X191075000Y-93000000D01*
X190575000Y-92500000D02*
X191575000Y-92500000D01*
X197061904Y-59007380D02*
X197061904Y-58007380D01*
X196585714Y-59007380D02*
X196585714Y-58007380D01*
X196585714Y-58007380D02*
X196014286Y-59007380D01*
X196014286Y-59007380D02*
X196014286Y-58007380D01*
X195680952Y-58007380D02*
X195109524Y-58007380D01*
X195395238Y-59007380D02*
X195395238Y-58007380D01*
X192461904Y-59007380D02*
X192461904Y-58007380D01*
X192461904Y-58007380D02*
X192223809Y-58007380D01*
X192223809Y-58007380D02*
X192080952Y-58055000D01*
X192080952Y-58055000D02*
X191985714Y-58150238D01*
X191985714Y-58150238D02*
X191938095Y-58245476D01*
X191938095Y-58245476D02*
X191890476Y-58435952D01*
X191890476Y-58435952D02*
X191890476Y-58578809D01*
X191890476Y-58578809D02*
X191938095Y-58769285D01*
X191938095Y-58769285D02*
X191985714Y-58864523D01*
X191985714Y-58864523D02*
X192080952Y-58959761D01*
X192080952Y-58959761D02*
X192223809Y-59007380D01*
X192223809Y-59007380D02*
X192461904Y-59007380D01*
X190890476Y-59007380D02*
X191223809Y-58531190D01*
X191461904Y-59007380D02*
X191461904Y-58007380D01*
X191461904Y-58007380D02*
X191080952Y-58007380D01*
X191080952Y-58007380D02*
X190985714Y-58055000D01*
X190985714Y-58055000D02*
X190938095Y-58102619D01*
X190938095Y-58102619D02*
X190890476Y-58197857D01*
X190890476Y-58197857D02*
X190890476Y-58340714D01*
X190890476Y-58340714D02*
X190938095Y-58435952D01*
X190938095Y-58435952D02*
X190985714Y-58483571D01*
X190985714Y-58483571D02*
X191080952Y-58531190D01*
X191080952Y-58531190D02*
X191461904Y-58531190D01*
X190604761Y-58007380D02*
X190271428Y-59007380D01*
X190271428Y-59007380D02*
X189938095Y-58007380D01*
X186740476Y-59007380D02*
X187073809Y-58531190D01*
X187311904Y-59007380D02*
X187311904Y-58007380D01*
X187311904Y-58007380D02*
X186930952Y-58007380D01*
X186930952Y-58007380D02*
X186835714Y-58055000D01*
X186835714Y-58055000D02*
X186788095Y-58102619D01*
X186788095Y-58102619D02*
X186740476Y-58197857D01*
X186740476Y-58197857D02*
X186740476Y-58340714D01*
X186740476Y-58340714D02*
X186788095Y-58435952D01*
X186788095Y-58435952D02*
X186835714Y-58483571D01*
X186835714Y-58483571D02*
X186930952Y-58531190D01*
X186930952Y-58531190D02*
X187311904Y-58531190D01*
X186359523Y-58959761D02*
X186216666Y-59007380D01*
X186216666Y-59007380D02*
X185978571Y-59007380D01*
X185978571Y-59007380D02*
X185883333Y-58959761D01*
X185883333Y-58959761D02*
X185835714Y-58912142D01*
X185835714Y-58912142D02*
X185788095Y-58816904D01*
X185788095Y-58816904D02*
X185788095Y-58721666D01*
X185788095Y-58721666D02*
X185835714Y-58626428D01*
X185835714Y-58626428D02*
X185883333Y-58578809D01*
X185883333Y-58578809D02*
X185978571Y-58531190D01*
X185978571Y-58531190D02*
X186169047Y-58483571D01*
X186169047Y-58483571D02*
X186264285Y-58435952D01*
X186264285Y-58435952D02*
X186311904Y-58388333D01*
X186311904Y-58388333D02*
X186359523Y-58293095D01*
X186359523Y-58293095D02*
X186359523Y-58197857D01*
X186359523Y-58197857D02*
X186311904Y-58102619D01*
X186311904Y-58102619D02*
X186264285Y-58055000D01*
X186264285Y-58055000D02*
X186169047Y-58007380D01*
X186169047Y-58007380D02*
X185930952Y-58007380D01*
X185930952Y-58007380D02*
X185788095Y-58055000D01*
X185502380Y-58007380D02*
X184930952Y-58007380D01*
X185216666Y-59007380D02*
X185216666Y-58007380D01*
X186894593Y-48664478D02*
X186187486Y-47957372D01*
X186187486Y-47957372D02*
X185918112Y-48226746D01*
X185918112Y-48226746D02*
X185884440Y-48327761D01*
X185884440Y-48327761D02*
X185884440Y-48395104D01*
X185884440Y-48395104D02*
X185918112Y-48496120D01*
X185918112Y-48496120D02*
X186019127Y-48597135D01*
X186019127Y-48597135D02*
X186120143Y-48630807D01*
X186120143Y-48630807D02*
X186187486Y-48630807D01*
X186187486Y-48630807D02*
X186288501Y-48597135D01*
X186288501Y-48597135D02*
X186557875Y-48327761D01*
X185581395Y-49236898D02*
X185514051Y-49371585D01*
X185514051Y-49371585D02*
X185514051Y-49438929D01*
X185514051Y-49438929D02*
X185547723Y-49539944D01*
X185547723Y-49539944D02*
X185648738Y-49640959D01*
X185648738Y-49640959D02*
X185749753Y-49674631D01*
X185749753Y-49674631D02*
X185817097Y-49674631D01*
X185817097Y-49674631D02*
X185918112Y-49640959D01*
X185918112Y-49640959D02*
X186187486Y-49371585D01*
X186187486Y-49371585D02*
X185480379Y-48664478D01*
X185480379Y-48664478D02*
X185244677Y-48900181D01*
X185244677Y-48900181D02*
X185211005Y-49001196D01*
X185211005Y-49001196D02*
X185211005Y-49068539D01*
X185211005Y-49068539D02*
X185244677Y-49169555D01*
X185244677Y-49169555D02*
X185312021Y-49236898D01*
X185312021Y-49236898D02*
X185413036Y-49270570D01*
X185413036Y-49270570D02*
X185480379Y-49270570D01*
X185480379Y-49270570D02*
X185581395Y-49236898D01*
X185581395Y-49236898D02*
X185817097Y-49001196D01*
X184436555Y-49708303D02*
X184773272Y-49371585D01*
X184773272Y-49371585D02*
X185143662Y-49674631D01*
X185143662Y-49674631D02*
X185076318Y-49674631D01*
X185076318Y-49674631D02*
X184975303Y-49708303D01*
X184975303Y-49708303D02*
X184806944Y-49876661D01*
X184806944Y-49876661D02*
X184773272Y-49977677D01*
X184773272Y-49977677D02*
X184773272Y-50045020D01*
X184773272Y-50045020D02*
X184806944Y-50146035D01*
X184806944Y-50146035D02*
X184975303Y-50314394D01*
X184975303Y-50314394D02*
X185076318Y-50348066D01*
X185076318Y-50348066D02*
X185143662Y-50348066D01*
X185143662Y-50348066D02*
X185244677Y-50314394D01*
X185244677Y-50314394D02*
X185413036Y-50146035D01*
X185413036Y-50146035D02*
X185446708Y-50045020D01*
X185446708Y-50045020D02*
X185446708Y-49977677D01*
X189084593Y-48764478D02*
X188377486Y-48057372D01*
X188377486Y-48057372D02*
X188108112Y-48326746D01*
X188108112Y-48326746D02*
X188074440Y-48427761D01*
X188074440Y-48427761D02*
X188074440Y-48495104D01*
X188074440Y-48495104D02*
X188108112Y-48596120D01*
X188108112Y-48596120D02*
X188209127Y-48697135D01*
X188209127Y-48697135D02*
X188310143Y-48730807D01*
X188310143Y-48730807D02*
X188377486Y-48730807D01*
X188377486Y-48730807D02*
X188478501Y-48697135D01*
X188478501Y-48697135D02*
X188747875Y-48427761D01*
X187771395Y-49336898D02*
X187704051Y-49471585D01*
X187704051Y-49471585D02*
X187704051Y-49538929D01*
X187704051Y-49538929D02*
X187737723Y-49639944D01*
X187737723Y-49639944D02*
X187838738Y-49740959D01*
X187838738Y-49740959D02*
X187939753Y-49774631D01*
X187939753Y-49774631D02*
X188007097Y-49774631D01*
X188007097Y-49774631D02*
X188108112Y-49740959D01*
X188108112Y-49740959D02*
X188377486Y-49471585D01*
X188377486Y-49471585D02*
X187670379Y-48764478D01*
X187670379Y-48764478D02*
X187434677Y-49000181D01*
X187434677Y-49000181D02*
X187401005Y-49101196D01*
X187401005Y-49101196D02*
X187401005Y-49168539D01*
X187401005Y-49168539D02*
X187434677Y-49269555D01*
X187434677Y-49269555D02*
X187502021Y-49336898D01*
X187502021Y-49336898D02*
X187603036Y-49370570D01*
X187603036Y-49370570D02*
X187670379Y-49370570D01*
X187670379Y-49370570D02*
X187771395Y-49336898D01*
X187771395Y-49336898D02*
X188007097Y-49101196D01*
X186895929Y-50010333D02*
X187367334Y-50481738D01*
X186794914Y-49572600D02*
X187468349Y-49909318D01*
X187468349Y-49909318D02*
X187030616Y-50347051D01*
X191274593Y-48714478D02*
X190567486Y-48007372D01*
X190567486Y-48007372D02*
X190298112Y-48276746D01*
X190298112Y-48276746D02*
X190264440Y-48377761D01*
X190264440Y-48377761D02*
X190264440Y-48445104D01*
X190264440Y-48445104D02*
X190298112Y-48546120D01*
X190298112Y-48546120D02*
X190399127Y-48647135D01*
X190399127Y-48647135D02*
X190500143Y-48680807D01*
X190500143Y-48680807D02*
X190567486Y-48680807D01*
X190567486Y-48680807D02*
X190668501Y-48647135D01*
X190668501Y-48647135D02*
X190937875Y-48377761D01*
X189961395Y-49286898D02*
X189894051Y-49421585D01*
X189894051Y-49421585D02*
X189894051Y-49488929D01*
X189894051Y-49488929D02*
X189927723Y-49589944D01*
X189927723Y-49589944D02*
X190028738Y-49690959D01*
X190028738Y-49690959D02*
X190129753Y-49724631D01*
X190129753Y-49724631D02*
X190197097Y-49724631D01*
X190197097Y-49724631D02*
X190298112Y-49690959D01*
X190298112Y-49690959D02*
X190567486Y-49421585D01*
X190567486Y-49421585D02*
X189860379Y-48714478D01*
X189860379Y-48714478D02*
X189624677Y-48950181D01*
X189624677Y-48950181D02*
X189591005Y-49051196D01*
X189591005Y-49051196D02*
X189591005Y-49118539D01*
X189591005Y-49118539D02*
X189624677Y-49219555D01*
X189624677Y-49219555D02*
X189692021Y-49286898D01*
X189692021Y-49286898D02*
X189793036Y-49320570D01*
X189793036Y-49320570D02*
X189860379Y-49320570D01*
X189860379Y-49320570D02*
X189961395Y-49286898D01*
X189961395Y-49286898D02*
X190197097Y-49051196D01*
X189220616Y-49354242D02*
X188782883Y-49791974D01*
X188782883Y-49791974D02*
X189287960Y-49825646D01*
X189287960Y-49825646D02*
X189186944Y-49926661D01*
X189186944Y-49926661D02*
X189153272Y-50027677D01*
X189153272Y-50027677D02*
X189153272Y-50095020D01*
X189153272Y-50095020D02*
X189186944Y-50196035D01*
X189186944Y-50196035D02*
X189355303Y-50364394D01*
X189355303Y-50364394D02*
X189456318Y-50398066D01*
X189456318Y-50398066D02*
X189523662Y-50398066D01*
X189523662Y-50398066D02*
X189624677Y-50364394D01*
X189624677Y-50364394D02*
X189826708Y-50162364D01*
X189826708Y-50162364D02*
X189860379Y-50061348D01*
X189860379Y-50061348D02*
X189860379Y-49994005D01*
X193464593Y-48839478D02*
X192757486Y-48132372D01*
X192757486Y-48132372D02*
X192488112Y-48401746D01*
X192488112Y-48401746D02*
X192454440Y-48502761D01*
X192454440Y-48502761D02*
X192454440Y-48570104D01*
X192454440Y-48570104D02*
X192488112Y-48671120D01*
X192488112Y-48671120D02*
X192589127Y-48772135D01*
X192589127Y-48772135D02*
X192690143Y-48805807D01*
X192690143Y-48805807D02*
X192757486Y-48805807D01*
X192757486Y-48805807D02*
X192858501Y-48772135D01*
X192858501Y-48772135D02*
X193127875Y-48502761D01*
X192151395Y-49411898D02*
X192084051Y-49546585D01*
X192084051Y-49546585D02*
X192084051Y-49613929D01*
X192084051Y-49613929D02*
X192117723Y-49714944D01*
X192117723Y-49714944D02*
X192218738Y-49815959D01*
X192218738Y-49815959D02*
X192319753Y-49849631D01*
X192319753Y-49849631D02*
X192387097Y-49849631D01*
X192387097Y-49849631D02*
X192488112Y-49815959D01*
X192488112Y-49815959D02*
X192757486Y-49546585D01*
X192757486Y-49546585D02*
X192050379Y-48839478D01*
X192050379Y-48839478D02*
X191814677Y-49075181D01*
X191814677Y-49075181D02*
X191781005Y-49176196D01*
X191781005Y-49176196D02*
X191781005Y-49243539D01*
X191781005Y-49243539D02*
X191814677Y-49344555D01*
X191814677Y-49344555D02*
X191882021Y-49411898D01*
X191882021Y-49411898D02*
X191983036Y-49445570D01*
X191983036Y-49445570D02*
X192050379Y-49445570D01*
X192050379Y-49445570D02*
X192151395Y-49411898D01*
X192151395Y-49411898D02*
X192387097Y-49176196D01*
X191444288Y-49580257D02*
X191376944Y-49580257D01*
X191376944Y-49580257D02*
X191275929Y-49613929D01*
X191275929Y-49613929D02*
X191107570Y-49782287D01*
X191107570Y-49782287D02*
X191073898Y-49883303D01*
X191073898Y-49883303D02*
X191073898Y-49950646D01*
X191073898Y-49950646D02*
X191107570Y-50051661D01*
X191107570Y-50051661D02*
X191174914Y-50119005D01*
X191174914Y-50119005D02*
X191309601Y-50186348D01*
X191309601Y-50186348D02*
X192117723Y-50186348D01*
X192117723Y-50186348D02*
X191679990Y-50624081D01*
X195654593Y-48664478D02*
X194947486Y-47957372D01*
X194947486Y-47957372D02*
X194678112Y-48226746D01*
X194678112Y-48226746D02*
X194644440Y-48327761D01*
X194644440Y-48327761D02*
X194644440Y-48395104D01*
X194644440Y-48395104D02*
X194678112Y-48496120D01*
X194678112Y-48496120D02*
X194779127Y-48597135D01*
X194779127Y-48597135D02*
X194880143Y-48630807D01*
X194880143Y-48630807D02*
X194947486Y-48630807D01*
X194947486Y-48630807D02*
X195048501Y-48597135D01*
X195048501Y-48597135D02*
X195317875Y-48327761D01*
X194341395Y-49236898D02*
X194274051Y-49371585D01*
X194274051Y-49371585D02*
X194274051Y-49438929D01*
X194274051Y-49438929D02*
X194307723Y-49539944D01*
X194307723Y-49539944D02*
X194408738Y-49640959D01*
X194408738Y-49640959D02*
X194509753Y-49674631D01*
X194509753Y-49674631D02*
X194577097Y-49674631D01*
X194577097Y-49674631D02*
X194678112Y-49640959D01*
X194678112Y-49640959D02*
X194947486Y-49371585D01*
X194947486Y-49371585D02*
X194240379Y-48664478D01*
X194240379Y-48664478D02*
X194004677Y-48900181D01*
X194004677Y-48900181D02*
X193971005Y-49001196D01*
X193971005Y-49001196D02*
X193971005Y-49068539D01*
X193971005Y-49068539D02*
X194004677Y-49169555D01*
X194004677Y-49169555D02*
X194072021Y-49236898D01*
X194072021Y-49236898D02*
X194173036Y-49270570D01*
X194173036Y-49270570D02*
X194240379Y-49270570D01*
X194240379Y-49270570D02*
X194341395Y-49236898D01*
X194341395Y-49236898D02*
X194577097Y-49001196D01*
X193869990Y-50449081D02*
X194274051Y-50045020D01*
X194072021Y-50247051D02*
X193364914Y-49539944D01*
X193364914Y-49539944D02*
X193533272Y-49573616D01*
X193533272Y-49573616D02*
X193667960Y-49573616D01*
X193667960Y-49573616D02*
X193768975Y-49539944D01*
X197844593Y-48664478D02*
X197137486Y-47957372D01*
X197137486Y-47957372D02*
X196868112Y-48226746D01*
X196868112Y-48226746D02*
X196834440Y-48327761D01*
X196834440Y-48327761D02*
X196834440Y-48395104D01*
X196834440Y-48395104D02*
X196868112Y-48496120D01*
X196868112Y-48496120D02*
X196969127Y-48597135D01*
X196969127Y-48597135D02*
X197070143Y-48630807D01*
X197070143Y-48630807D02*
X197137486Y-48630807D01*
X197137486Y-48630807D02*
X197238501Y-48597135D01*
X197238501Y-48597135D02*
X197507875Y-48327761D01*
X196531395Y-49236898D02*
X196464051Y-49371585D01*
X196464051Y-49371585D02*
X196464051Y-49438929D01*
X196464051Y-49438929D02*
X196497723Y-49539944D01*
X196497723Y-49539944D02*
X196598738Y-49640959D01*
X196598738Y-49640959D02*
X196699753Y-49674631D01*
X196699753Y-49674631D02*
X196767097Y-49674631D01*
X196767097Y-49674631D02*
X196868112Y-49640959D01*
X196868112Y-49640959D02*
X197137486Y-49371585D01*
X197137486Y-49371585D02*
X196430379Y-48664478D01*
X196430379Y-48664478D02*
X196194677Y-48900181D01*
X196194677Y-48900181D02*
X196161005Y-49001196D01*
X196161005Y-49001196D02*
X196161005Y-49068539D01*
X196161005Y-49068539D02*
X196194677Y-49169555D01*
X196194677Y-49169555D02*
X196262021Y-49236898D01*
X196262021Y-49236898D02*
X196363036Y-49270570D01*
X196363036Y-49270570D02*
X196430379Y-49270570D01*
X196430379Y-49270570D02*
X196531395Y-49236898D01*
X196531395Y-49236898D02*
X196767097Y-49001196D01*
X195588585Y-49506272D02*
X195521242Y-49573616D01*
X195521242Y-49573616D02*
X195487570Y-49674631D01*
X195487570Y-49674631D02*
X195487570Y-49741974D01*
X195487570Y-49741974D02*
X195521242Y-49842990D01*
X195521242Y-49842990D02*
X195622257Y-50011348D01*
X195622257Y-50011348D02*
X195790616Y-50179707D01*
X195790616Y-50179707D02*
X195958975Y-50280722D01*
X195958975Y-50280722D02*
X196059990Y-50314394D01*
X196059990Y-50314394D02*
X196127334Y-50314394D01*
X196127334Y-50314394D02*
X196228349Y-50280722D01*
X196228349Y-50280722D02*
X196295692Y-50213379D01*
X196295692Y-50213379D02*
X196329364Y-50112364D01*
X196329364Y-50112364D02*
X196329364Y-50045020D01*
X196329364Y-50045020D02*
X196295692Y-49944005D01*
X196295692Y-49944005D02*
X196194677Y-49775646D01*
X196194677Y-49775646D02*
X196026318Y-49607287D01*
X196026318Y-49607287D02*
X195857960Y-49506272D01*
X195857960Y-49506272D02*
X195756944Y-49472600D01*
X195756944Y-49472600D02*
X195689601Y-49472600D01*
X195689601Y-49472600D02*
X195588585Y-49506272D01*
X196224405Y-55580000D02*
X196319643Y-55532380D01*
X196319643Y-55532380D02*
X196462500Y-55532380D01*
X196462500Y-55532380D02*
X196605357Y-55580000D01*
X196605357Y-55580000D02*
X196700595Y-55675238D01*
X196700595Y-55675238D02*
X196748214Y-55770476D01*
X196748214Y-55770476D02*
X196795833Y-55960952D01*
X196795833Y-55960952D02*
X196795833Y-56103809D01*
X196795833Y-56103809D02*
X196748214Y-56294285D01*
X196748214Y-56294285D02*
X196700595Y-56389523D01*
X196700595Y-56389523D02*
X196605357Y-56484761D01*
X196605357Y-56484761D02*
X196462500Y-56532380D01*
X196462500Y-56532380D02*
X196367262Y-56532380D01*
X196367262Y-56532380D02*
X196224405Y-56484761D01*
X196224405Y-56484761D02*
X196176786Y-56437142D01*
X196176786Y-56437142D02*
X196176786Y-56103809D01*
X196176786Y-56103809D02*
X196367262Y-56103809D01*
X195748214Y-56532380D02*
X195748214Y-55532380D01*
X195748214Y-55532380D02*
X195176786Y-56532380D01*
X195176786Y-56532380D02*
X195176786Y-55532380D01*
X194700595Y-56532380D02*
X194700595Y-55532380D01*
X194700595Y-55532380D02*
X194462500Y-55532380D01*
X194462500Y-55532380D02*
X194319643Y-55580000D01*
X194319643Y-55580000D02*
X194224405Y-55675238D01*
X194224405Y-55675238D02*
X194176786Y-55770476D01*
X194176786Y-55770476D02*
X194129167Y-55960952D01*
X194129167Y-55960952D02*
X194129167Y-56103809D01*
X194129167Y-56103809D02*
X194176786Y-56294285D01*
X194176786Y-56294285D02*
X194224405Y-56389523D01*
X194224405Y-56389523D02*
X194319643Y-56484761D01*
X194319643Y-56484761D02*
X194462500Y-56532380D01*
X194462500Y-56532380D02*
X194700595Y-56532380D01*
X189788690Y-97932380D02*
X189169643Y-97932380D01*
X189169643Y-97932380D02*
X189502976Y-98313333D01*
X189502976Y-98313333D02*
X189360119Y-98313333D01*
X189360119Y-98313333D02*
X189264881Y-98360952D01*
X189264881Y-98360952D02*
X189217262Y-98408571D01*
X189217262Y-98408571D02*
X189169643Y-98503809D01*
X189169643Y-98503809D02*
X189169643Y-98741904D01*
X189169643Y-98741904D02*
X189217262Y-98837142D01*
X189217262Y-98837142D02*
X189264881Y-98884761D01*
X189264881Y-98884761D02*
X189360119Y-98932380D01*
X189360119Y-98932380D02*
X189645833Y-98932380D01*
X189645833Y-98932380D02*
X189741071Y-98884761D01*
X189741071Y-98884761D02*
X189788690Y-98837142D01*
X188741071Y-98837142D02*
X188693452Y-98884761D01*
X188693452Y-98884761D02*
X188741071Y-98932380D01*
X188741071Y-98932380D02*
X188788690Y-98884761D01*
X188788690Y-98884761D02*
X188741071Y-98837142D01*
X188741071Y-98837142D02*
X188741071Y-98932380D01*
X188360119Y-97932380D02*
X187741072Y-97932380D01*
X187741072Y-97932380D02*
X188074405Y-98313333D01*
X188074405Y-98313333D02*
X187931548Y-98313333D01*
X187931548Y-98313333D02*
X187836310Y-98360952D01*
X187836310Y-98360952D02*
X187788691Y-98408571D01*
X187788691Y-98408571D02*
X187741072Y-98503809D01*
X187741072Y-98503809D02*
X187741072Y-98741904D01*
X187741072Y-98741904D02*
X187788691Y-98837142D01*
X187788691Y-98837142D02*
X187836310Y-98884761D01*
X187836310Y-98884761D02*
X187931548Y-98932380D01*
X187931548Y-98932380D02*
X188217262Y-98932380D01*
X188217262Y-98932380D02*
X188312500Y-98884761D01*
X188312500Y-98884761D02*
X188360119Y-98837142D01*
X187455357Y-97932380D02*
X187122024Y-98932380D01*
X187122024Y-98932380D02*
X186788691Y-97932380D01*
X194774405Y-97980000D02*
X194869643Y-97932380D01*
X194869643Y-97932380D02*
X195012500Y-97932380D01*
X195012500Y-97932380D02*
X195155357Y-97980000D01*
X195155357Y-97980000D02*
X195250595Y-98075238D01*
X195250595Y-98075238D02*
X195298214Y-98170476D01*
X195298214Y-98170476D02*
X195345833Y-98360952D01*
X195345833Y-98360952D02*
X195345833Y-98503809D01*
X195345833Y-98503809D02*
X195298214Y-98694285D01*
X195298214Y-98694285D02*
X195250595Y-98789523D01*
X195250595Y-98789523D02*
X195155357Y-98884761D01*
X195155357Y-98884761D02*
X195012500Y-98932380D01*
X195012500Y-98932380D02*
X194917262Y-98932380D01*
X194917262Y-98932380D02*
X194774405Y-98884761D01*
X194774405Y-98884761D02*
X194726786Y-98837142D01*
X194726786Y-98837142D02*
X194726786Y-98503809D01*
X194726786Y-98503809D02*
X194917262Y-98503809D01*
X194298214Y-98932380D02*
X194298214Y-97932380D01*
X194298214Y-97932380D02*
X193726786Y-98932380D01*
X193726786Y-98932380D02*
X193726786Y-97932380D01*
X193250595Y-98932380D02*
X193250595Y-97932380D01*
X193250595Y-97932380D02*
X193012500Y-97932380D01*
X193012500Y-97932380D02*
X192869643Y-97980000D01*
X192869643Y-97980000D02*
X192774405Y-98075238D01*
X192774405Y-98075238D02*
X192726786Y-98170476D01*
X192726786Y-98170476D02*
X192679167Y-98360952D01*
X192679167Y-98360952D02*
X192679167Y-98503809D01*
X192679167Y-98503809D02*
X192726786Y-98694285D01*
X192726786Y-98694285D02*
X192774405Y-98789523D01*
X192774405Y-98789523D02*
X192869643Y-98884761D01*
X192869643Y-98884761D02*
X193012500Y-98932380D01*
X193012500Y-98932380D02*
X193250595Y-98932380D01*
%TO.C,SW1*%
X200108332Y-65169761D02*
X199965475Y-65217380D01*
X199965475Y-65217380D02*
X199727380Y-65217380D01*
X199727380Y-65217380D02*
X199632142Y-65169761D01*
X199632142Y-65169761D02*
X199584523Y-65122142D01*
X199584523Y-65122142D02*
X199536904Y-65026904D01*
X199536904Y-65026904D02*
X199536904Y-64931666D01*
X199536904Y-64931666D02*
X199584523Y-64836428D01*
X199584523Y-64836428D02*
X199632142Y-64788809D01*
X199632142Y-64788809D02*
X199727380Y-64741190D01*
X199727380Y-64741190D02*
X199917856Y-64693571D01*
X199917856Y-64693571D02*
X200013094Y-64645952D01*
X200013094Y-64645952D02*
X200060713Y-64598333D01*
X200060713Y-64598333D02*
X200108332Y-64503095D01*
X200108332Y-64503095D02*
X200108332Y-64407857D01*
X200108332Y-64407857D02*
X200060713Y-64312619D01*
X200060713Y-64312619D02*
X200013094Y-64265000D01*
X200013094Y-64265000D02*
X199917856Y-64217380D01*
X199917856Y-64217380D02*
X199679761Y-64217380D01*
X199679761Y-64217380D02*
X199536904Y-64265000D01*
X199203570Y-64217380D02*
X198965475Y-65217380D01*
X198965475Y-65217380D02*
X198774999Y-64503095D01*
X198774999Y-64503095D02*
X198584523Y-65217380D01*
X198584523Y-65217380D02*
X198346428Y-64217380D01*
X197441666Y-65217380D02*
X198013094Y-65217380D01*
X197727380Y-65217380D02*
X197727380Y-64217380D01*
X197727380Y-64217380D02*
X197822618Y-64360238D01*
X197822618Y-64360238D02*
X197917856Y-64455476D01*
X197917856Y-64455476D02*
X198013094Y-64503095D01*
%TO.C,D6*%
X202338094Y-51167380D02*
X202338094Y-50167380D01*
X202338094Y-50167380D02*
X202099999Y-50167380D01*
X202099999Y-50167380D02*
X201957142Y-50215000D01*
X201957142Y-50215000D02*
X201861904Y-50310238D01*
X201861904Y-50310238D02*
X201814285Y-50405476D01*
X201814285Y-50405476D02*
X201766666Y-50595952D01*
X201766666Y-50595952D02*
X201766666Y-50738809D01*
X201766666Y-50738809D02*
X201814285Y-50929285D01*
X201814285Y-50929285D02*
X201861904Y-51024523D01*
X201861904Y-51024523D02*
X201957142Y-51119761D01*
X201957142Y-51119761D02*
X202099999Y-51167380D01*
X202099999Y-51167380D02*
X202338094Y-51167380D01*
X200909523Y-50167380D02*
X201099999Y-50167380D01*
X201099999Y-50167380D02*
X201195237Y-50215000D01*
X201195237Y-50215000D02*
X201242856Y-50262619D01*
X201242856Y-50262619D02*
X201338094Y-50405476D01*
X201338094Y-50405476D02*
X201385713Y-50595952D01*
X201385713Y-50595952D02*
X201385713Y-50976904D01*
X201385713Y-50976904D02*
X201338094Y-51072142D01*
X201338094Y-51072142D02*
X201290475Y-51119761D01*
X201290475Y-51119761D02*
X201195237Y-51167380D01*
X201195237Y-51167380D02*
X201004761Y-51167380D01*
X201004761Y-51167380D02*
X200909523Y-51119761D01*
X200909523Y-51119761D02*
X200861904Y-51072142D01*
X200861904Y-51072142D02*
X200814285Y-50976904D01*
X200814285Y-50976904D02*
X200814285Y-50738809D01*
X200814285Y-50738809D02*
X200861904Y-50643571D01*
X200861904Y-50643571D02*
X200909523Y-50595952D01*
X200909523Y-50595952D02*
X201004761Y-50548333D01*
X201004761Y-50548333D02*
X201195237Y-50548333D01*
X201195237Y-50548333D02*
X201290475Y-50595952D01*
X201290475Y-50595952D02*
X201338094Y-50643571D01*
X201338094Y-50643571D02*
X201385713Y-50738809D01*
%TO.C,Attiny85*%
X187531666Y-51691666D02*
X187531666Y-52167856D01*
X187817380Y-51596428D02*
X186817380Y-51929761D01*
X186817380Y-51929761D02*
X187817380Y-52263094D01*
X187150714Y-52453571D02*
X187150714Y-52834523D01*
X186817380Y-52596428D02*
X187674523Y-52596428D01*
X187674523Y-52596428D02*
X187769761Y-52644047D01*
X187769761Y-52644047D02*
X187817380Y-52739285D01*
X187817380Y-52739285D02*
X187817380Y-52834523D01*
X187150714Y-53025000D02*
X187150714Y-53405952D01*
X186817380Y-53167857D02*
X187674523Y-53167857D01*
X187674523Y-53167857D02*
X187769761Y-53215476D01*
X187769761Y-53215476D02*
X187817380Y-53310714D01*
X187817380Y-53310714D02*
X187817380Y-53405952D01*
X187817380Y-53739286D02*
X187150714Y-53739286D01*
X186817380Y-53739286D02*
X186865000Y-53691667D01*
X186865000Y-53691667D02*
X186912619Y-53739286D01*
X186912619Y-53739286D02*
X186865000Y-53786905D01*
X186865000Y-53786905D02*
X186817380Y-53739286D01*
X186817380Y-53739286D02*
X186912619Y-53739286D01*
X187150714Y-54215476D02*
X187817380Y-54215476D01*
X187245952Y-54215476D02*
X187198333Y-54263095D01*
X187198333Y-54263095D02*
X187150714Y-54358333D01*
X187150714Y-54358333D02*
X187150714Y-54501190D01*
X187150714Y-54501190D02*
X187198333Y-54596428D01*
X187198333Y-54596428D02*
X187293571Y-54644047D01*
X187293571Y-54644047D02*
X187817380Y-54644047D01*
X187150714Y-55025000D02*
X187817380Y-55263095D01*
X187150714Y-55501190D02*
X187817380Y-55263095D01*
X187817380Y-55263095D02*
X188055476Y-55167857D01*
X188055476Y-55167857D02*
X188103095Y-55120238D01*
X188103095Y-55120238D02*
X188150714Y-55025000D01*
X187245952Y-56025000D02*
X187198333Y-55929762D01*
X187198333Y-55929762D02*
X187150714Y-55882143D01*
X187150714Y-55882143D02*
X187055476Y-55834524D01*
X187055476Y-55834524D02*
X187007857Y-55834524D01*
X187007857Y-55834524D02*
X186912619Y-55882143D01*
X186912619Y-55882143D02*
X186865000Y-55929762D01*
X186865000Y-55929762D02*
X186817380Y-56025000D01*
X186817380Y-56025000D02*
X186817380Y-56215476D01*
X186817380Y-56215476D02*
X186865000Y-56310714D01*
X186865000Y-56310714D02*
X186912619Y-56358333D01*
X186912619Y-56358333D02*
X187007857Y-56405952D01*
X187007857Y-56405952D02*
X187055476Y-56405952D01*
X187055476Y-56405952D02*
X187150714Y-56358333D01*
X187150714Y-56358333D02*
X187198333Y-56310714D01*
X187198333Y-56310714D02*
X187245952Y-56215476D01*
X187245952Y-56215476D02*
X187245952Y-56025000D01*
X187245952Y-56025000D02*
X187293571Y-55929762D01*
X187293571Y-55929762D02*
X187341190Y-55882143D01*
X187341190Y-55882143D02*
X187436428Y-55834524D01*
X187436428Y-55834524D02*
X187626904Y-55834524D01*
X187626904Y-55834524D02*
X187722142Y-55882143D01*
X187722142Y-55882143D02*
X187769761Y-55929762D01*
X187769761Y-55929762D02*
X187817380Y-56025000D01*
X187817380Y-56025000D02*
X187817380Y-56215476D01*
X187817380Y-56215476D02*
X187769761Y-56310714D01*
X187769761Y-56310714D02*
X187722142Y-56358333D01*
X187722142Y-56358333D02*
X187626904Y-56405952D01*
X187626904Y-56405952D02*
X187436428Y-56405952D01*
X187436428Y-56405952D02*
X187341190Y-56358333D01*
X187341190Y-56358333D02*
X187293571Y-56310714D01*
X187293571Y-56310714D02*
X187245952Y-56215476D01*
X186817380Y-57310714D02*
X186817380Y-56834524D01*
X186817380Y-56834524D02*
X187293571Y-56786905D01*
X187293571Y-56786905D02*
X187245952Y-56834524D01*
X187245952Y-56834524D02*
X187198333Y-56929762D01*
X187198333Y-56929762D02*
X187198333Y-57167857D01*
X187198333Y-57167857D02*
X187245952Y-57263095D01*
X187245952Y-57263095D02*
X187293571Y-57310714D01*
X187293571Y-57310714D02*
X187388809Y-57358333D01*
X187388809Y-57358333D02*
X187626904Y-57358333D01*
X187626904Y-57358333D02*
X187722142Y-57310714D01*
X187722142Y-57310714D02*
X187769761Y-57263095D01*
X187769761Y-57263095D02*
X187817380Y-57167857D01*
X187817380Y-57167857D02*
X187817380Y-56929762D01*
X187817380Y-56929762D02*
X187769761Y-56834524D01*
X187769761Y-56834524D02*
X187722142Y-56786905D01*
%TO.C,R2*%
X189242380Y-80508333D02*
X188766190Y-80175000D01*
X189242380Y-79936905D02*
X188242380Y-79936905D01*
X188242380Y-79936905D02*
X188242380Y-80317857D01*
X188242380Y-80317857D02*
X188290000Y-80413095D01*
X188290000Y-80413095D02*
X188337619Y-80460714D01*
X188337619Y-80460714D02*
X188432857Y-80508333D01*
X188432857Y-80508333D02*
X188575714Y-80508333D01*
X188575714Y-80508333D02*
X188670952Y-80460714D01*
X188670952Y-80460714D02*
X188718571Y-80413095D01*
X188718571Y-80413095D02*
X188766190Y-80317857D01*
X188766190Y-80317857D02*
X188766190Y-79936905D01*
X188337619Y-80889286D02*
X188290000Y-80936905D01*
X188290000Y-80936905D02*
X188242380Y-81032143D01*
X188242380Y-81032143D02*
X188242380Y-81270238D01*
X188242380Y-81270238D02*
X188290000Y-81365476D01*
X188290000Y-81365476D02*
X188337619Y-81413095D01*
X188337619Y-81413095D02*
X188432857Y-81460714D01*
X188432857Y-81460714D02*
X188528095Y-81460714D01*
X188528095Y-81460714D02*
X188670952Y-81413095D01*
X188670952Y-81413095D02*
X189242380Y-80841667D01*
X189242380Y-80841667D02*
X189242380Y-81460714D01*
%TO.C,D3*%
X181313094Y-60092380D02*
X181313094Y-59092380D01*
X181313094Y-59092380D02*
X181074999Y-59092380D01*
X181074999Y-59092380D02*
X180932142Y-59140000D01*
X180932142Y-59140000D02*
X180836904Y-59235238D01*
X180836904Y-59235238D02*
X180789285Y-59330476D01*
X180789285Y-59330476D02*
X180741666Y-59520952D01*
X180741666Y-59520952D02*
X180741666Y-59663809D01*
X180741666Y-59663809D02*
X180789285Y-59854285D01*
X180789285Y-59854285D02*
X180836904Y-59949523D01*
X180836904Y-59949523D02*
X180932142Y-60044761D01*
X180932142Y-60044761D02*
X181074999Y-60092380D01*
X181074999Y-60092380D02*
X181313094Y-60092380D01*
X180408332Y-59092380D02*
X179789285Y-59092380D01*
X179789285Y-59092380D02*
X180122618Y-59473333D01*
X180122618Y-59473333D02*
X179979761Y-59473333D01*
X179979761Y-59473333D02*
X179884523Y-59520952D01*
X179884523Y-59520952D02*
X179836904Y-59568571D01*
X179836904Y-59568571D02*
X179789285Y-59663809D01*
X179789285Y-59663809D02*
X179789285Y-59901904D01*
X179789285Y-59901904D02*
X179836904Y-59997142D01*
X179836904Y-59997142D02*
X179884523Y-60044761D01*
X179884523Y-60044761D02*
X179979761Y-60092380D01*
X179979761Y-60092380D02*
X180265475Y-60092380D01*
X180265475Y-60092380D02*
X180360713Y-60044761D01*
X180360713Y-60044761D02*
X180408332Y-59997142D01*
%TO.C,SW3*%
X192833332Y-75194761D02*
X192690475Y-75242380D01*
X192690475Y-75242380D02*
X192452380Y-75242380D01*
X192452380Y-75242380D02*
X192357142Y-75194761D01*
X192357142Y-75194761D02*
X192309523Y-75147142D01*
X192309523Y-75147142D02*
X192261904Y-75051904D01*
X192261904Y-75051904D02*
X192261904Y-74956666D01*
X192261904Y-74956666D02*
X192309523Y-74861428D01*
X192309523Y-74861428D02*
X192357142Y-74813809D01*
X192357142Y-74813809D02*
X192452380Y-74766190D01*
X192452380Y-74766190D02*
X192642856Y-74718571D01*
X192642856Y-74718571D02*
X192738094Y-74670952D01*
X192738094Y-74670952D02*
X192785713Y-74623333D01*
X192785713Y-74623333D02*
X192833332Y-74528095D01*
X192833332Y-74528095D02*
X192833332Y-74432857D01*
X192833332Y-74432857D02*
X192785713Y-74337619D01*
X192785713Y-74337619D02*
X192738094Y-74290000D01*
X192738094Y-74290000D02*
X192642856Y-74242380D01*
X192642856Y-74242380D02*
X192404761Y-74242380D01*
X192404761Y-74242380D02*
X192261904Y-74290000D01*
X191928570Y-74242380D02*
X191690475Y-75242380D01*
X191690475Y-75242380D02*
X191499999Y-74528095D01*
X191499999Y-74528095D02*
X191309523Y-75242380D01*
X191309523Y-75242380D02*
X191071428Y-74242380D01*
X190785713Y-74242380D02*
X190166666Y-74242380D01*
X190166666Y-74242380D02*
X190499999Y-74623333D01*
X190499999Y-74623333D02*
X190357142Y-74623333D01*
X190357142Y-74623333D02*
X190261904Y-74670952D01*
X190261904Y-74670952D02*
X190214285Y-74718571D01*
X190214285Y-74718571D02*
X190166666Y-74813809D01*
X190166666Y-74813809D02*
X190166666Y-75051904D01*
X190166666Y-75051904D02*
X190214285Y-75147142D01*
X190214285Y-75147142D02*
X190261904Y-75194761D01*
X190261904Y-75194761D02*
X190357142Y-75242380D01*
X190357142Y-75242380D02*
X190642856Y-75242380D01*
X190642856Y-75242380D02*
X190738094Y-75194761D01*
X190738094Y-75194761D02*
X190785713Y-75147142D01*
%TO.C,D4*%
X181338094Y-51022380D02*
X181338094Y-50022380D01*
X181338094Y-50022380D02*
X181099999Y-50022380D01*
X181099999Y-50022380D02*
X180957142Y-50070000D01*
X180957142Y-50070000D02*
X180861904Y-50165238D01*
X180861904Y-50165238D02*
X180814285Y-50260476D01*
X180814285Y-50260476D02*
X180766666Y-50450952D01*
X180766666Y-50450952D02*
X180766666Y-50593809D01*
X180766666Y-50593809D02*
X180814285Y-50784285D01*
X180814285Y-50784285D02*
X180861904Y-50879523D01*
X180861904Y-50879523D02*
X180957142Y-50974761D01*
X180957142Y-50974761D02*
X181099999Y-51022380D01*
X181099999Y-51022380D02*
X181338094Y-51022380D01*
X179909523Y-50355714D02*
X179909523Y-51022380D01*
X180147618Y-49974761D02*
X180385713Y-50689047D01*
X180385713Y-50689047D02*
X179766666Y-50689047D01*
%TO.C,D5*%
X202413094Y-60252380D02*
X202413094Y-59252380D01*
X202413094Y-59252380D02*
X202174999Y-59252380D01*
X202174999Y-59252380D02*
X202032142Y-59300000D01*
X202032142Y-59300000D02*
X201936904Y-59395238D01*
X201936904Y-59395238D02*
X201889285Y-59490476D01*
X201889285Y-59490476D02*
X201841666Y-59680952D01*
X201841666Y-59680952D02*
X201841666Y-59823809D01*
X201841666Y-59823809D02*
X201889285Y-60014285D01*
X201889285Y-60014285D02*
X201936904Y-60109523D01*
X201936904Y-60109523D02*
X202032142Y-60204761D01*
X202032142Y-60204761D02*
X202174999Y-60252380D01*
X202174999Y-60252380D02*
X202413094Y-60252380D01*
X200936904Y-59252380D02*
X201413094Y-59252380D01*
X201413094Y-59252380D02*
X201460713Y-59728571D01*
X201460713Y-59728571D02*
X201413094Y-59680952D01*
X201413094Y-59680952D02*
X201317856Y-59633333D01*
X201317856Y-59633333D02*
X201079761Y-59633333D01*
X201079761Y-59633333D02*
X200984523Y-59680952D01*
X200984523Y-59680952D02*
X200936904Y-59728571D01*
X200936904Y-59728571D02*
X200889285Y-59823809D01*
X200889285Y-59823809D02*
X200889285Y-60061904D01*
X200889285Y-60061904D02*
X200936904Y-60157142D01*
X200936904Y-60157142D02*
X200984523Y-60204761D01*
X200984523Y-60204761D02*
X201079761Y-60252380D01*
X201079761Y-60252380D02*
X201317856Y-60252380D01*
X201317856Y-60252380D02*
X201413094Y-60204761D01*
X201413094Y-60204761D02*
X201460713Y-60157142D01*
%TO.C,R1*%
X193642380Y-83358333D02*
X193166190Y-83025000D01*
X193642380Y-82786905D02*
X192642380Y-82786905D01*
X192642380Y-82786905D02*
X192642380Y-83167857D01*
X192642380Y-83167857D02*
X192690000Y-83263095D01*
X192690000Y-83263095D02*
X192737619Y-83310714D01*
X192737619Y-83310714D02*
X192832857Y-83358333D01*
X192832857Y-83358333D02*
X192975714Y-83358333D01*
X192975714Y-83358333D02*
X193070952Y-83310714D01*
X193070952Y-83310714D02*
X193118571Y-83263095D01*
X193118571Y-83263095D02*
X193166190Y-83167857D01*
X193166190Y-83167857D02*
X193166190Y-82786905D01*
X193642380Y-84310714D02*
X193642380Y-83739286D01*
X193642380Y-84025000D02*
X192642380Y-84025000D01*
X192642380Y-84025000D02*
X192785238Y-83929762D01*
X192785238Y-83929762D02*
X192880476Y-83834524D01*
X192880476Y-83834524D02*
X192928095Y-83739286D01*
%TO.C,SW2*%
X184583332Y-65269761D02*
X184440475Y-65317380D01*
X184440475Y-65317380D02*
X184202380Y-65317380D01*
X184202380Y-65317380D02*
X184107142Y-65269761D01*
X184107142Y-65269761D02*
X184059523Y-65222142D01*
X184059523Y-65222142D02*
X184011904Y-65126904D01*
X184011904Y-65126904D02*
X184011904Y-65031666D01*
X184011904Y-65031666D02*
X184059523Y-64936428D01*
X184059523Y-64936428D02*
X184107142Y-64888809D01*
X184107142Y-64888809D02*
X184202380Y-64841190D01*
X184202380Y-64841190D02*
X184392856Y-64793571D01*
X184392856Y-64793571D02*
X184488094Y-64745952D01*
X184488094Y-64745952D02*
X184535713Y-64698333D01*
X184535713Y-64698333D02*
X184583332Y-64603095D01*
X184583332Y-64603095D02*
X184583332Y-64507857D01*
X184583332Y-64507857D02*
X184535713Y-64412619D01*
X184535713Y-64412619D02*
X184488094Y-64365000D01*
X184488094Y-64365000D02*
X184392856Y-64317380D01*
X184392856Y-64317380D02*
X184154761Y-64317380D01*
X184154761Y-64317380D02*
X184011904Y-64365000D01*
X183678570Y-64317380D02*
X183440475Y-65317380D01*
X183440475Y-65317380D02*
X183249999Y-64603095D01*
X183249999Y-64603095D02*
X183059523Y-65317380D01*
X183059523Y-65317380D02*
X182821428Y-64317380D01*
X182488094Y-64412619D02*
X182440475Y-64365000D01*
X182440475Y-64365000D02*
X182345237Y-64317380D01*
X182345237Y-64317380D02*
X182107142Y-64317380D01*
X182107142Y-64317380D02*
X182011904Y-64365000D01*
X182011904Y-64365000D02*
X181964285Y-64412619D01*
X181964285Y-64412619D02*
X181916666Y-64507857D01*
X181916666Y-64507857D02*
X181916666Y-64603095D01*
X181916666Y-64603095D02*
X181964285Y-64745952D01*
X181964285Y-64745952D02*
X182535713Y-65317380D01*
X182535713Y-65317380D02*
X181916666Y-65317380D01*
%TO.C,D1*%
X192038094Y-64242380D02*
X192038094Y-63242380D01*
X192038094Y-63242380D02*
X191799999Y-63242380D01*
X191799999Y-63242380D02*
X191657142Y-63290000D01*
X191657142Y-63290000D02*
X191561904Y-63385238D01*
X191561904Y-63385238D02*
X191514285Y-63480476D01*
X191514285Y-63480476D02*
X191466666Y-63670952D01*
X191466666Y-63670952D02*
X191466666Y-63813809D01*
X191466666Y-63813809D02*
X191514285Y-64004285D01*
X191514285Y-64004285D02*
X191561904Y-64099523D01*
X191561904Y-64099523D02*
X191657142Y-64194761D01*
X191657142Y-64194761D02*
X191799999Y-64242380D01*
X191799999Y-64242380D02*
X192038094Y-64242380D01*
X190514285Y-64242380D02*
X191085713Y-64242380D01*
X190799999Y-64242380D02*
X190799999Y-63242380D01*
X190799999Y-63242380D02*
X190895237Y-63385238D01*
X190895237Y-63385238D02*
X190990475Y-63480476D01*
X190990475Y-63480476D02*
X191085713Y-63528095D01*
D11*
%TO.C,J2*%
X192407143Y-59357500D02*
X192407143Y-61357500D01*
X192407143Y-61357500D02*
X196507143Y-61357500D01*
X193157143Y-61557500D02*
X192857143Y-61857500D01*
X193157143Y-61557500D02*
X193457143Y-61857500D01*
X193457143Y-61857500D02*
X192857143Y-61857500D01*
X196507143Y-59357500D02*
X192407143Y-59357500D01*
X196507143Y-61357500D02*
X196507143Y-59357500D01*
%TO.C,SW1*%
X200100000Y-73300000D02*
X198600000Y-73300000D01*
X196100000Y-72050000D02*
X196100000Y-67550000D01*
X202600000Y-67550000D02*
X202600000Y-72050000D01*
X198600000Y-66300000D02*
X200100000Y-66300000D01*
%TO.C,D6*%
X201600000Y-47695000D02*
X201600000Y-48345000D01*
X202720000Y-48345000D02*
X202720000Y-52585000D01*
X200480000Y-48345000D02*
X202720000Y-48345000D01*
X200480000Y-48945000D02*
X202720000Y-48945000D01*
X200480000Y-49065000D02*
X202720000Y-49065000D01*
X200480000Y-49185000D02*
X202720000Y-49185000D01*
X202720000Y-52585000D02*
X200480000Y-52585000D01*
X200480000Y-52585000D02*
X200480000Y-48345000D01*
X201600000Y-53235000D02*
X201600000Y-52585000D01*
D12*
%TO.C,Attiny85*%
X192975000Y-57250000D02*
G75*
G03*
X192975000Y-57250000I-125000J0D01*
G01*
D11*
%TO.C,R2*%
X188875000Y-84720000D02*
X188875000Y-83950000D01*
X187505000Y-83950000D02*
X187505000Y-77410000D01*
X190245000Y-83950000D02*
X187505000Y-83950000D01*
X187505000Y-77410000D02*
X190245000Y-77410000D01*
X190245000Y-77410000D02*
X190245000Y-83950000D01*
X188875000Y-76640000D02*
X188875000Y-77410000D01*
%TO.C,D3*%
X180600000Y-62955000D02*
X180600000Y-62305000D01*
X179480000Y-62305000D02*
X179480000Y-58065000D01*
X181720000Y-62305000D02*
X179480000Y-62305000D01*
X181720000Y-61705000D02*
X179480000Y-61705000D01*
X181720000Y-61585000D02*
X179480000Y-61585000D01*
X181720000Y-61465000D02*
X179480000Y-61465000D01*
X179480000Y-58065000D02*
X181720000Y-58065000D01*
X181720000Y-58065000D02*
X181720000Y-62305000D01*
X180600000Y-57415000D02*
X180600000Y-58065000D01*
%TO.C,SW3*%
X190350000Y-66300000D02*
X191850000Y-66300000D01*
X194350000Y-67550000D02*
X194350000Y-72050000D01*
X187850000Y-72050000D02*
X187850000Y-67550000D01*
X191850000Y-73300000D02*
X190350000Y-73300000D01*
%TO.C,D4*%
X180600000Y-47695000D02*
X180600000Y-48345000D01*
X181720000Y-48345000D02*
X181720000Y-52585000D01*
X179480000Y-48345000D02*
X181720000Y-48345000D01*
X179480000Y-48945000D02*
X181720000Y-48945000D01*
X179480000Y-49065000D02*
X181720000Y-49065000D01*
X179480000Y-49185000D02*
X181720000Y-49185000D01*
X181720000Y-52585000D02*
X179480000Y-52585000D01*
X179480000Y-52585000D02*
X179480000Y-48345000D01*
X180600000Y-53235000D02*
X180600000Y-52585000D01*
%TO.C,D5*%
X201600000Y-57415000D02*
X201600000Y-58065000D01*
X202720000Y-58065000D02*
X202720000Y-62305000D01*
X200480000Y-58065000D02*
X202720000Y-58065000D01*
X202720000Y-61465000D02*
X200480000Y-61465000D01*
X202720000Y-61585000D02*
X200480000Y-61585000D01*
X202720000Y-61705000D02*
X200480000Y-61705000D01*
X202720000Y-62305000D02*
X200480000Y-62305000D01*
X200480000Y-62305000D02*
X200480000Y-58065000D01*
X201600000Y-62955000D02*
X201600000Y-62305000D01*
%TO.C,J1*%
X190007143Y-61357500D02*
X190007143Y-59357500D01*
X190007143Y-59357500D02*
X185907143Y-59357500D01*
X189557143Y-61857500D02*
X188957143Y-61857500D01*
X189257143Y-61557500D02*
X189557143Y-61857500D01*
X189257143Y-61557500D02*
X188957143Y-61857500D01*
X185907143Y-61357500D02*
X190007143Y-61357500D01*
X185907143Y-59357500D02*
X185907143Y-61357500D01*
%TO.C,R1*%
X193275000Y-79480000D02*
X193275000Y-80250000D01*
X194645000Y-80250000D02*
X194645000Y-86790000D01*
X191905000Y-80250000D02*
X194645000Y-80250000D01*
X194645000Y-86790000D02*
X191905000Y-86790000D01*
X191905000Y-86790000D02*
X191905000Y-80250000D01*
X193275000Y-87560000D02*
X193275000Y-86790000D01*
%TO.C,SW2*%
X182100000Y-66300000D02*
X183600000Y-66300000D01*
X186100000Y-67550000D02*
X186100000Y-72050000D01*
X179600000Y-72050000D02*
X179600000Y-67550000D01*
X183600000Y-73300000D02*
X182100000Y-73300000D01*
%TO.C,D1*%
X188340000Y-63800000D02*
X188990000Y-63800000D01*
X188990000Y-62680000D02*
X193230000Y-62680000D01*
X188990000Y-64920000D02*
X188990000Y-62680000D01*
X189590000Y-64920000D02*
X189590000Y-62680000D01*
X189710000Y-64920000D02*
X189710000Y-62680000D01*
X189830000Y-64920000D02*
X189830000Y-62680000D01*
X193230000Y-62680000D02*
X193230000Y-64920000D01*
X193230000Y-64920000D02*
X188990000Y-64920000D01*
X193880000Y-63800000D02*
X193230000Y-63800000D01*
%TD*%
M02*
