%TF.GenerationSoftware,KiCad,Pcbnew,(7.0.0)*%
%TF.CreationDate,2023-07-04T16:48:58+02:00*%
%TF.ProjectId,attiny85_remote,61747469-6e79-4383-955f-72656d6f7465,rev?*%
%TF.SameCoordinates,Original*%
%TF.FileFunction,Soldermask,Bot*%
%TF.FilePolarity,Negative*%
%FSLAX46Y46*%
G04 Gerber Fmt 4.6, Leading zero omitted, Abs format (unit mm)*
G04 Created by KiCad (PCBNEW (7.0.0)) date 2023-07-04 16:48:58*
%MOMM*%
%LPD*%
G01*
G04 APERTURE LIST*
G04 Aperture macros list*
%AMRoundRect*
0 Rectangle with rounded corners*
0 $1 Rounding radius*
0 $2 $3 $4 $5 $6 $7 $8 $9 X,Y pos of 4 corners*
0 Add a 4 corners polygon primitive as box body*
4,1,4,$2,$3,$4,$5,$6,$7,$8,$9,$2,$3,0*
0 Add four circle primitives for the rounded corners*
1,1,$1+$1,$2,$3*
1,1,$1+$1,$4,$5*
1,1,$1+$1,$6,$7*
1,1,$1+$1,$8,$9*
0 Add four rect primitives between the rounded corners*
20,1,$1+$1,$2,$3,$4,$5,0*
20,1,$1+$1,$4,$5,$6,$7,0*
20,1,$1+$1,$6,$7,$8,$9,0*
20,1,$1+$1,$8,$9,$2,$3,0*%
G04 Aperture macros list end*
%ADD10R,1.000000X1.500000*%
%ADD11RoundRect,0.250000X0.250000X0.750000X-0.250000X0.750000X-0.250000X-0.750000X0.250000X-0.750000X0*%
%ADD12C,2.250000*%
%ADD13C,1.755000*%
%ADD14C,1.600000*%
%ADD15C,2.000000*%
%ADD16R,1.600000X1.600000*%
%ADD17O,1.600000X1.600000*%
%ADD18R,0.300000X0.800000*%
%ADD19R,0.800000X0.300000*%
%ADD20R,2.750000X2.750000*%
G04 APERTURE END LIST*
D10*
%TO.C,J2*%
X193157142Y-60357499D03*
X194457142Y-60357499D03*
X195757142Y-60357499D03*
%TD*%
D11*
%TO.C,REF\u002A\u002A*%
X195375000Y-53875000D03*
%TD*%
D12*
%TO.C,BT1*%
X191075000Y-90400000D03*
D13*
X191075000Y-110400000D03*
%TD*%
D14*
%TO.C,C2*%
X185725000Y-90525000D03*
X180725000Y-90525000D03*
%TD*%
%TO.C,C1*%
X196425000Y-90525000D03*
X201425000Y-90525000D03*
%TD*%
D11*
%TO.C,REF\u002A\u002A*%
X187815000Y-46525000D03*
%TD*%
%TO.C,REF\u002A\u002A*%
X194385000Y-46525000D03*
%TD*%
%TO.C,REF\u002A\u002A*%
X185625000Y-46525000D03*
%TD*%
%TO.C,REF\u002A\u002A*%
X190005000Y-46525000D03*
%TD*%
D15*
%TO.C,SW1*%
X201600000Y-73050000D03*
X201600000Y-66550000D03*
X197100000Y-73050000D03*
X197100000Y-66550000D03*
%TD*%
D16*
%TO.C,D6*%
X201599999Y-46654999D03*
D17*
X201599999Y-54274999D03*
%TD*%
D18*
%TO.C,Attiny85*%
X192099999Y-56849999D03*
X191599999Y-56849999D03*
X191099999Y-56849999D03*
X190599999Y-56849999D03*
X190099999Y-56849999D03*
D19*
X189149999Y-55899999D03*
X189149999Y-55399999D03*
X189149999Y-54899999D03*
X189149999Y-54399999D03*
X189149999Y-53899999D03*
D18*
X190099999Y-52949999D03*
X190599999Y-52949999D03*
X191099999Y-52949999D03*
X191599999Y-52949999D03*
X192099999Y-52949999D03*
D19*
X193049999Y-53899999D03*
X193049999Y-54399999D03*
X193049999Y-54899999D03*
X193049999Y-55399999D03*
X193049999Y-55899999D03*
D20*
X191099999Y-54899999D03*
%TD*%
D14*
%TO.C,R2*%
X188875000Y-85760000D03*
D17*
X188874999Y-75599999D03*
%TD*%
D16*
%TO.C,D3*%
X180599999Y-63994999D03*
D17*
X180599999Y-56374999D03*
%TD*%
D15*
%TO.C,SW3*%
X188850000Y-66550000D03*
X188850000Y-73050000D03*
X193350000Y-66550000D03*
X193350000Y-73050000D03*
%TD*%
D11*
%TO.C,REF\u002A\u002A*%
X193925000Y-96275000D03*
%TD*%
D16*
%TO.C,D4*%
X180599999Y-46654999D03*
D17*
X180599999Y-54274999D03*
%TD*%
%TO.C,D5*%
X201599999Y-56374999D03*
D16*
X201599999Y-63994999D03*
%TD*%
D10*
%TO.C,J1*%
X189257142Y-60357499D03*
X187957142Y-60357499D03*
X186657142Y-60357499D03*
%TD*%
D11*
%TO.C,REF\u002A\u002A*%
X196575000Y-46525000D03*
%TD*%
D14*
%TO.C,R1*%
X193275000Y-78440000D03*
D17*
X193274999Y-88599999D03*
%TD*%
D11*
%TO.C,REF\u002A\u002A*%
X188225000Y-96275000D03*
%TD*%
D15*
%TO.C,SW2*%
X180600000Y-66550000D03*
X180600000Y-73050000D03*
X185100000Y-66550000D03*
X185100000Y-73050000D03*
%TD*%
D11*
%TO.C,REF\u002A\u002A*%
X192195000Y-46525000D03*
%TD*%
D16*
%TO.C,D1*%
X187299999Y-63799999D03*
D17*
X194919999Y-63799999D03*
%TD*%
M02*
