%TF.GenerationSoftware,KiCad,Pcbnew,(7.0.0)*%
%TF.CreationDate,2023-07-04T16:48:58+02:00*%
%TF.ProjectId,attiny85_remote,61747469-6e79-4383-955f-72656d6f7465,rev?*%
%TF.SameCoordinates,Original*%
%TF.FileFunction,Copper,L1,Top*%
%TF.FilePolarity,Positive*%
%FSLAX46Y46*%
G04 Gerber Fmt 4.6, Leading zero omitted, Abs format (unit mm)*
G04 Created by KiCad (PCBNEW (7.0.0)) date 2023-07-04 16:48:58*
%MOMM*%
%LPD*%
G01*
G04 APERTURE LIST*
%TA.AperFunction,ComponentPad*%
%ADD10C,2.250000*%
%TD*%
%TA.AperFunction,ComponentPad*%
%ADD11C,1.755000*%
%TD*%
%TA.AperFunction,SMDPad,CuDef*%
%ADD12R,1.000000X1.500000*%
%TD*%
%TA.AperFunction,ComponentPad*%
%ADD13C,1.600000*%
%TD*%
%TA.AperFunction,SMDPad,CuDef*%
%ADD14R,0.600000X0.600000*%
%TD*%
%TA.AperFunction,SMDPad,CuDef*%
%ADD15R,2.000000X1.500000*%
%TD*%
%TA.AperFunction,ComponentPad*%
%ADD16C,2.000000*%
%TD*%
%TA.AperFunction,ComponentPad*%
%ADD17R,1.600000X1.600000*%
%TD*%
%TA.AperFunction,ComponentPad*%
%ADD18O,1.600000X1.600000*%
%TD*%
%TA.AperFunction,ViaPad*%
%ADD19C,0.500000*%
%TD*%
%TA.AperFunction,ViaPad*%
%ADD20C,0.800000*%
%TD*%
%TA.AperFunction,Conductor*%
%ADD21C,0.200000*%
%TD*%
%TA.AperFunction,Conductor*%
%ADD22C,0.500000*%
%TD*%
%TA.AperFunction,Conductor*%
%ADD23C,0.300000*%
%TD*%
G04 APERTURE END LIST*
D10*
%TO.P,BT1,+*%
%TO.N,+3.3V*%
X191075000Y-90400000D03*
D11*
%TO.P,BT1,-*%
%TO.N,GND*%
X191075000Y-110400000D03*
%TD*%
D12*
%TO.P,J3,1,Pin_1*%
%TO.N,+3.3V*%
X193299999Y-76149999D03*
%TO.P,J3,2,Pin_2*%
%TO.N,VCC*%
X191999999Y-76149999D03*
%TD*%
D13*
%TO.P,C2,1*%
%TO.N,GND*%
X185725000Y-90525000D03*
%TO.P,C2,2*%
%TO.N,+3.3V*%
X180725000Y-90525000D03*
%TD*%
%TO.P,C1,1*%
%TO.N,GND*%
X196425000Y-90525000D03*
%TO.P,C1,2*%
%TO.N,+3.3V*%
X201425000Y-90525000D03*
%TD*%
D14*
%TO.P,Q1,1,G*%
%TO.N,Net-(Q1-G)*%
X193224999Y-82824999D03*
%TO.P,Q1,2,S*%
%TO.N,+3.3V*%
X193224999Y-81824999D03*
%TO.P,Q1,3,D*%
%TO.N,VCC*%
X191824999Y-82324999D03*
%TD*%
D15*
%TO.P,U1,1,GND*%
%TO.N,GND*%
X183099999Y-46524999D03*
%TO.P,U1,2,GND*%
X183099999Y-48524999D03*
%TO.P,U1,3,VDD*%
%TO.N,VCC*%
X183099999Y-50524999D03*
%TO.P,U1,4,~{RESET}*%
%TO.N,/RST*%
X183099999Y-52524999D03*
%TO.P,U1,5,DIO0*%
%TO.N,unconnected-(U1-DIO0-Pad5)*%
X183099999Y-54524999D03*
%TO.P,U1,6,DIO1*%
%TO.N,unconnected-(U1-DIO1-Pad6)*%
X183099999Y-56524999D03*
%TO.P,U1,7,DIO2*%
%TO.N,unconnected-(U1-DIO2-Pad7)*%
X183099999Y-58524999D03*
%TO.P,U1,8,DIO3*%
%TO.N,unconnected-(U1-DIO3-Pad8)*%
X183099999Y-60524999D03*
%TO.P,U1,9,GND*%
%TO.N,GND*%
X199099999Y-60524999D03*
%TO.P,U1,10,DIO4*%
%TO.N,unconnected-(U1-DIO4-Pad10)*%
X199099999Y-58524999D03*
%TO.P,U1,11,DIO5*%
%TO.N,unconnected-(U1-DIO5-Pad11)*%
X199099999Y-56524999D03*
%TO.P,U1,12,SCK*%
%TO.N,/INT0*%
X199099999Y-54524999D03*
%TO.P,U1,13,MISO*%
%TO.N,/MISO*%
X199099999Y-52524999D03*
%TO.P,U1,14,MOSI*%
%TO.N,/MOSI*%
X199099999Y-50524999D03*
%TO.P,U1,15,~{NSS}*%
%TO.N,/PB3*%
X199099999Y-48524999D03*
%TO.P,U1,16,GND*%
%TO.N,GND*%
X199099999Y-46524999D03*
%TD*%
D16*
%TO.P,SW1,1,1*%
%TO.N,Net-(D5-K)*%
X201600000Y-73050000D03*
X201600000Y-66550000D03*
%TO.P,SW1,2,2*%
%TO.N,GND*%
X197100000Y-73050000D03*
X197100000Y-66550000D03*
%TD*%
D17*
%TO.P,D6,1,K*%
%TO.N,Net-(D5-K)*%
X201599999Y-46654999D03*
D18*
%TO.P,D6,2,A*%
%TO.N,/MOSI*%
X201599999Y-54274999D03*
%TD*%
D13*
%TO.P,R2,1*%
%TO.N,Net-(Q1-G)*%
X188875000Y-85760000D03*
D18*
%TO.P,R2,2*%
%TO.N,/DRV*%
X188874999Y-75599999D03*
%TD*%
D17*
%TO.P,D3,1,K*%
%TO.N,Net-(D3-K)*%
X180599999Y-63994999D03*
D18*
%TO.P,D3,2,A*%
%TO.N,Net-(D1-A)*%
X180599999Y-56374999D03*
%TD*%
D16*
%TO.P,SW3,1,1*%
%TO.N,Net-(D1-K)*%
X188850000Y-66550000D03*
X188850000Y-73050000D03*
%TO.P,SW3,2,2*%
%TO.N,GND*%
X193350000Y-66550000D03*
X193350000Y-73050000D03*
%TD*%
D17*
%TO.P,D4,1,K*%
%TO.N,Net-(D3-K)*%
X180599999Y-46654999D03*
D18*
%TO.P,D4,2,A*%
%TO.N,/MISO*%
X180599999Y-54274999D03*
%TD*%
%TO.P,D5,2,A*%
%TO.N,Net-(D1-A)*%
X201599999Y-56374999D03*
D17*
%TO.P,D5,1,K*%
%TO.N,Net-(D5-K)*%
X201599999Y-63994999D03*
%TD*%
D13*
%TO.P,R1,1*%
%TO.N,+3.3V*%
X193275000Y-78440000D03*
D18*
%TO.P,R1,2*%
%TO.N,Net-(Q1-G)*%
X193274999Y-88599999D03*
%TD*%
D16*
%TO.P,SW2,1,1*%
%TO.N,Net-(D3-K)*%
X180600000Y-66550000D03*
X180600000Y-73050000D03*
%TO.P,SW2,2,2*%
%TO.N,GND*%
X185100000Y-66550000D03*
X185100000Y-73050000D03*
%TD*%
D17*
%TO.P,D1,1,K*%
%TO.N,Net-(D1-K)*%
X187299999Y-63799999D03*
D18*
%TO.P,D1,2,A*%
%TO.N,Net-(D1-A)*%
X194919999Y-63799999D03*
%TD*%
D19*
%TO.N,GND*%
X196350000Y-53900000D03*
D20*
X189075000Y-82275000D03*
D19*
X197125000Y-55975000D03*
X190625000Y-59325000D03*
D20*
X191875000Y-85600000D03*
D19*
X195250000Y-54175000D03*
D20*
X188925000Y-79275000D03*
D19*
X197125000Y-56975000D03*
X180825000Y-94400000D03*
X197450000Y-48800000D03*
X190825000Y-55025000D03*
X190175000Y-54075000D03*
X194500000Y-58500000D03*
X193700000Y-90300000D03*
X201150000Y-94275000D03*
X180975000Y-113075000D03*
X183525000Y-63850000D03*
X196400000Y-108025000D03*
X185125000Y-57550000D03*
X191025000Y-49125000D03*
X201800000Y-113025000D03*
X187925000Y-58150000D03*
X195425000Y-49075000D03*
X198500000Y-46175000D03*
X184925000Y-48375000D03*
X185275000Y-56200000D03*
X183100000Y-46525000D03*
X191525000Y-95575000D03*
X191625000Y-54075000D03*
X186150000Y-107575000D03*
D20*
X188900000Y-88350000D03*
D19*
X188500000Y-50550000D03*
D20*
X190525000Y-77375000D03*
D19*
X180725000Y-51275000D03*
X198650000Y-90375000D03*
X199825000Y-46950000D03*
X195500000Y-53225000D03*
%TO.N,/INT0*%
X192175000Y-47250000D03*
X198400000Y-54575000D03*
X192175000Y-51900000D03*
%TO.N,/MOSI*%
X198400000Y-50550000D03*
%TO.N,/MISO*%
X188950000Y-51950000D03*
X194375000Y-51300000D03*
X191112500Y-51962500D03*
X194375000Y-47250000D03*
X198400000Y-52550000D03*
%TO.N,/PB5*%
X193300000Y-47800000D03*
X193925000Y-52750000D03*
%TO.N,/PB3*%
X190005000Y-46525000D03*
X193350000Y-57975000D03*
%TO.N,/PB4*%
X185200000Y-52825000D03*
X188025000Y-56825000D03*
%TO.N,VCC*%
X192675000Y-52950000D03*
%TO.N,/RST*%
X186650000Y-59875000D03*
%TO.N,/DRV*%
X190650000Y-60357500D03*
%TD*%
D21*
%TO.N,Net-(Q1-G)*%
X190125000Y-83000000D02*
X193050000Y-83000000D01*
X188875000Y-85760000D02*
X188875000Y-84250000D01*
X188875000Y-84250000D02*
X190125000Y-83000000D01*
X193050000Y-83000000D02*
X193225000Y-82825000D01*
X193275000Y-82875000D02*
X193225000Y-82825000D01*
X193275000Y-88600000D02*
X193275000Y-82875000D01*
D22*
%TO.N,VCC*%
X191750000Y-76400000D02*
X192000000Y-76150000D01*
X191825000Y-82325000D02*
X191750000Y-82250000D01*
X191750000Y-82250000D02*
X191750000Y-76400000D01*
%TO.N,+3.3V*%
X193275000Y-81775000D02*
X193225000Y-81825000D01*
X193275000Y-78440000D02*
X193275000Y-81775000D01*
X193275000Y-78440000D02*
X193275000Y-76175000D01*
X193275000Y-76175000D02*
X193300000Y-76150000D01*
%TO.N,VCC*%
X191850000Y-76150000D02*
X192275000Y-76150000D01*
X191750000Y-76250000D02*
X191850000Y-76150000D01*
D21*
%TO.N,Net-(D3-K)*%
X180600000Y-63995000D02*
X180600000Y-66550000D01*
X179500000Y-62895000D02*
X180600000Y-63995000D01*
X179500000Y-47755000D02*
X179500000Y-62895000D01*
X180600000Y-46655000D02*
X179500000Y-47755000D01*
D22*
%TO.N,+3.3V*%
X199825000Y-92125000D02*
X192800000Y-92125000D01*
X192800000Y-92125000D02*
X191075000Y-90400000D01*
X201425000Y-90525000D02*
X199825000Y-92125000D01*
D21*
%TO.N,/INT0*%
X192175000Y-51900000D02*
X192175000Y-47250000D01*
%TO.N,Net-(D1-K)*%
X188850000Y-73050000D02*
X188850000Y-66550000D01*
X187290000Y-63800000D02*
X187290000Y-64990000D01*
X187290000Y-64990000D02*
X188850000Y-66550000D01*
%TO.N,/MOSI*%
X201550000Y-51800000D02*
X200275000Y-50525000D01*
X200275000Y-50525000D02*
X199075000Y-50525000D01*
X201550000Y-54265000D02*
X201550000Y-51800000D01*
%TO.N,/MISO*%
X194375000Y-51300000D02*
X194375000Y-47250000D01*
X191100000Y-51950000D02*
X191112500Y-51962500D01*
X188950000Y-51950000D02*
X191100000Y-51950000D01*
%TO.N,Net-(D5-K)*%
X201600000Y-64050000D02*
X201600000Y-66550000D01*
X201600000Y-73050000D02*
X201600000Y-66550000D01*
X201550000Y-46645000D02*
X202750000Y-47845000D01*
X202750000Y-62800000D02*
X201550000Y-64000000D01*
X201550000Y-64000000D02*
X201600000Y-64050000D01*
X202750000Y-47845000D02*
X202750000Y-62800000D01*
%TO.N,/PB5*%
X193300000Y-52125000D02*
X193925000Y-52750000D01*
X193300000Y-47800000D02*
X193300000Y-52125000D01*
%TO.N,/PB3*%
X196800000Y-46525000D02*
X190005000Y-46525000D01*
X193350000Y-57975000D02*
X197200000Y-54125000D01*
X198750000Y-48525000D02*
X199100000Y-48525000D01*
X197200000Y-50075000D02*
X198750000Y-48525000D01*
X198800000Y-48525000D02*
X196800000Y-46525000D01*
X199100000Y-48525000D02*
X198800000Y-48525000D01*
X197200000Y-54125000D02*
X197200000Y-50075000D01*
%TO.N,/PB4*%
X188025000Y-55650000D02*
X188025000Y-56825000D01*
X185200000Y-52825000D02*
X188025000Y-55650000D01*
D22*
%TO.N,VCC*%
X191487500Y-57487500D02*
X190725000Y-56725000D01*
D23*
X192025000Y-57475000D02*
X191750000Y-57750000D01*
D22*
X192275000Y-76150000D02*
X191750000Y-76150000D01*
X183075000Y-50525000D02*
X184525000Y-50525000D01*
X191750000Y-76150000D02*
X191750000Y-57750000D01*
D23*
X192012500Y-57487500D02*
X191487500Y-57487500D01*
X192675000Y-52950000D02*
X192675000Y-56825000D01*
D22*
X190412500Y-56412500D02*
X190725000Y-56725000D01*
X184525000Y-50525000D02*
X190412500Y-56412500D01*
X191750000Y-57750000D02*
X191487500Y-57487500D01*
D23*
X192025000Y-57475000D02*
X192012500Y-57487500D01*
X192675000Y-56825000D02*
X192025000Y-57475000D01*
D21*
%TO.N,/RST*%
X186650000Y-59875000D02*
X186650000Y-55750000D01*
X186650000Y-55750000D02*
X183425000Y-52525000D01*
X183425000Y-52525000D02*
X183100000Y-52525000D01*
%TO.N,Net-(D3-K)*%
X180600000Y-66550000D02*
X180600000Y-73050000D01*
%TO.N,/DRV*%
X190650000Y-60357500D02*
X190650000Y-73825000D01*
X190650000Y-73825000D02*
X188875000Y-75600000D01*
%TD*%
%TA.AperFunction,Conductor*%
%TO.N,GND*%
G36*
X192612500Y-83617113D02*
G01*
X192657887Y-83662500D01*
X192674500Y-83724500D01*
X192674500Y-87368307D01*
X192660489Y-87425564D01*
X192621623Y-87469882D01*
X192440296Y-87596847D01*
X192440291Y-87596850D01*
X192435861Y-87599953D01*
X192432037Y-87603776D01*
X192432031Y-87603782D01*
X192278782Y-87757031D01*
X192278776Y-87757037D01*
X192274953Y-87760861D01*
X192271850Y-87765291D01*
X192271847Y-87765296D01*
X192147540Y-87942826D01*
X192147535Y-87942833D01*
X192144432Y-87947266D01*
X192142144Y-87952172D01*
X192142142Y-87952176D01*
X192050550Y-88148594D01*
X192050547Y-88148599D01*
X192048261Y-88153504D01*
X192046862Y-88158724D01*
X192046858Y-88158736D01*
X191990764Y-88368083D01*
X191990762Y-88368094D01*
X191989365Y-88373308D01*
X191969532Y-88600000D01*
X191970004Y-88605395D01*
X191989065Y-88823270D01*
X191977460Y-88887456D01*
X191934885Y-88936872D01*
X191873122Y-88957845D01*
X191815767Y-88945923D01*
X191815243Y-88947191D01*
X191578860Y-88849278D01*
X191574134Y-88848143D01*
X191574130Y-88848142D01*
X191334799Y-88790683D01*
X191334794Y-88790682D01*
X191330070Y-88789548D01*
X191325223Y-88789166D01*
X191325220Y-88789166D01*
X191079854Y-88769856D01*
X191075000Y-88769474D01*
X191070146Y-88769856D01*
X190824779Y-88789166D01*
X190824774Y-88789166D01*
X190819930Y-88789548D01*
X190815207Y-88790681D01*
X190815200Y-88790683D01*
X190575869Y-88848142D01*
X190575861Y-88848144D01*
X190571140Y-88849278D01*
X190566647Y-88851138D01*
X190566644Y-88851140D01*
X190339261Y-88945325D01*
X190339256Y-88945327D01*
X190334757Y-88947191D01*
X190330604Y-88949735D01*
X190330598Y-88949739D01*
X190120758Y-89078328D01*
X190120744Y-89078338D01*
X190116601Y-89080877D01*
X190112901Y-89084036D01*
X190112890Y-89084045D01*
X189925751Y-89243877D01*
X189925744Y-89243883D01*
X189922044Y-89247044D01*
X189918883Y-89250744D01*
X189918877Y-89250751D01*
X189759045Y-89437890D01*
X189759036Y-89437901D01*
X189755877Y-89441601D01*
X189753338Y-89445744D01*
X189753328Y-89445758D01*
X189624739Y-89655598D01*
X189624735Y-89655604D01*
X189622191Y-89659757D01*
X189620327Y-89664256D01*
X189620325Y-89664261D01*
X189552444Y-89828141D01*
X189524278Y-89896140D01*
X189523144Y-89900861D01*
X189523142Y-89900869D01*
X189465683Y-90140200D01*
X189465681Y-90140207D01*
X189464548Y-90144930D01*
X189444474Y-90400000D01*
X189464548Y-90655070D01*
X189465682Y-90659794D01*
X189465683Y-90659799D01*
X189521469Y-90892162D01*
X189524278Y-90903860D01*
X189622191Y-91140243D01*
X189624738Y-91144400D01*
X189624739Y-91144401D01*
X189753328Y-91354241D01*
X189753334Y-91354249D01*
X189755877Y-91358399D01*
X189759041Y-91362104D01*
X189759045Y-91362109D01*
X189900859Y-91528152D01*
X189922044Y-91552956D01*
X189925751Y-91556122D01*
X190112890Y-91715954D01*
X190112893Y-91715956D01*
X190116601Y-91719123D01*
X190120752Y-91721667D01*
X190120758Y-91721671D01*
X190172113Y-91753141D01*
X190334757Y-91852809D01*
X190571140Y-91950722D01*
X190819930Y-92010452D01*
X191075000Y-92030526D01*
X191330070Y-92010452D01*
X191499639Y-91969741D01*
X191562243Y-91970970D01*
X191616266Y-92002634D01*
X192224267Y-92610634D01*
X192236049Y-92624267D01*
X192246077Y-92637738D01*
X192246081Y-92637742D01*
X192250390Y-92643530D01*
X192288352Y-92675384D01*
X192296314Y-92682681D01*
X192300223Y-92686590D01*
X192303055Y-92688829D01*
X192303065Y-92688838D01*
X192324542Y-92705819D01*
X192327298Y-92708063D01*
X192384786Y-92756302D01*
X192391245Y-92759546D01*
X192394134Y-92761446D01*
X192394417Y-92761650D01*
X192394710Y-92761814D01*
X192397659Y-92763632D01*
X192403323Y-92768111D01*
X192471357Y-92799835D01*
X192474483Y-92801348D01*
X192541567Y-92835040D01*
X192548597Y-92836705D01*
X192551831Y-92837883D01*
X192552163Y-92838020D01*
X192552493Y-92838114D01*
X192555781Y-92839203D01*
X192562327Y-92842256D01*
X192635862Y-92857439D01*
X192639223Y-92858184D01*
X192712279Y-92875500D01*
X192719509Y-92875500D01*
X192722949Y-92875902D01*
X192723286Y-92875956D01*
X192723640Y-92875972D01*
X192727066Y-92876271D01*
X192734144Y-92877733D01*
X192809110Y-92875552D01*
X192812717Y-92875500D01*
X199761293Y-92875500D01*
X199779264Y-92876809D01*
X199783160Y-92877379D01*
X199803023Y-92880289D01*
X199852368Y-92875972D01*
X199863176Y-92875500D01*
X199865100Y-92875500D01*
X199868709Y-92875500D01*
X199899550Y-92871894D01*
X199903031Y-92871539D01*
X199977797Y-92864999D01*
X199984653Y-92862726D01*
X199988043Y-92862027D01*
X199988375Y-92861973D01*
X199988728Y-92861873D01*
X199992071Y-92861080D01*
X199999255Y-92860241D01*
X200069760Y-92834579D01*
X200073118Y-92833412D01*
X200144334Y-92809814D01*
X200150486Y-92806018D01*
X200153607Y-92804564D01*
X200153929Y-92804430D01*
X200154238Y-92804258D01*
X200157315Y-92802712D01*
X200164117Y-92800237D01*
X200226837Y-92758984D01*
X200229732Y-92757140D01*
X200293656Y-92717712D01*
X200298763Y-92712603D01*
X200301476Y-92710459D01*
X200301758Y-92710254D01*
X200302029Y-92710007D01*
X200304658Y-92707800D01*
X200310696Y-92703830D01*
X200362186Y-92649252D01*
X200364631Y-92646735D01*
X201159652Y-91851714D01*
X201204921Y-91822875D01*
X201258136Y-91815869D01*
X201425000Y-91830468D01*
X201651692Y-91810635D01*
X201871496Y-91751739D01*
X202077734Y-91655568D01*
X202264139Y-91525047D01*
X202425047Y-91364139D01*
X202555568Y-91177734D01*
X202638118Y-91000705D01*
X202681160Y-90950310D01*
X202744011Y-90929281D01*
X202808715Y-90943626D01*
X202856789Y-90989246D01*
X202874500Y-91053111D01*
X202874500Y-114000500D01*
X202857887Y-114062500D01*
X202812500Y-114107887D01*
X202750500Y-114124500D01*
X179449500Y-114124500D01*
X179387500Y-114107887D01*
X179342113Y-114062500D01*
X179325500Y-114000500D01*
X179325500Y-91160336D01*
X179343211Y-91096471D01*
X179391285Y-91050851D01*
X179455989Y-91036506D01*
X179518840Y-91057535D01*
X179561882Y-91107931D01*
X179594432Y-91177734D01*
X179724953Y-91364139D01*
X179885861Y-91525047D01*
X180072266Y-91655568D01*
X180278504Y-91751739D01*
X180498308Y-91810635D01*
X180725000Y-91830468D01*
X180951692Y-91810635D01*
X181171496Y-91751739D01*
X181377734Y-91655568D01*
X181564139Y-91525047D01*
X181725047Y-91364139D01*
X181855568Y-91177734D01*
X181951739Y-90971496D01*
X182010635Y-90751692D01*
X182030468Y-90525000D01*
X182010635Y-90298308D01*
X181968270Y-90140200D01*
X181953141Y-90083736D01*
X181953140Y-90083734D01*
X181951739Y-90078504D01*
X181855568Y-89872266D01*
X181725047Y-89685861D01*
X181564139Y-89524953D01*
X181494332Y-89476074D01*
X181454006Y-89428859D01*
X181441626Y-89368011D01*
X181460298Y-89308790D01*
X181505339Y-89266047D01*
X181565456Y-89250500D01*
X187446840Y-89250500D01*
X187458280Y-89251029D01*
X187460743Y-89251257D01*
X187471793Y-89254401D01*
X187508183Y-89251028D01*
X187519624Y-89250500D01*
X187522109Y-89250500D01*
X187527844Y-89250500D01*
X187535939Y-89248986D01*
X187547259Y-89247407D01*
X187583660Y-89244035D01*
X187593947Y-89238912D01*
X187596317Y-89238238D01*
X187596587Y-89238174D01*
X187596842Y-89238062D01*
X187599138Y-89237172D01*
X187610433Y-89235061D01*
X187641530Y-89215805D01*
X187651488Y-89210259D01*
X187684228Y-89193958D01*
X187691972Y-89185461D01*
X187693924Y-89183988D01*
X187694165Y-89183822D01*
X187694367Y-89183621D01*
X187696177Y-89181970D01*
X187705952Y-89175919D01*
X187727980Y-89146747D01*
X187735284Y-89137951D01*
X187759916Y-89110933D01*
X187764069Y-89100209D01*
X187765360Y-89098126D01*
X187765521Y-89097889D01*
X187765637Y-89097629D01*
X187766728Y-89095436D01*
X187773656Y-89086264D01*
X187783659Y-89051102D01*
X187787292Y-89040263D01*
X187800500Y-89006173D01*
X187800500Y-88994679D01*
X187800952Y-88992261D01*
X187801016Y-88991986D01*
X187801029Y-88991720D01*
X187801257Y-88989256D01*
X187804401Y-88978207D01*
X187801028Y-88941816D01*
X187800500Y-88930376D01*
X187800500Y-86824048D01*
X187814015Y-86767753D01*
X187851615Y-86723730D01*
X187905102Y-86701575D01*
X187962818Y-86706117D01*
X188012181Y-86736366D01*
X188035861Y-86760047D01*
X188222266Y-86890568D01*
X188428504Y-86986739D01*
X188648308Y-87045635D01*
X188875000Y-87065468D01*
X189101692Y-87045635D01*
X189321496Y-86986739D01*
X189527734Y-86890568D01*
X189714139Y-86760047D01*
X189875047Y-86599139D01*
X190005568Y-86412734D01*
X190101739Y-86206496D01*
X190160635Y-85986692D01*
X190180468Y-85760000D01*
X190160635Y-85533308D01*
X190101739Y-85313504D01*
X190005568Y-85107266D01*
X189875047Y-84920861D01*
X189714139Y-84759953D01*
X189541190Y-84638854D01*
X189504928Y-84599282D01*
X189488787Y-84548089D01*
X189495793Y-84494871D01*
X189524632Y-84449602D01*
X190337416Y-83636819D01*
X190377644Y-83609939D01*
X190425097Y-83600500D01*
X192550500Y-83600500D01*
X192612500Y-83617113D01*
G37*
%TD.AperFunction*%
%TA.AperFunction,Conductor*%
G36*
X194525399Y-89226975D02*
G01*
X194548886Y-89233657D01*
X194559750Y-89237298D01*
X194583109Y-89246348D01*
X194583110Y-89246348D01*
X194593827Y-89250500D01*
X194605321Y-89250500D01*
X194607739Y-89250952D01*
X194608014Y-89251016D01*
X194608280Y-89251029D01*
X194610743Y-89251257D01*
X194621793Y-89254401D01*
X194658183Y-89251028D01*
X194669624Y-89250500D01*
X200584544Y-89250500D01*
X200644661Y-89266047D01*
X200689702Y-89308790D01*
X200708374Y-89368011D01*
X200695994Y-89428859D01*
X200655667Y-89476075D01*
X200590296Y-89521847D01*
X200590291Y-89521850D01*
X200585861Y-89524953D01*
X200582037Y-89528776D01*
X200582031Y-89528782D01*
X200428782Y-89682031D01*
X200428776Y-89682037D01*
X200424953Y-89685861D01*
X200421850Y-89690291D01*
X200421847Y-89690296D01*
X200297540Y-89867826D01*
X200297535Y-89867833D01*
X200294432Y-89872266D01*
X200292144Y-89877172D01*
X200292142Y-89877176D01*
X200200550Y-90073594D01*
X200200547Y-90073599D01*
X200198261Y-90078504D01*
X200196862Y-90083724D01*
X200196858Y-90083736D01*
X200140764Y-90293083D01*
X200140762Y-90293094D01*
X200139365Y-90298308D01*
X200119532Y-90525000D01*
X200120004Y-90530395D01*
X200120004Y-90530396D01*
X200134129Y-90691861D01*
X200127123Y-90745078D01*
X200098282Y-90790348D01*
X199550451Y-91338181D01*
X199510223Y-91365061D01*
X199462770Y-91374500D01*
X193162229Y-91374500D01*
X193114776Y-91365061D01*
X193074548Y-91338181D01*
X192677634Y-90941266D01*
X192645970Y-90887243D01*
X192644741Y-90824639D01*
X192685452Y-90655070D01*
X192705526Y-90400000D01*
X192685452Y-90144930D01*
X192641410Y-89961484D01*
X192644478Y-89892937D01*
X192683528Y-89836514D01*
X192746604Y-89809497D01*
X192814388Y-89820156D01*
X192828504Y-89826739D01*
X192833734Y-89828140D01*
X192833736Y-89828141D01*
X192998414Y-89872266D01*
X193048308Y-89885635D01*
X193275000Y-89905468D01*
X193501692Y-89885635D01*
X193721496Y-89826739D01*
X193927734Y-89730568D01*
X194114139Y-89600047D01*
X194275047Y-89439139D01*
X194389895Y-89275116D01*
X194426912Y-89240372D01*
X194474755Y-89223374D01*
X194525399Y-89226975D01*
G37*
%TD.AperFunction*%
%TA.AperFunction,Conductor*%
G36*
X190948385Y-74523779D02*
G01*
X190985985Y-74567802D01*
X190999500Y-74624097D01*
X190999500Y-76124555D01*
X190999290Y-76131764D01*
X190995669Y-76193935D01*
X190996921Y-76201039D01*
X190997238Y-76206484D01*
X190998183Y-76215735D01*
X190999447Y-76259147D01*
X190999500Y-76262756D01*
X190999500Y-76312816D01*
X190999028Y-76323626D01*
X190998726Y-76327070D01*
X190997266Y-76334144D01*
X190997476Y-76341360D01*
X190997476Y-76341361D01*
X190999448Y-76409130D01*
X190999500Y-76412737D01*
X190999500Y-82186293D01*
X190998191Y-82204264D01*
X190994711Y-82228023D01*
X190995340Y-82235214D01*
X190995340Y-82235221D01*
X190997919Y-82264693D01*
X190985201Y-82331152D01*
X190939488Y-82381039D01*
X190874391Y-82399500D01*
X190172487Y-82399500D01*
X190156302Y-82398439D01*
X190133059Y-82395379D01*
X190125000Y-82394318D01*
X190116941Y-82395379D01*
X189983739Y-82412915D01*
X189983738Y-82412915D01*
X189968237Y-82414956D01*
X189968238Y-82414956D01*
X189954124Y-82420801D01*
X189954124Y-82420802D01*
X189829666Y-82472354D01*
X189829662Y-82472355D01*
X189822159Y-82475464D01*
X189815714Y-82480408D01*
X189815711Y-82480411D01*
X189703164Y-82566771D01*
X189703160Y-82566774D01*
X189696718Y-82571718D01*
X189691774Y-82578160D01*
X189691771Y-82578164D01*
X189677494Y-82596771D01*
X189666800Y-82608964D01*
X188483965Y-83791798D01*
X188471774Y-83802490D01*
X188453165Y-83816770D01*
X188453161Y-83816773D01*
X188446718Y-83821718D01*
X188441774Y-83828160D01*
X188441772Y-83828163D01*
X188422550Y-83853215D01*
X188355411Y-83940711D01*
X188355408Y-83940714D01*
X188350464Y-83947159D01*
X188347355Y-83954663D01*
X188347353Y-83954668D01*
X188293066Y-84085728D01*
X188293064Y-84085733D01*
X188289956Y-84093238D01*
X188288896Y-84101289D01*
X188288894Y-84101297D01*
X188270702Y-84239482D01*
X188269318Y-84250000D01*
X188270379Y-84258059D01*
X188273439Y-84281302D01*
X188274500Y-84297487D01*
X188274500Y-84528307D01*
X188260489Y-84585564D01*
X188221623Y-84629882D01*
X188040296Y-84756847D01*
X188040291Y-84756850D01*
X188035861Y-84759953D01*
X188032037Y-84763776D01*
X188032031Y-84763782D01*
X188012181Y-84783633D01*
X187962818Y-84813883D01*
X187905102Y-84818425D01*
X187851615Y-84796270D01*
X187814015Y-84752247D01*
X187800500Y-84695952D01*
X187800500Y-76664048D01*
X187814015Y-76607753D01*
X187851615Y-76563730D01*
X187905102Y-76541575D01*
X187962818Y-76546117D01*
X188012181Y-76576367D01*
X188035861Y-76600047D01*
X188222266Y-76730568D01*
X188428504Y-76826739D01*
X188648308Y-76885635D01*
X188875000Y-76905468D01*
X189101692Y-76885635D01*
X189321496Y-76826739D01*
X189527734Y-76730568D01*
X189714139Y-76600047D01*
X189875047Y-76439139D01*
X190005568Y-76252734D01*
X190101739Y-76046496D01*
X190160635Y-75826692D01*
X190180468Y-75600000D01*
X190160635Y-75373308D01*
X190134847Y-75277067D01*
X190134847Y-75212880D01*
X190166939Y-75157294D01*
X190787818Y-74536416D01*
X190837182Y-74506166D01*
X190894898Y-74501624D01*
X190948385Y-74523779D01*
G37*
%TD.AperFunction*%
%TA.AperFunction,Conductor*%
G36*
X197548385Y-54773777D02*
G01*
X197585985Y-54817800D01*
X197599500Y-54874095D01*
X197599500Y-55319560D01*
X197599500Y-55319578D01*
X197599501Y-55322872D01*
X197599853Y-55326150D01*
X197599854Y-55326161D01*
X197605079Y-55374768D01*
X197605080Y-55374773D01*
X197605909Y-55382483D01*
X197608619Y-55389749D01*
X197608620Y-55389753D01*
X197634556Y-55459290D01*
X197642901Y-55481665D01*
X197642902Y-55481666D01*
X197650720Y-55524999D01*
X197642902Y-55568331D01*
X197608621Y-55660244D01*
X197608621Y-55660246D01*
X197605909Y-55667517D01*
X197605079Y-55675227D01*
X197605079Y-55675232D01*
X197599855Y-55723819D01*
X197599854Y-55723831D01*
X197599500Y-55727127D01*
X197599500Y-55730448D01*
X197599500Y-55730449D01*
X197599500Y-57319560D01*
X197599500Y-57319578D01*
X197599501Y-57322872D01*
X197599853Y-57326150D01*
X197599854Y-57326161D01*
X197605079Y-57374768D01*
X197605080Y-57374773D01*
X197605909Y-57382483D01*
X197608619Y-57389749D01*
X197608620Y-57389753D01*
X197642902Y-57481667D01*
X197650720Y-57525000D01*
X197642902Y-57568333D01*
X197608620Y-57660247D01*
X197608620Y-57660249D01*
X197605909Y-57667517D01*
X197605079Y-57675227D01*
X197605079Y-57675232D01*
X197599855Y-57723819D01*
X197599854Y-57723831D01*
X197599500Y-57727127D01*
X197599500Y-57730448D01*
X197599500Y-57730449D01*
X197599500Y-59319560D01*
X197599500Y-59319578D01*
X197599501Y-59322872D01*
X197599853Y-59326150D01*
X197599854Y-59326161D01*
X197605079Y-59374768D01*
X197605080Y-59374773D01*
X197605909Y-59382483D01*
X197608619Y-59389749D01*
X197608620Y-59389753D01*
X197631206Y-59450309D01*
X197656204Y-59517331D01*
X197661518Y-59524430D01*
X197661519Y-59524431D01*
X197733950Y-59621187D01*
X197742454Y-59632546D01*
X197857669Y-59718796D01*
X197992517Y-59769091D01*
X198052127Y-59775500D01*
X200147872Y-59775499D01*
X200207483Y-59769091D01*
X200342331Y-59718796D01*
X200457546Y-59632546D01*
X200543796Y-59517331D01*
X200594091Y-59382483D01*
X200600500Y-59322873D01*
X200600499Y-57727128D01*
X200594091Y-57667517D01*
X200557095Y-57568327D01*
X200549279Y-57525000D01*
X200557095Y-57481672D01*
X200574814Y-57434165D01*
X200605782Y-57387420D01*
X200654177Y-57359094D01*
X200710101Y-57354983D01*
X200762117Y-57375926D01*
X200947266Y-57505568D01*
X201153504Y-57601739D01*
X201158734Y-57603140D01*
X201158736Y-57603141D01*
X201249717Y-57627519D01*
X201373308Y-57660635D01*
X201600000Y-57680468D01*
X201826692Y-57660635D01*
X201993407Y-57615963D01*
X202049691Y-57614122D01*
X202100986Y-57637363D01*
X202136712Y-57680895D01*
X202149500Y-57735739D01*
X202149500Y-62499902D01*
X202140061Y-62547355D01*
X202113181Y-62587584D01*
X202042582Y-62658182D01*
X202002353Y-62685061D01*
X201954901Y-62694500D01*
X200755439Y-62694500D01*
X200755420Y-62694500D01*
X200752128Y-62694501D01*
X200748850Y-62694853D01*
X200748838Y-62694854D01*
X200700231Y-62700079D01*
X200700225Y-62700080D01*
X200692517Y-62700909D01*
X200685252Y-62703618D01*
X200685246Y-62703620D01*
X200565980Y-62748104D01*
X200565978Y-62748104D01*
X200557669Y-62751204D01*
X200550572Y-62756516D01*
X200550568Y-62756519D01*
X200449550Y-62832141D01*
X200449546Y-62832144D01*
X200442454Y-62837454D01*
X200437144Y-62844546D01*
X200437141Y-62844550D01*
X200361519Y-62945568D01*
X200361516Y-62945572D01*
X200356204Y-62952669D01*
X200353104Y-62960978D01*
X200353104Y-62960980D01*
X200308620Y-63080247D01*
X200308619Y-63080250D01*
X200305909Y-63087517D01*
X200305079Y-63095227D01*
X200305079Y-63095232D01*
X200299855Y-63143819D01*
X200299854Y-63143831D01*
X200299500Y-63147127D01*
X200299500Y-63150448D01*
X200299500Y-63150449D01*
X200299500Y-64839560D01*
X200299500Y-64839578D01*
X200299501Y-64842872D01*
X200299853Y-64846150D01*
X200299854Y-64846161D01*
X200305079Y-64894768D01*
X200305080Y-64894773D01*
X200305909Y-64902483D01*
X200308619Y-64909749D01*
X200308620Y-64909753D01*
X200323799Y-64950449D01*
X200356204Y-65037331D01*
X200361518Y-65044430D01*
X200361519Y-65044431D01*
X200410557Y-65109938D01*
X200442454Y-65152546D01*
X200557669Y-65238796D01*
X200562019Y-65240418D01*
X200603280Y-65277866D01*
X200623776Y-65332423D01*
X200617085Y-65390317D01*
X200584684Y-65438760D01*
X200584293Y-65439119D01*
X200580256Y-65442262D01*
X200576796Y-65446020D01*
X200576789Y-65446027D01*
X200415311Y-65621439D01*
X200415305Y-65621446D01*
X200411836Y-65625215D01*
X200409031Y-65629506D01*
X200409028Y-65629512D01*
X200278631Y-65829099D01*
X200278624Y-65829111D01*
X200275827Y-65833393D01*
X200273772Y-65838077D01*
X200273766Y-65838089D01*
X200202142Y-66001377D01*
X200175937Y-66061119D01*
X200174679Y-66066084D01*
X200174678Y-66066089D01*
X200116151Y-66297204D01*
X200116149Y-66297213D01*
X200114892Y-66302179D01*
X200114468Y-66307288D01*
X200114467Y-66307298D01*
X200094781Y-66544883D01*
X200094357Y-66550000D01*
X200094781Y-66555117D01*
X200114467Y-66792701D01*
X200114468Y-66792709D01*
X200114892Y-66797821D01*
X200116149Y-66802788D01*
X200116151Y-66802795D01*
X200174678Y-67033910D01*
X200175937Y-67038881D01*
X200177997Y-67043577D01*
X200273766Y-67261910D01*
X200273769Y-67261916D01*
X200275827Y-67266607D01*
X200278627Y-67270893D01*
X200278631Y-67270900D01*
X200400500Y-67457434D01*
X200411836Y-67474785D01*
X200415310Y-67478559D01*
X200415311Y-67478560D01*
X200576784Y-67653967D01*
X200576787Y-67653970D01*
X200580256Y-67657738D01*
X200776491Y-67810474D01*
X200934517Y-67895993D01*
X200982023Y-67941574D01*
X200999500Y-68005048D01*
X200999500Y-71594952D01*
X200982023Y-71658426D01*
X200934517Y-71704006D01*
X200881202Y-71732858D01*
X200781002Y-71787084D01*
X200780995Y-71787088D01*
X200776491Y-71789526D01*
X200772448Y-71792672D01*
X200772440Y-71792678D01*
X200600662Y-71926379D01*
X200580256Y-71942262D01*
X200576793Y-71946023D01*
X200576784Y-71946032D01*
X200415311Y-72121439D01*
X200415305Y-72121446D01*
X200411836Y-72125215D01*
X200409031Y-72129506D01*
X200409028Y-72129512D01*
X200278631Y-72329099D01*
X200278624Y-72329111D01*
X200275827Y-72333393D01*
X200273772Y-72338077D01*
X200273766Y-72338089D01*
X200177997Y-72556422D01*
X200175937Y-72561119D01*
X200174679Y-72566084D01*
X200174678Y-72566089D01*
X200116151Y-72797204D01*
X200116149Y-72797213D01*
X200114892Y-72802179D01*
X200114468Y-72807288D01*
X200114467Y-72807298D01*
X200094781Y-73044883D01*
X200094357Y-73050000D01*
X200094781Y-73055117D01*
X200114467Y-73292701D01*
X200114468Y-73292709D01*
X200114892Y-73297821D01*
X200116149Y-73302788D01*
X200116151Y-73302795D01*
X200174678Y-73533910D01*
X200175937Y-73538881D01*
X200177997Y-73543577D01*
X200273766Y-73761910D01*
X200273769Y-73761916D01*
X200275827Y-73766607D01*
X200278627Y-73770893D01*
X200278631Y-73770900D01*
X200406675Y-73966885D01*
X200411836Y-73974785D01*
X200415310Y-73978559D01*
X200415311Y-73978560D01*
X200576784Y-74153967D01*
X200576787Y-74153970D01*
X200580256Y-74157738D01*
X200776491Y-74310474D01*
X200972310Y-74416445D01*
X201019285Y-74461148D01*
X201037274Y-74523450D01*
X201021355Y-74586313D01*
X200975882Y-74632544D01*
X200913291Y-74649500D01*
X194703160Y-74649500D01*
X194691720Y-74648971D01*
X194689256Y-74648742D01*
X194678207Y-74645599D01*
X194666767Y-74646659D01*
X194641817Y-74648971D01*
X194630376Y-74649500D01*
X194622156Y-74649500D01*
X194616534Y-74650550D01*
X194616519Y-74650552D01*
X194614066Y-74651011D01*
X194602740Y-74652591D01*
X194577778Y-74654904D01*
X194577773Y-74654905D01*
X194566340Y-74655965D01*
X194556057Y-74661084D01*
X194553661Y-74661766D01*
X194553412Y-74661824D01*
X194553180Y-74661927D01*
X194550853Y-74662828D01*
X194539567Y-74664939D01*
X194529805Y-74670982D01*
X194529800Y-74670985D01*
X194508494Y-74684177D01*
X194498496Y-74689745D01*
X194476057Y-74700918D01*
X194476047Y-74700925D01*
X194465772Y-74706042D01*
X194458036Y-74714526D01*
X194456051Y-74716026D01*
X194455838Y-74716171D01*
X194455649Y-74716361D01*
X194453814Y-74718033D01*
X194444048Y-74724081D01*
X194437125Y-74733247D01*
X194437124Y-74733249D01*
X194422025Y-74753243D01*
X194414712Y-74762049D01*
X194397822Y-74780576D01*
X194397816Y-74780584D01*
X194390084Y-74789067D01*
X194385936Y-74799772D01*
X194384618Y-74801901D01*
X194384477Y-74802105D01*
X194384369Y-74802352D01*
X194383263Y-74804571D01*
X194376344Y-74813736D01*
X194373201Y-74824779D01*
X194373201Y-74824781D01*
X194366343Y-74848885D01*
X194362705Y-74859739D01*
X194353651Y-74883111D01*
X194349500Y-74893827D01*
X194349500Y-74905318D01*
X194349047Y-74907741D01*
X194348983Y-74908011D01*
X194348971Y-74908280D01*
X194348742Y-74910743D01*
X194345599Y-74921793D01*
X194346659Y-74933232D01*
X194345599Y-74944674D01*
X194343115Y-74944443D01*
X194338048Y-74980823D01*
X194306071Y-75027612D01*
X194256615Y-75055286D01*
X194200011Y-75058065D01*
X194148082Y-75035369D01*
X194049431Y-74961519D01*
X194049430Y-74961518D01*
X194042331Y-74956204D01*
X193949998Y-74921766D01*
X193914752Y-74908620D01*
X193914750Y-74908619D01*
X193907483Y-74905909D01*
X193899770Y-74905079D01*
X193899767Y-74905079D01*
X193851180Y-74899855D01*
X193851169Y-74899854D01*
X193847873Y-74899500D01*
X193844550Y-74899500D01*
X192755439Y-74899500D01*
X192755420Y-74899500D01*
X192752128Y-74899501D01*
X192748850Y-74899853D01*
X192748838Y-74899854D01*
X192700227Y-74905080D01*
X192700225Y-74905080D01*
X192692517Y-74905909D01*
X192685255Y-74908617D01*
X192678510Y-74910211D01*
X192621489Y-74910211D01*
X192614747Y-74908618D01*
X192607483Y-74905909D01*
X192599767Y-74905079D01*
X192595990Y-74904187D01*
X192546698Y-74880064D01*
X192512644Y-74837028D01*
X192500500Y-74783509D01*
X192500500Y-63800000D01*
X193614532Y-63800000D01*
X193634365Y-64026692D01*
X193635762Y-64031907D01*
X193635764Y-64031916D01*
X193691858Y-64241263D01*
X193691861Y-64241271D01*
X193693261Y-64246496D01*
X193789432Y-64452734D01*
X193919953Y-64639139D01*
X194080861Y-64800047D01*
X194267266Y-64930568D01*
X194473504Y-65026739D01*
X194478734Y-65028140D01*
X194478736Y-65028141D01*
X194592523Y-65058630D01*
X194693308Y-65085635D01*
X194920000Y-65105468D01*
X195146692Y-65085635D01*
X195366496Y-65026739D01*
X195572734Y-64930568D01*
X195759139Y-64800047D01*
X195920047Y-64639139D01*
X196050568Y-64452734D01*
X196146739Y-64246496D01*
X196205635Y-64026692D01*
X196225468Y-63800000D01*
X196205635Y-63573308D01*
X196146739Y-63353504D01*
X196050568Y-63147266D01*
X195920047Y-62960861D01*
X195759139Y-62799953D01*
X195572734Y-62669432D01*
X195366496Y-62573261D01*
X195361271Y-62571861D01*
X195361263Y-62571858D01*
X195151916Y-62515764D01*
X195151907Y-62515762D01*
X195146692Y-62514365D01*
X195141304Y-62513893D01*
X195141301Y-62513893D01*
X194925395Y-62495004D01*
X194920000Y-62494532D01*
X194914605Y-62495004D01*
X194698698Y-62513893D01*
X194698693Y-62513893D01*
X194693308Y-62514365D01*
X194688094Y-62515762D01*
X194688083Y-62515764D01*
X194478736Y-62571858D01*
X194478724Y-62571862D01*
X194473504Y-62573261D01*
X194468599Y-62575547D01*
X194468594Y-62575550D01*
X194272176Y-62667142D01*
X194272172Y-62667144D01*
X194267266Y-62669432D01*
X194262833Y-62672535D01*
X194262826Y-62672540D01*
X194085296Y-62796847D01*
X194085291Y-62796850D01*
X194080861Y-62799953D01*
X194077037Y-62803776D01*
X194077031Y-62803782D01*
X193923782Y-62957031D01*
X193923776Y-62957037D01*
X193919953Y-62960861D01*
X193916850Y-62965291D01*
X193916847Y-62965296D01*
X193792540Y-63142826D01*
X193792535Y-63142833D01*
X193789432Y-63147266D01*
X193787144Y-63152172D01*
X193787142Y-63152176D01*
X193695550Y-63348594D01*
X193695547Y-63348599D01*
X193693261Y-63353504D01*
X193691862Y-63358724D01*
X193691858Y-63358736D01*
X193635764Y-63568083D01*
X193635762Y-63568094D01*
X193634365Y-63573308D01*
X193614532Y-63800000D01*
X192500500Y-63800000D01*
X192500500Y-58464071D01*
X192516652Y-58402876D01*
X192560901Y-58357623D01*
X192621718Y-58340102D01*
X192683260Y-58354877D01*
X192729493Y-58398098D01*
X192759523Y-58445890D01*
X192879110Y-58565477D01*
X193022310Y-58655456D01*
X193181941Y-58711313D01*
X193350000Y-58730249D01*
X193518059Y-58711313D01*
X193677690Y-58655456D01*
X193820890Y-58565477D01*
X193940477Y-58445890D01*
X194030456Y-58302690D01*
X194086313Y-58143059D01*
X194088456Y-58124032D01*
X194099955Y-58084119D01*
X194123992Y-58050241D01*
X197387821Y-54786412D01*
X197437182Y-54756164D01*
X197494898Y-54751622D01*
X197548385Y-54773777D01*
G37*
%TD.AperFunction*%
%TA.AperFunction,Conductor*%
G36*
X184762817Y-54731165D02*
G01*
X184812180Y-54761415D01*
X186013181Y-55962416D01*
X186040061Y-56002644D01*
X186049500Y-56050097D01*
X186049500Y-59384337D01*
X186030494Y-59450309D01*
X185978744Y-59532669D01*
X185969544Y-59547310D01*
X185967247Y-59553872D01*
X185967245Y-59553878D01*
X185915987Y-59700366D01*
X185915985Y-59700371D01*
X185913687Y-59706941D01*
X185912907Y-59713855D01*
X185912906Y-59713864D01*
X185906002Y-59775144D01*
X185894751Y-59875000D01*
X185895531Y-59881923D01*
X185912906Y-60036135D01*
X185912907Y-60036142D01*
X185913687Y-60043059D01*
X185969544Y-60202690D01*
X186059523Y-60345890D01*
X186179110Y-60465477D01*
X186322310Y-60555456D01*
X186481941Y-60611313D01*
X186650000Y-60630249D01*
X186818059Y-60611313D01*
X186977690Y-60555456D01*
X187120890Y-60465477D01*
X187240477Y-60345890D01*
X187330456Y-60202690D01*
X187386313Y-60043059D01*
X187405249Y-59875000D01*
X187386313Y-59706941D01*
X187330456Y-59547310D01*
X187269505Y-59450308D01*
X187250500Y-59384337D01*
X187250500Y-57411229D01*
X187264015Y-57354934D01*
X187301615Y-57310911D01*
X187355102Y-57288756D01*
X187412818Y-57293298D01*
X187462181Y-57323548D01*
X187554110Y-57415477D01*
X187697310Y-57505456D01*
X187856941Y-57561313D01*
X188025000Y-57580249D01*
X188193059Y-57561313D01*
X188352690Y-57505456D01*
X188495890Y-57415477D01*
X188615477Y-57295890D01*
X188705456Y-57152690D01*
X188761313Y-56993059D01*
X188780249Y-56825000D01*
X188761313Y-56656941D01*
X188705456Y-56497310D01*
X188644505Y-56400308D01*
X188625500Y-56334337D01*
X188625500Y-55986229D01*
X188639015Y-55929934D01*
X188676615Y-55885911D01*
X188730102Y-55863756D01*
X188787818Y-55868298D01*
X188837181Y-55898548D01*
X189819786Y-56881153D01*
X189819788Y-56881156D01*
X190963181Y-58024549D01*
X190990061Y-58064777D01*
X190999500Y-58112230D01*
X190999500Y-59509914D01*
X190985667Y-59566828D01*
X190947255Y-59611043D01*
X190892834Y-59632696D01*
X190834546Y-59626956D01*
X190824633Y-59623487D01*
X190824630Y-59623486D01*
X190818059Y-59621187D01*
X190811142Y-59620407D01*
X190811135Y-59620406D01*
X190656923Y-59603031D01*
X190650000Y-59602251D01*
X190643077Y-59603031D01*
X190488864Y-59620406D01*
X190488855Y-59620407D01*
X190481941Y-59621187D01*
X190475371Y-59623485D01*
X190475366Y-59623487D01*
X190328878Y-59674745D01*
X190328872Y-59674747D01*
X190322310Y-59677044D01*
X190316419Y-59680745D01*
X190316418Y-59680746D01*
X190185010Y-59763315D01*
X190185005Y-59763318D01*
X190179110Y-59767023D01*
X190174185Y-59771947D01*
X190174181Y-59771951D01*
X190064451Y-59881681D01*
X190064447Y-59881685D01*
X190059523Y-59886610D01*
X190055818Y-59892505D01*
X190055815Y-59892510D01*
X189973246Y-60023918D01*
X189969544Y-60029810D01*
X189967247Y-60036372D01*
X189967245Y-60036378D01*
X189915987Y-60182866D01*
X189915985Y-60182871D01*
X189913687Y-60189441D01*
X189912907Y-60196355D01*
X189912906Y-60196364D01*
X189911530Y-60208581D01*
X189894751Y-60357500D01*
X189895531Y-60364423D01*
X189912906Y-60518635D01*
X189912907Y-60518642D01*
X189913687Y-60525559D01*
X189915986Y-60532130D01*
X189915987Y-60532133D01*
X189922852Y-60551753D01*
X189969544Y-60685190D01*
X189973246Y-60691081D01*
X190030494Y-60782191D01*
X190049500Y-60848163D01*
X190049500Y-65328526D01*
X190030688Y-65394188D01*
X189979960Y-65439926D01*
X189912708Y-65451864D01*
X189849338Y-65426379D01*
X189677559Y-65292678D01*
X189677557Y-65292676D01*
X189673509Y-65289526D01*
X189665761Y-65285333D01*
X189459316Y-65173610D01*
X189459310Y-65173607D01*
X189454810Y-65171172D01*
X189449969Y-65169510D01*
X189449962Y-65169507D01*
X189224465Y-65092094D01*
X189224461Y-65092093D01*
X189219614Y-65090429D01*
X189210768Y-65088952D01*
X188979398Y-65050344D01*
X188979387Y-65050343D01*
X188974335Y-65049500D01*
X188725665Y-65049500D01*
X188720613Y-65050343D01*
X188720601Y-65050344D01*
X188645569Y-65062865D01*
X188587284Y-65058630D01*
X188537411Y-65028170D01*
X188507028Y-64978250D01*
X188502883Y-64919959D01*
X188525893Y-64866245D01*
X188543796Y-64842331D01*
X188594091Y-64707483D01*
X188600500Y-64647873D01*
X188600499Y-62952128D01*
X188594091Y-62892517D01*
X188543796Y-62757669D01*
X188457546Y-62642454D01*
X188342331Y-62556204D01*
X188230155Y-62514365D01*
X188214752Y-62508620D01*
X188214750Y-62508619D01*
X188207483Y-62505909D01*
X188199770Y-62505079D01*
X188199767Y-62505079D01*
X188151180Y-62499855D01*
X188151169Y-62499854D01*
X188147873Y-62499500D01*
X188144550Y-62499500D01*
X186455439Y-62499500D01*
X186455420Y-62499500D01*
X186452128Y-62499501D01*
X186448850Y-62499853D01*
X186448838Y-62499854D01*
X186400231Y-62505079D01*
X186400225Y-62505080D01*
X186392517Y-62505909D01*
X186385252Y-62508618D01*
X186385246Y-62508620D01*
X186265980Y-62553104D01*
X186265978Y-62553104D01*
X186257669Y-62556204D01*
X186250572Y-62561516D01*
X186250568Y-62561519D01*
X186149550Y-62637141D01*
X186149546Y-62637144D01*
X186142454Y-62642454D01*
X186137144Y-62649546D01*
X186137141Y-62649550D01*
X186061519Y-62750568D01*
X186061516Y-62750572D01*
X186056204Y-62757669D01*
X186053104Y-62765978D01*
X186053104Y-62765980D01*
X186008620Y-62885247D01*
X186008619Y-62885250D01*
X186005909Y-62892517D01*
X186005079Y-62900227D01*
X186005079Y-62900232D01*
X185999855Y-62948819D01*
X185999854Y-62948831D01*
X185999500Y-62952127D01*
X185999500Y-62955448D01*
X185999500Y-62955449D01*
X185999500Y-64644560D01*
X185999500Y-64644578D01*
X185999501Y-64647872D01*
X185999853Y-64651150D01*
X185999854Y-64651161D01*
X186005079Y-64699768D01*
X186005080Y-64699773D01*
X186005909Y-64707483D01*
X186008619Y-64714749D01*
X186008620Y-64714753D01*
X186039005Y-64796217D01*
X186056204Y-64842331D01*
X186061517Y-64849428D01*
X186061519Y-64849431D01*
X186095457Y-64894767D01*
X186142454Y-64957546D01*
X186257669Y-65043796D01*
X186392517Y-65094091D01*
X186452127Y-65100500D01*
X186602939Y-65100499D01*
X186650391Y-65109938D01*
X186690620Y-65136818D01*
X186717500Y-65177046D01*
X186765464Y-65292841D01*
X186861718Y-65418282D01*
X186868164Y-65423228D01*
X186886769Y-65437504D01*
X186898964Y-65448199D01*
X187393501Y-65942736D01*
X187426584Y-66002273D01*
X187423711Y-66060555D01*
X187425937Y-66061119D01*
X187366151Y-66297204D01*
X187366149Y-66297213D01*
X187364892Y-66302179D01*
X187364468Y-66307288D01*
X187364467Y-66307298D01*
X187344781Y-66544883D01*
X187344357Y-66550000D01*
X187344781Y-66555117D01*
X187364467Y-66792701D01*
X187364468Y-66792709D01*
X187364892Y-66797821D01*
X187366149Y-66802788D01*
X187366151Y-66802795D01*
X187424678Y-67033910D01*
X187425937Y-67038881D01*
X187427997Y-67043577D01*
X187523766Y-67261910D01*
X187523769Y-67261916D01*
X187525827Y-67266607D01*
X187528627Y-67270893D01*
X187528631Y-67270900D01*
X187650500Y-67457434D01*
X187661836Y-67474785D01*
X187665310Y-67478559D01*
X187665311Y-67478560D01*
X187826784Y-67653967D01*
X187826787Y-67653970D01*
X187830256Y-67657738D01*
X188026491Y-67810474D01*
X188184517Y-67895993D01*
X188232023Y-67941574D01*
X188249500Y-68005048D01*
X188249500Y-71594952D01*
X188232023Y-71658426D01*
X188184517Y-71704006D01*
X188131202Y-71732858D01*
X188031002Y-71787084D01*
X188030995Y-71787088D01*
X188026491Y-71789526D01*
X188022448Y-71792672D01*
X188022440Y-71792678D01*
X187850662Y-71926379D01*
X187830256Y-71942262D01*
X187826793Y-71946023D01*
X187826784Y-71946032D01*
X187665311Y-72121439D01*
X187665305Y-72121446D01*
X187661836Y-72125215D01*
X187659031Y-72129506D01*
X187659028Y-72129512D01*
X187528631Y-72329099D01*
X187528624Y-72329111D01*
X187525827Y-72333393D01*
X187523772Y-72338077D01*
X187523766Y-72338089D01*
X187427997Y-72556422D01*
X187425937Y-72561119D01*
X187424679Y-72566084D01*
X187424678Y-72566089D01*
X187366151Y-72797204D01*
X187366149Y-72797213D01*
X187364892Y-72802179D01*
X187364468Y-72807288D01*
X187364467Y-72807298D01*
X187344781Y-73044883D01*
X187344357Y-73050000D01*
X187344781Y-73055117D01*
X187364467Y-73292701D01*
X187364468Y-73292709D01*
X187364892Y-73297821D01*
X187366149Y-73302788D01*
X187366151Y-73302795D01*
X187424678Y-73533910D01*
X187425937Y-73538881D01*
X187427997Y-73543577D01*
X187523766Y-73761910D01*
X187523769Y-73761916D01*
X187525827Y-73766607D01*
X187528627Y-73770893D01*
X187528631Y-73770900D01*
X187656675Y-73966885D01*
X187661836Y-73974785D01*
X187665310Y-73978559D01*
X187665311Y-73978560D01*
X187826784Y-74153967D01*
X187826787Y-74153970D01*
X187830256Y-74157738D01*
X188026491Y-74310474D01*
X188088466Y-74344013D01*
X188134104Y-74386561D01*
X188153244Y-74445951D01*
X188141036Y-74507143D01*
X188100572Y-74554641D01*
X188040298Y-74596845D01*
X188040289Y-74596852D01*
X188035861Y-74599953D01*
X188032036Y-74603777D01*
X188032037Y-74603777D01*
X187895342Y-74740472D01*
X187837904Y-74773045D01*
X187771890Y-74771518D01*
X187726680Y-74743038D01*
X187725919Y-74744047D01*
X187696749Y-74722019D01*
X187687936Y-74714701D01*
X187669425Y-74697825D01*
X187669422Y-74697823D01*
X187660933Y-74690084D01*
X187650219Y-74685933D01*
X187648105Y-74684624D01*
X187647892Y-74684478D01*
X187647638Y-74684366D01*
X187645433Y-74683268D01*
X187636264Y-74676344D01*
X187625213Y-74673199D01*
X187625212Y-74673199D01*
X187601121Y-74666345D01*
X187590262Y-74662706D01*
X187566886Y-74653650D01*
X187566884Y-74653649D01*
X187556173Y-74649500D01*
X187544683Y-74649500D01*
X187542259Y-74649047D01*
X187541988Y-74648983D01*
X187541720Y-74648971D01*
X187539256Y-74648742D01*
X187528207Y-74645599D01*
X187516767Y-74646659D01*
X187491817Y-74648971D01*
X187480376Y-74649500D01*
X181286709Y-74649500D01*
X181224118Y-74632544D01*
X181178645Y-74586313D01*
X181162726Y-74523450D01*
X181180715Y-74461148D01*
X181227689Y-74416445D01*
X181423509Y-74310474D01*
X181619744Y-74157738D01*
X181788164Y-73974785D01*
X181924173Y-73766607D01*
X182024063Y-73538881D01*
X182085108Y-73297821D01*
X182105643Y-73050000D01*
X182085108Y-72802179D01*
X182024063Y-72561119D01*
X181924173Y-72333393D01*
X181788164Y-72125215D01*
X181695112Y-72024133D01*
X181623215Y-71946032D01*
X181623211Y-71946029D01*
X181619744Y-71942262D01*
X181423509Y-71789526D01*
X181265482Y-71704006D01*
X181217977Y-71658426D01*
X181200500Y-71594952D01*
X181200500Y-68005048D01*
X181217977Y-67941574D01*
X181265482Y-67895993D01*
X181423509Y-67810474D01*
X181619744Y-67657738D01*
X181788164Y-67474785D01*
X181924173Y-67266607D01*
X182024063Y-67038881D01*
X182085108Y-66797821D01*
X182105643Y-66550000D01*
X182085108Y-66302179D01*
X182024063Y-66061119D01*
X181924173Y-65833393D01*
X181788164Y-65625215D01*
X181784688Y-65621439D01*
X181623214Y-65446031D01*
X181623210Y-65446027D01*
X181619744Y-65442262D01*
X181615698Y-65439112D01*
X181615319Y-65438764D01*
X181582915Y-65390320D01*
X181576223Y-65332424D01*
X181596719Y-65277866D01*
X181637979Y-65240418D01*
X181642331Y-65238796D01*
X181757546Y-65152546D01*
X181843796Y-65037331D01*
X181894091Y-64902483D01*
X181900500Y-64842873D01*
X181900499Y-63147128D01*
X181894091Y-63087517D01*
X181843796Y-62952669D01*
X181757546Y-62837454D01*
X181642331Y-62751204D01*
X181507483Y-62700909D01*
X181499770Y-62700079D01*
X181499767Y-62700079D01*
X181451180Y-62694855D01*
X181451169Y-62694854D01*
X181447873Y-62694500D01*
X181444551Y-62694500D01*
X180224500Y-62694500D01*
X180162500Y-62677887D01*
X180117113Y-62632500D01*
X180100500Y-62570500D01*
X180100500Y-57749136D01*
X180113288Y-57694292D01*
X180149014Y-57650760D01*
X180200309Y-57627519D01*
X180256590Y-57629360D01*
X180373308Y-57660635D01*
X180600000Y-57680468D01*
X180826692Y-57660635D01*
X181046496Y-57601739D01*
X181252734Y-57505568D01*
X181437883Y-57375925D01*
X181489898Y-57354983D01*
X181545822Y-57359094D01*
X181594217Y-57387420D01*
X181625186Y-57434168D01*
X181642902Y-57481666D01*
X181650720Y-57524999D01*
X181642902Y-57568333D01*
X181608620Y-57660247D01*
X181608620Y-57660249D01*
X181605909Y-57667517D01*
X181605079Y-57675227D01*
X181605079Y-57675232D01*
X181599855Y-57723819D01*
X181599854Y-57723831D01*
X181599500Y-57727127D01*
X181599500Y-57730448D01*
X181599500Y-57730449D01*
X181599500Y-59319560D01*
X181599500Y-59319578D01*
X181599501Y-59322872D01*
X181599853Y-59326150D01*
X181599854Y-59326161D01*
X181605079Y-59374768D01*
X181605080Y-59374773D01*
X181605909Y-59382483D01*
X181608619Y-59389749D01*
X181608620Y-59389753D01*
X181631206Y-59450309D01*
X181642901Y-59481665D01*
X181642902Y-59481666D01*
X181650720Y-59524999D01*
X181642902Y-59568331D01*
X181608621Y-59660244D01*
X181608621Y-59660246D01*
X181605909Y-59667517D01*
X181605079Y-59675227D01*
X181605079Y-59675232D01*
X181599855Y-59723819D01*
X181599854Y-59723831D01*
X181599500Y-59727127D01*
X181599500Y-59730448D01*
X181599500Y-59730449D01*
X181599500Y-61319560D01*
X181599500Y-61319578D01*
X181599501Y-61322872D01*
X181599853Y-61326150D01*
X181599854Y-61326161D01*
X181605079Y-61374768D01*
X181605080Y-61374773D01*
X181605909Y-61382483D01*
X181608619Y-61389749D01*
X181608620Y-61389753D01*
X181642217Y-61479831D01*
X181656204Y-61517331D01*
X181742454Y-61632546D01*
X181857669Y-61718796D01*
X181992517Y-61769091D01*
X182052127Y-61775500D01*
X184147872Y-61775499D01*
X184207483Y-61769091D01*
X184342331Y-61718796D01*
X184457546Y-61632546D01*
X184543796Y-61517331D01*
X184594091Y-61382483D01*
X184600500Y-61322873D01*
X184600499Y-59727128D01*
X184594091Y-59667517D01*
X184557096Y-59568329D01*
X184549279Y-59524999D01*
X184557095Y-59481673D01*
X184594091Y-59382483D01*
X184600500Y-59322873D01*
X184600499Y-57727128D01*
X184594091Y-57667517D01*
X184557095Y-57568327D01*
X184549279Y-57525000D01*
X184557095Y-57481672D01*
X184594091Y-57382483D01*
X184600500Y-57322873D01*
X184600499Y-55727128D01*
X184594091Y-55667517D01*
X184557096Y-55568329D01*
X184549279Y-55524999D01*
X184557095Y-55481673D01*
X184594091Y-55382483D01*
X184600500Y-55322873D01*
X184600499Y-54849094D01*
X184614014Y-54792801D01*
X184651614Y-54748778D01*
X184705101Y-54726623D01*
X184762817Y-54731165D01*
G37*
%TD.AperFunction*%
%TA.AperFunction,Conductor*%
G36*
X196547356Y-47134939D02*
G01*
X196587584Y-47161819D01*
X197563181Y-48137416D01*
X197590061Y-48177644D01*
X197599500Y-48225097D01*
X197599500Y-48774902D01*
X197590061Y-48822355D01*
X197563181Y-48862583D01*
X196808965Y-49616798D01*
X196796774Y-49627490D01*
X196778165Y-49641770D01*
X196778161Y-49641773D01*
X196771718Y-49646718D01*
X196766774Y-49653160D01*
X196766772Y-49653163D01*
X196680410Y-49765711D01*
X196680405Y-49765719D01*
X196677818Y-49769091D01*
X196675464Y-49772159D01*
X196672355Y-49779662D01*
X196672354Y-49779666D01*
X196618066Y-49910728D01*
X196618064Y-49910733D01*
X196614956Y-49918238D01*
X196613896Y-49926289D01*
X196613894Y-49926297D01*
X196603951Y-50001828D01*
X196594318Y-50075000D01*
X196595379Y-50083059D01*
X196598439Y-50106302D01*
X196599500Y-50122487D01*
X196599500Y-53824903D01*
X196590061Y-53872356D01*
X196563181Y-53912584D01*
X193541066Y-56934697D01*
X193490960Y-56965186D01*
X193432447Y-56969236D01*
X193378619Y-56945940D01*
X193341518Y-56900512D01*
X193330184Y-56846623D01*
X193330347Y-56845595D01*
X193326050Y-56800140D01*
X193325500Y-56788470D01*
X193325500Y-53484028D01*
X193342697Y-53421027D01*
X193389519Y-53375500D01*
X193452978Y-53360077D01*
X193515472Y-53379034D01*
X193572620Y-53414942D01*
X193597310Y-53430456D01*
X193756941Y-53486313D01*
X193925000Y-53505249D01*
X194093059Y-53486313D01*
X194252690Y-53430456D01*
X194395890Y-53340477D01*
X194515477Y-53220890D01*
X194605456Y-53077690D01*
X194661313Y-52918059D01*
X194680249Y-52750000D01*
X194661313Y-52581941D01*
X194605456Y-52422310D01*
X194515477Y-52279110D01*
X194480920Y-52244553D01*
X194448531Y-52187843D01*
X194449448Y-52122542D01*
X194483416Y-52066763D01*
X194539678Y-52036693D01*
X194543059Y-52036313D01*
X194702690Y-51980456D01*
X194845890Y-51890477D01*
X194965477Y-51770890D01*
X195055456Y-51627690D01*
X195111313Y-51468059D01*
X195130249Y-51300000D01*
X195111313Y-51131941D01*
X195055456Y-50972310D01*
X194994505Y-50875308D01*
X194975500Y-50809337D01*
X194975500Y-47740663D01*
X194994506Y-47674691D01*
X195055456Y-47577690D01*
X195111313Y-47418059D01*
X195130249Y-47250000D01*
X195129978Y-47247598D01*
X195146082Y-47187500D01*
X195191469Y-47142113D01*
X195253469Y-47125500D01*
X196499903Y-47125500D01*
X196547356Y-47134939D01*
G37*
%TD.AperFunction*%
%TA.AperFunction,Conductor*%
G36*
X202812500Y-44767113D02*
G01*
X202857887Y-44812500D01*
X202874500Y-44874500D01*
X202874500Y-45337283D01*
X202855995Y-45402450D01*
X202806004Y-45448167D01*
X202739447Y-45460789D01*
X202676189Y-45436550D01*
X202649431Y-45416519D01*
X202649430Y-45416518D01*
X202642331Y-45411204D01*
X202507483Y-45360909D01*
X202499770Y-45360079D01*
X202499767Y-45360079D01*
X202451180Y-45354855D01*
X202451169Y-45354854D01*
X202447873Y-45354500D01*
X202444550Y-45354500D01*
X200755439Y-45354500D01*
X200755420Y-45354500D01*
X200752128Y-45354501D01*
X200748850Y-45354853D01*
X200748838Y-45354854D01*
X200700231Y-45360079D01*
X200700225Y-45360080D01*
X200692517Y-45360909D01*
X200685252Y-45363618D01*
X200685246Y-45363620D01*
X200565980Y-45408104D01*
X200565978Y-45408104D01*
X200557669Y-45411204D01*
X200550572Y-45416516D01*
X200550568Y-45416519D01*
X200449550Y-45492141D01*
X200449546Y-45492144D01*
X200442454Y-45497454D01*
X200437144Y-45504546D01*
X200437141Y-45504550D01*
X200361519Y-45605568D01*
X200361516Y-45605572D01*
X200356204Y-45612669D01*
X200353104Y-45620978D01*
X200353104Y-45620980D01*
X200308620Y-45740247D01*
X200308619Y-45740250D01*
X200305909Y-45747517D01*
X200305079Y-45755227D01*
X200305079Y-45755232D01*
X200299855Y-45803819D01*
X200299854Y-45803831D01*
X200299500Y-45807127D01*
X200299500Y-45810449D01*
X200299500Y-47152756D01*
X200280606Y-47218549D01*
X200229681Y-47264292D01*
X200162247Y-47276045D01*
X200147873Y-47274500D01*
X200144551Y-47274500D01*
X198450097Y-47274500D01*
X198402644Y-47265061D01*
X198362416Y-47238181D01*
X197258199Y-46133964D01*
X197247504Y-46121769D01*
X197233228Y-46103164D01*
X197228282Y-46096718D01*
X197102841Y-46000464D01*
X197095333Y-45997354D01*
X196964271Y-45943066D01*
X196964268Y-45943065D01*
X196956762Y-45939956D01*
X196948708Y-45938895D01*
X196948702Y-45938894D01*
X196839361Y-45924500D01*
X196808059Y-45920379D01*
X196800000Y-45919318D01*
X196791941Y-45920379D01*
X196768698Y-45923439D01*
X196752513Y-45924500D01*
X190495663Y-45924500D01*
X190429691Y-45905494D01*
X190332690Y-45844544D01*
X190326124Y-45842246D01*
X190326121Y-45842245D01*
X190179633Y-45790987D01*
X190179630Y-45790986D01*
X190173059Y-45788687D01*
X190166142Y-45787907D01*
X190166135Y-45787906D01*
X190011923Y-45770531D01*
X190005000Y-45769751D01*
X189998077Y-45770531D01*
X189843864Y-45787906D01*
X189843855Y-45787907D01*
X189836941Y-45788687D01*
X189830371Y-45790985D01*
X189830366Y-45790987D01*
X189683878Y-45842245D01*
X189683872Y-45842247D01*
X189677310Y-45844544D01*
X189671419Y-45848245D01*
X189671418Y-45848246D01*
X189540010Y-45930815D01*
X189540005Y-45930818D01*
X189534110Y-45934523D01*
X189529185Y-45939447D01*
X189529181Y-45939451D01*
X189419451Y-46049181D01*
X189419447Y-46049185D01*
X189414523Y-46054110D01*
X189410818Y-46060005D01*
X189410815Y-46060010D01*
X189364347Y-46133964D01*
X189324544Y-46197310D01*
X189322247Y-46203872D01*
X189322245Y-46203878D01*
X189270987Y-46350366D01*
X189270985Y-46350371D01*
X189268687Y-46356941D01*
X189267907Y-46363855D01*
X189267906Y-46363864D01*
X189250531Y-46518077D01*
X189249751Y-46525000D01*
X189250531Y-46531923D01*
X189267906Y-46686135D01*
X189267907Y-46686142D01*
X189268687Y-46693059D01*
X189324544Y-46852690D01*
X189414523Y-46995890D01*
X189534110Y-47115477D01*
X189677310Y-47205456D01*
X189836941Y-47261313D01*
X190005000Y-47280249D01*
X190173059Y-47261313D01*
X190332690Y-47205456D01*
X190429691Y-47144505D01*
X190495663Y-47125500D01*
X191296531Y-47125500D01*
X191358531Y-47142113D01*
X191403918Y-47187500D01*
X191420021Y-47247598D01*
X191419751Y-47250000D01*
X191420531Y-47256923D01*
X191437906Y-47411135D01*
X191437907Y-47411142D01*
X191438687Y-47418059D01*
X191440986Y-47424630D01*
X191440987Y-47424633D01*
X191489222Y-47562483D01*
X191494544Y-47577690D01*
X191498246Y-47583581D01*
X191555494Y-47674691D01*
X191574500Y-47740663D01*
X191574500Y-51154279D01*
X191560667Y-51211193D01*
X191522255Y-51255408D01*
X191467834Y-51277061D01*
X191409546Y-51271321D01*
X191287133Y-51228487D01*
X191287130Y-51228486D01*
X191280559Y-51226187D01*
X191273642Y-51225407D01*
X191273635Y-51225406D01*
X191119423Y-51208031D01*
X191112500Y-51207251D01*
X191105577Y-51208031D01*
X190951364Y-51225406D01*
X190951355Y-51225407D01*
X190944441Y-51226187D01*
X190937871Y-51228485D01*
X190937866Y-51228487D01*
X190791378Y-51279745D01*
X190791372Y-51279747D01*
X190784810Y-51282044D01*
X190778919Y-51285745D01*
X190778918Y-51285746D01*
X190707703Y-51330494D01*
X190641731Y-51349500D01*
X189440663Y-51349500D01*
X189374691Y-51330494D01*
X189357290Y-51319560D01*
X189277690Y-51269544D01*
X189271124Y-51267246D01*
X189271121Y-51267245D01*
X189124633Y-51215987D01*
X189124630Y-51215986D01*
X189118059Y-51213687D01*
X189111142Y-51212907D01*
X189111135Y-51212906D01*
X188956923Y-51195531D01*
X188950000Y-51194751D01*
X188943077Y-51195531D01*
X188788864Y-51212906D01*
X188788855Y-51212907D01*
X188781941Y-51213687D01*
X188775371Y-51215985D01*
X188775366Y-51215987D01*
X188628878Y-51267245D01*
X188628872Y-51267247D01*
X188622310Y-51269544D01*
X188616419Y-51273245D01*
X188616418Y-51273246D01*
X188485010Y-51355815D01*
X188485005Y-51355818D01*
X188479110Y-51359523D01*
X188474185Y-51364447D01*
X188474181Y-51364451D01*
X188364451Y-51474181D01*
X188364447Y-51474185D01*
X188359523Y-51479110D01*
X188355818Y-51485005D01*
X188355815Y-51485010D01*
X188330688Y-51525000D01*
X188269544Y-51622310D01*
X188267247Y-51628872D01*
X188267245Y-51628878D01*
X188215987Y-51775366D01*
X188215985Y-51775371D01*
X188213687Y-51781941D01*
X188212907Y-51788855D01*
X188212906Y-51788864D01*
X188195562Y-51942801D01*
X188194751Y-51950000D01*
X188195531Y-51956923D01*
X188212906Y-52111135D01*
X188212907Y-52111142D01*
X188213687Y-52118059D01*
X188215986Y-52124630D01*
X188215987Y-52124633D01*
X188242184Y-52199501D01*
X188269544Y-52277690D01*
X188359523Y-52420890D01*
X188479110Y-52540477D01*
X188622310Y-52630456D01*
X188781941Y-52686313D01*
X188950000Y-52705249D01*
X189118059Y-52686313D01*
X189277690Y-52630456D01*
X189374691Y-52569505D01*
X189440663Y-52550500D01*
X190601944Y-52550500D01*
X190667915Y-52569505D01*
X190784810Y-52642956D01*
X190944441Y-52698813D01*
X191112500Y-52717749D01*
X191280559Y-52698813D01*
X191440190Y-52642956D01*
X191583390Y-52552977D01*
X191598431Y-52537935D01*
X191645156Y-52508574D01*
X191699996Y-52502395D01*
X191752084Y-52520621D01*
X191847310Y-52580456D01*
X191874487Y-52589965D01*
X191927520Y-52626120D01*
X191955372Y-52683950D01*
X191950577Y-52747958D01*
X191940987Y-52775364D01*
X191940984Y-52775374D01*
X191938687Y-52781941D01*
X191937907Y-52788855D01*
X191937906Y-52788864D01*
X191925287Y-52900864D01*
X191919751Y-52950000D01*
X191920531Y-52956923D01*
X191937906Y-53111135D01*
X191937907Y-53111142D01*
X191938687Y-53118059D01*
X191940986Y-53124630D01*
X191940987Y-53124633D01*
X191988013Y-53259027D01*
X191994544Y-53277690D01*
X191998245Y-53283580D01*
X191998247Y-53283584D01*
X192005493Y-53295115D01*
X192024500Y-53361088D01*
X192024500Y-56504192D01*
X192015061Y-56551645D01*
X191988183Y-56591870D01*
X191908389Y-56671663D01*
X191852803Y-56703756D01*
X191788616Y-56703756D01*
X191733029Y-56671662D01*
X191224784Y-56163416D01*
X191224783Y-56163415D01*
X191224777Y-56163409D01*
X191224773Y-56163406D01*
X190912279Y-55850911D01*
X190912277Y-55850908D01*
X188011369Y-52950000D01*
X185100728Y-50039360D01*
X185088947Y-50025727D01*
X185078925Y-50012265D01*
X185078921Y-50012261D01*
X185074610Y-50006470D01*
X185036667Y-49974631D01*
X185028691Y-49967323D01*
X185027329Y-49965961D01*
X185027328Y-49965960D01*
X185024777Y-49963409D01*
X185021953Y-49961176D01*
X185021944Y-49961168D01*
X185000445Y-49944170D01*
X184997674Y-49941913D01*
X184940214Y-49893698D01*
X184933760Y-49890456D01*
X184930859Y-49888548D01*
X184930588Y-49888352D01*
X184930292Y-49888187D01*
X184927339Y-49886366D01*
X184921677Y-49881889D01*
X184915134Y-49878838D01*
X184915131Y-49878836D01*
X184853692Y-49850186D01*
X184850446Y-49848615D01*
X184789884Y-49818200D01*
X184789885Y-49818200D01*
X184783433Y-49814960D01*
X184776409Y-49813295D01*
X184773151Y-49812109D01*
X184772832Y-49811977D01*
X184772504Y-49811884D01*
X184769218Y-49810794D01*
X184762673Y-49807743D01*
X184755606Y-49806283D01*
X184755601Y-49806282D01*
X184694230Y-49793610D01*
X184646889Y-49772829D01*
X184612137Y-49734549D01*
X184596016Y-49685425D01*
X184594920Y-49675231D01*
X184594091Y-49667517D01*
X184543796Y-49532669D01*
X184457546Y-49417454D01*
X184342331Y-49331204D01*
X184207483Y-49280909D01*
X184199770Y-49280079D01*
X184199767Y-49280079D01*
X184151180Y-49274855D01*
X184151169Y-49274854D01*
X184147873Y-49274500D01*
X184144550Y-49274500D01*
X182055439Y-49274500D01*
X182055420Y-49274500D01*
X182052128Y-49274501D01*
X182048850Y-49274853D01*
X182048838Y-49274854D01*
X182000231Y-49280079D01*
X182000225Y-49280080D01*
X181992517Y-49280909D01*
X181985252Y-49283618D01*
X181985246Y-49283620D01*
X181865980Y-49328104D01*
X181865978Y-49328104D01*
X181857669Y-49331204D01*
X181850572Y-49336516D01*
X181850568Y-49336519D01*
X181749550Y-49412141D01*
X181749546Y-49412144D01*
X181742454Y-49417454D01*
X181737144Y-49424546D01*
X181737141Y-49424550D01*
X181661519Y-49525568D01*
X181661516Y-49525572D01*
X181656204Y-49532669D01*
X181653104Y-49540978D01*
X181653104Y-49540980D01*
X181608620Y-49660247D01*
X181608620Y-49660249D01*
X181605909Y-49667517D01*
X181605079Y-49675227D01*
X181605079Y-49675232D01*
X181599855Y-49723819D01*
X181599854Y-49723831D01*
X181599500Y-49727127D01*
X181599500Y-49730448D01*
X181599500Y-49730449D01*
X181599500Y-51319560D01*
X181599500Y-51319578D01*
X181599501Y-51322872D01*
X181599853Y-51326150D01*
X181599854Y-51326161D01*
X181605079Y-51374768D01*
X181605080Y-51374773D01*
X181605909Y-51382483D01*
X181608619Y-51389749D01*
X181608620Y-51389753D01*
X181642902Y-51481666D01*
X181650720Y-51524999D01*
X181642902Y-51568331D01*
X181608621Y-51660244D01*
X181608619Y-51660248D01*
X181605909Y-51667517D01*
X181605079Y-51675227D01*
X181605079Y-51675232D01*
X181599855Y-51723819D01*
X181599854Y-51723831D01*
X181599500Y-51727127D01*
X181599500Y-51730448D01*
X181599500Y-51730449D01*
X181599500Y-53149038D01*
X181581509Y-53213366D01*
X181532757Y-53259027D01*
X181467390Y-53272773D01*
X181404378Y-53250613D01*
X181252734Y-53144432D01*
X181181329Y-53111135D01*
X181051405Y-53050550D01*
X181051403Y-53050549D01*
X181046496Y-53048261D01*
X181041271Y-53046861D01*
X181041263Y-53046858D01*
X180831916Y-52990764D01*
X180831907Y-52990762D01*
X180826692Y-52989365D01*
X180821304Y-52988893D01*
X180821301Y-52988893D01*
X180605395Y-52970004D01*
X180600000Y-52969532D01*
X180594605Y-52970004D01*
X180378698Y-52988893D01*
X180378693Y-52988893D01*
X180373308Y-52989365D01*
X180368088Y-52990763D01*
X180368086Y-52990764D01*
X180342215Y-52997696D01*
X180256590Y-53020639D01*
X180200309Y-53022481D01*
X180149014Y-52999240D01*
X180113288Y-52955708D01*
X180100500Y-52900864D01*
X180100500Y-48079499D01*
X180117113Y-48017499D01*
X180162500Y-47972112D01*
X180224500Y-47955499D01*
X181444561Y-47955499D01*
X181447872Y-47955499D01*
X181507483Y-47949091D01*
X181642331Y-47898796D01*
X181757546Y-47812546D01*
X181843796Y-47697331D01*
X181894091Y-47562483D01*
X181900500Y-47502873D01*
X181900499Y-45807128D01*
X181894091Y-45747517D01*
X181843796Y-45612669D01*
X181757546Y-45497454D01*
X181642331Y-45411204D01*
X181507483Y-45360909D01*
X181499770Y-45360079D01*
X181499767Y-45360079D01*
X181451180Y-45354855D01*
X181451169Y-45354854D01*
X181447873Y-45354500D01*
X181444550Y-45354500D01*
X179755439Y-45354500D01*
X179755420Y-45354500D01*
X179752128Y-45354501D01*
X179748850Y-45354853D01*
X179748838Y-45354854D01*
X179700231Y-45360079D01*
X179700225Y-45360080D01*
X179692517Y-45360909D01*
X179685252Y-45363618D01*
X179685246Y-45363620D01*
X179565980Y-45408104D01*
X179565978Y-45408104D01*
X179557669Y-45411204D01*
X179550572Y-45416516D01*
X179550568Y-45416519D01*
X179523811Y-45436550D01*
X179460553Y-45460789D01*
X179393996Y-45448167D01*
X179344005Y-45402450D01*
X179325500Y-45337283D01*
X179325500Y-44874500D01*
X179342113Y-44812500D01*
X179387500Y-44767113D01*
X179449500Y-44750500D01*
X202750500Y-44750500D01*
X202812500Y-44767113D01*
G37*
%TD.AperFunction*%
%TD*%
M02*
