%TF.GenerationSoftware,KiCad,Pcbnew,(7.0.0)*%
%TF.CreationDate,2023-07-04T16:48:58+02:00*%
%TF.ProjectId,attiny85_remote,61747469-6e79-4383-955f-72656d6f7465,rev?*%
%TF.SameCoordinates,Original*%
%TF.FileFunction,Copper,L2,Bot*%
%TF.FilePolarity,Positive*%
%FSLAX46Y46*%
G04 Gerber Fmt 4.6, Leading zero omitted, Abs format (unit mm)*
G04 Created by KiCad (PCBNEW (7.0.0)) date 2023-07-04 16:48:58*
%MOMM*%
%LPD*%
G01*
G04 APERTURE LIST*
G04 Aperture macros list*
%AMRoundRect*
0 Rectangle with rounded corners*
0 $1 Rounding radius*
0 $2 $3 $4 $5 $6 $7 $8 $9 X,Y pos of 4 corners*
0 Add a 4 corners polygon primitive as box body*
4,1,4,$2,$3,$4,$5,$6,$7,$8,$9,$2,$3,0*
0 Add four circle primitives for the rounded corners*
1,1,$1+$1,$2,$3*
1,1,$1+$1,$4,$5*
1,1,$1+$1,$6,$7*
1,1,$1+$1,$8,$9*
0 Add four rect primitives between the rounded corners*
20,1,$1+$1,$2,$3,$4,$5,0*
20,1,$1+$1,$4,$5,$6,$7,0*
20,1,$1+$1,$6,$7,$8,$9,0*
20,1,$1+$1,$8,$9,$2,$3,0*%
G04 Aperture macros list end*
%TA.AperFunction,SMDPad,CuDef*%
%ADD10R,1.000000X1.500000*%
%TD*%
%TA.AperFunction,SMDPad,CuDef*%
%ADD11RoundRect,0.250000X0.250000X0.750000X-0.250000X0.750000X-0.250000X-0.750000X0.250000X-0.750000X0*%
%TD*%
%TA.AperFunction,ComponentPad*%
%ADD12C,2.250000*%
%TD*%
%TA.AperFunction,ComponentPad*%
%ADD13C,1.755000*%
%TD*%
%TA.AperFunction,ComponentPad*%
%ADD14C,1.600000*%
%TD*%
%TA.AperFunction,ComponentPad*%
%ADD15C,2.000000*%
%TD*%
%TA.AperFunction,ComponentPad*%
%ADD16R,1.600000X1.600000*%
%TD*%
%TA.AperFunction,ComponentPad*%
%ADD17O,1.600000X1.600000*%
%TD*%
%TA.AperFunction,SMDPad,CuDef*%
%ADD18R,0.300000X0.800000*%
%TD*%
%TA.AperFunction,SMDPad,CuDef*%
%ADD19R,0.800000X0.300000*%
%TD*%
%TA.AperFunction,SMDPad,CuDef*%
%ADD20R,2.750000X2.750000*%
%TD*%
%TA.AperFunction,ViaPad*%
%ADD21C,0.500000*%
%TD*%
%TA.AperFunction,ViaPad*%
%ADD22C,0.800000*%
%TD*%
%TA.AperFunction,Conductor*%
%ADD23C,0.200000*%
%TD*%
%TA.AperFunction,Conductor*%
%ADD24C,0.500000*%
%TD*%
%TA.AperFunction,Conductor*%
%ADD25C,0.300000*%
%TD*%
G04 APERTURE END LIST*
D10*
%TO.P,J2,1,Pin_1*%
%TO.N,/DRV*%
X193157142Y-60357499D03*
%TO.P,J2,2,Pin_2*%
%TO.N,Net-(D1-A)*%
X194457142Y-60357499D03*
%TO.P,J2,3,Pin_3*%
%TO.N,/INT0*%
X195757142Y-60357499D03*
%TD*%
D11*
%TO.P,REF\u002A\u002A,1*%
%TO.N,GND*%
X195375000Y-53875000D03*
%TD*%
D12*
%TO.P,BT1,+*%
%TO.N,+3.3V*%
X191075000Y-90400000D03*
D13*
%TO.P,BT1,-*%
%TO.N,GND*%
X191075000Y-110400000D03*
%TD*%
D14*
%TO.P,C2,1*%
%TO.N,GND*%
X185725000Y-90525000D03*
%TO.P,C2,2*%
%TO.N,+3.3V*%
X180725000Y-90525000D03*
%TD*%
%TO.P,C1,1*%
%TO.N,GND*%
X196425000Y-90525000D03*
%TO.P,C1,2*%
%TO.N,+3.3V*%
X201425000Y-90525000D03*
%TD*%
D11*
%TO.P,REF\u002A\u002A,1*%
%TO.N,/PB4*%
X187815000Y-46525000D03*
%TD*%
%TO.P,REF\u002A\u002A,1*%
%TO.N,/MISO*%
X194385000Y-46525000D03*
%TD*%
%TO.P,REF\u002A\u002A,1*%
%TO.N,/PB5*%
X185625000Y-46525000D03*
%TD*%
%TO.P,REF\u002A\u002A,1*%
%TO.N,/PB3*%
X190005000Y-46525000D03*
%TD*%
D15*
%TO.P,SW1,1,1*%
%TO.N,Net-(D5-K)*%
X201600000Y-73050000D03*
X201600000Y-66550000D03*
%TO.P,SW1,2,2*%
%TO.N,GND*%
X197100000Y-73050000D03*
X197100000Y-66550000D03*
%TD*%
D16*
%TO.P,D6,1,K*%
%TO.N,Net-(D5-K)*%
X201599999Y-46654999D03*
D17*
%TO.P,D6,2,A*%
%TO.N,/MOSI*%
X201599999Y-54274999D03*
%TD*%
D18*
%TO.P,Attiny85,1,PB5*%
%TO.N,/PB5*%
X192099999Y-56849999D03*
%TO.P,Attiny85,2,PB3*%
%TO.N,/PB3*%
X191599999Y-56849999D03*
%TO.P,Attiny85,3,DNC*%
%TO.N,unconnected-(IC1-DNC-Pad3)*%
X191099999Y-56849999D03*
%TO.P,Attiny85,4,DNC*%
%TO.N,unconnected-(IC1-DNC-Pad4)*%
X190599999Y-56849999D03*
%TO.P,Attiny85,5,PB4*%
%TO.N,/PB4*%
X190099999Y-56849999D03*
D19*
%TO.P,Attiny85,6,DNC*%
%TO.N,unconnected-(IC1-DNC-Pad6)*%
X189149999Y-55899999D03*
%TO.P,Attiny85,7,DNC*%
%TO.N,unconnected-(IC1-DNC-Pad7)*%
X189149999Y-55399999D03*
%TO.P,Attiny85,8,GND*%
%TO.N,GND*%
X189149999Y-54899999D03*
%TO.P,Attiny85,9,DNC*%
%TO.N,unconnected-(IC1-DNC-Pad9)*%
X189149999Y-54399999D03*
%TO.P,Attiny85,10,DNC*%
%TO.N,unconnected-(IC1-DNC-Pad10)*%
X189149999Y-53899999D03*
D18*
%TO.P,Attiny85,11,PB0*%
%TO.N,/MOSI*%
X190099999Y-52949999D03*
%TO.P,Attiny85,12,PB1*%
%TO.N,/MISO*%
X190599999Y-52949999D03*
%TO.P,Attiny85,13,DNC*%
%TO.N,unconnected-(IC1-DNC-Pad13)*%
X191099999Y-52949999D03*
%TO.P,Attiny85,14,PB2*%
%TO.N,/INT0*%
X191599999Y-52949999D03*
%TO.P,Attiny85,15,VCC*%
%TO.N,VCC*%
X192099999Y-52949999D03*
D19*
%TO.P,Attiny85,16,DNC*%
%TO.N,unconnected-(IC1-DNC-Pad16)*%
X193049999Y-53899999D03*
%TO.P,Attiny85,17,DNC*%
%TO.N,unconnected-(IC1-DNC-Pad17)*%
X193049999Y-54399999D03*
%TO.P,Attiny85,18,DNC*%
%TO.N,unconnected-(IC1-DNC-Pad18)*%
X193049999Y-54899999D03*
%TO.P,Attiny85,19,DNC*%
%TO.N,unconnected-(IC1-DNC-Pad19)*%
X193049999Y-55399999D03*
%TO.P,Attiny85,20,DNC*%
%TO.N,unconnected-(IC1-DNC-Pad20)*%
X193049999Y-55899999D03*
D20*
%TO.P,Attiny85,21,GND*%
%TO.N,GND*%
X191099999Y-54899999D03*
%TD*%
D14*
%TO.P,R2,1*%
%TO.N,Net-(Q1-G)*%
X188875000Y-85760000D03*
D17*
%TO.P,R2,2*%
%TO.N,/DRV*%
X188874999Y-75599999D03*
%TD*%
D16*
%TO.P,D3,1,K*%
%TO.N,Net-(D3-K)*%
X180599999Y-63994999D03*
D17*
%TO.P,D3,2,A*%
%TO.N,Net-(D1-A)*%
X180599999Y-56374999D03*
%TD*%
D15*
%TO.P,SW3,1,1*%
%TO.N,Net-(D1-K)*%
X188850000Y-66550000D03*
X188850000Y-73050000D03*
%TO.P,SW3,2,2*%
%TO.N,GND*%
X193350000Y-66550000D03*
X193350000Y-73050000D03*
%TD*%
D11*
%TO.P,REF\u002A\u002A,1*%
%TO.N,GND*%
X193925000Y-96275000D03*
%TD*%
D16*
%TO.P,D4,1,K*%
%TO.N,Net-(D3-K)*%
X180599999Y-46654999D03*
D17*
%TO.P,D4,2,A*%
%TO.N,/MISO*%
X180599999Y-54274999D03*
%TD*%
%TO.P,D5,2,A*%
%TO.N,Net-(D1-A)*%
X201599999Y-56374999D03*
D16*
%TO.P,D5,1,K*%
%TO.N,Net-(D5-K)*%
X201599999Y-63994999D03*
%TD*%
D10*
%TO.P,J1,1,Pin_1*%
%TO.N,/DRV*%
X189257142Y-60357499D03*
%TO.P,J1,2,Pin_2*%
%TO.N,/PB4*%
X187957142Y-60357499D03*
%TO.P,J1,3,Pin_3*%
%TO.N,/RST*%
X186657142Y-60357499D03*
%TD*%
D11*
%TO.P,REF\u002A\u002A,1*%
%TO.N,/MOSI*%
X196575000Y-46525000D03*
%TD*%
D14*
%TO.P,R1,1*%
%TO.N,+3.3V*%
X193275000Y-78440000D03*
D17*
%TO.P,R1,2*%
%TO.N,Net-(Q1-G)*%
X193274999Y-88599999D03*
%TD*%
D11*
%TO.P,REF\u002A\u002A,1*%
%TO.N,+3.3V*%
X188225000Y-96275000D03*
%TD*%
D15*
%TO.P,SW2,1,1*%
%TO.N,Net-(D3-K)*%
X180600000Y-66550000D03*
X180600000Y-73050000D03*
%TO.P,SW2,2,2*%
%TO.N,GND*%
X185100000Y-66550000D03*
X185100000Y-73050000D03*
%TD*%
D11*
%TO.P,REF\u002A\u002A,1*%
%TO.N,/INT0*%
X192195000Y-46525000D03*
%TD*%
D16*
%TO.P,D1,1,K*%
%TO.N,Net-(D1-K)*%
X187299999Y-63799999D03*
D17*
%TO.P,D1,2,A*%
%TO.N,Net-(D1-A)*%
X194919999Y-63799999D03*
%TD*%
D21*
%TO.N,GND*%
X196350000Y-53900000D03*
D22*
X189075000Y-82275000D03*
D21*
X197125000Y-55975000D03*
X190625000Y-59325000D03*
D22*
X191875000Y-85600000D03*
D21*
X195250000Y-54175000D03*
D22*
X188925000Y-79275000D03*
D21*
X197125000Y-56975000D03*
X180825000Y-94400000D03*
X197450000Y-48800000D03*
X190825000Y-55025000D03*
X190175000Y-54075000D03*
X194500000Y-58500000D03*
X193700000Y-90300000D03*
X201150000Y-94275000D03*
X180975000Y-113075000D03*
X183525000Y-63850000D03*
X196400000Y-108025000D03*
X185125000Y-57550000D03*
X191025000Y-49125000D03*
X201800000Y-113025000D03*
X187925000Y-58150000D03*
X195425000Y-49075000D03*
X198500000Y-46175000D03*
X184925000Y-48375000D03*
X185275000Y-56200000D03*
X183100000Y-46525000D03*
X191525000Y-95575000D03*
X191625000Y-54075000D03*
X186150000Y-107575000D03*
D22*
X188900000Y-88350000D03*
D21*
X188500000Y-50550000D03*
D22*
X190525000Y-77375000D03*
D21*
X180725000Y-51275000D03*
X198650000Y-90375000D03*
X199825000Y-46950000D03*
X195500000Y-53225000D03*
%TO.N,/INT0*%
X192175000Y-47250000D03*
X198400000Y-54575000D03*
X192175000Y-51900000D03*
%TO.N,/MOSI*%
X198400000Y-50550000D03*
%TO.N,/MISO*%
X188950000Y-51950000D03*
X194375000Y-51300000D03*
X191112500Y-51962500D03*
X194375000Y-47250000D03*
X198400000Y-52550000D03*
%TO.N,/PB5*%
X193300000Y-47800000D03*
X193925000Y-52750000D03*
%TO.N,/PB3*%
X190005000Y-46525000D03*
X193350000Y-57975000D03*
%TO.N,/PB4*%
X185200000Y-52825000D03*
X188025000Y-56825000D03*
%TO.N,VCC*%
X192675000Y-52950000D03*
%TO.N,/RST*%
X186650000Y-59875000D03*
%TO.N,/DRV*%
X190650000Y-60357500D03*
%TD*%
D23*
%TO.N,Net-(D1-A)*%
X194457143Y-63337143D02*
X194920000Y-63800000D01*
X194457143Y-61950000D02*
X194457143Y-63337143D01*
D24*
%TO.N,+3.3V*%
X187825000Y-93250000D02*
X188225000Y-93250000D01*
X193275000Y-86575000D02*
X193275000Y-78440000D01*
X191825000Y-88025000D02*
X193275000Y-86575000D01*
X188225000Y-93675000D02*
X188225000Y-93250000D01*
X191825000Y-89650000D02*
X191825000Y-88025000D01*
X191075000Y-90400000D02*
X191825000Y-89650000D01*
X180725000Y-90525000D02*
X183450000Y-93250000D01*
X188225000Y-96275000D02*
X188225000Y-93675000D01*
X188225000Y-93650000D02*
X188225000Y-93675000D01*
X188225000Y-93250000D02*
X191075000Y-90400000D01*
X187825000Y-93250000D02*
X188225000Y-93650000D01*
X183450000Y-93250000D02*
X187825000Y-93250000D01*
D25*
%TO.N,GND*%
X189150000Y-54900000D02*
X187325000Y-54900000D01*
X187325000Y-54900000D02*
X187300000Y-54875000D01*
X189150000Y-54900000D02*
X191100000Y-54900000D01*
D23*
%TO.N,/INT0*%
X192025000Y-51925000D02*
X192150000Y-51925000D01*
X195757143Y-60357500D02*
X195757143Y-60117857D01*
X191600000Y-52350000D02*
X192025000Y-51925000D01*
X191600000Y-52950000D02*
X191600000Y-52350000D01*
X198400000Y-57475000D02*
X198400000Y-54575000D01*
X192150000Y-51925000D02*
X192175000Y-51900000D01*
X195750000Y-51925000D02*
X198400000Y-54575000D01*
X195757143Y-60117857D02*
X198400000Y-57475000D01*
X192200000Y-51925000D02*
X195750000Y-51925000D01*
X192175000Y-51900000D02*
X192200000Y-51925000D01*
%TO.N,/MOSI*%
X196400000Y-50550000D02*
X196375000Y-50550000D01*
X190100000Y-52100000D02*
X191650000Y-50550000D01*
X196375000Y-50550000D02*
X198400000Y-50550000D01*
X196575000Y-46525000D02*
X196575000Y-50375000D01*
X191650000Y-50550000D02*
X196375000Y-50550000D01*
X196750000Y-50550000D02*
X198400000Y-50550000D01*
X196575000Y-50375000D02*
X196750000Y-50550000D01*
X196575000Y-50375000D02*
X196400000Y-50550000D01*
X190100000Y-52950000D02*
X190100000Y-52100000D01*
%TO.N,Net-(D1-A)*%
X193989642Y-61775000D02*
X194300000Y-61775000D01*
X194457143Y-61950000D02*
X194457143Y-61925000D01*
X194457143Y-61625000D02*
X194475000Y-61625000D01*
X194307143Y-61775000D02*
X194457143Y-61625000D01*
X194457143Y-60357500D02*
X194457143Y-61625000D01*
X201600000Y-57110000D02*
X201600000Y-56380000D01*
X180600000Y-56380000D02*
X180600000Y-57750000D01*
X194625000Y-61775000D02*
X194625000Y-61782143D01*
X194625000Y-61782143D02*
X194457143Y-61950000D01*
X195089643Y-61775000D02*
X196935000Y-61775000D01*
X194300000Y-61775000D02*
X194307143Y-61775000D01*
X194625000Y-61775000D02*
X195060357Y-61775000D01*
X180600000Y-57750000D02*
X184625000Y-61775000D01*
X184625000Y-61775000D02*
X193989642Y-61775000D01*
X196935000Y-61775000D02*
X201600000Y-57110000D01*
X194457143Y-61925000D02*
X194307143Y-61775000D01*
X194475000Y-61625000D02*
X194625000Y-61775000D01*
X194457143Y-61625000D02*
X194457143Y-61950000D01*
X194300000Y-61775000D02*
X194625000Y-61775000D01*
%TO.N,/MISO*%
X197150000Y-51300000D02*
X198400000Y-52550000D01*
X194375000Y-51300000D02*
X197150000Y-51300000D01*
X191112500Y-51962500D02*
X191775000Y-51300000D01*
X191775000Y-51300000D02*
X194375000Y-51300000D01*
X188950000Y-51950000D02*
X186625000Y-54275000D01*
X186625000Y-54275000D02*
X180600000Y-54275000D01*
X190600000Y-52475000D02*
X190600000Y-52950000D01*
X191112500Y-51962500D02*
X190600000Y-52475000D01*
%TO.N,/PB5*%
X192100000Y-56850000D02*
X193350000Y-56850000D01*
X194200000Y-56000000D02*
X194200000Y-53025000D01*
X187000000Y-45150000D02*
X185625000Y-46525000D01*
X193300000Y-45650000D02*
X192800000Y-45150000D01*
X194200000Y-53025000D02*
X193925000Y-52750000D01*
X193300000Y-47800000D02*
X193300000Y-45650000D01*
X193350000Y-56850000D02*
X194200000Y-56000000D01*
X192800000Y-45150000D02*
X187000000Y-45150000D01*
%TO.N,/PB3*%
X193350000Y-57975000D02*
X192075000Y-57975000D01*
X191600000Y-57500000D02*
X191600000Y-56850000D01*
X192075000Y-57975000D02*
X191600000Y-57500000D01*
%TO.N,/PB4*%
X187957143Y-60357500D02*
X187957143Y-59407500D01*
X185200000Y-50577818D02*
X185200000Y-52825000D01*
X187815000Y-47962818D02*
X185200000Y-50577818D01*
X190100000Y-56850000D02*
X188025000Y-56825000D01*
X190100000Y-57264643D02*
X190100000Y-56850000D01*
X187815000Y-46525000D02*
X187815000Y-47962818D01*
X187957143Y-59407500D02*
X190100000Y-57264643D01*
D25*
%TO.N,VCC*%
X192100000Y-52950000D02*
X192675000Y-52950000D01*
D23*
%TO.N,/DRV*%
X190650000Y-60357500D02*
X189257143Y-60357500D01*
X190650000Y-60357500D02*
X193157143Y-60357500D01*
%TD*%
%TA.AperFunction,Conductor*%
%TO.N,GND*%
G36*
X194525399Y-89226975D02*
G01*
X194548886Y-89233657D01*
X194559750Y-89237298D01*
X194583109Y-89246348D01*
X194583110Y-89246348D01*
X194593827Y-89250500D01*
X194605321Y-89250500D01*
X194607739Y-89250952D01*
X194608014Y-89251016D01*
X194608280Y-89251029D01*
X194610743Y-89251257D01*
X194621793Y-89254401D01*
X194658183Y-89251028D01*
X194669624Y-89250500D01*
X200584544Y-89250500D01*
X200644661Y-89266047D01*
X200689702Y-89308790D01*
X200708374Y-89368011D01*
X200695994Y-89428859D01*
X200655667Y-89476075D01*
X200590296Y-89521847D01*
X200590291Y-89521850D01*
X200585861Y-89524953D01*
X200582037Y-89528776D01*
X200582031Y-89528782D01*
X200428782Y-89682031D01*
X200428776Y-89682037D01*
X200424953Y-89685861D01*
X200421850Y-89690291D01*
X200421847Y-89690296D01*
X200297540Y-89867826D01*
X200297535Y-89867833D01*
X200294432Y-89872266D01*
X200292144Y-89877172D01*
X200292142Y-89877176D01*
X200200550Y-90073594D01*
X200200547Y-90073599D01*
X200198261Y-90078504D01*
X200196862Y-90083724D01*
X200196858Y-90083736D01*
X200140764Y-90293083D01*
X200140762Y-90293094D01*
X200139365Y-90298308D01*
X200119532Y-90525000D01*
X200120004Y-90530394D01*
X200120004Y-90530395D01*
X200130911Y-90655070D01*
X200139365Y-90751692D01*
X200140762Y-90756907D01*
X200140764Y-90756916D01*
X200196858Y-90966263D01*
X200196861Y-90966271D01*
X200198261Y-90971496D01*
X200294432Y-91177734D01*
X200424953Y-91364139D01*
X200585861Y-91525047D01*
X200772266Y-91655568D01*
X200978504Y-91751739D01*
X201198308Y-91810635D01*
X201425000Y-91830468D01*
X201651692Y-91810635D01*
X201871496Y-91751739D01*
X202077734Y-91655568D01*
X202264139Y-91525047D01*
X202425047Y-91364139D01*
X202555568Y-91177734D01*
X202638118Y-91000705D01*
X202681160Y-90950310D01*
X202744011Y-90929281D01*
X202808715Y-90943626D01*
X202856789Y-90989246D01*
X202874500Y-91053111D01*
X202874500Y-114000500D01*
X202857887Y-114062500D01*
X202812500Y-114107887D01*
X202750500Y-114124500D01*
X179449500Y-114124500D01*
X179387500Y-114107887D01*
X179342113Y-114062500D01*
X179325500Y-114000500D01*
X179325500Y-91160336D01*
X179343211Y-91096471D01*
X179391285Y-91050851D01*
X179455989Y-91036506D01*
X179518840Y-91057535D01*
X179561882Y-91107931D01*
X179594432Y-91177734D01*
X179724953Y-91364139D01*
X179885861Y-91525047D01*
X180072266Y-91655568D01*
X180278504Y-91751739D01*
X180498308Y-91810635D01*
X180725000Y-91830468D01*
X180891861Y-91815869D01*
X180945077Y-91822875D01*
X180990348Y-91851716D01*
X182874270Y-93735638D01*
X182886052Y-93749271D01*
X182900390Y-93768530D01*
X182905917Y-93773167D01*
X182905922Y-93773173D01*
X182938337Y-93800372D01*
X182946313Y-93807680D01*
X182950223Y-93811591D01*
X182974556Y-93830831D01*
X182977310Y-93833073D01*
X183034786Y-93881302D01*
X183041245Y-93884546D01*
X183044134Y-93886446D01*
X183044413Y-93886648D01*
X183044713Y-93886815D01*
X183047654Y-93888629D01*
X183053323Y-93893111D01*
X183121321Y-93924819D01*
X183124534Y-93926374D01*
X183191567Y-93960040D01*
X183198594Y-93961705D01*
X183201835Y-93962885D01*
X183202164Y-93963021D01*
X183202498Y-93963116D01*
X183205778Y-93964202D01*
X183212327Y-93967257D01*
X183285894Y-93982447D01*
X183289257Y-93983193D01*
X183362279Y-94000500D01*
X183369510Y-94000500D01*
X183372933Y-94000900D01*
X183373285Y-94000957D01*
X183373626Y-94000972D01*
X183377069Y-94001273D01*
X183384144Y-94002734D01*
X183459129Y-94000552D01*
X183462737Y-94000500D01*
X187350500Y-94000500D01*
X187412500Y-94017113D01*
X187457887Y-94062500D01*
X187474500Y-94124500D01*
X187474500Y-94912770D01*
X187465061Y-94960223D01*
X187438181Y-95000451D01*
X187387393Y-95051238D01*
X187387389Y-95051242D01*
X187382288Y-95056344D01*
X187378503Y-95062480D01*
X187378497Y-95062488D01*
X187293977Y-95199519D01*
X187290186Y-95205666D01*
X187287915Y-95212517D01*
X187287914Y-95212521D01*
X187237131Y-95365774D01*
X187235001Y-95372203D01*
X187234313Y-95378933D01*
X187234312Y-95378940D01*
X187224819Y-95471859D01*
X187224818Y-95471877D01*
X187224500Y-95474991D01*
X187224500Y-95478138D01*
X187224500Y-95478139D01*
X187224500Y-97071859D01*
X187224500Y-97071878D01*
X187224501Y-97075008D01*
X187224820Y-97078140D01*
X187224821Y-97078141D01*
X187234312Y-97171061D01*
X187234313Y-97171069D01*
X187235001Y-97177797D01*
X187290186Y-97344334D01*
X187293977Y-97350480D01*
X187378497Y-97487511D01*
X187378500Y-97487515D01*
X187382288Y-97493656D01*
X187506344Y-97617712D01*
X187512485Y-97621500D01*
X187512488Y-97621502D01*
X187569558Y-97656702D01*
X187655666Y-97709814D01*
X187822203Y-97764999D01*
X187924991Y-97775500D01*
X188525008Y-97775499D01*
X188627797Y-97764999D01*
X188794334Y-97709814D01*
X188943656Y-97617712D01*
X189067712Y-97493656D01*
X189159814Y-97344334D01*
X189214999Y-97177797D01*
X189225500Y-97075009D01*
X189225500Y-97071829D01*
X192925001Y-97071829D01*
X192925321Y-97078111D01*
X192934805Y-97170959D01*
X192937623Y-97184122D01*
X192988370Y-97337267D01*
X192994432Y-97350266D01*
X193078890Y-97487194D01*
X193087794Y-97498455D01*
X193201544Y-97612205D01*
X193212805Y-97621109D01*
X193349733Y-97705567D01*
X193362732Y-97711629D01*
X193515874Y-97762375D01*
X193529041Y-97765194D01*
X193621890Y-97774680D01*
X193628168Y-97775000D01*
X193658674Y-97775000D01*
X193671549Y-97771549D01*
X193675000Y-97758674D01*
X193675000Y-97758673D01*
X194175000Y-97758673D01*
X194178450Y-97771548D01*
X194191326Y-97774999D01*
X194221829Y-97774999D01*
X194228111Y-97774678D01*
X194320959Y-97765194D01*
X194334122Y-97762376D01*
X194487267Y-97711629D01*
X194500266Y-97705567D01*
X194637194Y-97621109D01*
X194648455Y-97612205D01*
X194762205Y-97498455D01*
X194771109Y-97487194D01*
X194855567Y-97350266D01*
X194861629Y-97337267D01*
X194912375Y-97184125D01*
X194915194Y-97170958D01*
X194924680Y-97078109D01*
X194925000Y-97071832D01*
X194925000Y-96541326D01*
X194921549Y-96528450D01*
X194908674Y-96525000D01*
X194191326Y-96525000D01*
X194178450Y-96528450D01*
X194175000Y-96541326D01*
X194175000Y-97758673D01*
X193675000Y-97758673D01*
X193675000Y-96541326D01*
X193671549Y-96528450D01*
X193658674Y-96525000D01*
X192941327Y-96525000D01*
X192928451Y-96528450D01*
X192925001Y-96541326D01*
X192925001Y-97071829D01*
X189225500Y-97071829D01*
X189225499Y-96008674D01*
X192925000Y-96008674D01*
X192928450Y-96021549D01*
X192941326Y-96025000D01*
X193658674Y-96025000D01*
X193671549Y-96021549D01*
X193675000Y-96008674D01*
X194175000Y-96008674D01*
X194178450Y-96021549D01*
X194191326Y-96025000D01*
X194908673Y-96025000D01*
X194921548Y-96021549D01*
X194924999Y-96008674D01*
X194924999Y-95478171D01*
X194924678Y-95471888D01*
X194915194Y-95379040D01*
X194912376Y-95365877D01*
X194861629Y-95212732D01*
X194855567Y-95199733D01*
X194771109Y-95062805D01*
X194762205Y-95051544D01*
X194648455Y-94937794D01*
X194637194Y-94928890D01*
X194500266Y-94844432D01*
X194487267Y-94838370D01*
X194334125Y-94787624D01*
X194320958Y-94784805D01*
X194228109Y-94775319D01*
X194221832Y-94775000D01*
X194191326Y-94775000D01*
X194178450Y-94778450D01*
X194175000Y-94791326D01*
X194175000Y-96008674D01*
X193675000Y-96008674D01*
X193675000Y-94791327D01*
X193671549Y-94778451D01*
X193658674Y-94775001D01*
X193628171Y-94775001D01*
X193621888Y-94775321D01*
X193529040Y-94784805D01*
X193515877Y-94787623D01*
X193362732Y-94838370D01*
X193349733Y-94844432D01*
X193212805Y-94928890D01*
X193201544Y-94937794D01*
X193087794Y-95051544D01*
X193078890Y-95062805D01*
X192994432Y-95199733D01*
X192988370Y-95212732D01*
X192937624Y-95365874D01*
X192934805Y-95379041D01*
X192925319Y-95471890D01*
X192925000Y-95478168D01*
X192925000Y-96008674D01*
X189225499Y-96008674D01*
X189225499Y-95474992D01*
X189214999Y-95372203D01*
X189159814Y-95205666D01*
X189106702Y-95119558D01*
X189071502Y-95062488D01*
X189071500Y-95062485D01*
X189067712Y-95056344D01*
X189011819Y-95000451D01*
X188984939Y-94960223D01*
X188975500Y-94912770D01*
X188975500Y-93713707D01*
X188976809Y-93695736D01*
X188977297Y-93692396D01*
X188980289Y-93671977D01*
X188976004Y-93623002D01*
X188983010Y-93569787D01*
X189011849Y-93524518D01*
X190533734Y-92002632D01*
X190587755Y-91970970D01*
X190650359Y-91969741D01*
X190819930Y-92010452D01*
X191075000Y-92030526D01*
X191330070Y-92010452D01*
X191578860Y-91950722D01*
X191815243Y-91852809D01*
X192033399Y-91719123D01*
X192227956Y-91552956D01*
X192394123Y-91358399D01*
X192527809Y-91140243D01*
X192625722Y-90903860D01*
X192685452Y-90655070D01*
X192705526Y-90400000D01*
X192685452Y-90144930D01*
X192641410Y-89961484D01*
X192644478Y-89892937D01*
X192683528Y-89836514D01*
X192746604Y-89809497D01*
X192814388Y-89820156D01*
X192828504Y-89826739D01*
X192833734Y-89828140D01*
X192833736Y-89828141D01*
X192998414Y-89872266D01*
X193048308Y-89885635D01*
X193275000Y-89905468D01*
X193501692Y-89885635D01*
X193721496Y-89826739D01*
X193927734Y-89730568D01*
X194114139Y-89600047D01*
X194275047Y-89439139D01*
X194389895Y-89275116D01*
X194426912Y-89240372D01*
X194474755Y-89223374D01*
X194525399Y-89226975D01*
G37*
%TD.AperFunction*%
%TA.AperFunction,Conductor*%
G36*
X202816210Y-57110298D02*
G01*
X202858953Y-57155339D01*
X202874500Y-57215456D01*
X202874500Y-62677283D01*
X202855995Y-62742450D01*
X202806004Y-62788167D01*
X202739447Y-62800789D01*
X202676189Y-62776550D01*
X202649431Y-62756519D01*
X202649430Y-62756518D01*
X202642331Y-62751204D01*
X202507483Y-62700909D01*
X202499770Y-62700079D01*
X202499767Y-62700079D01*
X202451180Y-62694855D01*
X202451169Y-62694854D01*
X202447873Y-62694500D01*
X202444550Y-62694500D01*
X200755439Y-62694500D01*
X200755420Y-62694500D01*
X200752128Y-62694501D01*
X200748850Y-62694853D01*
X200748838Y-62694854D01*
X200700231Y-62700079D01*
X200700225Y-62700080D01*
X200692517Y-62700909D01*
X200685252Y-62703618D01*
X200685246Y-62703620D01*
X200565980Y-62748104D01*
X200565978Y-62748104D01*
X200557669Y-62751204D01*
X200550572Y-62756516D01*
X200550568Y-62756519D01*
X200449550Y-62832141D01*
X200449546Y-62832144D01*
X200442454Y-62837454D01*
X200437144Y-62844546D01*
X200437141Y-62844550D01*
X200361519Y-62945568D01*
X200361516Y-62945572D01*
X200356204Y-62952669D01*
X200353104Y-62960978D01*
X200353104Y-62960980D01*
X200308620Y-63080247D01*
X200308619Y-63080250D01*
X200305909Y-63087517D01*
X200305079Y-63095227D01*
X200305079Y-63095232D01*
X200299855Y-63143819D01*
X200299854Y-63143831D01*
X200299500Y-63147127D01*
X200299500Y-63150448D01*
X200299500Y-63150449D01*
X200299500Y-64839560D01*
X200299500Y-64839578D01*
X200299501Y-64842872D01*
X200299853Y-64846150D01*
X200299854Y-64846161D01*
X200305079Y-64894768D01*
X200305080Y-64894773D01*
X200305909Y-64902483D01*
X200308619Y-64909749D01*
X200308620Y-64909753D01*
X200323799Y-64950449D01*
X200356204Y-65037331D01*
X200361518Y-65044430D01*
X200361519Y-65044431D01*
X200403491Y-65100499D01*
X200442454Y-65152546D01*
X200557669Y-65238796D01*
X200562019Y-65240418D01*
X200603280Y-65277866D01*
X200623776Y-65332423D01*
X200617085Y-65390317D01*
X200584684Y-65438760D01*
X200584293Y-65439119D01*
X200580256Y-65442262D01*
X200576796Y-65446020D01*
X200576789Y-65446027D01*
X200415311Y-65621439D01*
X200415305Y-65621446D01*
X200411836Y-65625215D01*
X200409031Y-65629506D01*
X200409028Y-65629512D01*
X200278631Y-65829099D01*
X200278624Y-65829111D01*
X200275827Y-65833393D01*
X200273772Y-65838077D01*
X200273766Y-65838089D01*
X200177997Y-66056422D01*
X200175937Y-66061119D01*
X200174679Y-66066084D01*
X200174678Y-66066089D01*
X200116151Y-66297204D01*
X200116149Y-66297213D01*
X200114892Y-66302179D01*
X200114468Y-66307288D01*
X200114467Y-66307298D01*
X200094781Y-66544883D01*
X200094357Y-66550000D01*
X200094781Y-66555117D01*
X200114467Y-66792701D01*
X200114468Y-66792709D01*
X200114892Y-66797821D01*
X200116149Y-66802788D01*
X200116151Y-66802795D01*
X200174678Y-67033910D01*
X200175937Y-67038881D01*
X200177997Y-67043577D01*
X200273766Y-67261910D01*
X200273769Y-67261916D01*
X200275827Y-67266607D01*
X200278627Y-67270893D01*
X200278631Y-67270900D01*
X200406675Y-67466885D01*
X200411836Y-67474785D01*
X200415310Y-67478559D01*
X200415311Y-67478560D01*
X200576784Y-67653967D01*
X200576787Y-67653970D01*
X200580256Y-67657738D01*
X200776491Y-67810474D01*
X200995190Y-67928828D01*
X201230386Y-68009571D01*
X201475665Y-68050500D01*
X201719201Y-68050500D01*
X201724335Y-68050500D01*
X201969614Y-68009571D01*
X202204810Y-67928828D01*
X202423509Y-67810474D01*
X202619744Y-67657738D01*
X202659270Y-67614800D01*
X202708303Y-67582185D01*
X202766854Y-67575867D01*
X202821717Y-67597274D01*
X202860516Y-67641578D01*
X202874500Y-67698784D01*
X202874500Y-71901216D01*
X202860516Y-71958422D01*
X202821717Y-72002726D01*
X202766854Y-72024133D01*
X202708303Y-72017815D01*
X202659270Y-71985199D01*
X202634620Y-71958422D01*
X202619744Y-71942262D01*
X202423509Y-71789526D01*
X202418997Y-71787084D01*
X202209316Y-71673610D01*
X202209310Y-71673607D01*
X202204810Y-71671172D01*
X202199969Y-71669510D01*
X202199962Y-71669507D01*
X201974465Y-71592094D01*
X201974461Y-71592093D01*
X201969614Y-71590429D01*
X201960768Y-71588952D01*
X201729398Y-71550344D01*
X201729387Y-71550343D01*
X201724335Y-71549500D01*
X201475665Y-71549500D01*
X201470613Y-71550343D01*
X201470601Y-71550344D01*
X201235443Y-71589585D01*
X201235441Y-71589585D01*
X201230386Y-71590429D01*
X201225541Y-71592092D01*
X201225534Y-71592094D01*
X201000037Y-71669507D01*
X201000026Y-71669511D01*
X200995190Y-71671172D01*
X200990693Y-71673605D01*
X200990683Y-71673610D01*
X200781002Y-71787084D01*
X200780995Y-71787088D01*
X200776491Y-71789526D01*
X200772448Y-71792672D01*
X200772440Y-71792678D01*
X200584304Y-71939111D01*
X200580256Y-71942262D01*
X200576793Y-71946023D01*
X200576784Y-71946032D01*
X200415311Y-72121439D01*
X200415305Y-72121446D01*
X200411836Y-72125215D01*
X200409031Y-72129506D01*
X200409028Y-72129512D01*
X200278631Y-72329099D01*
X200278624Y-72329111D01*
X200275827Y-72333393D01*
X200273772Y-72338077D01*
X200273766Y-72338089D01*
X200177997Y-72556422D01*
X200175937Y-72561119D01*
X200174679Y-72566084D01*
X200174678Y-72566089D01*
X200116151Y-72797204D01*
X200116149Y-72797213D01*
X200114892Y-72802179D01*
X200114468Y-72807288D01*
X200114467Y-72807298D01*
X200094781Y-73044883D01*
X200094357Y-73050000D01*
X200094781Y-73055117D01*
X200114467Y-73292701D01*
X200114468Y-73292709D01*
X200114892Y-73297821D01*
X200116149Y-73302788D01*
X200116151Y-73302795D01*
X200174678Y-73533910D01*
X200175937Y-73538881D01*
X200177997Y-73543577D01*
X200273766Y-73761910D01*
X200273769Y-73761916D01*
X200275827Y-73766607D01*
X200278627Y-73770893D01*
X200278631Y-73770900D01*
X200406675Y-73966885D01*
X200411836Y-73974785D01*
X200415310Y-73978559D01*
X200415311Y-73978560D01*
X200576784Y-74153967D01*
X200576787Y-74153970D01*
X200580256Y-74157738D01*
X200776491Y-74310474D01*
X200972310Y-74416445D01*
X201019285Y-74461148D01*
X201037274Y-74523450D01*
X201021355Y-74586313D01*
X200975882Y-74632544D01*
X200913291Y-74649500D01*
X194703160Y-74649500D01*
X194691720Y-74648971D01*
X194689256Y-74648742D01*
X194678207Y-74645599D01*
X194666767Y-74646659D01*
X194641817Y-74648971D01*
X194630376Y-74649500D01*
X194622156Y-74649500D01*
X194616534Y-74650550D01*
X194616519Y-74650552D01*
X194614066Y-74651011D01*
X194602740Y-74652591D01*
X194577778Y-74654904D01*
X194577773Y-74654905D01*
X194566340Y-74655965D01*
X194556057Y-74661084D01*
X194553661Y-74661766D01*
X194553412Y-74661824D01*
X194553180Y-74661927D01*
X194550853Y-74662828D01*
X194539567Y-74664939D01*
X194529805Y-74670982D01*
X194529800Y-74670985D01*
X194508494Y-74684177D01*
X194498496Y-74689745D01*
X194476057Y-74700918D01*
X194476047Y-74700925D01*
X194465772Y-74706042D01*
X194458036Y-74714526D01*
X194456051Y-74716026D01*
X194455838Y-74716171D01*
X194455649Y-74716361D01*
X194453814Y-74718033D01*
X194444048Y-74724081D01*
X194437125Y-74733247D01*
X194437124Y-74733249D01*
X194422025Y-74753243D01*
X194414712Y-74762049D01*
X194397822Y-74780576D01*
X194397816Y-74780584D01*
X194390084Y-74789067D01*
X194385936Y-74799772D01*
X194384618Y-74801901D01*
X194384477Y-74802105D01*
X194384369Y-74802352D01*
X194383263Y-74804571D01*
X194376344Y-74813736D01*
X194373201Y-74824779D01*
X194373201Y-74824781D01*
X194366343Y-74848885D01*
X194362705Y-74859739D01*
X194349500Y-74893827D01*
X194349500Y-74905318D01*
X194349047Y-74907741D01*
X194348983Y-74908011D01*
X194348971Y-74908280D01*
X194348742Y-74910743D01*
X194345599Y-74921793D01*
X194346658Y-74933232D01*
X194346659Y-74933232D01*
X194348971Y-74958183D01*
X194349500Y-74969624D01*
X194349500Y-77375952D01*
X194335985Y-77432247D01*
X194298385Y-77476270D01*
X194244898Y-77498425D01*
X194187182Y-77493883D01*
X194137819Y-77463633D01*
X194117968Y-77443782D01*
X194114139Y-77439953D01*
X193927734Y-77309432D01*
X193721496Y-77213261D01*
X193716271Y-77211861D01*
X193716263Y-77211858D01*
X193506916Y-77155764D01*
X193506907Y-77155762D01*
X193501692Y-77154365D01*
X193496304Y-77153893D01*
X193496301Y-77153893D01*
X193280395Y-77135004D01*
X193275000Y-77134532D01*
X193269605Y-77135004D01*
X193053698Y-77153893D01*
X193053693Y-77153893D01*
X193048308Y-77154365D01*
X193043094Y-77155762D01*
X193043083Y-77155764D01*
X192833736Y-77211858D01*
X192833724Y-77211862D01*
X192828504Y-77213261D01*
X192823599Y-77215547D01*
X192823594Y-77215550D01*
X192627176Y-77307142D01*
X192627172Y-77307144D01*
X192622266Y-77309432D01*
X192617833Y-77312535D01*
X192617826Y-77312540D01*
X192440296Y-77436847D01*
X192440291Y-77436850D01*
X192435861Y-77439953D01*
X192432037Y-77443776D01*
X192432031Y-77443782D01*
X192278782Y-77597031D01*
X192278776Y-77597037D01*
X192274953Y-77600861D01*
X192271850Y-77605291D01*
X192271847Y-77605296D01*
X192147540Y-77782826D01*
X192147535Y-77782833D01*
X192144432Y-77787266D01*
X192142144Y-77792172D01*
X192142142Y-77792176D01*
X192050550Y-77988594D01*
X192050547Y-77988599D01*
X192048261Y-77993504D01*
X192046862Y-77998724D01*
X192046858Y-77998736D01*
X191990764Y-78208083D01*
X191990762Y-78208094D01*
X191989365Y-78213308D01*
X191969532Y-78440000D01*
X191989365Y-78666692D01*
X191990762Y-78671907D01*
X191990764Y-78671916D01*
X192046858Y-78881263D01*
X192046861Y-78881271D01*
X192048261Y-78886496D01*
X192144432Y-79092734D01*
X192274953Y-79279139D01*
X192435861Y-79440047D01*
X192471624Y-79465088D01*
X192510489Y-79509406D01*
X192524500Y-79566663D01*
X192524500Y-86212771D01*
X192515061Y-86260224D01*
X192488181Y-86300452D01*
X191339358Y-87449272D01*
X191325730Y-87461050D01*
X191312263Y-87471076D01*
X191312257Y-87471081D01*
X191306470Y-87475390D01*
X191301832Y-87480916D01*
X191301830Y-87480919D01*
X191274633Y-87513330D01*
X191267350Y-87521280D01*
X191265969Y-87522661D01*
X191265955Y-87522676D01*
X191263409Y-87525223D01*
X191261173Y-87528050D01*
X191261171Y-87528053D01*
X191244176Y-87549546D01*
X191241902Y-87552337D01*
X191198339Y-87604254D01*
X191198335Y-87604258D01*
X191193698Y-87609786D01*
X191190460Y-87616230D01*
X191188537Y-87619155D01*
X191188352Y-87619411D01*
X191188192Y-87619698D01*
X191186363Y-87622663D01*
X191181889Y-87628323D01*
X191178839Y-87634862D01*
X191178838Y-87634865D01*
X191150192Y-87696294D01*
X191148623Y-87699536D01*
X191118196Y-87760122D01*
X191118194Y-87760127D01*
X191114960Y-87766567D01*
X191113296Y-87773584D01*
X191112109Y-87776847D01*
X191111977Y-87777163D01*
X191111888Y-87777480D01*
X191110791Y-87780787D01*
X191107743Y-87787327D01*
X191106284Y-87794390D01*
X191106283Y-87794395D01*
X191092574Y-87860787D01*
X191091794Y-87864306D01*
X191076164Y-87930255D01*
X191076163Y-87930260D01*
X191074500Y-87937279D01*
X191074500Y-87944491D01*
X191074097Y-87947939D01*
X191074043Y-87948273D01*
X191074028Y-87948626D01*
X191073726Y-87952070D01*
X191072266Y-87959144D01*
X191072476Y-87966360D01*
X191072476Y-87966361D01*
X191074448Y-88034130D01*
X191074500Y-88037737D01*
X191074500Y-88654888D01*
X191059473Y-88714056D01*
X191018035Y-88758883D01*
X190960229Y-88778506D01*
X190824779Y-88789166D01*
X190824774Y-88789166D01*
X190819930Y-88789548D01*
X190815207Y-88790681D01*
X190815200Y-88790683D01*
X190575869Y-88848142D01*
X190575861Y-88848144D01*
X190571140Y-88849278D01*
X190566647Y-88851138D01*
X190566644Y-88851140D01*
X190339261Y-88945325D01*
X190339256Y-88945327D01*
X190334757Y-88947191D01*
X190330604Y-88949735D01*
X190330598Y-88949739D01*
X190120758Y-89078328D01*
X190120744Y-89078338D01*
X190116601Y-89080877D01*
X190112901Y-89084036D01*
X190112890Y-89084045D01*
X189925751Y-89243877D01*
X189925744Y-89243883D01*
X189922044Y-89247044D01*
X189918883Y-89250744D01*
X189918877Y-89250751D01*
X189759045Y-89437890D01*
X189759036Y-89437901D01*
X189755877Y-89441601D01*
X189753338Y-89445744D01*
X189753328Y-89445758D01*
X189624739Y-89655598D01*
X189624735Y-89655604D01*
X189622191Y-89659757D01*
X189620327Y-89664256D01*
X189620325Y-89664261D01*
X189552444Y-89828141D01*
X189524278Y-89896140D01*
X189523144Y-89900861D01*
X189523142Y-89900869D01*
X189465683Y-90140200D01*
X189465681Y-90140207D01*
X189464548Y-90144930D01*
X189444474Y-90400000D01*
X189464548Y-90655070D01*
X189465683Y-90659799D01*
X189465684Y-90659803D01*
X189505257Y-90824638D01*
X189504027Y-90887244D01*
X189472364Y-90941266D01*
X187951964Y-92461667D01*
X187913397Y-92487845D01*
X187867890Y-92497934D01*
X187815870Y-92499448D01*
X187812263Y-92499500D01*
X183812229Y-92499500D01*
X183764776Y-92490061D01*
X183724548Y-92463181D01*
X182051716Y-90790348D01*
X182022875Y-90745077D01*
X182015869Y-90691861D01*
X182030468Y-90525000D01*
X182010635Y-90298308D01*
X181968270Y-90140200D01*
X181953141Y-90083736D01*
X181953140Y-90083734D01*
X181951739Y-90078504D01*
X181855568Y-89872266D01*
X181725047Y-89685861D01*
X181564139Y-89524953D01*
X181494332Y-89476074D01*
X181454006Y-89428859D01*
X181441626Y-89368011D01*
X181460298Y-89308790D01*
X181505339Y-89266047D01*
X181565456Y-89250500D01*
X187446840Y-89250500D01*
X187458280Y-89251029D01*
X187460743Y-89251257D01*
X187471793Y-89254401D01*
X187508183Y-89251028D01*
X187519624Y-89250500D01*
X187522109Y-89250500D01*
X187527844Y-89250500D01*
X187535939Y-89248986D01*
X187547259Y-89247407D01*
X187583660Y-89244035D01*
X187593947Y-89238912D01*
X187596317Y-89238238D01*
X187596587Y-89238174D01*
X187596842Y-89238062D01*
X187599138Y-89237172D01*
X187610433Y-89235061D01*
X187641530Y-89215805D01*
X187651488Y-89210259D01*
X187684228Y-89193958D01*
X187691972Y-89185461D01*
X187693924Y-89183988D01*
X187694165Y-89183822D01*
X187694367Y-89183621D01*
X187696177Y-89181970D01*
X187705952Y-89175919D01*
X187727980Y-89146747D01*
X187735284Y-89137951D01*
X187759916Y-89110933D01*
X187764069Y-89100209D01*
X187765360Y-89098126D01*
X187765521Y-89097889D01*
X187765637Y-89097629D01*
X187766728Y-89095436D01*
X187773656Y-89086264D01*
X187783659Y-89051102D01*
X187787292Y-89040263D01*
X187800500Y-89006173D01*
X187800500Y-88994679D01*
X187800952Y-88992261D01*
X187801016Y-88991986D01*
X187801029Y-88991720D01*
X187801257Y-88989256D01*
X187804401Y-88978207D01*
X187801028Y-88941816D01*
X187800500Y-88930376D01*
X187800500Y-86824048D01*
X187814015Y-86767753D01*
X187851615Y-86723730D01*
X187905102Y-86701575D01*
X187962818Y-86706117D01*
X188012181Y-86736366D01*
X188035861Y-86760047D01*
X188222266Y-86890568D01*
X188428504Y-86986739D01*
X188648308Y-87045635D01*
X188875000Y-87065468D01*
X189101692Y-87045635D01*
X189321496Y-86986739D01*
X189527734Y-86890568D01*
X189714139Y-86760047D01*
X189875047Y-86599139D01*
X190005568Y-86412734D01*
X190101739Y-86206496D01*
X190160635Y-85986692D01*
X190180468Y-85760000D01*
X190160635Y-85533308D01*
X190101739Y-85313504D01*
X190005568Y-85107266D01*
X189875047Y-84920861D01*
X189714139Y-84759953D01*
X189527734Y-84629432D01*
X189321496Y-84533261D01*
X189316271Y-84531861D01*
X189316263Y-84531858D01*
X189106916Y-84475764D01*
X189106907Y-84475762D01*
X189101692Y-84474365D01*
X189096304Y-84473893D01*
X189096301Y-84473893D01*
X188880395Y-84455004D01*
X188875000Y-84454532D01*
X188869605Y-84455004D01*
X188653698Y-84473893D01*
X188653693Y-84473893D01*
X188648308Y-84474365D01*
X188643094Y-84475762D01*
X188643083Y-84475764D01*
X188433736Y-84531858D01*
X188433724Y-84531862D01*
X188428504Y-84533261D01*
X188423599Y-84535547D01*
X188423594Y-84535550D01*
X188227176Y-84627142D01*
X188227172Y-84627144D01*
X188222266Y-84629432D01*
X188217833Y-84632535D01*
X188217826Y-84632540D01*
X188040296Y-84756847D01*
X188040291Y-84756850D01*
X188035861Y-84759953D01*
X188032037Y-84763776D01*
X188032031Y-84763782D01*
X188012181Y-84783633D01*
X187962818Y-84813883D01*
X187905102Y-84818425D01*
X187851615Y-84796270D01*
X187814015Y-84752247D01*
X187800500Y-84695952D01*
X187800500Y-76664048D01*
X187814015Y-76607753D01*
X187851615Y-76563730D01*
X187905102Y-76541575D01*
X187962818Y-76546117D01*
X188012181Y-76576367D01*
X188035861Y-76600047D01*
X188222266Y-76730568D01*
X188428504Y-76826739D01*
X188648308Y-76885635D01*
X188875000Y-76905468D01*
X189101692Y-76885635D01*
X189321496Y-76826739D01*
X189527734Y-76730568D01*
X189714139Y-76600047D01*
X189875047Y-76439139D01*
X190005568Y-76252734D01*
X190101739Y-76046496D01*
X190160635Y-75826692D01*
X190180468Y-75600000D01*
X190160635Y-75373308D01*
X190117628Y-75212804D01*
X190103141Y-75158736D01*
X190103140Y-75158734D01*
X190101739Y-75153504D01*
X190005568Y-74947266D01*
X189875047Y-74760861D01*
X189714139Y-74599953D01*
X189627630Y-74539379D01*
X189587167Y-74491881D01*
X189574958Y-74430689D01*
X189594098Y-74371299D01*
X189639738Y-74328750D01*
X189642286Y-74327370D01*
X189673509Y-74310474D01*
X189869744Y-74157738D01*
X190038164Y-73974785D01*
X190174173Y-73766607D01*
X190274063Y-73538881D01*
X190335108Y-73297821D01*
X190355643Y-73050000D01*
X190335108Y-72802179D01*
X190274063Y-72561119D01*
X190174173Y-72333393D01*
X190038164Y-72125215D01*
X189945112Y-72024133D01*
X189873215Y-71946032D01*
X189873211Y-71946029D01*
X189869744Y-71942262D01*
X189673509Y-71789526D01*
X189668997Y-71787084D01*
X189459316Y-71673610D01*
X189459310Y-71673607D01*
X189454810Y-71671172D01*
X189449969Y-71669510D01*
X189449962Y-71669507D01*
X189224465Y-71592094D01*
X189224461Y-71592093D01*
X189219614Y-71590429D01*
X189210768Y-71588952D01*
X188979398Y-71550344D01*
X188979387Y-71550343D01*
X188974335Y-71549500D01*
X188725665Y-71549500D01*
X188720613Y-71550343D01*
X188720601Y-71550344D01*
X188485443Y-71589585D01*
X188485441Y-71589585D01*
X188480386Y-71590429D01*
X188475541Y-71592092D01*
X188475534Y-71592094D01*
X188250037Y-71669507D01*
X188250026Y-71669511D01*
X188245190Y-71671172D01*
X188240693Y-71673605D01*
X188240683Y-71673610D01*
X188031002Y-71787084D01*
X188030995Y-71787088D01*
X188026491Y-71789526D01*
X188022448Y-71792672D01*
X188022440Y-71792678D01*
X187834304Y-71939111D01*
X187830256Y-71942262D01*
X187826793Y-71946023D01*
X187826784Y-71946032D01*
X187665311Y-72121439D01*
X187665305Y-72121446D01*
X187661836Y-72125215D01*
X187659031Y-72129506D01*
X187659028Y-72129512D01*
X187528631Y-72329099D01*
X187528624Y-72329111D01*
X187525827Y-72333393D01*
X187523772Y-72338077D01*
X187523766Y-72338089D01*
X187427997Y-72556422D01*
X187425937Y-72561119D01*
X187424679Y-72566084D01*
X187424678Y-72566089D01*
X187366151Y-72797204D01*
X187366149Y-72797213D01*
X187364892Y-72802179D01*
X187364468Y-72807288D01*
X187364467Y-72807298D01*
X187344781Y-73044883D01*
X187344357Y-73050000D01*
X187344781Y-73055117D01*
X187364467Y-73292701D01*
X187364468Y-73292709D01*
X187364892Y-73297821D01*
X187366149Y-73302788D01*
X187366151Y-73302795D01*
X187424678Y-73533910D01*
X187425937Y-73538881D01*
X187427997Y-73543577D01*
X187523766Y-73761910D01*
X187523769Y-73761916D01*
X187525827Y-73766607D01*
X187528627Y-73770893D01*
X187528631Y-73770900D01*
X187656675Y-73966885D01*
X187661836Y-73974785D01*
X187665310Y-73978559D01*
X187665311Y-73978560D01*
X187826784Y-74153967D01*
X187826787Y-74153970D01*
X187830256Y-74157738D01*
X188026491Y-74310474D01*
X188088466Y-74344013D01*
X188134104Y-74386561D01*
X188153244Y-74445951D01*
X188141036Y-74507143D01*
X188100572Y-74554641D01*
X188040298Y-74596845D01*
X188040289Y-74596852D01*
X188035861Y-74599953D01*
X188032036Y-74603777D01*
X188032037Y-74603777D01*
X187895342Y-74740472D01*
X187837904Y-74773045D01*
X187771890Y-74771518D01*
X187726680Y-74743038D01*
X187725919Y-74744047D01*
X187696749Y-74722019D01*
X187687936Y-74714701D01*
X187669425Y-74697825D01*
X187669422Y-74697823D01*
X187660933Y-74690084D01*
X187650219Y-74685933D01*
X187648105Y-74684624D01*
X187647892Y-74684478D01*
X187647638Y-74684366D01*
X187645433Y-74683268D01*
X187636264Y-74676344D01*
X187625213Y-74673199D01*
X187625212Y-74673199D01*
X187601121Y-74666345D01*
X187590262Y-74662706D01*
X187566886Y-74653650D01*
X187566884Y-74653649D01*
X187556173Y-74649500D01*
X187544683Y-74649500D01*
X187542259Y-74649047D01*
X187541988Y-74648983D01*
X187541720Y-74648971D01*
X187539256Y-74648742D01*
X187528207Y-74645599D01*
X187516767Y-74646659D01*
X187491817Y-74648971D01*
X187480376Y-74649500D01*
X181286709Y-74649500D01*
X181224118Y-74632544D01*
X181178645Y-74586313D01*
X181162726Y-74523450D01*
X181180715Y-74461148D01*
X181227689Y-74416445D01*
X181423509Y-74310474D01*
X181619744Y-74157738D01*
X181788164Y-73974785D01*
X181924173Y-73766607D01*
X182024063Y-73538881D01*
X182085108Y-73297821D01*
X182105643Y-73050000D01*
X182085108Y-72802179D01*
X182024063Y-72561119D01*
X181924173Y-72333393D01*
X181788164Y-72125215D01*
X181695112Y-72024133D01*
X181623215Y-71946032D01*
X181623211Y-71946029D01*
X181619744Y-71942262D01*
X181423509Y-71789526D01*
X181418997Y-71787084D01*
X181209316Y-71673610D01*
X181209310Y-71673607D01*
X181204810Y-71671172D01*
X181199969Y-71669510D01*
X181199962Y-71669507D01*
X180974465Y-71592094D01*
X180974461Y-71592093D01*
X180969614Y-71590429D01*
X180960768Y-71588952D01*
X180729398Y-71550344D01*
X180729387Y-71550343D01*
X180724335Y-71549500D01*
X180475665Y-71549500D01*
X180470613Y-71550343D01*
X180470601Y-71550344D01*
X180235443Y-71589585D01*
X180235441Y-71589585D01*
X180230386Y-71590429D01*
X180225541Y-71592092D01*
X180225534Y-71592094D01*
X180000037Y-71669507D01*
X180000026Y-71669511D01*
X179995190Y-71671172D01*
X179990693Y-71673605D01*
X179990683Y-71673610D01*
X179781002Y-71787084D01*
X179780995Y-71787088D01*
X179776491Y-71789526D01*
X179772448Y-71792672D01*
X179772440Y-71792678D01*
X179584304Y-71939111D01*
X179580256Y-71942262D01*
X179576788Y-71946029D01*
X179576785Y-71946032D01*
X179540730Y-71985199D01*
X179491697Y-72017815D01*
X179433146Y-72024133D01*
X179378283Y-72002726D01*
X179339484Y-71958422D01*
X179325500Y-71901216D01*
X179325500Y-67698784D01*
X179339484Y-67641578D01*
X179378283Y-67597274D01*
X179433146Y-67575867D01*
X179491697Y-67582185D01*
X179540729Y-67614800D01*
X179580256Y-67657738D01*
X179776491Y-67810474D01*
X179995190Y-67928828D01*
X180230386Y-68009571D01*
X180475665Y-68050500D01*
X180719201Y-68050500D01*
X180724335Y-68050500D01*
X180969614Y-68009571D01*
X181204810Y-67928828D01*
X181423509Y-67810474D01*
X181619744Y-67657738D01*
X181788164Y-67474785D01*
X181924173Y-67266607D01*
X182024063Y-67038881D01*
X182085108Y-66797821D01*
X182105643Y-66550000D01*
X182085108Y-66302179D01*
X182024063Y-66061119D01*
X181924173Y-65833393D01*
X181788164Y-65625215D01*
X181619744Y-65442262D01*
X181615696Y-65439111D01*
X181615319Y-65438764D01*
X181582915Y-65390320D01*
X181576223Y-65332424D01*
X181596719Y-65277866D01*
X181637979Y-65240418D01*
X181642331Y-65238796D01*
X181757546Y-65152546D01*
X181843796Y-65037331D01*
X181894091Y-64902483D01*
X181900500Y-64842873D01*
X181900499Y-63147128D01*
X181894091Y-63087517D01*
X181843796Y-62952669D01*
X181757546Y-62837454D01*
X181642331Y-62751204D01*
X181507483Y-62700909D01*
X181499770Y-62700079D01*
X181499767Y-62700079D01*
X181451180Y-62694855D01*
X181451169Y-62694854D01*
X181447873Y-62694500D01*
X181444550Y-62694500D01*
X179755439Y-62694500D01*
X179755420Y-62694500D01*
X179752128Y-62694501D01*
X179748850Y-62694853D01*
X179748838Y-62694854D01*
X179700231Y-62700079D01*
X179700225Y-62700080D01*
X179692517Y-62700909D01*
X179685252Y-62703618D01*
X179685246Y-62703620D01*
X179565980Y-62748104D01*
X179565978Y-62748104D01*
X179557669Y-62751204D01*
X179550572Y-62756516D01*
X179550568Y-62756519D01*
X179523811Y-62776550D01*
X179460553Y-62800789D01*
X179393996Y-62788167D01*
X179344005Y-62742450D01*
X179325500Y-62677283D01*
X179325500Y-57215456D01*
X179341047Y-57155339D01*
X179383790Y-57110298D01*
X179443011Y-57091626D01*
X179503859Y-57104006D01*
X179551074Y-57144332D01*
X179599953Y-57214139D01*
X179760861Y-57375047D01*
X179788092Y-57394114D01*
X179946623Y-57505118D01*
X179985489Y-57549436D01*
X179999500Y-57606693D01*
X179999500Y-57702513D01*
X179998438Y-57718698D01*
X179994318Y-57750000D01*
X179995379Y-57758059D01*
X179999500Y-57789361D01*
X180013894Y-57898702D01*
X180013895Y-57898708D01*
X180014956Y-57906762D01*
X180018065Y-57914268D01*
X180018066Y-57914271D01*
X180043221Y-57975000D01*
X180075464Y-58052841D01*
X180080411Y-58059288D01*
X180144690Y-58143059D01*
X180171718Y-58178282D01*
X180178164Y-58183228D01*
X180196769Y-58197504D01*
X180208964Y-58208199D01*
X184166799Y-62166034D01*
X184177489Y-62178222D01*
X184196718Y-62203282D01*
X184261305Y-62252841D01*
X184322159Y-62299536D01*
X184468238Y-62360044D01*
X184585633Y-62375500D01*
X184616933Y-62379621D01*
X184625000Y-62380683D01*
X184633067Y-62379621D01*
X184656308Y-62376561D01*
X184672494Y-62375500D01*
X186126501Y-62375500D01*
X186185928Y-62390668D01*
X186230816Y-62432460D01*
X186250185Y-62490653D01*
X186239296Y-62551011D01*
X186200812Y-62598767D01*
X186149550Y-62637141D01*
X186149546Y-62637144D01*
X186142454Y-62642454D01*
X186137144Y-62649546D01*
X186137141Y-62649550D01*
X186061519Y-62750568D01*
X186061516Y-62750572D01*
X186056204Y-62757669D01*
X186053104Y-62765978D01*
X186053104Y-62765980D01*
X186008620Y-62885247D01*
X186008619Y-62885250D01*
X186005909Y-62892517D01*
X186005079Y-62900227D01*
X186005079Y-62900232D01*
X185999855Y-62948819D01*
X185999854Y-62948831D01*
X185999500Y-62952127D01*
X185999500Y-62955448D01*
X185999500Y-62955449D01*
X185999500Y-64644560D01*
X185999500Y-64644578D01*
X185999501Y-64647872D01*
X185999853Y-64651150D01*
X185999854Y-64651161D01*
X186005079Y-64699768D01*
X186005080Y-64699773D01*
X186005909Y-64707483D01*
X186008619Y-64714749D01*
X186008620Y-64714753D01*
X186039005Y-64796217D01*
X186056204Y-64842331D01*
X186061517Y-64849428D01*
X186061519Y-64849431D01*
X186095457Y-64894767D01*
X186142454Y-64957546D01*
X186257669Y-65043796D01*
X186392517Y-65094091D01*
X186452127Y-65100500D01*
X187908154Y-65100499D01*
X187967171Y-65115444D01*
X188011963Y-65156677D01*
X188031730Y-65214259D01*
X188021710Y-65274309D01*
X187984316Y-65322352D01*
X187971376Y-65332424D01*
X187830256Y-65442262D01*
X187826793Y-65446023D01*
X187826784Y-65446032D01*
X187665311Y-65621439D01*
X187665305Y-65621446D01*
X187661836Y-65625215D01*
X187659031Y-65629506D01*
X187659028Y-65629512D01*
X187528631Y-65829099D01*
X187528624Y-65829111D01*
X187525827Y-65833393D01*
X187523772Y-65838077D01*
X187523766Y-65838089D01*
X187427997Y-66056422D01*
X187425937Y-66061119D01*
X187424679Y-66066084D01*
X187424678Y-66066089D01*
X187366151Y-66297204D01*
X187366149Y-66297213D01*
X187364892Y-66302179D01*
X187364468Y-66307288D01*
X187364467Y-66307298D01*
X187344781Y-66544883D01*
X187344357Y-66550000D01*
X187344781Y-66555117D01*
X187364467Y-66792701D01*
X187364468Y-66792709D01*
X187364892Y-66797821D01*
X187366149Y-66802788D01*
X187366151Y-66802795D01*
X187424678Y-67033910D01*
X187425937Y-67038881D01*
X187427997Y-67043577D01*
X187523766Y-67261910D01*
X187523769Y-67261916D01*
X187525827Y-67266607D01*
X187528627Y-67270893D01*
X187528631Y-67270900D01*
X187656675Y-67466885D01*
X187661836Y-67474785D01*
X187665310Y-67478559D01*
X187665311Y-67478560D01*
X187826784Y-67653967D01*
X187826787Y-67653970D01*
X187830256Y-67657738D01*
X188026491Y-67810474D01*
X188245190Y-67928828D01*
X188480386Y-68009571D01*
X188725665Y-68050500D01*
X188969201Y-68050500D01*
X188974335Y-68050500D01*
X189219614Y-68009571D01*
X189454810Y-67928828D01*
X189673509Y-67810474D01*
X189869744Y-67657738D01*
X190038164Y-67474785D01*
X190174173Y-67266607D01*
X190274063Y-67038881D01*
X190335108Y-66797821D01*
X190355643Y-66550000D01*
X190335108Y-66302179D01*
X190274063Y-66061119D01*
X190174173Y-65833393D01*
X190038164Y-65625215D01*
X189869744Y-65442262D01*
X189715684Y-65322352D01*
X189677559Y-65292678D01*
X189677557Y-65292676D01*
X189673509Y-65289526D01*
X189668997Y-65287084D01*
X189459316Y-65173610D01*
X189459310Y-65173607D01*
X189454810Y-65171172D01*
X189449969Y-65169510D01*
X189449962Y-65169507D01*
X189224465Y-65092094D01*
X189224461Y-65092093D01*
X189219614Y-65090429D01*
X189210768Y-65088952D01*
X188979398Y-65050344D01*
X188979387Y-65050343D01*
X188974335Y-65049500D01*
X188725665Y-65049500D01*
X188720613Y-65050343D01*
X188720601Y-65050344D01*
X188645569Y-65062865D01*
X188587284Y-65058630D01*
X188537411Y-65028170D01*
X188507028Y-64978250D01*
X188502883Y-64919959D01*
X188525893Y-64866245D01*
X188543796Y-64842331D01*
X188594091Y-64707483D01*
X188600500Y-64647873D01*
X188600499Y-62952128D01*
X188594091Y-62892517D01*
X188543796Y-62757669D01*
X188457546Y-62642454D01*
X188399188Y-62598767D01*
X188360704Y-62551011D01*
X188349815Y-62490653D01*
X188369184Y-62432460D01*
X188414072Y-62390668D01*
X188473499Y-62375500D01*
X193732643Y-62375500D01*
X193794643Y-62392113D01*
X193840030Y-62437500D01*
X193856643Y-62499500D01*
X193856643Y-63012181D01*
X193850904Y-63049468D01*
X193834218Y-63083304D01*
X193792540Y-63142826D01*
X193792535Y-63142833D01*
X193789432Y-63147266D01*
X193787144Y-63152172D01*
X193787142Y-63152176D01*
X193695550Y-63348594D01*
X193695547Y-63348599D01*
X193693261Y-63353504D01*
X193691862Y-63358724D01*
X193691858Y-63358736D01*
X193635764Y-63568083D01*
X193635762Y-63568094D01*
X193634365Y-63573308D01*
X193614532Y-63800000D01*
X193634365Y-64026692D01*
X193635762Y-64031907D01*
X193635764Y-64031916D01*
X193691858Y-64241263D01*
X193691861Y-64241271D01*
X193693261Y-64246496D01*
X193789432Y-64452734D01*
X193919953Y-64639139D01*
X194080861Y-64800047D01*
X194267266Y-64930568D01*
X194473504Y-65026739D01*
X194478734Y-65028140D01*
X194478736Y-65028141D01*
X194592523Y-65058630D01*
X194693308Y-65085635D01*
X194920000Y-65105468D01*
X195146692Y-65085635D01*
X195366496Y-65026739D01*
X195572734Y-64930568D01*
X195759139Y-64800047D01*
X195920047Y-64639139D01*
X196050568Y-64452734D01*
X196146739Y-64246496D01*
X196205635Y-64026692D01*
X196225468Y-63800000D01*
X196205635Y-63573308D01*
X196146739Y-63353504D01*
X196050568Y-63147266D01*
X195920047Y-62960861D01*
X195759139Y-62799953D01*
X195685090Y-62748104D01*
X195577173Y-62672540D01*
X195577171Y-62672539D01*
X195572734Y-62669432D01*
X195449317Y-62611881D01*
X195398922Y-62568840D01*
X195377893Y-62505990D01*
X195392238Y-62441285D01*
X195437858Y-62393211D01*
X195501723Y-62375500D01*
X196887513Y-62375500D01*
X196903698Y-62376561D01*
X196935000Y-62380682D01*
X197091762Y-62360044D01*
X197237841Y-62299536D01*
X197298695Y-62252841D01*
X197363282Y-62203282D01*
X197382510Y-62178222D01*
X197393189Y-62166044D01*
X201901426Y-57657807D01*
X201957011Y-57625716D01*
X202046496Y-57601739D01*
X202252734Y-57505568D01*
X202439139Y-57375047D01*
X202600047Y-57214139D01*
X202648925Y-57144332D01*
X202696141Y-57104006D01*
X202756989Y-57091626D01*
X202816210Y-57110298D01*
G37*
%TD.AperFunction*%
%TA.AperFunction,Conductor*%
G36*
X188198385Y-53698777D02*
G01*
X188235985Y-53742800D01*
X188249500Y-53799095D01*
X188249500Y-54094560D01*
X188249500Y-54094578D01*
X188249501Y-54097872D01*
X188249853Y-54101147D01*
X188249854Y-54101165D01*
X188253679Y-54136745D01*
X188253679Y-54163249D01*
X188249853Y-54198836D01*
X188249852Y-54198850D01*
X188249500Y-54202127D01*
X188249500Y-54205436D01*
X188249500Y-54205437D01*
X188249500Y-54594560D01*
X188249500Y-54594578D01*
X188249501Y-54597872D01*
X188249854Y-54601162D01*
X188249855Y-54601168D01*
X188253931Y-54639094D01*
X188253931Y-54665595D01*
X188250353Y-54698877D01*
X188250000Y-54705483D01*
X188250000Y-54733674D01*
X188253788Y-54747813D01*
X188259557Y-54753582D01*
X188280909Y-54764270D01*
X188305252Y-54793044D01*
X188306205Y-54792332D01*
X188331176Y-54825690D01*
X188353074Y-54873642D01*
X188353074Y-54926358D01*
X188331176Y-54974310D01*
X188306205Y-55007668D01*
X188305253Y-55006955D01*
X188280907Y-55035730D01*
X188259558Y-55046416D01*
X188253788Y-55052186D01*
X188250000Y-55066326D01*
X188250000Y-55094517D01*
X188250353Y-55101120D01*
X188253931Y-55134400D01*
X188253931Y-55160905D01*
X188249853Y-55198836D01*
X188249852Y-55198851D01*
X188249500Y-55202127D01*
X188249500Y-55205436D01*
X188249500Y-55205437D01*
X188249500Y-55594560D01*
X188249500Y-55594578D01*
X188249501Y-55597872D01*
X188249853Y-55601147D01*
X188249854Y-55601165D01*
X188253679Y-55636745D01*
X188253679Y-55663249D01*
X188249853Y-55698836D01*
X188249852Y-55698850D01*
X188249500Y-55702127D01*
X188249500Y-55705436D01*
X188249500Y-55705437D01*
X188249500Y-55956290D01*
X188230494Y-56022262D01*
X188179302Y-56068010D01*
X188111617Y-56079510D01*
X188031924Y-56070531D01*
X188031923Y-56070531D01*
X188025000Y-56069751D01*
X188018077Y-56070531D01*
X187863864Y-56087906D01*
X187863855Y-56087907D01*
X187856941Y-56088687D01*
X187850371Y-56090985D01*
X187850366Y-56090987D01*
X187703878Y-56142245D01*
X187703872Y-56142247D01*
X187697310Y-56144544D01*
X187691419Y-56148245D01*
X187691418Y-56148246D01*
X187560010Y-56230815D01*
X187560005Y-56230818D01*
X187554110Y-56234523D01*
X187549185Y-56239447D01*
X187549181Y-56239451D01*
X187439451Y-56349181D01*
X187439447Y-56349185D01*
X187434523Y-56354110D01*
X187430818Y-56360005D01*
X187430815Y-56360010D01*
X187387917Y-56428282D01*
X187344544Y-56497310D01*
X187342247Y-56503872D01*
X187342245Y-56503878D01*
X187290987Y-56650366D01*
X187290985Y-56650371D01*
X187288687Y-56656941D01*
X187287907Y-56663855D01*
X187287906Y-56663864D01*
X187270735Y-56816263D01*
X187269751Y-56825000D01*
X187270531Y-56831923D01*
X187287906Y-56986135D01*
X187287907Y-56986142D01*
X187288687Y-56993059D01*
X187290986Y-56999630D01*
X187290987Y-56999633D01*
X187341619Y-57144333D01*
X187344544Y-57152690D01*
X187397818Y-57237475D01*
X187420981Y-57274339D01*
X187434523Y-57295890D01*
X187554110Y-57415477D01*
X187697310Y-57505456D01*
X187856941Y-57561313D01*
X188025000Y-57580249D01*
X188193059Y-57561313D01*
X188352690Y-57505456D01*
X188440381Y-57450354D01*
X188472738Y-57435993D01*
X188507840Y-57431360D01*
X188782877Y-57434673D01*
X188838737Y-57448727D01*
X188882222Y-57486506D01*
X188903945Y-57539856D01*
X188899218Y-57597266D01*
X188869061Y-57646345D01*
X187566108Y-58949298D01*
X187553917Y-58959990D01*
X187535308Y-58974270D01*
X187535304Y-58974273D01*
X187528861Y-58979218D01*
X187523917Y-58985660D01*
X187523915Y-58985663D01*
X187504693Y-59010715D01*
X187504691Y-59010715D01*
X187504692Y-59010716D01*
X187465070Y-59062351D01*
X187427412Y-59094981D01*
X187379949Y-59110153D01*
X187357369Y-59112580D01*
X187357366Y-59112580D01*
X187349660Y-59113409D01*
X187342395Y-59116118D01*
X187335655Y-59117711D01*
X187278625Y-59117711D01*
X187271899Y-59116121D01*
X187264626Y-59113409D01*
X187256907Y-59112579D01*
X187208323Y-59107355D01*
X187208312Y-59107354D01*
X187205016Y-59107000D01*
X187201693Y-59107000D01*
X186112582Y-59107000D01*
X186112563Y-59107000D01*
X186109271Y-59107001D01*
X186105993Y-59107353D01*
X186105981Y-59107354D01*
X186057374Y-59112579D01*
X186057368Y-59112580D01*
X186049660Y-59113409D01*
X186042395Y-59116118D01*
X186042389Y-59116120D01*
X185923123Y-59160604D01*
X185923121Y-59160604D01*
X185914812Y-59163704D01*
X185907715Y-59169016D01*
X185907711Y-59169019D01*
X185806693Y-59244641D01*
X185806689Y-59244644D01*
X185799597Y-59249954D01*
X185794287Y-59257046D01*
X185794284Y-59257050D01*
X185718662Y-59358068D01*
X185718659Y-59358072D01*
X185713347Y-59365169D01*
X185710247Y-59373478D01*
X185710247Y-59373480D01*
X185665763Y-59492747D01*
X185665762Y-59492750D01*
X185663052Y-59500017D01*
X185662222Y-59507727D01*
X185662222Y-59507732D01*
X185656998Y-59556319D01*
X185656997Y-59556331D01*
X185656643Y-59559627D01*
X185656643Y-59562948D01*
X185656643Y-59562949D01*
X185656644Y-61050500D01*
X185640031Y-61112500D01*
X185594644Y-61157887D01*
X185532644Y-61174500D01*
X184925097Y-61174500D01*
X184877644Y-61165061D01*
X184837416Y-61138181D01*
X181329037Y-57629802D01*
X181300196Y-57584531D01*
X181293190Y-57531313D01*
X181309331Y-57480120D01*
X181345593Y-57440547D01*
X181439139Y-57375047D01*
X181600047Y-57214139D01*
X181730568Y-57027734D01*
X181826739Y-56821496D01*
X181885635Y-56601692D01*
X181905468Y-56375000D01*
X181885635Y-56148308D01*
X181834184Y-55956290D01*
X181828141Y-55933736D01*
X181828140Y-55933734D01*
X181826739Y-55928504D01*
X181730568Y-55722266D01*
X181600047Y-55535861D01*
X181476866Y-55412680D01*
X181444773Y-55357094D01*
X181444773Y-55292906D01*
X181476867Y-55237319D01*
X181515350Y-55198836D01*
X181600047Y-55114139D01*
X181730117Y-54928377D01*
X181774436Y-54889511D01*
X181831693Y-54875500D01*
X186577513Y-54875500D01*
X186593698Y-54876561D01*
X186625000Y-54880682D01*
X186781762Y-54860044D01*
X186927841Y-54799536D01*
X187016166Y-54731762D01*
X187053282Y-54703282D01*
X187072510Y-54678222D01*
X187083189Y-54666044D01*
X188037821Y-53711412D01*
X188087182Y-53681164D01*
X188144898Y-53676622D01*
X188198385Y-53698777D01*
G37*
%TD.AperFunction*%
%TA.AperFunction,Conductor*%
G36*
X202812500Y-44767113D02*
G01*
X202857887Y-44812500D01*
X202874500Y-44874500D01*
X202874500Y-45337283D01*
X202855995Y-45402450D01*
X202806004Y-45448167D01*
X202739447Y-45460789D01*
X202676189Y-45436550D01*
X202649431Y-45416519D01*
X202649430Y-45416518D01*
X202642331Y-45411204D01*
X202507483Y-45360909D01*
X202499770Y-45360079D01*
X202499767Y-45360079D01*
X202451180Y-45354855D01*
X202451169Y-45354854D01*
X202447873Y-45354500D01*
X202444550Y-45354500D01*
X200755439Y-45354500D01*
X200755420Y-45354500D01*
X200752128Y-45354501D01*
X200748850Y-45354853D01*
X200748838Y-45354854D01*
X200700231Y-45360079D01*
X200700225Y-45360080D01*
X200692517Y-45360909D01*
X200685252Y-45363618D01*
X200685246Y-45363620D01*
X200565980Y-45408104D01*
X200565978Y-45408104D01*
X200557669Y-45411204D01*
X200550572Y-45416516D01*
X200550568Y-45416519D01*
X200449550Y-45492141D01*
X200449546Y-45492144D01*
X200442454Y-45497454D01*
X200437144Y-45504546D01*
X200437141Y-45504550D01*
X200361519Y-45605568D01*
X200361516Y-45605572D01*
X200356204Y-45612669D01*
X200353104Y-45620978D01*
X200353104Y-45620980D01*
X200308620Y-45740247D01*
X200308619Y-45740250D01*
X200305909Y-45747517D01*
X200305079Y-45755227D01*
X200305079Y-45755232D01*
X200299855Y-45803819D01*
X200299854Y-45803831D01*
X200299500Y-45807127D01*
X200299500Y-45810448D01*
X200299500Y-45810449D01*
X200299500Y-47499560D01*
X200299500Y-47499578D01*
X200299501Y-47502872D01*
X200299853Y-47506150D01*
X200299854Y-47506161D01*
X200305079Y-47554768D01*
X200305080Y-47554773D01*
X200305909Y-47562483D01*
X200308619Y-47569749D01*
X200308620Y-47569753D01*
X200320081Y-47600480D01*
X200356204Y-47697331D01*
X200361518Y-47704430D01*
X200361519Y-47704431D01*
X200394704Y-47748761D01*
X200442454Y-47812546D01*
X200557669Y-47898796D01*
X200692517Y-47949091D01*
X200752127Y-47955500D01*
X202447872Y-47955499D01*
X202507483Y-47949091D01*
X202642331Y-47898796D01*
X202676188Y-47873450D01*
X202739447Y-47849211D01*
X202806004Y-47861833D01*
X202855995Y-47907550D01*
X202874500Y-47972717D01*
X202874500Y-53434544D01*
X202858953Y-53494661D01*
X202816210Y-53539702D01*
X202756989Y-53558374D01*
X202696141Y-53545994D01*
X202648925Y-53505667D01*
X202600047Y-53435861D01*
X202439139Y-53274953D01*
X202252734Y-53144432D01*
X202129962Y-53087182D01*
X202051405Y-53050550D01*
X202051403Y-53050549D01*
X202046496Y-53048261D01*
X202041271Y-53046861D01*
X202041263Y-53046858D01*
X201831916Y-52990764D01*
X201831907Y-52990762D01*
X201826692Y-52989365D01*
X201821304Y-52988893D01*
X201821301Y-52988893D01*
X201605395Y-52970004D01*
X201600000Y-52969532D01*
X201594605Y-52970004D01*
X201378698Y-52988893D01*
X201378693Y-52988893D01*
X201373308Y-52989365D01*
X201368094Y-52990762D01*
X201368083Y-52990764D01*
X201158736Y-53046858D01*
X201158724Y-53046862D01*
X201153504Y-53048261D01*
X201148599Y-53050547D01*
X201148594Y-53050550D01*
X200952176Y-53142142D01*
X200952172Y-53142144D01*
X200947266Y-53144432D01*
X200942833Y-53147535D01*
X200942826Y-53147540D01*
X200765296Y-53271847D01*
X200765291Y-53271850D01*
X200760861Y-53274953D01*
X200757037Y-53278776D01*
X200757031Y-53278782D01*
X200603782Y-53432031D01*
X200603776Y-53432037D01*
X200599953Y-53435861D01*
X200596850Y-53440291D01*
X200596847Y-53440296D01*
X200472540Y-53617826D01*
X200472535Y-53617833D01*
X200469432Y-53622266D01*
X200467144Y-53627172D01*
X200467142Y-53627176D01*
X200375550Y-53823594D01*
X200375547Y-53823599D01*
X200373261Y-53828504D01*
X200371862Y-53833724D01*
X200371858Y-53833736D01*
X200315764Y-54043083D01*
X200315762Y-54043094D01*
X200314365Y-54048308D01*
X200313893Y-54053693D01*
X200313893Y-54053698D01*
X200300907Y-54202128D01*
X200294532Y-54275000D01*
X200314365Y-54501692D01*
X200315762Y-54506907D01*
X200315764Y-54506916D01*
X200371858Y-54716263D01*
X200371861Y-54716271D01*
X200373261Y-54721496D01*
X200375549Y-54726403D01*
X200375550Y-54726405D01*
X200388223Y-54753582D01*
X200469432Y-54927734D01*
X200472539Y-54932171D01*
X200472540Y-54932173D01*
X200538238Y-55026000D01*
X200599953Y-55114139D01*
X200603782Y-55117968D01*
X200723133Y-55237319D01*
X200755227Y-55292906D01*
X200755227Y-55357094D01*
X200723133Y-55412681D01*
X200603782Y-55532031D01*
X200603776Y-55532037D01*
X200599953Y-55535861D01*
X200596850Y-55540291D01*
X200596847Y-55540296D01*
X200472540Y-55717826D01*
X200472535Y-55717833D01*
X200469432Y-55722266D01*
X200467144Y-55727172D01*
X200467142Y-55727176D01*
X200375550Y-55923594D01*
X200375547Y-55923599D01*
X200373261Y-55928504D01*
X200371862Y-55933724D01*
X200371858Y-55933736D01*
X200315764Y-56143083D01*
X200315762Y-56143094D01*
X200314365Y-56148308D01*
X200313893Y-56153693D01*
X200313893Y-56153698D01*
X200306822Y-56234523D01*
X200294532Y-56375000D01*
X200295004Y-56380395D01*
X200299193Y-56428282D01*
X200314365Y-56601692D01*
X200315762Y-56606907D01*
X200315764Y-56606916D01*
X200371858Y-56816263D01*
X200371861Y-56816271D01*
X200373261Y-56821496D01*
X200469432Y-57027734D01*
X200556926Y-57152690D01*
X200559495Y-57156358D01*
X200580611Y-57209510D01*
X200575626Y-57266485D01*
X200545601Y-57315162D01*
X196969323Y-60891441D01*
X196919960Y-60921691D01*
X196862244Y-60926233D01*
X196808757Y-60904078D01*
X196771157Y-60860055D01*
X196757642Y-60803760D01*
X196757642Y-60017954D01*
X196767081Y-59970501D01*
X196793961Y-59930273D01*
X197779552Y-58944682D01*
X198791044Y-57933189D01*
X198803222Y-57922510D01*
X198828282Y-57903282D01*
X198924536Y-57777841D01*
X198985044Y-57631762D01*
X199000500Y-57514361D01*
X199005682Y-57475000D01*
X199001561Y-57443698D01*
X199000500Y-57427513D01*
X199000500Y-55065663D01*
X199019506Y-54999691D01*
X199080456Y-54902690D01*
X199136313Y-54743059D01*
X199155249Y-54575000D01*
X199136313Y-54406941D01*
X199080456Y-54247310D01*
X198990477Y-54104110D01*
X198870890Y-53984523D01*
X198727690Y-53894544D01*
X198721124Y-53892246D01*
X198721121Y-53892245D01*
X198601816Y-53850499D01*
X198568059Y-53838687D01*
X198561148Y-53837908D01*
X198561143Y-53837907D01*
X198549033Y-53836543D01*
X198509117Y-53825042D01*
X198475239Y-53801004D01*
X198176664Y-53502429D01*
X198145584Y-53450410D01*
X198142865Y-53389875D01*
X198169157Y-53335279D01*
X198218181Y-53299662D01*
X198278227Y-53291528D01*
X198400000Y-53305249D01*
X198568059Y-53286313D01*
X198727690Y-53230456D01*
X198870890Y-53140477D01*
X198990477Y-53020890D01*
X199080456Y-52877690D01*
X199136313Y-52718059D01*
X199155249Y-52550000D01*
X199152488Y-52525500D01*
X199137093Y-52388864D01*
X199136313Y-52381941D01*
X199080456Y-52222310D01*
X198990477Y-52079110D01*
X198870890Y-51959523D01*
X198727690Y-51869544D01*
X198721124Y-51867246D01*
X198721121Y-51867245D01*
X198574626Y-51815985D01*
X198568059Y-51813687D01*
X198561148Y-51812908D01*
X198561143Y-51812907D01*
X198549033Y-51811543D01*
X198509117Y-51800042D01*
X198475239Y-51776004D01*
X198204839Y-51505604D01*
X198173759Y-51453585D01*
X198171040Y-51393050D01*
X198197332Y-51338454D01*
X198246356Y-51302837D01*
X198306403Y-51294703D01*
X198400000Y-51305249D01*
X198568059Y-51286313D01*
X198727690Y-51230456D01*
X198870890Y-51140477D01*
X198990477Y-51020890D01*
X199080456Y-50877690D01*
X199136313Y-50718059D01*
X199155249Y-50550000D01*
X199136313Y-50381941D01*
X199080456Y-50222310D01*
X198990477Y-50079110D01*
X198870890Y-49959523D01*
X198727690Y-49869544D01*
X198721124Y-49867246D01*
X198721121Y-49867245D01*
X198574633Y-49815987D01*
X198574630Y-49815986D01*
X198568059Y-49813687D01*
X198561142Y-49812907D01*
X198561135Y-49812906D01*
X198406923Y-49795531D01*
X198400000Y-49794751D01*
X198393077Y-49795531D01*
X198238864Y-49812906D01*
X198238855Y-49812907D01*
X198231941Y-49813687D01*
X198225371Y-49815985D01*
X198225366Y-49815987D01*
X198078878Y-49867245D01*
X198078872Y-49867247D01*
X198072310Y-49869544D01*
X198066419Y-49873245D01*
X198066418Y-49873246D01*
X197975309Y-49930494D01*
X197909337Y-49949500D01*
X197299500Y-49949500D01*
X197237500Y-49932887D01*
X197192113Y-49887500D01*
X197175500Y-49825500D01*
X197175500Y-48009798D01*
X197191223Y-47949366D01*
X197234404Y-47904259D01*
X197259945Y-47888504D01*
X197293656Y-47867712D01*
X197417712Y-47743656D01*
X197509814Y-47594334D01*
X197564999Y-47427797D01*
X197575500Y-47325009D01*
X197575499Y-45724992D01*
X197564999Y-45622203D01*
X197509814Y-45455666D01*
X197417712Y-45306344D01*
X197293656Y-45182288D01*
X197287515Y-45178500D01*
X197287511Y-45178497D01*
X197150480Y-45093977D01*
X197144334Y-45090186D01*
X197092841Y-45073123D01*
X196984225Y-45037131D01*
X196984224Y-45037130D01*
X196977797Y-45035001D01*
X196971064Y-45034313D01*
X196971059Y-45034312D01*
X196878140Y-45024819D01*
X196878123Y-45024818D01*
X196875009Y-45024500D01*
X196871860Y-45024500D01*
X196278141Y-45024500D01*
X196278121Y-45024500D01*
X196274992Y-45024501D01*
X196271860Y-45024820D01*
X196271858Y-45024821D01*
X196178938Y-45034312D01*
X196178928Y-45034313D01*
X196172203Y-45035001D01*
X196165781Y-45037128D01*
X196165776Y-45037130D01*
X196012521Y-45087914D01*
X196012517Y-45087915D01*
X196005666Y-45090186D01*
X195999522Y-45093975D01*
X195999519Y-45093977D01*
X195862488Y-45178497D01*
X195862480Y-45178503D01*
X195856344Y-45182288D01*
X195851242Y-45187389D01*
X195851238Y-45187393D01*
X195737393Y-45301238D01*
X195737389Y-45301242D01*
X195732288Y-45306344D01*
X195728503Y-45312480D01*
X195728497Y-45312488D01*
X195644811Y-45448167D01*
X195640186Y-45455666D01*
X195637915Y-45462517D01*
X195637914Y-45462521D01*
X195597706Y-45583861D01*
X195564567Y-45635545D01*
X195510698Y-45664997D01*
X195449302Y-45664997D01*
X195395433Y-45635545D01*
X195362294Y-45583861D01*
X195347561Y-45539402D01*
X195319814Y-45455666D01*
X195227712Y-45306344D01*
X195103656Y-45182288D01*
X195097515Y-45178500D01*
X195097511Y-45178497D01*
X194960480Y-45093977D01*
X194954334Y-45090186D01*
X194902841Y-45073123D01*
X194794225Y-45037131D01*
X194794224Y-45037130D01*
X194787797Y-45035001D01*
X194781064Y-45034313D01*
X194781059Y-45034312D01*
X194688140Y-45024819D01*
X194688123Y-45024818D01*
X194685009Y-45024500D01*
X194681860Y-45024500D01*
X194088141Y-45024500D01*
X194088121Y-45024500D01*
X194084992Y-45024501D01*
X194081860Y-45024820D01*
X194081858Y-45024821D01*
X193988938Y-45034312D01*
X193988928Y-45034313D01*
X193982203Y-45035001D01*
X193975781Y-45037128D01*
X193975776Y-45037130D01*
X193822521Y-45087914D01*
X193822517Y-45087915D01*
X193815666Y-45090186D01*
X193809525Y-45093973D01*
X193809518Y-45093977D01*
X193759180Y-45125026D01*
X193707284Y-45142782D01*
X193652805Y-45136414D01*
X193606403Y-45107168D01*
X193461416Y-44962181D01*
X193431166Y-44912818D01*
X193426624Y-44855102D01*
X193448779Y-44801615D01*
X193492802Y-44764015D01*
X193549097Y-44750500D01*
X202750500Y-44750500D01*
X202812500Y-44767113D01*
G37*
%TD.AperFunction*%
%TA.AperFunction,Conductor*%
G36*
X196571127Y-53595362D02*
G01*
X197626004Y-54650239D01*
X197650042Y-54684117D01*
X197661543Y-54724033D01*
X197662907Y-54736143D01*
X197662908Y-54736148D01*
X197663687Y-54743059D01*
X197665985Y-54749626D01*
X197711471Y-54879621D01*
X197719544Y-54902690D01*
X197749438Y-54950266D01*
X197780494Y-54999691D01*
X197799500Y-55065663D01*
X197799500Y-57174903D01*
X197790061Y-57222356D01*
X197763181Y-57262584D01*
X195955082Y-59070681D01*
X195914854Y-59097561D01*
X195867401Y-59107000D01*
X195212582Y-59107000D01*
X195212563Y-59107000D01*
X195209271Y-59107001D01*
X195205993Y-59107353D01*
X195205981Y-59107354D01*
X195157369Y-59112580D01*
X195157366Y-59112580D01*
X195149660Y-59113409D01*
X195142395Y-59116118D01*
X195135655Y-59117711D01*
X195078625Y-59117711D01*
X195071899Y-59116121D01*
X195064626Y-59113409D01*
X195056907Y-59112579D01*
X195008323Y-59107355D01*
X195008312Y-59107354D01*
X195005016Y-59107000D01*
X195001693Y-59107000D01*
X193912582Y-59107000D01*
X193912563Y-59107000D01*
X193909271Y-59107001D01*
X193905993Y-59107353D01*
X193905981Y-59107354D01*
X193857369Y-59112580D01*
X193857366Y-59112580D01*
X193849660Y-59113409D01*
X193842395Y-59116118D01*
X193835655Y-59117711D01*
X193778625Y-59117711D01*
X193771899Y-59116121D01*
X193764626Y-59113409D01*
X193756907Y-59112579D01*
X193708323Y-59107355D01*
X193708312Y-59107354D01*
X193705016Y-59107000D01*
X193701693Y-59107000D01*
X192612582Y-59107000D01*
X192612563Y-59107000D01*
X192609271Y-59107001D01*
X192605993Y-59107353D01*
X192605981Y-59107354D01*
X192557374Y-59112579D01*
X192557368Y-59112580D01*
X192549660Y-59113409D01*
X192542395Y-59116118D01*
X192542389Y-59116120D01*
X192423123Y-59160604D01*
X192423121Y-59160604D01*
X192414812Y-59163704D01*
X192407715Y-59169016D01*
X192407711Y-59169019D01*
X192306693Y-59244641D01*
X192306689Y-59244644D01*
X192299597Y-59249954D01*
X192294287Y-59257046D01*
X192294284Y-59257050D01*
X192218662Y-59358068D01*
X192218659Y-59358072D01*
X192213347Y-59365169D01*
X192210247Y-59373478D01*
X192210247Y-59373480D01*
X192165763Y-59492747D01*
X192165762Y-59492750D01*
X192163052Y-59500017D01*
X192162222Y-59507727D01*
X192162222Y-59507732D01*
X192156998Y-59556319D01*
X192156997Y-59556331D01*
X192156643Y-59559627D01*
X192156643Y-59562949D01*
X192156643Y-59633000D01*
X192140030Y-59695000D01*
X192094643Y-59740387D01*
X192032643Y-59757000D01*
X191140663Y-59757000D01*
X191074691Y-59737994D01*
X191042357Y-59717677D01*
X190977690Y-59677044D01*
X190971124Y-59674746D01*
X190971121Y-59674745D01*
X190824633Y-59623487D01*
X190824630Y-59623486D01*
X190818059Y-59621187D01*
X190811142Y-59620407D01*
X190811135Y-59620406D01*
X190656923Y-59603031D01*
X190650000Y-59602251D01*
X190643077Y-59603031D01*
X190488864Y-59620406D01*
X190488855Y-59620407D01*
X190481941Y-59621187D01*
X190475371Y-59623485D01*
X190475366Y-59623487D01*
X190419688Y-59642970D01*
X190364693Y-59649130D01*
X190312494Y-59630753D01*
X190273488Y-59591497D01*
X190255444Y-59539181D01*
X190252063Y-59507731D01*
X190251234Y-59500017D01*
X190200939Y-59365169D01*
X190114689Y-59249954D01*
X189999474Y-59163704D01*
X189907141Y-59129266D01*
X189871895Y-59116120D01*
X189871893Y-59116119D01*
X189864626Y-59113409D01*
X189856913Y-59112579D01*
X189856910Y-59112579D01*
X189808323Y-59107355D01*
X189808312Y-59107354D01*
X189805016Y-59107000D01*
X189801694Y-59107000D01*
X189406239Y-59107000D01*
X189349944Y-59093485D01*
X189305921Y-59055885D01*
X189283766Y-59002398D01*
X189288308Y-58944682D01*
X189318558Y-58895319D01*
X190427059Y-57786818D01*
X190467287Y-57759938D01*
X190514740Y-57750499D01*
X190794562Y-57750499D01*
X190797872Y-57750499D01*
X190836744Y-57746320D01*
X190863252Y-57746320D01*
X190902127Y-57750500D01*
X190974877Y-57750499D01*
X191036878Y-57767112D01*
X191073846Y-57804081D01*
X191075464Y-57802841D01*
X191149020Y-57898702D01*
X191171718Y-57928282D01*
X191178164Y-57933228D01*
X191196769Y-57947504D01*
X191208964Y-57958199D01*
X191616801Y-58366036D01*
X191627497Y-58378232D01*
X191646718Y-58403282D01*
X191678212Y-58427448D01*
X191678214Y-58427450D01*
X191772159Y-58499536D01*
X191918238Y-58560044D01*
X192075000Y-58580682D01*
X192083059Y-58579621D01*
X192106302Y-58576561D01*
X192122487Y-58575500D01*
X192859337Y-58575500D01*
X192925308Y-58594505D01*
X193022310Y-58655456D01*
X193181941Y-58711313D01*
X193350000Y-58730249D01*
X193518059Y-58711313D01*
X193677690Y-58655456D01*
X193820890Y-58565477D01*
X193940477Y-58445890D01*
X194030456Y-58302690D01*
X194086313Y-58143059D01*
X194105249Y-57975000D01*
X194086313Y-57806941D01*
X194030456Y-57647310D01*
X193940477Y-57504110D01*
X193830480Y-57394113D01*
X193798387Y-57338527D01*
X193798387Y-57274339D01*
X193830479Y-57218754D01*
X194591044Y-56458189D01*
X194603222Y-56447510D01*
X194628282Y-56428282D01*
X194724536Y-56302841D01*
X194785044Y-56156762D01*
X194792797Y-56097872D01*
X194805683Y-56000000D01*
X194801560Y-55968691D01*
X194800500Y-55952506D01*
X194800500Y-55479296D01*
X194814097Y-55422841D01*
X194851907Y-55378766D01*
X194905637Y-55356739D01*
X194959200Y-55361229D01*
X194959258Y-55360959D01*
X194961369Y-55361411D01*
X194963504Y-55361590D01*
X194965874Y-55362375D01*
X194979041Y-55365194D01*
X195071890Y-55374680D01*
X195078168Y-55375000D01*
X195108674Y-55375000D01*
X195121549Y-55371549D01*
X195125000Y-55358674D01*
X195125000Y-55358673D01*
X195625000Y-55358673D01*
X195628450Y-55371548D01*
X195641326Y-55374999D01*
X195671829Y-55374999D01*
X195678111Y-55374678D01*
X195770959Y-55365194D01*
X195784122Y-55362376D01*
X195937267Y-55311629D01*
X195950266Y-55305567D01*
X196087194Y-55221109D01*
X196098455Y-55212205D01*
X196212205Y-55098455D01*
X196221109Y-55087194D01*
X196305567Y-54950266D01*
X196311629Y-54937267D01*
X196362375Y-54784125D01*
X196365194Y-54770958D01*
X196374680Y-54678109D01*
X196375000Y-54671832D01*
X196375000Y-54141326D01*
X196371549Y-54128450D01*
X196358674Y-54125000D01*
X195641326Y-54125000D01*
X195628450Y-54128450D01*
X195625000Y-54141326D01*
X195625000Y-55358673D01*
X195125000Y-55358673D01*
X195125000Y-53749000D01*
X195141613Y-53687000D01*
X195187000Y-53641613D01*
X195249000Y-53625000D01*
X196358673Y-53625000D01*
X196372812Y-53621211D01*
X196391802Y-53602221D01*
X196395760Y-53595366D01*
X196451349Y-53563269D01*
X196515538Y-53563268D01*
X196571127Y-53595362D01*
G37*
%TD.AperFunction*%
%TA.AperFunction,Conductor*%
G36*
X191288000Y-54666613D02*
G01*
X191333387Y-54712000D01*
X191350000Y-54774000D01*
X191350000Y-55026000D01*
X191333387Y-55088000D01*
X191288000Y-55133387D01*
X191226000Y-55150000D01*
X190132977Y-55150000D01*
X190084164Y-55139988D01*
X190043234Y-55111569D01*
X190016795Y-55069333D01*
X190015673Y-55066326D01*
X189993796Y-55007669D01*
X189968824Y-54974311D01*
X189946924Y-54926359D01*
X189946924Y-54873641D01*
X189968825Y-54825687D01*
X189993796Y-54792331D01*
X190016795Y-54730666D01*
X190043234Y-54688431D01*
X190084164Y-54660012D01*
X190132977Y-54650000D01*
X191226000Y-54650000D01*
X191288000Y-54666613D01*
G37*
%TD.AperFunction*%
%TA.AperFunction,Conductor*%
G36*
X188994568Y-47414454D02*
G01*
X189027706Y-47466138D01*
X189059631Y-47562483D01*
X189070186Y-47594334D01*
X189073977Y-47600480D01*
X189158497Y-47737511D01*
X189158500Y-47737515D01*
X189162288Y-47743656D01*
X189286344Y-47867712D01*
X189292484Y-47871499D01*
X189292488Y-47871502D01*
X189328121Y-47893480D01*
X189435666Y-47959814D01*
X189602203Y-48014999D01*
X189704991Y-48025500D01*
X190305008Y-48025499D01*
X190407797Y-48014999D01*
X190574334Y-47959814D01*
X190723656Y-47867712D01*
X190847712Y-47743656D01*
X190939814Y-47594334D01*
X190982294Y-47466137D01*
X191015432Y-47414454D01*
X191069302Y-47385002D01*
X191130698Y-47385002D01*
X191184568Y-47414454D01*
X191217706Y-47466138D01*
X191249631Y-47562483D01*
X191260186Y-47594334D01*
X191263977Y-47600480D01*
X191348497Y-47737511D01*
X191348500Y-47737515D01*
X191352288Y-47743656D01*
X191476344Y-47867712D01*
X191482484Y-47871499D01*
X191482488Y-47871502D01*
X191518121Y-47893480D01*
X191625666Y-47959814D01*
X191792203Y-48014999D01*
X191894991Y-48025500D01*
X192495008Y-48025499D01*
X192495008Y-48026538D01*
X192541463Y-48034178D01*
X192585231Y-48063576D01*
X192612829Y-48108502D01*
X192617244Y-48121121D01*
X192617249Y-48121131D01*
X192619544Y-48127690D01*
X192623245Y-48133580D01*
X192701518Y-48258151D01*
X192709523Y-48270890D01*
X192829110Y-48390477D01*
X192972310Y-48480456D01*
X193131941Y-48536313D01*
X193300000Y-48555249D01*
X193468059Y-48536313D01*
X193627690Y-48480456D01*
X193770890Y-48390477D01*
X193890477Y-48270890D01*
X193980456Y-48127690D01*
X193987154Y-48108547D01*
X194013295Y-48065161D01*
X194054607Y-48035846D01*
X194104191Y-48025499D01*
X194685008Y-48025499D01*
X194787797Y-48014999D01*
X194954334Y-47959814D01*
X195103656Y-47867712D01*
X195227712Y-47743656D01*
X195319814Y-47594334D01*
X195362294Y-47466137D01*
X195395432Y-47414454D01*
X195449302Y-47385002D01*
X195510698Y-47385002D01*
X195564568Y-47414454D01*
X195597706Y-47466138D01*
X195629631Y-47562483D01*
X195640186Y-47594334D01*
X195643977Y-47600480D01*
X195728497Y-47737511D01*
X195728500Y-47737515D01*
X195732288Y-47743656D01*
X195856344Y-47867712D01*
X195862493Y-47871505D01*
X195862496Y-47871507D01*
X195915596Y-47904259D01*
X195958777Y-47949366D01*
X195974500Y-48009798D01*
X195974500Y-49825500D01*
X195957887Y-49887500D01*
X195912500Y-49932887D01*
X195850500Y-49949500D01*
X191697487Y-49949500D01*
X191681302Y-49948439D01*
X191658059Y-49945379D01*
X191650000Y-49944318D01*
X191641941Y-49945379D01*
X191610639Y-49949500D01*
X191501297Y-49963894D01*
X191501289Y-49963896D01*
X191493238Y-49964956D01*
X191485733Y-49968064D01*
X191485728Y-49968066D01*
X191354666Y-50022354D01*
X191354662Y-50022355D01*
X191347159Y-50025464D01*
X191340714Y-50030408D01*
X191340711Y-50030411D01*
X191228164Y-50116771D01*
X191228160Y-50116774D01*
X191221718Y-50121718D01*
X191216774Y-50128160D01*
X191216771Y-50128164D01*
X191202494Y-50146771D01*
X191191800Y-50158964D01*
X189778220Y-51572544D01*
X189731494Y-51601905D01*
X189676656Y-51608083D01*
X189624567Y-51589857D01*
X189585545Y-51550835D01*
X189544184Y-51485010D01*
X189540477Y-51479110D01*
X189420890Y-51359523D01*
X189277690Y-51269544D01*
X189271124Y-51267246D01*
X189271121Y-51267245D01*
X189124633Y-51215987D01*
X189124630Y-51215986D01*
X189118059Y-51213687D01*
X189111142Y-51212907D01*
X189111135Y-51212906D01*
X188956923Y-51195531D01*
X188950000Y-51194751D01*
X188943077Y-51195531D01*
X188788864Y-51212906D01*
X188788855Y-51212907D01*
X188781941Y-51213687D01*
X188775371Y-51215985D01*
X188775366Y-51215987D01*
X188628878Y-51267245D01*
X188628872Y-51267247D01*
X188622310Y-51269544D01*
X188616419Y-51273245D01*
X188616418Y-51273246D01*
X188485010Y-51355815D01*
X188485005Y-51355818D01*
X188479110Y-51359523D01*
X188474185Y-51364447D01*
X188474181Y-51364451D01*
X188364451Y-51474181D01*
X188364447Y-51474185D01*
X188359523Y-51479110D01*
X188355818Y-51485005D01*
X188355815Y-51485010D01*
X188282365Y-51601905D01*
X188269544Y-51622310D01*
X188267247Y-51628872D01*
X188267245Y-51628878D01*
X188252255Y-51671718D01*
X188213687Y-51781941D01*
X188212908Y-51788847D01*
X188212907Y-51788855D01*
X188211543Y-51800966D01*
X188200042Y-51840882D01*
X188176004Y-51874759D01*
X186412584Y-53638181D01*
X186372356Y-53665061D01*
X186324903Y-53674500D01*
X185689071Y-53674500D01*
X185627876Y-53658348D01*
X185582623Y-53614099D01*
X185565102Y-53553282D01*
X185579877Y-53491740D01*
X185623099Y-53445506D01*
X185670890Y-53415477D01*
X185790477Y-53295890D01*
X185880456Y-53152690D01*
X185936313Y-52993059D01*
X185955249Y-52825000D01*
X185936313Y-52656941D01*
X185880456Y-52497310D01*
X185819505Y-52400308D01*
X185800500Y-52334337D01*
X185800500Y-50877915D01*
X185809939Y-50830462D01*
X185836819Y-50790234D01*
X186832302Y-49794751D01*
X188206044Y-48421008D01*
X188218222Y-48410327D01*
X188243282Y-48391100D01*
X188283043Y-48339283D01*
X188339536Y-48265659D01*
X188400044Y-48119580D01*
X188416634Y-47993565D01*
X188435479Y-47942367D01*
X188474473Y-47904215D01*
X188533656Y-47867712D01*
X188657712Y-47743656D01*
X188749814Y-47594334D01*
X188792294Y-47466137D01*
X188825432Y-47414454D01*
X188879302Y-47385002D01*
X188940698Y-47385002D01*
X188994568Y-47414454D01*
G37*
%TD.AperFunction*%
%TA.AperFunction,Conductor*%
G36*
X186307197Y-44764015D02*
G01*
X186351220Y-44801615D01*
X186373375Y-44855103D01*
X186368833Y-44912819D01*
X186338584Y-44962179D01*
X186276264Y-45024500D01*
X186260617Y-45040147D01*
X186201532Y-45073123D01*
X186133932Y-45070171D01*
X186027797Y-45035001D01*
X186021064Y-45034313D01*
X186021059Y-45034312D01*
X185928140Y-45024819D01*
X185928123Y-45024818D01*
X185925009Y-45024500D01*
X185921860Y-45024500D01*
X185328141Y-45024500D01*
X185328121Y-45024500D01*
X185324992Y-45024501D01*
X185321860Y-45024820D01*
X185321858Y-45024821D01*
X185228938Y-45034312D01*
X185228928Y-45034313D01*
X185222203Y-45035001D01*
X185215781Y-45037128D01*
X185215776Y-45037130D01*
X185062521Y-45087914D01*
X185062517Y-45087915D01*
X185055666Y-45090186D01*
X185049522Y-45093975D01*
X185049519Y-45093977D01*
X184912488Y-45178497D01*
X184912480Y-45178503D01*
X184906344Y-45182288D01*
X184901242Y-45187389D01*
X184901238Y-45187393D01*
X184787393Y-45301238D01*
X184787389Y-45301242D01*
X184782288Y-45306344D01*
X184778503Y-45312480D01*
X184778497Y-45312488D01*
X184694811Y-45448167D01*
X184690186Y-45455666D01*
X184687915Y-45462517D01*
X184687914Y-45462521D01*
X184673987Y-45504550D01*
X184635001Y-45622203D01*
X184634313Y-45628933D01*
X184634312Y-45628940D01*
X184624819Y-45721859D01*
X184624818Y-45721877D01*
X184624500Y-45724991D01*
X184624500Y-45728138D01*
X184624500Y-45728139D01*
X184624500Y-47321859D01*
X184624500Y-47321878D01*
X184624501Y-47325008D01*
X184624820Y-47328140D01*
X184624821Y-47328141D01*
X184634312Y-47421061D01*
X184634313Y-47421069D01*
X184635001Y-47427797D01*
X184637129Y-47434219D01*
X184637130Y-47434223D01*
X184687914Y-47587478D01*
X184690186Y-47594334D01*
X184693977Y-47600480D01*
X184778497Y-47737511D01*
X184778500Y-47737515D01*
X184782288Y-47743656D01*
X184906344Y-47867712D01*
X184912484Y-47871499D01*
X184912488Y-47871502D01*
X184948121Y-47893480D01*
X185055666Y-47959814D01*
X185222203Y-48014999D01*
X185324991Y-48025500D01*
X185925008Y-48025499D01*
X186027797Y-48014999D01*
X186194334Y-47959814D01*
X186343656Y-47867712D01*
X186467712Y-47743656D01*
X186559814Y-47594334D01*
X186602294Y-47466137D01*
X186635432Y-47414454D01*
X186689302Y-47385002D01*
X186750698Y-47385002D01*
X186804568Y-47414454D01*
X186837706Y-47466138D01*
X186869631Y-47562483D01*
X186880186Y-47594334D01*
X186883977Y-47600480D01*
X186968497Y-47737511D01*
X186968500Y-47737515D01*
X186972288Y-47743656D01*
X186977393Y-47748761D01*
X186990926Y-47762294D01*
X187023020Y-47817881D01*
X187023020Y-47882069D01*
X186990926Y-47937656D01*
X184808965Y-50119616D01*
X184796774Y-50130308D01*
X184778164Y-50144588D01*
X184778156Y-50144595D01*
X184771718Y-50149536D01*
X184766777Y-50155974D01*
X184766774Y-50155978D01*
X184681652Y-50266911D01*
X184681650Y-50266913D01*
X184675464Y-50274976D01*
X184675464Y-50274977D01*
X184670314Y-50287408D01*
X184670314Y-50287409D01*
X184618066Y-50413546D01*
X184618064Y-50413551D01*
X184614956Y-50421056D01*
X184613896Y-50429107D01*
X184613894Y-50429115D01*
X184598892Y-50543077D01*
X184594318Y-50577818D01*
X184595379Y-50585877D01*
X184598439Y-50609120D01*
X184599500Y-50625305D01*
X184599500Y-52334337D01*
X184580494Y-52400308D01*
X184519544Y-52497310D01*
X184517247Y-52503872D01*
X184517245Y-52503878D01*
X184465987Y-52650366D01*
X184465985Y-52650371D01*
X184463687Y-52656941D01*
X184462907Y-52663855D01*
X184462906Y-52663864D01*
X184445531Y-52818077D01*
X184444751Y-52825000D01*
X184445531Y-52831923D01*
X184462906Y-52986135D01*
X184462907Y-52986142D01*
X184463687Y-52993059D01*
X184465986Y-52999630D01*
X184465987Y-52999633D01*
X184516567Y-53144184D01*
X184519544Y-53152690D01*
X184548256Y-53198385D01*
X184602059Y-53284012D01*
X184609523Y-53295890D01*
X184729110Y-53415477D01*
X184759455Y-53434544D01*
X184776901Y-53445506D01*
X184820123Y-53491740D01*
X184834898Y-53553282D01*
X184817377Y-53614099D01*
X184772124Y-53658348D01*
X184710929Y-53674500D01*
X181831693Y-53674500D01*
X181774436Y-53660489D01*
X181730118Y-53621623D01*
X181648925Y-53505667D01*
X181600047Y-53435861D01*
X181439139Y-53274953D01*
X181252734Y-53144432D01*
X181129962Y-53087182D01*
X181051405Y-53050550D01*
X181051403Y-53050549D01*
X181046496Y-53048261D01*
X181041271Y-53046861D01*
X181041263Y-53046858D01*
X180831916Y-52990764D01*
X180831907Y-52990762D01*
X180826692Y-52989365D01*
X180821304Y-52988893D01*
X180821301Y-52988893D01*
X180605395Y-52970004D01*
X180600000Y-52969532D01*
X180594605Y-52970004D01*
X180378698Y-52988893D01*
X180378693Y-52988893D01*
X180373308Y-52989365D01*
X180368094Y-52990762D01*
X180368083Y-52990764D01*
X180158736Y-53046858D01*
X180158724Y-53046862D01*
X180153504Y-53048261D01*
X180148599Y-53050547D01*
X180148594Y-53050550D01*
X179952176Y-53142142D01*
X179952172Y-53142144D01*
X179947266Y-53144432D01*
X179942833Y-53147535D01*
X179942826Y-53147540D01*
X179765296Y-53271847D01*
X179765291Y-53271850D01*
X179760861Y-53274953D01*
X179757037Y-53278776D01*
X179757031Y-53278782D01*
X179603782Y-53432031D01*
X179603776Y-53432037D01*
X179599953Y-53435861D01*
X179596850Y-53440291D01*
X179596847Y-53440296D01*
X179564156Y-53486984D01*
X179551223Y-53505456D01*
X179551075Y-53505667D01*
X179503859Y-53545994D01*
X179443011Y-53558374D01*
X179383790Y-53539702D01*
X179341047Y-53494661D01*
X179325500Y-53434544D01*
X179325500Y-47972717D01*
X179344005Y-47907550D01*
X179393996Y-47861833D01*
X179460553Y-47849211D01*
X179523811Y-47873450D01*
X179557669Y-47898796D01*
X179692517Y-47949091D01*
X179752127Y-47955500D01*
X181447872Y-47955499D01*
X181507483Y-47949091D01*
X181642331Y-47898796D01*
X181757546Y-47812546D01*
X181843796Y-47697331D01*
X181894091Y-47562483D01*
X181900500Y-47502873D01*
X181900499Y-45807128D01*
X181894091Y-45747517D01*
X181843796Y-45612669D01*
X181757546Y-45497454D01*
X181701724Y-45455666D01*
X181649431Y-45416519D01*
X181649430Y-45416518D01*
X181642331Y-45411204D01*
X181507483Y-45360909D01*
X181499770Y-45360079D01*
X181499767Y-45360079D01*
X181451180Y-45354855D01*
X181451169Y-45354854D01*
X181447873Y-45354500D01*
X181444550Y-45354500D01*
X179755439Y-45354500D01*
X179755420Y-45354500D01*
X179752128Y-45354501D01*
X179748850Y-45354853D01*
X179748838Y-45354854D01*
X179700231Y-45360079D01*
X179700225Y-45360080D01*
X179692517Y-45360909D01*
X179685252Y-45363618D01*
X179685246Y-45363620D01*
X179565980Y-45408104D01*
X179565978Y-45408104D01*
X179557669Y-45411204D01*
X179550572Y-45416516D01*
X179550568Y-45416519D01*
X179523811Y-45436550D01*
X179460553Y-45460789D01*
X179393996Y-45448167D01*
X179344005Y-45402450D01*
X179325500Y-45337283D01*
X179325500Y-44874500D01*
X179342113Y-44812500D01*
X179387500Y-44767113D01*
X179449500Y-44750500D01*
X186250902Y-44750500D01*
X186307197Y-44764015D01*
G37*
%TD.AperFunction*%
%TD*%
M02*
