%TF.GenerationSoftware,KiCad,Pcbnew,(7.0.0)*%
%TF.CreationDate,2023-07-04T16:48:48+02:00*%
%TF.ProjectId,attiny85_remote,61747469-6e79-4383-955f-72656d6f7465,rev?*%
%TF.SameCoordinates,Original*%
%TF.FileFunction,Drillmap*%
%TF.FilePolarity,Positive*%
%FSLAX45Y45*%
G04 Gerber Fmt 4.5, Leading zero omitted, Abs format (unit mm)*
G04 Created by KiCad (PCBNEW (7.0.0)) date 2023-07-04 16:48:48*
%MOMM*%
%LPD*%
G01*
G04 APERTURE LIST*
%ADD10C,0.150000*%
%ADD11C,0.200000*%
%ADD12C,0.030000*%
%ADD13C,0.040000*%
%ADD14C,0.080000*%
%ADD15C,0.110000*%
%ADD16C,0.117000*%
G04 APERTURE END LIST*
D10*
X17902500Y-8895000D02*
X18750000Y-8895000D01*
X17902500Y-11442500D02*
X17902500Y-8895000D01*
X20317500Y-8895000D02*
X20317500Y-11442500D01*
X20317500Y-4642500D02*
X20317500Y-4445000D01*
X17902500Y-4445000D02*
X17902500Y-4642500D01*
X20317500Y-7495000D02*
X20317500Y-4642500D01*
X18750000Y-7495000D02*
X17902500Y-7495000D01*
X19465000Y-7495000D02*
X20317500Y-7495000D01*
X19465000Y-8895000D02*
X19465000Y-7495000D01*
X18750000Y-8895000D02*
X18750000Y-7495000D01*
X20317500Y-4445000D02*
X17902500Y-4445000D01*
X20317500Y-11442500D02*
X17902500Y-11442500D01*
X17902500Y-7495000D02*
X17902500Y-4642500D01*
X19465000Y-8895000D02*
X20317500Y-8895000D01*
D11*
D12*
X18057500Y-5112500D02*
X18087500Y-5142500D01*
X18087500Y-5112500D02*
X18057500Y-5142500D01*
X18067500Y-9425000D02*
X18097500Y-9455000D01*
X18097500Y-9425000D02*
X18067500Y-9455000D01*
X18082500Y-11292500D02*
X18112500Y-11322500D01*
X18112500Y-11292500D02*
X18082500Y-11322500D01*
X18295000Y-4637500D02*
X18325000Y-4667500D01*
X18325000Y-4637500D02*
X18295000Y-4667500D01*
X18337500Y-6370000D02*
X18367500Y-6400000D01*
X18367500Y-6370000D02*
X18337500Y-6400000D01*
X18477500Y-4822500D02*
X18507500Y-4852500D01*
X18507500Y-4822500D02*
X18477500Y-4852500D01*
X18497500Y-5740000D02*
X18527500Y-5770000D01*
X18527500Y-5740000D02*
X18497500Y-5770000D01*
X18505000Y-5267500D02*
X18535000Y-5297500D01*
X18535000Y-5267500D02*
X18505000Y-5297500D01*
X18512500Y-5605000D02*
X18542500Y-5635000D01*
X18542500Y-5605000D02*
X18512500Y-5635000D01*
X18600000Y-10742500D02*
X18630000Y-10772500D01*
X18630000Y-10742500D02*
X18600000Y-10772500D01*
X18650000Y-5972500D02*
X18680000Y-6002500D01*
X18680000Y-5972500D02*
X18650000Y-6002500D01*
X18777500Y-5800000D02*
X18807500Y-5830000D01*
X18807500Y-5800000D02*
X18777500Y-5830000D01*
X18787500Y-5667500D02*
X18817500Y-5697500D01*
X18817500Y-5667500D02*
X18787500Y-5697500D01*
X18835000Y-5040000D02*
X18865000Y-5070000D01*
X18865000Y-5040000D02*
X18835000Y-5070000D01*
X18880000Y-5180000D02*
X18910000Y-5210000D01*
X18910000Y-5180000D02*
X18880000Y-5210000D01*
X18985500Y-4637500D02*
X19015500Y-4667500D01*
X19015500Y-4637500D02*
X18985500Y-4667500D01*
X19002500Y-5392500D02*
X19032500Y-5422500D01*
X19032500Y-5392500D02*
X19002500Y-5422500D01*
X19047500Y-5917500D02*
X19077500Y-5947500D01*
X19077500Y-5917500D02*
X19047500Y-5947500D01*
X19050000Y-6020750D02*
X19080000Y-6050750D01*
X19080000Y-6020750D02*
X19050000Y-6050750D01*
X19067500Y-5487500D02*
X19097500Y-5517500D01*
X19097500Y-5487500D02*
X19067500Y-5517500D01*
X19087500Y-4897500D02*
X19117500Y-4927500D01*
X19117500Y-4897500D02*
X19087500Y-4927500D01*
X19096250Y-5181250D02*
X19126250Y-5211250D01*
X19126250Y-5181250D02*
X19096250Y-5211250D01*
X19137500Y-9542500D02*
X19167500Y-9572500D01*
X19167500Y-9542500D02*
X19137500Y-9572500D01*
X19147500Y-5392500D02*
X19177500Y-5422500D01*
X19177500Y-5392500D02*
X19147500Y-5422500D01*
X19202500Y-4710000D02*
X19232500Y-4740000D01*
X19232500Y-4710000D02*
X19202500Y-4740000D01*
X19202500Y-5175000D02*
X19232500Y-5205000D01*
X19232500Y-5175000D02*
X19202500Y-5205000D01*
X19252500Y-5280000D02*
X19282500Y-5310000D01*
X19282500Y-5280000D02*
X19252500Y-5310000D01*
X19315000Y-4765000D02*
X19345000Y-4795000D01*
X19345000Y-4765000D02*
X19315000Y-4795000D01*
X19320000Y-5782500D02*
X19350000Y-5812500D01*
X19350000Y-5782500D02*
X19320000Y-5812500D01*
X19355000Y-9015000D02*
X19385000Y-9045000D01*
X19385000Y-9015000D02*
X19355000Y-9045000D01*
X19377500Y-5260000D02*
X19407500Y-5290000D01*
X19407500Y-5260000D02*
X19377500Y-5290000D01*
X19422500Y-4710000D02*
X19452500Y-4740000D01*
X19452500Y-4710000D02*
X19422500Y-4740000D01*
X19422500Y-5115000D02*
X19452500Y-5145000D01*
X19452500Y-5115000D02*
X19422500Y-5145000D01*
X19435000Y-5835000D02*
X19465000Y-5865000D01*
X19465000Y-5835000D02*
X19435000Y-5865000D01*
X19510000Y-5402500D02*
X19540000Y-5432500D01*
X19540000Y-5402500D02*
X19510000Y-5432500D01*
X19527500Y-4892500D02*
X19557500Y-4922500D01*
X19557500Y-4892500D02*
X19527500Y-4922500D01*
X19535000Y-5307500D02*
X19565000Y-5337500D01*
X19565000Y-5307500D02*
X19535000Y-5337500D01*
X19620000Y-5375000D02*
X19650000Y-5405000D01*
X19650000Y-5375000D02*
X19620000Y-5405000D01*
X19625000Y-10787500D02*
X19655000Y-10817500D01*
X19655000Y-10787500D02*
X19625000Y-10817500D01*
X19697500Y-5582500D02*
X19727500Y-5612500D01*
X19727500Y-5582500D02*
X19697500Y-5612500D01*
X19697500Y-5682500D02*
X19727500Y-5712500D01*
X19727500Y-5682500D02*
X19697500Y-5712500D01*
X19730000Y-4865000D02*
X19760000Y-4895000D01*
X19760000Y-4865000D02*
X19730000Y-4895000D01*
X19825000Y-5040000D02*
X19855000Y-5070000D01*
X19855000Y-5040000D02*
X19825000Y-5070000D01*
X19825000Y-5240000D02*
X19855000Y-5270000D01*
X19855000Y-5240000D02*
X19825000Y-5270000D01*
X19825000Y-5442500D02*
X19855000Y-5472500D01*
X19855000Y-5442500D02*
X19825000Y-5472500D01*
X19835000Y-4602500D02*
X19865000Y-4632500D01*
X19865000Y-4602500D02*
X19835000Y-4632500D01*
X19850000Y-9022500D02*
X19880000Y-9052500D01*
X19880000Y-9022500D02*
X19850000Y-9052500D01*
X19967500Y-4680000D02*
X19997500Y-4710000D01*
X19997500Y-4680000D02*
X19967500Y-4710000D01*
X20100000Y-9412500D02*
X20130000Y-9442500D01*
X20130000Y-9412500D02*
X20100000Y-9442500D01*
X20165000Y-11287500D02*
X20195000Y-11317500D01*
X20195000Y-11287500D02*
X20165000Y-11317500D01*
D13*
X18910000Y-8835000D02*
G75*
G03*
X18910000Y-8835000I-20000J0D01*
G01*
X18912500Y-7927500D02*
G75*
G03*
X18912500Y-7927500I-20000J0D01*
G01*
X18927500Y-8227500D02*
G75*
G03*
X18927500Y-8227500I-20000J0D01*
G01*
X19072500Y-7737500D02*
G75*
G03*
X19072500Y-7737500I-20000J0D01*
G01*
X19207500Y-8560000D02*
G75*
G03*
X19207500Y-8560000I-20000J0D01*
G01*
D14*
X18060000Y-4625500D02*
X18060000Y-4705500D01*
X18020000Y-4665500D02*
X18100000Y-4665500D01*
X18060000Y-5387500D02*
X18060000Y-5467500D01*
X18020000Y-5427500D02*
X18100000Y-5427500D01*
X18060000Y-5597500D02*
X18060000Y-5677500D01*
X18020000Y-5637500D02*
X18100000Y-5637500D01*
X18060000Y-6359500D02*
X18060000Y-6439500D01*
X18020000Y-6399500D02*
X18100000Y-6399500D01*
X18072500Y-9012500D02*
X18072500Y-9092500D01*
X18032500Y-9052500D02*
X18112500Y-9052500D01*
X18572500Y-9012500D02*
X18572500Y-9092500D01*
X18532500Y-9052500D02*
X18612500Y-9052500D01*
X18730000Y-6340000D02*
X18730000Y-6420000D01*
X18690000Y-6380000D02*
X18770000Y-6380000D01*
X18887500Y-7520000D02*
X18887500Y-7600000D01*
X18847500Y-7560000D02*
X18927500Y-7560000D01*
X18887500Y-8536000D02*
X18887500Y-8616000D01*
X18847500Y-8576000D02*
X18927500Y-8576000D01*
X19327500Y-7804000D02*
X19327500Y-7884000D01*
X19287500Y-7844000D02*
X19367500Y-7844000D01*
X19327500Y-8820000D02*
X19327500Y-8900000D01*
X19287500Y-8860000D02*
X19367500Y-8860000D01*
X19492000Y-6340000D02*
X19492000Y-6420000D01*
X19452000Y-6380000D02*
X19532000Y-6380000D01*
X19642500Y-9012500D02*
X19642500Y-9092500D01*
X19602500Y-9052500D02*
X19682500Y-9052500D01*
X20142500Y-9012500D02*
X20142500Y-9092500D01*
X20102500Y-9052500D02*
X20182500Y-9052500D01*
X20160000Y-4625500D02*
X20160000Y-4705500D01*
X20120000Y-4665500D02*
X20200000Y-4665500D01*
X20160000Y-5387500D02*
X20160000Y-5467500D01*
X20120000Y-5427500D02*
X20200000Y-5427500D01*
X20160000Y-5597500D02*
X20160000Y-5677500D01*
X20120000Y-5637500D02*
X20200000Y-5637500D01*
X20160000Y-6359500D02*
X20160000Y-6439500D01*
X20120000Y-6399500D02*
X20200000Y-6399500D01*
D15*
X18098891Y-6693891D02*
X18098891Y-6616109D01*
X18021109Y-6616109D01*
X18021109Y-6693891D01*
X18098891Y-6693891D01*
X18098891Y-7343891D02*
X18098891Y-7266109D01*
X18021109Y-7266109D01*
X18021109Y-7343891D01*
X18098891Y-7343891D01*
X18548891Y-6693891D02*
X18548891Y-6616109D01*
X18471109Y-6616109D01*
X18471109Y-6693891D01*
X18548891Y-6693891D01*
X18548891Y-7343891D02*
X18548891Y-7266109D01*
X18471109Y-7266109D01*
X18471109Y-7343891D01*
X18548891Y-7343891D01*
X18923891Y-6693891D02*
X18923891Y-6616109D01*
X18846109Y-6616109D01*
X18846109Y-6693891D01*
X18923891Y-6693891D01*
X18923891Y-7343891D02*
X18923891Y-7266109D01*
X18846109Y-7266109D01*
X18846109Y-7343891D01*
X18923891Y-7343891D01*
X19373891Y-6693891D02*
X19373891Y-6616109D01*
X19296109Y-6616109D01*
X19296109Y-6693891D01*
X19373891Y-6693891D01*
X19373891Y-7343891D02*
X19373891Y-7266109D01*
X19296109Y-7266109D01*
X19296109Y-7343891D01*
X19373891Y-7343891D01*
X19748891Y-6693891D02*
X19748891Y-6616109D01*
X19671109Y-6616109D01*
X19671109Y-6693891D01*
X19748891Y-6693891D01*
X19748891Y-7343891D02*
X19748891Y-7266109D01*
X19671109Y-7266109D01*
X19671109Y-7343891D01*
X19748891Y-7343891D01*
X20198891Y-6693891D02*
X20198891Y-6616109D01*
X20121109Y-6616109D01*
X20121109Y-6693891D01*
X20198891Y-6693891D01*
X20198891Y-7343891D02*
X20198891Y-7266109D01*
X20121109Y-7266109D01*
X20121109Y-7343891D01*
X20198891Y-7343891D01*
D16*
X19107500Y-11098500D02*
X19166000Y-11040000D01*
X19107500Y-10981500D01*
X19049000Y-11040000D01*
X19107500Y-11098500D01*
D10*
X19032500Y-8965000D02*
X19182500Y-9115000D01*
X19182500Y-8965000D02*
X19032500Y-9115000D01*
X19182500Y-9040000D02*
G75*
G03*
X19182500Y-9040000I-75000J0D01*
G01*
D11*
X18142619Y-11743476D02*
X18142619Y-11543476D01*
X18142619Y-11543476D02*
X18190238Y-11543476D01*
X18190238Y-11543476D02*
X18218810Y-11553000D01*
X18218810Y-11553000D02*
X18237857Y-11572048D01*
X18237857Y-11572048D02*
X18247381Y-11591095D01*
X18247381Y-11591095D02*
X18256905Y-11629190D01*
X18256905Y-11629190D02*
X18256905Y-11657762D01*
X18256905Y-11657762D02*
X18247381Y-11695857D01*
X18247381Y-11695857D02*
X18237857Y-11714905D01*
X18237857Y-11714905D02*
X18218810Y-11733952D01*
X18218810Y-11733952D02*
X18190238Y-11743476D01*
X18190238Y-11743476D02*
X18142619Y-11743476D01*
X18342619Y-11743476D02*
X18342619Y-11610143D01*
X18342619Y-11648238D02*
X18352143Y-11629190D01*
X18352143Y-11629190D02*
X18361667Y-11619667D01*
X18361667Y-11619667D02*
X18380714Y-11610143D01*
X18380714Y-11610143D02*
X18399762Y-11610143D01*
X18466429Y-11743476D02*
X18466429Y-11610143D01*
X18466429Y-11543476D02*
X18456905Y-11553000D01*
X18456905Y-11553000D02*
X18466429Y-11562524D01*
X18466429Y-11562524D02*
X18475952Y-11553000D01*
X18475952Y-11553000D02*
X18466429Y-11543476D01*
X18466429Y-11543476D02*
X18466429Y-11562524D01*
X18590238Y-11743476D02*
X18571190Y-11733952D01*
X18571190Y-11733952D02*
X18561667Y-11714905D01*
X18561667Y-11714905D02*
X18561667Y-11543476D01*
X18695000Y-11743476D02*
X18675952Y-11733952D01*
X18675952Y-11733952D02*
X18666429Y-11714905D01*
X18666429Y-11714905D02*
X18666429Y-11543476D01*
X18891190Y-11743476D02*
X18891190Y-11543476D01*
X18891190Y-11543476D02*
X18957857Y-11686333D01*
X18957857Y-11686333D02*
X19024524Y-11543476D01*
X19024524Y-11543476D02*
X19024524Y-11743476D01*
X19205476Y-11743476D02*
X19205476Y-11638714D01*
X19205476Y-11638714D02*
X19195952Y-11619667D01*
X19195952Y-11619667D02*
X19176905Y-11610143D01*
X19176905Y-11610143D02*
X19138809Y-11610143D01*
X19138809Y-11610143D02*
X19119762Y-11619667D01*
X19205476Y-11733952D02*
X19186429Y-11743476D01*
X19186429Y-11743476D02*
X19138809Y-11743476D01*
X19138809Y-11743476D02*
X19119762Y-11733952D01*
X19119762Y-11733952D02*
X19110238Y-11714905D01*
X19110238Y-11714905D02*
X19110238Y-11695857D01*
X19110238Y-11695857D02*
X19119762Y-11676809D01*
X19119762Y-11676809D02*
X19138809Y-11667286D01*
X19138809Y-11667286D02*
X19186429Y-11667286D01*
X19186429Y-11667286D02*
X19205476Y-11657762D01*
X19300714Y-11610143D02*
X19300714Y-11810143D01*
X19300714Y-11619667D02*
X19319762Y-11610143D01*
X19319762Y-11610143D02*
X19357857Y-11610143D01*
X19357857Y-11610143D02*
X19376905Y-11619667D01*
X19376905Y-11619667D02*
X19386429Y-11629190D01*
X19386429Y-11629190D02*
X19395952Y-11648238D01*
X19395952Y-11648238D02*
X19395952Y-11705381D01*
X19395952Y-11705381D02*
X19386429Y-11724428D01*
X19386429Y-11724428D02*
X19376905Y-11733952D01*
X19376905Y-11733952D02*
X19357857Y-11743476D01*
X19357857Y-11743476D02*
X19319762Y-11743476D01*
X19319762Y-11743476D02*
X19300714Y-11733952D01*
X19481667Y-11724428D02*
X19491190Y-11733952D01*
X19491190Y-11733952D02*
X19481667Y-11743476D01*
X19481667Y-11743476D02*
X19472143Y-11733952D01*
X19472143Y-11733952D02*
X19481667Y-11724428D01*
X19481667Y-11724428D02*
X19481667Y-11743476D01*
X19481667Y-11619667D02*
X19491190Y-11629190D01*
X19491190Y-11629190D02*
X19481667Y-11638714D01*
X19481667Y-11638714D02*
X19472143Y-11629190D01*
X19472143Y-11629190D02*
X19481667Y-11619667D01*
X19481667Y-11619667D02*
X19481667Y-11638714D01*
D12*
X17865000Y-12075000D02*
X17895000Y-12105000D01*
X17895000Y-12075000D02*
X17865000Y-12105000D01*
D11*
X18180714Y-11963476D02*
X18199762Y-11963476D01*
X18199762Y-11963476D02*
X18218810Y-11973000D01*
X18218810Y-11973000D02*
X18228333Y-11982524D01*
X18228333Y-11982524D02*
X18237857Y-12001571D01*
X18237857Y-12001571D02*
X18247381Y-12039667D01*
X18247381Y-12039667D02*
X18247381Y-12087286D01*
X18247381Y-12087286D02*
X18237857Y-12125381D01*
X18237857Y-12125381D02*
X18228333Y-12144428D01*
X18228333Y-12144428D02*
X18218810Y-12153952D01*
X18218810Y-12153952D02*
X18199762Y-12163476D01*
X18199762Y-12163476D02*
X18180714Y-12163476D01*
X18180714Y-12163476D02*
X18161667Y-12153952D01*
X18161667Y-12153952D02*
X18152143Y-12144428D01*
X18152143Y-12144428D02*
X18142619Y-12125381D01*
X18142619Y-12125381D02*
X18133095Y-12087286D01*
X18133095Y-12087286D02*
X18133095Y-12039667D01*
X18133095Y-12039667D02*
X18142619Y-12001571D01*
X18142619Y-12001571D02*
X18152143Y-11982524D01*
X18152143Y-11982524D02*
X18161667Y-11973000D01*
X18161667Y-11973000D02*
X18180714Y-11963476D01*
X18333095Y-12144428D02*
X18342619Y-12153952D01*
X18342619Y-12153952D02*
X18333095Y-12163476D01*
X18333095Y-12163476D02*
X18323571Y-12153952D01*
X18323571Y-12153952D02*
X18333095Y-12144428D01*
X18333095Y-12144428D02*
X18333095Y-12163476D01*
X18409286Y-11963476D02*
X18533095Y-11963476D01*
X18533095Y-11963476D02*
X18466429Y-12039667D01*
X18466429Y-12039667D02*
X18495000Y-12039667D01*
X18495000Y-12039667D02*
X18514048Y-12049190D01*
X18514048Y-12049190D02*
X18523571Y-12058714D01*
X18523571Y-12058714D02*
X18533095Y-12077762D01*
X18533095Y-12077762D02*
X18533095Y-12125381D01*
X18533095Y-12125381D02*
X18523571Y-12144428D01*
X18523571Y-12144428D02*
X18514048Y-12153952D01*
X18514048Y-12153952D02*
X18495000Y-12163476D01*
X18495000Y-12163476D02*
X18437857Y-12163476D01*
X18437857Y-12163476D02*
X18418810Y-12153952D01*
X18418810Y-12153952D02*
X18409286Y-12144428D01*
X18656905Y-11963476D02*
X18675952Y-11963476D01*
X18675952Y-11963476D02*
X18695000Y-11973000D01*
X18695000Y-11973000D02*
X18704524Y-11982524D01*
X18704524Y-11982524D02*
X18714048Y-12001571D01*
X18714048Y-12001571D02*
X18723571Y-12039667D01*
X18723571Y-12039667D02*
X18723571Y-12087286D01*
X18723571Y-12087286D02*
X18714048Y-12125381D01*
X18714048Y-12125381D02*
X18704524Y-12144428D01*
X18704524Y-12144428D02*
X18695000Y-12153952D01*
X18695000Y-12153952D02*
X18675952Y-12163476D01*
X18675952Y-12163476D02*
X18656905Y-12163476D01*
X18656905Y-12163476D02*
X18637857Y-12153952D01*
X18637857Y-12153952D02*
X18628333Y-12144428D01*
X18628333Y-12144428D02*
X18618810Y-12125381D01*
X18618810Y-12125381D02*
X18609286Y-12087286D01*
X18609286Y-12087286D02*
X18609286Y-12039667D01*
X18609286Y-12039667D02*
X18618810Y-12001571D01*
X18618810Y-12001571D02*
X18628333Y-11982524D01*
X18628333Y-11982524D02*
X18637857Y-11973000D01*
X18637857Y-11973000D02*
X18656905Y-11963476D01*
X18847381Y-11963476D02*
X18866429Y-11963476D01*
X18866429Y-11963476D02*
X18885476Y-11973000D01*
X18885476Y-11973000D02*
X18895000Y-11982524D01*
X18895000Y-11982524D02*
X18904524Y-12001571D01*
X18904524Y-12001571D02*
X18914048Y-12039667D01*
X18914048Y-12039667D02*
X18914048Y-12087286D01*
X18914048Y-12087286D02*
X18904524Y-12125381D01*
X18904524Y-12125381D02*
X18895000Y-12144428D01*
X18895000Y-12144428D02*
X18885476Y-12153952D01*
X18885476Y-12153952D02*
X18866429Y-12163476D01*
X18866429Y-12163476D02*
X18847381Y-12163476D01*
X18847381Y-12163476D02*
X18828333Y-12153952D01*
X18828333Y-12153952D02*
X18818810Y-12144428D01*
X18818810Y-12144428D02*
X18809286Y-12125381D01*
X18809286Y-12125381D02*
X18799762Y-12087286D01*
X18799762Y-12087286D02*
X18799762Y-12039667D01*
X18799762Y-12039667D02*
X18809286Y-12001571D01*
X18809286Y-12001571D02*
X18818810Y-11982524D01*
X18818810Y-11982524D02*
X18828333Y-11973000D01*
X18828333Y-11973000D02*
X18847381Y-11963476D01*
X18999762Y-12163476D02*
X18999762Y-12030143D01*
X18999762Y-12049190D02*
X19009286Y-12039667D01*
X19009286Y-12039667D02*
X19028333Y-12030143D01*
X19028333Y-12030143D02*
X19056905Y-12030143D01*
X19056905Y-12030143D02*
X19075952Y-12039667D01*
X19075952Y-12039667D02*
X19085476Y-12058714D01*
X19085476Y-12058714D02*
X19085476Y-12163476D01*
X19085476Y-12058714D02*
X19095000Y-12039667D01*
X19095000Y-12039667D02*
X19114048Y-12030143D01*
X19114048Y-12030143D02*
X19142619Y-12030143D01*
X19142619Y-12030143D02*
X19161667Y-12039667D01*
X19161667Y-12039667D02*
X19171191Y-12058714D01*
X19171191Y-12058714D02*
X19171191Y-12163476D01*
X19266429Y-12163476D02*
X19266429Y-12030143D01*
X19266429Y-12049190D02*
X19275952Y-12039667D01*
X19275952Y-12039667D02*
X19295000Y-12030143D01*
X19295000Y-12030143D02*
X19323572Y-12030143D01*
X19323572Y-12030143D02*
X19342619Y-12039667D01*
X19342619Y-12039667D02*
X19352143Y-12058714D01*
X19352143Y-12058714D02*
X19352143Y-12163476D01*
X19352143Y-12058714D02*
X19361667Y-12039667D01*
X19361667Y-12039667D02*
X19380714Y-12030143D01*
X19380714Y-12030143D02*
X19409286Y-12030143D01*
X19409286Y-12030143D02*
X19428333Y-12039667D01*
X19428333Y-12039667D02*
X19437857Y-12058714D01*
X19437857Y-12058714D02*
X19437857Y-12163476D01*
X19795952Y-11953952D02*
X19624524Y-12211095D01*
X20020714Y-11963476D02*
X20039762Y-11963476D01*
X20039762Y-11963476D02*
X20058810Y-11973000D01*
X20058810Y-11973000D02*
X20068333Y-11982524D01*
X20068333Y-11982524D02*
X20077857Y-12001571D01*
X20077857Y-12001571D02*
X20087381Y-12039667D01*
X20087381Y-12039667D02*
X20087381Y-12087286D01*
X20087381Y-12087286D02*
X20077857Y-12125381D01*
X20077857Y-12125381D02*
X20068333Y-12144428D01*
X20068333Y-12144428D02*
X20058810Y-12153952D01*
X20058810Y-12153952D02*
X20039762Y-12163476D01*
X20039762Y-12163476D02*
X20020714Y-12163476D01*
X20020714Y-12163476D02*
X20001667Y-12153952D01*
X20001667Y-12153952D02*
X19992143Y-12144428D01*
X19992143Y-12144428D02*
X19982619Y-12125381D01*
X19982619Y-12125381D02*
X19973095Y-12087286D01*
X19973095Y-12087286D02*
X19973095Y-12039667D01*
X19973095Y-12039667D02*
X19982619Y-12001571D01*
X19982619Y-12001571D02*
X19992143Y-11982524D01*
X19992143Y-11982524D02*
X20001667Y-11973000D01*
X20001667Y-11973000D02*
X20020714Y-11963476D01*
X20173095Y-12144428D02*
X20182619Y-12153952D01*
X20182619Y-12153952D02*
X20173095Y-12163476D01*
X20173095Y-12163476D02*
X20163572Y-12153952D01*
X20163572Y-12153952D02*
X20173095Y-12144428D01*
X20173095Y-12144428D02*
X20173095Y-12163476D01*
X20306429Y-11963476D02*
X20325476Y-11963476D01*
X20325476Y-11963476D02*
X20344524Y-11973000D01*
X20344524Y-11973000D02*
X20354048Y-11982524D01*
X20354048Y-11982524D02*
X20363572Y-12001571D01*
X20363572Y-12001571D02*
X20373095Y-12039667D01*
X20373095Y-12039667D02*
X20373095Y-12087286D01*
X20373095Y-12087286D02*
X20363572Y-12125381D01*
X20363572Y-12125381D02*
X20354048Y-12144428D01*
X20354048Y-12144428D02*
X20344524Y-12153952D01*
X20344524Y-12153952D02*
X20325476Y-12163476D01*
X20325476Y-12163476D02*
X20306429Y-12163476D01*
X20306429Y-12163476D02*
X20287381Y-12153952D01*
X20287381Y-12153952D02*
X20277857Y-12144428D01*
X20277857Y-12144428D02*
X20268333Y-12125381D01*
X20268333Y-12125381D02*
X20258810Y-12087286D01*
X20258810Y-12087286D02*
X20258810Y-12039667D01*
X20258810Y-12039667D02*
X20268333Y-12001571D01*
X20268333Y-12001571D02*
X20277857Y-11982524D01*
X20277857Y-11982524D02*
X20287381Y-11973000D01*
X20287381Y-11973000D02*
X20306429Y-11963476D01*
X20563572Y-12163476D02*
X20449286Y-12163476D01*
X20506429Y-12163476D02*
X20506429Y-11963476D01*
X20506429Y-11963476D02*
X20487381Y-11992048D01*
X20487381Y-11992048D02*
X20468333Y-12011095D01*
X20468333Y-12011095D02*
X20449286Y-12020619D01*
X20754048Y-12163476D02*
X20639762Y-12163476D01*
X20696905Y-12163476D02*
X20696905Y-11963476D01*
X20696905Y-11963476D02*
X20677857Y-11992048D01*
X20677857Y-11992048D02*
X20658810Y-12011095D01*
X20658810Y-12011095D02*
X20639762Y-12020619D01*
X20868333Y-12049190D02*
X20849286Y-12039667D01*
X20849286Y-12039667D02*
X20839762Y-12030143D01*
X20839762Y-12030143D02*
X20830238Y-12011095D01*
X20830238Y-12011095D02*
X20830238Y-12001571D01*
X20830238Y-12001571D02*
X20839762Y-11982524D01*
X20839762Y-11982524D02*
X20849286Y-11973000D01*
X20849286Y-11973000D02*
X20868333Y-11963476D01*
X20868333Y-11963476D02*
X20906429Y-11963476D01*
X20906429Y-11963476D02*
X20925476Y-11973000D01*
X20925476Y-11973000D02*
X20935000Y-11982524D01*
X20935000Y-11982524D02*
X20944524Y-12001571D01*
X20944524Y-12001571D02*
X20944524Y-12011095D01*
X20944524Y-12011095D02*
X20935000Y-12030143D01*
X20935000Y-12030143D02*
X20925476Y-12039667D01*
X20925476Y-12039667D02*
X20906429Y-12049190D01*
X20906429Y-12049190D02*
X20868333Y-12049190D01*
X20868333Y-12049190D02*
X20849286Y-12058714D01*
X20849286Y-12058714D02*
X20839762Y-12068238D01*
X20839762Y-12068238D02*
X20830238Y-12087286D01*
X20830238Y-12087286D02*
X20830238Y-12125381D01*
X20830238Y-12125381D02*
X20839762Y-12144428D01*
X20839762Y-12144428D02*
X20849286Y-12153952D01*
X20849286Y-12153952D02*
X20868333Y-12163476D01*
X20868333Y-12163476D02*
X20906429Y-12163476D01*
X20906429Y-12163476D02*
X20925476Y-12153952D01*
X20925476Y-12153952D02*
X20935000Y-12144428D01*
X20935000Y-12144428D02*
X20944524Y-12125381D01*
X20944524Y-12125381D02*
X20944524Y-12087286D01*
X20944524Y-12087286D02*
X20935000Y-12068238D01*
X20935000Y-12068238D02*
X20925476Y-12058714D01*
X20925476Y-12058714D02*
X20906429Y-12049190D01*
X21020714Y-11963476D02*
X21020714Y-12001571D01*
X21096905Y-11963476D02*
X21096905Y-12001571D01*
X21359762Y-12239667D02*
X21350238Y-12230143D01*
X21350238Y-12230143D02*
X21331191Y-12201571D01*
X21331191Y-12201571D02*
X21321667Y-12182524D01*
X21321667Y-12182524D02*
X21312143Y-12153952D01*
X21312143Y-12153952D02*
X21302619Y-12106333D01*
X21302619Y-12106333D02*
X21302619Y-12068238D01*
X21302619Y-12068238D02*
X21312143Y-12020619D01*
X21312143Y-12020619D02*
X21321667Y-11992048D01*
X21321667Y-11992048D02*
X21331191Y-11973000D01*
X21331191Y-11973000D02*
X21350238Y-11944428D01*
X21350238Y-11944428D02*
X21359762Y-11934905D01*
X21531191Y-11963476D02*
X21435953Y-11963476D01*
X21435953Y-11963476D02*
X21426429Y-12058714D01*
X21426429Y-12058714D02*
X21435953Y-12049190D01*
X21435953Y-12049190D02*
X21455000Y-12039667D01*
X21455000Y-12039667D02*
X21502619Y-12039667D01*
X21502619Y-12039667D02*
X21521667Y-12049190D01*
X21521667Y-12049190D02*
X21531191Y-12058714D01*
X21531191Y-12058714D02*
X21540714Y-12077762D01*
X21540714Y-12077762D02*
X21540714Y-12125381D01*
X21540714Y-12125381D02*
X21531191Y-12144428D01*
X21531191Y-12144428D02*
X21521667Y-12153952D01*
X21521667Y-12153952D02*
X21502619Y-12163476D01*
X21502619Y-12163476D02*
X21455000Y-12163476D01*
X21455000Y-12163476D02*
X21435953Y-12153952D01*
X21435953Y-12153952D02*
X21426429Y-12144428D01*
X21664524Y-11963476D02*
X21683572Y-11963476D01*
X21683572Y-11963476D02*
X21702619Y-11973000D01*
X21702619Y-11973000D02*
X21712143Y-11982524D01*
X21712143Y-11982524D02*
X21721667Y-12001571D01*
X21721667Y-12001571D02*
X21731191Y-12039667D01*
X21731191Y-12039667D02*
X21731191Y-12087286D01*
X21731191Y-12087286D02*
X21721667Y-12125381D01*
X21721667Y-12125381D02*
X21712143Y-12144428D01*
X21712143Y-12144428D02*
X21702619Y-12153952D01*
X21702619Y-12153952D02*
X21683572Y-12163476D01*
X21683572Y-12163476D02*
X21664524Y-12163476D01*
X21664524Y-12163476D02*
X21645476Y-12153952D01*
X21645476Y-12153952D02*
X21635953Y-12144428D01*
X21635953Y-12144428D02*
X21626429Y-12125381D01*
X21626429Y-12125381D02*
X21616905Y-12087286D01*
X21616905Y-12087286D02*
X21616905Y-12039667D01*
X21616905Y-12039667D02*
X21626429Y-12001571D01*
X21626429Y-12001571D02*
X21635953Y-11982524D01*
X21635953Y-11982524D02*
X21645476Y-11973000D01*
X21645476Y-11973000D02*
X21664524Y-11963476D01*
X21936905Y-12163476D02*
X21936905Y-11963476D01*
X22022619Y-12163476D02*
X22022619Y-12058714D01*
X22022619Y-12058714D02*
X22013095Y-12039667D01*
X22013095Y-12039667D02*
X21994048Y-12030143D01*
X21994048Y-12030143D02*
X21965476Y-12030143D01*
X21965476Y-12030143D02*
X21946429Y-12039667D01*
X21946429Y-12039667D02*
X21936905Y-12049190D01*
X22146429Y-12163476D02*
X22127381Y-12153952D01*
X22127381Y-12153952D02*
X22117857Y-12144428D01*
X22117857Y-12144428D02*
X22108334Y-12125381D01*
X22108334Y-12125381D02*
X22108334Y-12068238D01*
X22108334Y-12068238D02*
X22117857Y-12049190D01*
X22117857Y-12049190D02*
X22127381Y-12039667D01*
X22127381Y-12039667D02*
X22146429Y-12030143D01*
X22146429Y-12030143D02*
X22175000Y-12030143D01*
X22175000Y-12030143D02*
X22194048Y-12039667D01*
X22194048Y-12039667D02*
X22203572Y-12049190D01*
X22203572Y-12049190D02*
X22213095Y-12068238D01*
X22213095Y-12068238D02*
X22213095Y-12125381D01*
X22213095Y-12125381D02*
X22203572Y-12144428D01*
X22203572Y-12144428D02*
X22194048Y-12153952D01*
X22194048Y-12153952D02*
X22175000Y-12163476D01*
X22175000Y-12163476D02*
X22146429Y-12163476D01*
X22327381Y-12163476D02*
X22308334Y-12153952D01*
X22308334Y-12153952D02*
X22298810Y-12134905D01*
X22298810Y-12134905D02*
X22298810Y-11963476D01*
X22479762Y-12153952D02*
X22460714Y-12163476D01*
X22460714Y-12163476D02*
X22422619Y-12163476D01*
X22422619Y-12163476D02*
X22403572Y-12153952D01*
X22403572Y-12153952D02*
X22394048Y-12134905D01*
X22394048Y-12134905D02*
X22394048Y-12058714D01*
X22394048Y-12058714D02*
X22403572Y-12039667D01*
X22403572Y-12039667D02*
X22422619Y-12030143D01*
X22422619Y-12030143D02*
X22460714Y-12030143D01*
X22460714Y-12030143D02*
X22479762Y-12039667D01*
X22479762Y-12039667D02*
X22489286Y-12058714D01*
X22489286Y-12058714D02*
X22489286Y-12077762D01*
X22489286Y-12077762D02*
X22394048Y-12096809D01*
X22565476Y-12153952D02*
X22584524Y-12163476D01*
X22584524Y-12163476D02*
X22622619Y-12163476D01*
X22622619Y-12163476D02*
X22641667Y-12153952D01*
X22641667Y-12153952D02*
X22651191Y-12134905D01*
X22651191Y-12134905D02*
X22651191Y-12125381D01*
X22651191Y-12125381D02*
X22641667Y-12106333D01*
X22641667Y-12106333D02*
X22622619Y-12096809D01*
X22622619Y-12096809D02*
X22594048Y-12096809D01*
X22594048Y-12096809D02*
X22575000Y-12087286D01*
X22575000Y-12087286D02*
X22565476Y-12068238D01*
X22565476Y-12068238D02*
X22565476Y-12058714D01*
X22565476Y-12058714D02*
X22575000Y-12039667D01*
X22575000Y-12039667D02*
X22594048Y-12030143D01*
X22594048Y-12030143D02*
X22622619Y-12030143D01*
X22622619Y-12030143D02*
X22641667Y-12039667D01*
X22717857Y-12239667D02*
X22727381Y-12230143D01*
X22727381Y-12230143D02*
X22746429Y-12201571D01*
X22746429Y-12201571D02*
X22755953Y-12182524D01*
X22755953Y-12182524D02*
X22765476Y-12153952D01*
X22765476Y-12153952D02*
X22775000Y-12106333D01*
X22775000Y-12106333D02*
X22775000Y-12068238D01*
X22775000Y-12068238D02*
X22765476Y-12020619D01*
X22765476Y-12020619D02*
X22755953Y-11992048D01*
X22755953Y-11992048D02*
X22746429Y-11973000D01*
X22746429Y-11973000D02*
X22727381Y-11944428D01*
X22727381Y-11944428D02*
X22717857Y-11934905D01*
D13*
X17895000Y-12354000D02*
G75*
G03*
X17895000Y-12354000I-20000J0D01*
G01*
D11*
X18180714Y-12227476D02*
X18199762Y-12227476D01*
X18199762Y-12227476D02*
X18218810Y-12237000D01*
X18218810Y-12237000D02*
X18228333Y-12246524D01*
X18228333Y-12246524D02*
X18237857Y-12265571D01*
X18237857Y-12265571D02*
X18247381Y-12303667D01*
X18247381Y-12303667D02*
X18247381Y-12351286D01*
X18247381Y-12351286D02*
X18237857Y-12389381D01*
X18237857Y-12389381D02*
X18228333Y-12408428D01*
X18228333Y-12408428D02*
X18218810Y-12417952D01*
X18218810Y-12417952D02*
X18199762Y-12427476D01*
X18199762Y-12427476D02*
X18180714Y-12427476D01*
X18180714Y-12427476D02*
X18161667Y-12417952D01*
X18161667Y-12417952D02*
X18152143Y-12408428D01*
X18152143Y-12408428D02*
X18142619Y-12389381D01*
X18142619Y-12389381D02*
X18133095Y-12351286D01*
X18133095Y-12351286D02*
X18133095Y-12303667D01*
X18133095Y-12303667D02*
X18142619Y-12265571D01*
X18142619Y-12265571D02*
X18152143Y-12246524D01*
X18152143Y-12246524D02*
X18161667Y-12237000D01*
X18161667Y-12237000D02*
X18180714Y-12227476D01*
X18333095Y-12408428D02*
X18342619Y-12417952D01*
X18342619Y-12417952D02*
X18333095Y-12427476D01*
X18333095Y-12427476D02*
X18323571Y-12417952D01*
X18323571Y-12417952D02*
X18333095Y-12408428D01*
X18333095Y-12408428D02*
X18333095Y-12427476D01*
X18514048Y-12294143D02*
X18514048Y-12427476D01*
X18466429Y-12217952D02*
X18418810Y-12360809D01*
X18418810Y-12360809D02*
X18542619Y-12360809D01*
X18656905Y-12227476D02*
X18675952Y-12227476D01*
X18675952Y-12227476D02*
X18695000Y-12237000D01*
X18695000Y-12237000D02*
X18704524Y-12246524D01*
X18704524Y-12246524D02*
X18714048Y-12265571D01*
X18714048Y-12265571D02*
X18723571Y-12303667D01*
X18723571Y-12303667D02*
X18723571Y-12351286D01*
X18723571Y-12351286D02*
X18714048Y-12389381D01*
X18714048Y-12389381D02*
X18704524Y-12408428D01*
X18704524Y-12408428D02*
X18695000Y-12417952D01*
X18695000Y-12417952D02*
X18675952Y-12427476D01*
X18675952Y-12427476D02*
X18656905Y-12427476D01*
X18656905Y-12427476D02*
X18637857Y-12417952D01*
X18637857Y-12417952D02*
X18628333Y-12408428D01*
X18628333Y-12408428D02*
X18618810Y-12389381D01*
X18618810Y-12389381D02*
X18609286Y-12351286D01*
X18609286Y-12351286D02*
X18609286Y-12303667D01*
X18609286Y-12303667D02*
X18618810Y-12265571D01*
X18618810Y-12265571D02*
X18628333Y-12246524D01*
X18628333Y-12246524D02*
X18637857Y-12237000D01*
X18637857Y-12237000D02*
X18656905Y-12227476D01*
X18847381Y-12227476D02*
X18866429Y-12227476D01*
X18866429Y-12227476D02*
X18885476Y-12237000D01*
X18885476Y-12237000D02*
X18895000Y-12246524D01*
X18895000Y-12246524D02*
X18904524Y-12265571D01*
X18904524Y-12265571D02*
X18914048Y-12303667D01*
X18914048Y-12303667D02*
X18914048Y-12351286D01*
X18914048Y-12351286D02*
X18904524Y-12389381D01*
X18904524Y-12389381D02*
X18895000Y-12408428D01*
X18895000Y-12408428D02*
X18885476Y-12417952D01*
X18885476Y-12417952D02*
X18866429Y-12427476D01*
X18866429Y-12427476D02*
X18847381Y-12427476D01*
X18847381Y-12427476D02*
X18828333Y-12417952D01*
X18828333Y-12417952D02*
X18818810Y-12408428D01*
X18818810Y-12408428D02*
X18809286Y-12389381D01*
X18809286Y-12389381D02*
X18799762Y-12351286D01*
X18799762Y-12351286D02*
X18799762Y-12303667D01*
X18799762Y-12303667D02*
X18809286Y-12265571D01*
X18809286Y-12265571D02*
X18818810Y-12246524D01*
X18818810Y-12246524D02*
X18828333Y-12237000D01*
X18828333Y-12237000D02*
X18847381Y-12227476D01*
X18999762Y-12427476D02*
X18999762Y-12294143D01*
X18999762Y-12313190D02*
X19009286Y-12303667D01*
X19009286Y-12303667D02*
X19028333Y-12294143D01*
X19028333Y-12294143D02*
X19056905Y-12294143D01*
X19056905Y-12294143D02*
X19075952Y-12303667D01*
X19075952Y-12303667D02*
X19085476Y-12322714D01*
X19085476Y-12322714D02*
X19085476Y-12427476D01*
X19085476Y-12322714D02*
X19095000Y-12303667D01*
X19095000Y-12303667D02*
X19114048Y-12294143D01*
X19114048Y-12294143D02*
X19142619Y-12294143D01*
X19142619Y-12294143D02*
X19161667Y-12303667D01*
X19161667Y-12303667D02*
X19171191Y-12322714D01*
X19171191Y-12322714D02*
X19171191Y-12427476D01*
X19266429Y-12427476D02*
X19266429Y-12294143D01*
X19266429Y-12313190D02*
X19275952Y-12303667D01*
X19275952Y-12303667D02*
X19295000Y-12294143D01*
X19295000Y-12294143D02*
X19323572Y-12294143D01*
X19323572Y-12294143D02*
X19342619Y-12303667D01*
X19342619Y-12303667D02*
X19352143Y-12322714D01*
X19352143Y-12322714D02*
X19352143Y-12427476D01*
X19352143Y-12322714D02*
X19361667Y-12303667D01*
X19361667Y-12303667D02*
X19380714Y-12294143D01*
X19380714Y-12294143D02*
X19409286Y-12294143D01*
X19409286Y-12294143D02*
X19428333Y-12303667D01*
X19428333Y-12303667D02*
X19437857Y-12322714D01*
X19437857Y-12322714D02*
X19437857Y-12427476D01*
X19795952Y-12217952D02*
X19624524Y-12475095D01*
X20020714Y-12227476D02*
X20039762Y-12227476D01*
X20039762Y-12227476D02*
X20058810Y-12237000D01*
X20058810Y-12237000D02*
X20068333Y-12246524D01*
X20068333Y-12246524D02*
X20077857Y-12265571D01*
X20077857Y-12265571D02*
X20087381Y-12303667D01*
X20087381Y-12303667D02*
X20087381Y-12351286D01*
X20087381Y-12351286D02*
X20077857Y-12389381D01*
X20077857Y-12389381D02*
X20068333Y-12408428D01*
X20068333Y-12408428D02*
X20058810Y-12417952D01*
X20058810Y-12417952D02*
X20039762Y-12427476D01*
X20039762Y-12427476D02*
X20020714Y-12427476D01*
X20020714Y-12427476D02*
X20001667Y-12417952D01*
X20001667Y-12417952D02*
X19992143Y-12408428D01*
X19992143Y-12408428D02*
X19982619Y-12389381D01*
X19982619Y-12389381D02*
X19973095Y-12351286D01*
X19973095Y-12351286D02*
X19973095Y-12303667D01*
X19973095Y-12303667D02*
X19982619Y-12265571D01*
X19982619Y-12265571D02*
X19992143Y-12246524D01*
X19992143Y-12246524D02*
X20001667Y-12237000D01*
X20001667Y-12237000D02*
X20020714Y-12227476D01*
X20173095Y-12408428D02*
X20182619Y-12417952D01*
X20182619Y-12417952D02*
X20173095Y-12427476D01*
X20173095Y-12427476D02*
X20163572Y-12417952D01*
X20163572Y-12417952D02*
X20173095Y-12408428D01*
X20173095Y-12408428D02*
X20173095Y-12427476D01*
X20306429Y-12227476D02*
X20325476Y-12227476D01*
X20325476Y-12227476D02*
X20344524Y-12237000D01*
X20344524Y-12237000D02*
X20354048Y-12246524D01*
X20354048Y-12246524D02*
X20363572Y-12265571D01*
X20363572Y-12265571D02*
X20373095Y-12303667D01*
X20373095Y-12303667D02*
X20373095Y-12351286D01*
X20373095Y-12351286D02*
X20363572Y-12389381D01*
X20363572Y-12389381D02*
X20354048Y-12408428D01*
X20354048Y-12408428D02*
X20344524Y-12417952D01*
X20344524Y-12417952D02*
X20325476Y-12427476D01*
X20325476Y-12427476D02*
X20306429Y-12427476D01*
X20306429Y-12427476D02*
X20287381Y-12417952D01*
X20287381Y-12417952D02*
X20277857Y-12408428D01*
X20277857Y-12408428D02*
X20268333Y-12389381D01*
X20268333Y-12389381D02*
X20258810Y-12351286D01*
X20258810Y-12351286D02*
X20258810Y-12303667D01*
X20258810Y-12303667D02*
X20268333Y-12265571D01*
X20268333Y-12265571D02*
X20277857Y-12246524D01*
X20277857Y-12246524D02*
X20287381Y-12237000D01*
X20287381Y-12237000D02*
X20306429Y-12227476D01*
X20563572Y-12427476D02*
X20449286Y-12427476D01*
X20506429Y-12427476D02*
X20506429Y-12227476D01*
X20506429Y-12227476D02*
X20487381Y-12256048D01*
X20487381Y-12256048D02*
X20468333Y-12275095D01*
X20468333Y-12275095D02*
X20449286Y-12284619D01*
X20744524Y-12227476D02*
X20649286Y-12227476D01*
X20649286Y-12227476D02*
X20639762Y-12322714D01*
X20639762Y-12322714D02*
X20649286Y-12313190D01*
X20649286Y-12313190D02*
X20668333Y-12303667D01*
X20668333Y-12303667D02*
X20715953Y-12303667D01*
X20715953Y-12303667D02*
X20735000Y-12313190D01*
X20735000Y-12313190D02*
X20744524Y-12322714D01*
X20744524Y-12322714D02*
X20754048Y-12341762D01*
X20754048Y-12341762D02*
X20754048Y-12389381D01*
X20754048Y-12389381D02*
X20744524Y-12408428D01*
X20744524Y-12408428D02*
X20735000Y-12417952D01*
X20735000Y-12417952D02*
X20715953Y-12427476D01*
X20715953Y-12427476D02*
X20668333Y-12427476D01*
X20668333Y-12427476D02*
X20649286Y-12417952D01*
X20649286Y-12417952D02*
X20639762Y-12408428D01*
X20820714Y-12227476D02*
X20954048Y-12227476D01*
X20954048Y-12227476D02*
X20868333Y-12427476D01*
X21020714Y-12227476D02*
X21020714Y-12265571D01*
X21096905Y-12227476D02*
X21096905Y-12265571D01*
X21359762Y-12503667D02*
X21350238Y-12494143D01*
X21350238Y-12494143D02*
X21331191Y-12465571D01*
X21331191Y-12465571D02*
X21321667Y-12446524D01*
X21321667Y-12446524D02*
X21312143Y-12417952D01*
X21312143Y-12417952D02*
X21302619Y-12370333D01*
X21302619Y-12370333D02*
X21302619Y-12332238D01*
X21302619Y-12332238D02*
X21312143Y-12284619D01*
X21312143Y-12284619D02*
X21321667Y-12256048D01*
X21321667Y-12256048D02*
X21331191Y-12237000D01*
X21331191Y-12237000D02*
X21350238Y-12208428D01*
X21350238Y-12208428D02*
X21359762Y-12198905D01*
X21531191Y-12227476D02*
X21435953Y-12227476D01*
X21435953Y-12227476D02*
X21426429Y-12322714D01*
X21426429Y-12322714D02*
X21435953Y-12313190D01*
X21435953Y-12313190D02*
X21455000Y-12303667D01*
X21455000Y-12303667D02*
X21502619Y-12303667D01*
X21502619Y-12303667D02*
X21521667Y-12313190D01*
X21521667Y-12313190D02*
X21531191Y-12322714D01*
X21531191Y-12322714D02*
X21540714Y-12341762D01*
X21540714Y-12341762D02*
X21540714Y-12389381D01*
X21540714Y-12389381D02*
X21531191Y-12408428D01*
X21531191Y-12408428D02*
X21521667Y-12417952D01*
X21521667Y-12417952D02*
X21502619Y-12427476D01*
X21502619Y-12427476D02*
X21455000Y-12427476D01*
X21455000Y-12427476D02*
X21435953Y-12417952D01*
X21435953Y-12417952D02*
X21426429Y-12408428D01*
X21746429Y-12427476D02*
X21746429Y-12227476D01*
X21832143Y-12427476D02*
X21832143Y-12322714D01*
X21832143Y-12322714D02*
X21822619Y-12303667D01*
X21822619Y-12303667D02*
X21803572Y-12294143D01*
X21803572Y-12294143D02*
X21775000Y-12294143D01*
X21775000Y-12294143D02*
X21755953Y-12303667D01*
X21755953Y-12303667D02*
X21746429Y-12313190D01*
X21955953Y-12427476D02*
X21936905Y-12417952D01*
X21936905Y-12417952D02*
X21927381Y-12408428D01*
X21927381Y-12408428D02*
X21917857Y-12389381D01*
X21917857Y-12389381D02*
X21917857Y-12332238D01*
X21917857Y-12332238D02*
X21927381Y-12313190D01*
X21927381Y-12313190D02*
X21936905Y-12303667D01*
X21936905Y-12303667D02*
X21955953Y-12294143D01*
X21955953Y-12294143D02*
X21984524Y-12294143D01*
X21984524Y-12294143D02*
X22003572Y-12303667D01*
X22003572Y-12303667D02*
X22013095Y-12313190D01*
X22013095Y-12313190D02*
X22022619Y-12332238D01*
X22022619Y-12332238D02*
X22022619Y-12389381D01*
X22022619Y-12389381D02*
X22013095Y-12408428D01*
X22013095Y-12408428D02*
X22003572Y-12417952D01*
X22003572Y-12417952D02*
X21984524Y-12427476D01*
X21984524Y-12427476D02*
X21955953Y-12427476D01*
X22136905Y-12427476D02*
X22117857Y-12417952D01*
X22117857Y-12417952D02*
X22108334Y-12398905D01*
X22108334Y-12398905D02*
X22108334Y-12227476D01*
X22289286Y-12417952D02*
X22270238Y-12427476D01*
X22270238Y-12427476D02*
X22232143Y-12427476D01*
X22232143Y-12427476D02*
X22213095Y-12417952D01*
X22213095Y-12417952D02*
X22203572Y-12398905D01*
X22203572Y-12398905D02*
X22203572Y-12322714D01*
X22203572Y-12322714D02*
X22213095Y-12303667D01*
X22213095Y-12303667D02*
X22232143Y-12294143D01*
X22232143Y-12294143D02*
X22270238Y-12294143D01*
X22270238Y-12294143D02*
X22289286Y-12303667D01*
X22289286Y-12303667D02*
X22298810Y-12322714D01*
X22298810Y-12322714D02*
X22298810Y-12341762D01*
X22298810Y-12341762D02*
X22203572Y-12360809D01*
X22375000Y-12417952D02*
X22394048Y-12427476D01*
X22394048Y-12427476D02*
X22432143Y-12427476D01*
X22432143Y-12427476D02*
X22451191Y-12417952D01*
X22451191Y-12417952D02*
X22460714Y-12398905D01*
X22460714Y-12398905D02*
X22460714Y-12389381D01*
X22460714Y-12389381D02*
X22451191Y-12370333D01*
X22451191Y-12370333D02*
X22432143Y-12360809D01*
X22432143Y-12360809D02*
X22403572Y-12360809D01*
X22403572Y-12360809D02*
X22384524Y-12351286D01*
X22384524Y-12351286D02*
X22375000Y-12332238D01*
X22375000Y-12332238D02*
X22375000Y-12322714D01*
X22375000Y-12322714D02*
X22384524Y-12303667D01*
X22384524Y-12303667D02*
X22403572Y-12294143D01*
X22403572Y-12294143D02*
X22432143Y-12294143D01*
X22432143Y-12294143D02*
X22451191Y-12303667D01*
X22527381Y-12503667D02*
X22536905Y-12494143D01*
X22536905Y-12494143D02*
X22555953Y-12465571D01*
X22555953Y-12465571D02*
X22565476Y-12446524D01*
X22565476Y-12446524D02*
X22575000Y-12417952D01*
X22575000Y-12417952D02*
X22584524Y-12370333D01*
X22584524Y-12370333D02*
X22584524Y-12332238D01*
X22584524Y-12332238D02*
X22575000Y-12284619D01*
X22575000Y-12284619D02*
X22565476Y-12256048D01*
X22565476Y-12256048D02*
X22555953Y-12237000D01*
X22555953Y-12237000D02*
X22536905Y-12208428D01*
X22536905Y-12208428D02*
X22527381Y-12198905D01*
D14*
X17855000Y-12578000D02*
X17855000Y-12658000D01*
X17815000Y-12618000D02*
X17895000Y-12618000D01*
D11*
X18180714Y-12491476D02*
X18199762Y-12491476D01*
X18199762Y-12491476D02*
X18218810Y-12501000D01*
X18218810Y-12501000D02*
X18228333Y-12510524D01*
X18228333Y-12510524D02*
X18237857Y-12529571D01*
X18237857Y-12529571D02*
X18247381Y-12567667D01*
X18247381Y-12567667D02*
X18247381Y-12615286D01*
X18247381Y-12615286D02*
X18237857Y-12653381D01*
X18237857Y-12653381D02*
X18228333Y-12672428D01*
X18228333Y-12672428D02*
X18218810Y-12681952D01*
X18218810Y-12681952D02*
X18199762Y-12691476D01*
X18199762Y-12691476D02*
X18180714Y-12691476D01*
X18180714Y-12691476D02*
X18161667Y-12681952D01*
X18161667Y-12681952D02*
X18152143Y-12672428D01*
X18152143Y-12672428D02*
X18142619Y-12653381D01*
X18142619Y-12653381D02*
X18133095Y-12615286D01*
X18133095Y-12615286D02*
X18133095Y-12567667D01*
X18133095Y-12567667D02*
X18142619Y-12529571D01*
X18142619Y-12529571D02*
X18152143Y-12510524D01*
X18152143Y-12510524D02*
X18161667Y-12501000D01*
X18161667Y-12501000D02*
X18180714Y-12491476D01*
X18333095Y-12672428D02*
X18342619Y-12681952D01*
X18342619Y-12681952D02*
X18333095Y-12691476D01*
X18333095Y-12691476D02*
X18323571Y-12681952D01*
X18323571Y-12681952D02*
X18333095Y-12672428D01*
X18333095Y-12672428D02*
X18333095Y-12691476D01*
X18456905Y-12577190D02*
X18437857Y-12567667D01*
X18437857Y-12567667D02*
X18428333Y-12558143D01*
X18428333Y-12558143D02*
X18418810Y-12539095D01*
X18418810Y-12539095D02*
X18418810Y-12529571D01*
X18418810Y-12529571D02*
X18428333Y-12510524D01*
X18428333Y-12510524D02*
X18437857Y-12501000D01*
X18437857Y-12501000D02*
X18456905Y-12491476D01*
X18456905Y-12491476D02*
X18495000Y-12491476D01*
X18495000Y-12491476D02*
X18514048Y-12501000D01*
X18514048Y-12501000D02*
X18523571Y-12510524D01*
X18523571Y-12510524D02*
X18533095Y-12529571D01*
X18533095Y-12529571D02*
X18533095Y-12539095D01*
X18533095Y-12539095D02*
X18523571Y-12558143D01*
X18523571Y-12558143D02*
X18514048Y-12567667D01*
X18514048Y-12567667D02*
X18495000Y-12577190D01*
X18495000Y-12577190D02*
X18456905Y-12577190D01*
X18456905Y-12577190D02*
X18437857Y-12586714D01*
X18437857Y-12586714D02*
X18428333Y-12596238D01*
X18428333Y-12596238D02*
X18418810Y-12615286D01*
X18418810Y-12615286D02*
X18418810Y-12653381D01*
X18418810Y-12653381D02*
X18428333Y-12672428D01*
X18428333Y-12672428D02*
X18437857Y-12681952D01*
X18437857Y-12681952D02*
X18456905Y-12691476D01*
X18456905Y-12691476D02*
X18495000Y-12691476D01*
X18495000Y-12691476D02*
X18514048Y-12681952D01*
X18514048Y-12681952D02*
X18523571Y-12672428D01*
X18523571Y-12672428D02*
X18533095Y-12653381D01*
X18533095Y-12653381D02*
X18533095Y-12615286D01*
X18533095Y-12615286D02*
X18523571Y-12596238D01*
X18523571Y-12596238D02*
X18514048Y-12586714D01*
X18514048Y-12586714D02*
X18495000Y-12577190D01*
X18656905Y-12491476D02*
X18675952Y-12491476D01*
X18675952Y-12491476D02*
X18695000Y-12501000D01*
X18695000Y-12501000D02*
X18704524Y-12510524D01*
X18704524Y-12510524D02*
X18714048Y-12529571D01*
X18714048Y-12529571D02*
X18723571Y-12567667D01*
X18723571Y-12567667D02*
X18723571Y-12615286D01*
X18723571Y-12615286D02*
X18714048Y-12653381D01*
X18714048Y-12653381D02*
X18704524Y-12672428D01*
X18704524Y-12672428D02*
X18695000Y-12681952D01*
X18695000Y-12681952D02*
X18675952Y-12691476D01*
X18675952Y-12691476D02*
X18656905Y-12691476D01*
X18656905Y-12691476D02*
X18637857Y-12681952D01*
X18637857Y-12681952D02*
X18628333Y-12672428D01*
X18628333Y-12672428D02*
X18618810Y-12653381D01*
X18618810Y-12653381D02*
X18609286Y-12615286D01*
X18609286Y-12615286D02*
X18609286Y-12567667D01*
X18609286Y-12567667D02*
X18618810Y-12529571D01*
X18618810Y-12529571D02*
X18628333Y-12510524D01*
X18628333Y-12510524D02*
X18637857Y-12501000D01*
X18637857Y-12501000D02*
X18656905Y-12491476D01*
X18847381Y-12491476D02*
X18866429Y-12491476D01*
X18866429Y-12491476D02*
X18885476Y-12501000D01*
X18885476Y-12501000D02*
X18895000Y-12510524D01*
X18895000Y-12510524D02*
X18904524Y-12529571D01*
X18904524Y-12529571D02*
X18914048Y-12567667D01*
X18914048Y-12567667D02*
X18914048Y-12615286D01*
X18914048Y-12615286D02*
X18904524Y-12653381D01*
X18904524Y-12653381D02*
X18895000Y-12672428D01*
X18895000Y-12672428D02*
X18885476Y-12681952D01*
X18885476Y-12681952D02*
X18866429Y-12691476D01*
X18866429Y-12691476D02*
X18847381Y-12691476D01*
X18847381Y-12691476D02*
X18828333Y-12681952D01*
X18828333Y-12681952D02*
X18818810Y-12672428D01*
X18818810Y-12672428D02*
X18809286Y-12653381D01*
X18809286Y-12653381D02*
X18799762Y-12615286D01*
X18799762Y-12615286D02*
X18799762Y-12567667D01*
X18799762Y-12567667D02*
X18809286Y-12529571D01*
X18809286Y-12529571D02*
X18818810Y-12510524D01*
X18818810Y-12510524D02*
X18828333Y-12501000D01*
X18828333Y-12501000D02*
X18847381Y-12491476D01*
X18999762Y-12691476D02*
X18999762Y-12558143D01*
X18999762Y-12577190D02*
X19009286Y-12567667D01*
X19009286Y-12567667D02*
X19028333Y-12558143D01*
X19028333Y-12558143D02*
X19056905Y-12558143D01*
X19056905Y-12558143D02*
X19075952Y-12567667D01*
X19075952Y-12567667D02*
X19085476Y-12586714D01*
X19085476Y-12586714D02*
X19085476Y-12691476D01*
X19085476Y-12586714D02*
X19095000Y-12567667D01*
X19095000Y-12567667D02*
X19114048Y-12558143D01*
X19114048Y-12558143D02*
X19142619Y-12558143D01*
X19142619Y-12558143D02*
X19161667Y-12567667D01*
X19161667Y-12567667D02*
X19171191Y-12586714D01*
X19171191Y-12586714D02*
X19171191Y-12691476D01*
X19266429Y-12691476D02*
X19266429Y-12558143D01*
X19266429Y-12577190D02*
X19275952Y-12567667D01*
X19275952Y-12567667D02*
X19295000Y-12558143D01*
X19295000Y-12558143D02*
X19323572Y-12558143D01*
X19323572Y-12558143D02*
X19342619Y-12567667D01*
X19342619Y-12567667D02*
X19352143Y-12586714D01*
X19352143Y-12586714D02*
X19352143Y-12691476D01*
X19352143Y-12586714D02*
X19361667Y-12567667D01*
X19361667Y-12567667D02*
X19380714Y-12558143D01*
X19380714Y-12558143D02*
X19409286Y-12558143D01*
X19409286Y-12558143D02*
X19428333Y-12567667D01*
X19428333Y-12567667D02*
X19437857Y-12586714D01*
X19437857Y-12586714D02*
X19437857Y-12691476D01*
X19795952Y-12481952D02*
X19624524Y-12739095D01*
X20020714Y-12491476D02*
X20039762Y-12491476D01*
X20039762Y-12491476D02*
X20058810Y-12501000D01*
X20058810Y-12501000D02*
X20068333Y-12510524D01*
X20068333Y-12510524D02*
X20077857Y-12529571D01*
X20077857Y-12529571D02*
X20087381Y-12567667D01*
X20087381Y-12567667D02*
X20087381Y-12615286D01*
X20087381Y-12615286D02*
X20077857Y-12653381D01*
X20077857Y-12653381D02*
X20068333Y-12672428D01*
X20068333Y-12672428D02*
X20058810Y-12681952D01*
X20058810Y-12681952D02*
X20039762Y-12691476D01*
X20039762Y-12691476D02*
X20020714Y-12691476D01*
X20020714Y-12691476D02*
X20001667Y-12681952D01*
X20001667Y-12681952D02*
X19992143Y-12672428D01*
X19992143Y-12672428D02*
X19982619Y-12653381D01*
X19982619Y-12653381D02*
X19973095Y-12615286D01*
X19973095Y-12615286D02*
X19973095Y-12567667D01*
X19973095Y-12567667D02*
X19982619Y-12529571D01*
X19982619Y-12529571D02*
X19992143Y-12510524D01*
X19992143Y-12510524D02*
X20001667Y-12501000D01*
X20001667Y-12501000D02*
X20020714Y-12491476D01*
X20173095Y-12672428D02*
X20182619Y-12681952D01*
X20182619Y-12681952D02*
X20173095Y-12691476D01*
X20173095Y-12691476D02*
X20163572Y-12681952D01*
X20163572Y-12681952D02*
X20173095Y-12672428D01*
X20173095Y-12672428D02*
X20173095Y-12691476D01*
X20306429Y-12491476D02*
X20325476Y-12491476D01*
X20325476Y-12491476D02*
X20344524Y-12501000D01*
X20344524Y-12501000D02*
X20354048Y-12510524D01*
X20354048Y-12510524D02*
X20363572Y-12529571D01*
X20363572Y-12529571D02*
X20373095Y-12567667D01*
X20373095Y-12567667D02*
X20373095Y-12615286D01*
X20373095Y-12615286D02*
X20363572Y-12653381D01*
X20363572Y-12653381D02*
X20354048Y-12672428D01*
X20354048Y-12672428D02*
X20344524Y-12681952D01*
X20344524Y-12681952D02*
X20325476Y-12691476D01*
X20325476Y-12691476D02*
X20306429Y-12691476D01*
X20306429Y-12691476D02*
X20287381Y-12681952D01*
X20287381Y-12681952D02*
X20277857Y-12672428D01*
X20277857Y-12672428D02*
X20268333Y-12653381D01*
X20268333Y-12653381D02*
X20258810Y-12615286D01*
X20258810Y-12615286D02*
X20258810Y-12567667D01*
X20258810Y-12567667D02*
X20268333Y-12529571D01*
X20268333Y-12529571D02*
X20277857Y-12510524D01*
X20277857Y-12510524D02*
X20287381Y-12501000D01*
X20287381Y-12501000D02*
X20306429Y-12491476D01*
X20439762Y-12491476D02*
X20563572Y-12491476D01*
X20563572Y-12491476D02*
X20496905Y-12567667D01*
X20496905Y-12567667D02*
X20525476Y-12567667D01*
X20525476Y-12567667D02*
X20544524Y-12577190D01*
X20544524Y-12577190D02*
X20554048Y-12586714D01*
X20554048Y-12586714D02*
X20563572Y-12605762D01*
X20563572Y-12605762D02*
X20563572Y-12653381D01*
X20563572Y-12653381D02*
X20554048Y-12672428D01*
X20554048Y-12672428D02*
X20544524Y-12681952D01*
X20544524Y-12681952D02*
X20525476Y-12691476D01*
X20525476Y-12691476D02*
X20468333Y-12691476D01*
X20468333Y-12691476D02*
X20449286Y-12681952D01*
X20449286Y-12681952D02*
X20439762Y-12672428D01*
X20754048Y-12691476D02*
X20639762Y-12691476D01*
X20696905Y-12691476D02*
X20696905Y-12491476D01*
X20696905Y-12491476D02*
X20677857Y-12520048D01*
X20677857Y-12520048D02*
X20658810Y-12539095D01*
X20658810Y-12539095D02*
X20639762Y-12548619D01*
X20935000Y-12491476D02*
X20839762Y-12491476D01*
X20839762Y-12491476D02*
X20830238Y-12586714D01*
X20830238Y-12586714D02*
X20839762Y-12577190D01*
X20839762Y-12577190D02*
X20858810Y-12567667D01*
X20858810Y-12567667D02*
X20906429Y-12567667D01*
X20906429Y-12567667D02*
X20925476Y-12577190D01*
X20925476Y-12577190D02*
X20935000Y-12586714D01*
X20935000Y-12586714D02*
X20944524Y-12605762D01*
X20944524Y-12605762D02*
X20944524Y-12653381D01*
X20944524Y-12653381D02*
X20935000Y-12672428D01*
X20935000Y-12672428D02*
X20925476Y-12681952D01*
X20925476Y-12681952D02*
X20906429Y-12691476D01*
X20906429Y-12691476D02*
X20858810Y-12691476D01*
X20858810Y-12691476D02*
X20839762Y-12681952D01*
X20839762Y-12681952D02*
X20830238Y-12672428D01*
X21020714Y-12491476D02*
X21020714Y-12529571D01*
X21096905Y-12491476D02*
X21096905Y-12529571D01*
X21359762Y-12767667D02*
X21350238Y-12758143D01*
X21350238Y-12758143D02*
X21331191Y-12729571D01*
X21331191Y-12729571D02*
X21321667Y-12710524D01*
X21321667Y-12710524D02*
X21312143Y-12681952D01*
X21312143Y-12681952D02*
X21302619Y-12634333D01*
X21302619Y-12634333D02*
X21302619Y-12596238D01*
X21302619Y-12596238D02*
X21312143Y-12548619D01*
X21312143Y-12548619D02*
X21321667Y-12520048D01*
X21321667Y-12520048D02*
X21331191Y-12501000D01*
X21331191Y-12501000D02*
X21350238Y-12472428D01*
X21350238Y-12472428D02*
X21359762Y-12462905D01*
X21540714Y-12691476D02*
X21426429Y-12691476D01*
X21483572Y-12691476D02*
X21483572Y-12491476D01*
X21483572Y-12491476D02*
X21464524Y-12520048D01*
X21464524Y-12520048D02*
X21445476Y-12539095D01*
X21445476Y-12539095D02*
X21426429Y-12548619D01*
X21655000Y-12577190D02*
X21635953Y-12567667D01*
X21635953Y-12567667D02*
X21626429Y-12558143D01*
X21626429Y-12558143D02*
X21616905Y-12539095D01*
X21616905Y-12539095D02*
X21616905Y-12529571D01*
X21616905Y-12529571D02*
X21626429Y-12510524D01*
X21626429Y-12510524D02*
X21635953Y-12501000D01*
X21635953Y-12501000D02*
X21655000Y-12491476D01*
X21655000Y-12491476D02*
X21693095Y-12491476D01*
X21693095Y-12491476D02*
X21712143Y-12501000D01*
X21712143Y-12501000D02*
X21721667Y-12510524D01*
X21721667Y-12510524D02*
X21731191Y-12529571D01*
X21731191Y-12529571D02*
X21731191Y-12539095D01*
X21731191Y-12539095D02*
X21721667Y-12558143D01*
X21721667Y-12558143D02*
X21712143Y-12567667D01*
X21712143Y-12567667D02*
X21693095Y-12577190D01*
X21693095Y-12577190D02*
X21655000Y-12577190D01*
X21655000Y-12577190D02*
X21635953Y-12586714D01*
X21635953Y-12586714D02*
X21626429Y-12596238D01*
X21626429Y-12596238D02*
X21616905Y-12615286D01*
X21616905Y-12615286D02*
X21616905Y-12653381D01*
X21616905Y-12653381D02*
X21626429Y-12672428D01*
X21626429Y-12672428D02*
X21635953Y-12681952D01*
X21635953Y-12681952D02*
X21655000Y-12691476D01*
X21655000Y-12691476D02*
X21693095Y-12691476D01*
X21693095Y-12691476D02*
X21712143Y-12681952D01*
X21712143Y-12681952D02*
X21721667Y-12672428D01*
X21721667Y-12672428D02*
X21731191Y-12653381D01*
X21731191Y-12653381D02*
X21731191Y-12615286D01*
X21731191Y-12615286D02*
X21721667Y-12596238D01*
X21721667Y-12596238D02*
X21712143Y-12586714D01*
X21712143Y-12586714D02*
X21693095Y-12577190D01*
X21936905Y-12691476D02*
X21936905Y-12491476D01*
X22022619Y-12691476D02*
X22022619Y-12586714D01*
X22022619Y-12586714D02*
X22013095Y-12567667D01*
X22013095Y-12567667D02*
X21994048Y-12558143D01*
X21994048Y-12558143D02*
X21965476Y-12558143D01*
X21965476Y-12558143D02*
X21946429Y-12567667D01*
X21946429Y-12567667D02*
X21936905Y-12577190D01*
X22146429Y-12691476D02*
X22127381Y-12681952D01*
X22127381Y-12681952D02*
X22117857Y-12672428D01*
X22117857Y-12672428D02*
X22108334Y-12653381D01*
X22108334Y-12653381D02*
X22108334Y-12596238D01*
X22108334Y-12596238D02*
X22117857Y-12577190D01*
X22117857Y-12577190D02*
X22127381Y-12567667D01*
X22127381Y-12567667D02*
X22146429Y-12558143D01*
X22146429Y-12558143D02*
X22175000Y-12558143D01*
X22175000Y-12558143D02*
X22194048Y-12567667D01*
X22194048Y-12567667D02*
X22203572Y-12577190D01*
X22203572Y-12577190D02*
X22213095Y-12596238D01*
X22213095Y-12596238D02*
X22213095Y-12653381D01*
X22213095Y-12653381D02*
X22203572Y-12672428D01*
X22203572Y-12672428D02*
X22194048Y-12681952D01*
X22194048Y-12681952D02*
X22175000Y-12691476D01*
X22175000Y-12691476D02*
X22146429Y-12691476D01*
X22327381Y-12691476D02*
X22308334Y-12681952D01*
X22308334Y-12681952D02*
X22298810Y-12662905D01*
X22298810Y-12662905D02*
X22298810Y-12491476D01*
X22479762Y-12681952D02*
X22460714Y-12691476D01*
X22460714Y-12691476D02*
X22422619Y-12691476D01*
X22422619Y-12691476D02*
X22403572Y-12681952D01*
X22403572Y-12681952D02*
X22394048Y-12662905D01*
X22394048Y-12662905D02*
X22394048Y-12586714D01*
X22394048Y-12586714D02*
X22403572Y-12567667D01*
X22403572Y-12567667D02*
X22422619Y-12558143D01*
X22422619Y-12558143D02*
X22460714Y-12558143D01*
X22460714Y-12558143D02*
X22479762Y-12567667D01*
X22479762Y-12567667D02*
X22489286Y-12586714D01*
X22489286Y-12586714D02*
X22489286Y-12605762D01*
X22489286Y-12605762D02*
X22394048Y-12624809D01*
X22565476Y-12681952D02*
X22584524Y-12691476D01*
X22584524Y-12691476D02*
X22622619Y-12691476D01*
X22622619Y-12691476D02*
X22641667Y-12681952D01*
X22641667Y-12681952D02*
X22651191Y-12662905D01*
X22651191Y-12662905D02*
X22651191Y-12653381D01*
X22651191Y-12653381D02*
X22641667Y-12634333D01*
X22641667Y-12634333D02*
X22622619Y-12624809D01*
X22622619Y-12624809D02*
X22594048Y-12624809D01*
X22594048Y-12624809D02*
X22575000Y-12615286D01*
X22575000Y-12615286D02*
X22565476Y-12596238D01*
X22565476Y-12596238D02*
X22565476Y-12586714D01*
X22565476Y-12586714D02*
X22575000Y-12567667D01*
X22575000Y-12567667D02*
X22594048Y-12558143D01*
X22594048Y-12558143D02*
X22622619Y-12558143D01*
X22622619Y-12558143D02*
X22641667Y-12567667D01*
X22717857Y-12767667D02*
X22727381Y-12758143D01*
X22727381Y-12758143D02*
X22746429Y-12729571D01*
X22746429Y-12729571D02*
X22755953Y-12710524D01*
X22755953Y-12710524D02*
X22765476Y-12681952D01*
X22765476Y-12681952D02*
X22775000Y-12634333D01*
X22775000Y-12634333D02*
X22775000Y-12596238D01*
X22775000Y-12596238D02*
X22765476Y-12548619D01*
X22765476Y-12548619D02*
X22755953Y-12520048D01*
X22755953Y-12520048D02*
X22746429Y-12501000D01*
X22746429Y-12501000D02*
X22727381Y-12472428D01*
X22727381Y-12472428D02*
X22717857Y-12462905D01*
D15*
X17878891Y-12920891D02*
X17878891Y-12843109D01*
X17801109Y-12843109D01*
X17801109Y-12920891D01*
X17878891Y-12920891D01*
D11*
X18247381Y-12955476D02*
X18133095Y-12955476D01*
X18190238Y-12955476D02*
X18190238Y-12755476D01*
X18190238Y-12755476D02*
X18171190Y-12784048D01*
X18171190Y-12784048D02*
X18152143Y-12803095D01*
X18152143Y-12803095D02*
X18133095Y-12812619D01*
X18333095Y-12936428D02*
X18342619Y-12945952D01*
X18342619Y-12945952D02*
X18333095Y-12955476D01*
X18333095Y-12955476D02*
X18323571Y-12945952D01*
X18323571Y-12945952D02*
X18333095Y-12936428D01*
X18333095Y-12936428D02*
X18333095Y-12955476D01*
X18533095Y-12955476D02*
X18418810Y-12955476D01*
X18475952Y-12955476D02*
X18475952Y-12755476D01*
X18475952Y-12755476D02*
X18456905Y-12784048D01*
X18456905Y-12784048D02*
X18437857Y-12803095D01*
X18437857Y-12803095D02*
X18418810Y-12812619D01*
X18656905Y-12755476D02*
X18675952Y-12755476D01*
X18675952Y-12755476D02*
X18695000Y-12765000D01*
X18695000Y-12765000D02*
X18704524Y-12774524D01*
X18704524Y-12774524D02*
X18714048Y-12793571D01*
X18714048Y-12793571D02*
X18723571Y-12831667D01*
X18723571Y-12831667D02*
X18723571Y-12879286D01*
X18723571Y-12879286D02*
X18714048Y-12917381D01*
X18714048Y-12917381D02*
X18704524Y-12936428D01*
X18704524Y-12936428D02*
X18695000Y-12945952D01*
X18695000Y-12945952D02*
X18675952Y-12955476D01*
X18675952Y-12955476D02*
X18656905Y-12955476D01*
X18656905Y-12955476D02*
X18637857Y-12945952D01*
X18637857Y-12945952D02*
X18628333Y-12936428D01*
X18628333Y-12936428D02*
X18618810Y-12917381D01*
X18618810Y-12917381D02*
X18609286Y-12879286D01*
X18609286Y-12879286D02*
X18609286Y-12831667D01*
X18609286Y-12831667D02*
X18618810Y-12793571D01*
X18618810Y-12793571D02*
X18628333Y-12774524D01*
X18628333Y-12774524D02*
X18637857Y-12765000D01*
X18637857Y-12765000D02*
X18656905Y-12755476D01*
X18847381Y-12755476D02*
X18866429Y-12755476D01*
X18866429Y-12755476D02*
X18885476Y-12765000D01*
X18885476Y-12765000D02*
X18895000Y-12774524D01*
X18895000Y-12774524D02*
X18904524Y-12793571D01*
X18904524Y-12793571D02*
X18914048Y-12831667D01*
X18914048Y-12831667D02*
X18914048Y-12879286D01*
X18914048Y-12879286D02*
X18904524Y-12917381D01*
X18904524Y-12917381D02*
X18895000Y-12936428D01*
X18895000Y-12936428D02*
X18885476Y-12945952D01*
X18885476Y-12945952D02*
X18866429Y-12955476D01*
X18866429Y-12955476D02*
X18847381Y-12955476D01*
X18847381Y-12955476D02*
X18828333Y-12945952D01*
X18828333Y-12945952D02*
X18818810Y-12936428D01*
X18818810Y-12936428D02*
X18809286Y-12917381D01*
X18809286Y-12917381D02*
X18799762Y-12879286D01*
X18799762Y-12879286D02*
X18799762Y-12831667D01*
X18799762Y-12831667D02*
X18809286Y-12793571D01*
X18809286Y-12793571D02*
X18818810Y-12774524D01*
X18818810Y-12774524D02*
X18828333Y-12765000D01*
X18828333Y-12765000D02*
X18847381Y-12755476D01*
X18999762Y-12955476D02*
X18999762Y-12822143D01*
X18999762Y-12841190D02*
X19009286Y-12831667D01*
X19009286Y-12831667D02*
X19028333Y-12822143D01*
X19028333Y-12822143D02*
X19056905Y-12822143D01*
X19056905Y-12822143D02*
X19075952Y-12831667D01*
X19075952Y-12831667D02*
X19085476Y-12850714D01*
X19085476Y-12850714D02*
X19085476Y-12955476D01*
X19085476Y-12850714D02*
X19095000Y-12831667D01*
X19095000Y-12831667D02*
X19114048Y-12822143D01*
X19114048Y-12822143D02*
X19142619Y-12822143D01*
X19142619Y-12822143D02*
X19161667Y-12831667D01*
X19161667Y-12831667D02*
X19171191Y-12850714D01*
X19171191Y-12850714D02*
X19171191Y-12955476D01*
X19266429Y-12955476D02*
X19266429Y-12822143D01*
X19266429Y-12841190D02*
X19275952Y-12831667D01*
X19275952Y-12831667D02*
X19295000Y-12822143D01*
X19295000Y-12822143D02*
X19323572Y-12822143D01*
X19323572Y-12822143D02*
X19342619Y-12831667D01*
X19342619Y-12831667D02*
X19352143Y-12850714D01*
X19352143Y-12850714D02*
X19352143Y-12955476D01*
X19352143Y-12850714D02*
X19361667Y-12831667D01*
X19361667Y-12831667D02*
X19380714Y-12822143D01*
X19380714Y-12822143D02*
X19409286Y-12822143D01*
X19409286Y-12822143D02*
X19428333Y-12831667D01*
X19428333Y-12831667D02*
X19437857Y-12850714D01*
X19437857Y-12850714D02*
X19437857Y-12955476D01*
X19795952Y-12745952D02*
X19624524Y-13003095D01*
X20020714Y-12755476D02*
X20039762Y-12755476D01*
X20039762Y-12755476D02*
X20058810Y-12765000D01*
X20058810Y-12765000D02*
X20068333Y-12774524D01*
X20068333Y-12774524D02*
X20077857Y-12793571D01*
X20077857Y-12793571D02*
X20087381Y-12831667D01*
X20087381Y-12831667D02*
X20087381Y-12879286D01*
X20087381Y-12879286D02*
X20077857Y-12917381D01*
X20077857Y-12917381D02*
X20068333Y-12936428D01*
X20068333Y-12936428D02*
X20058810Y-12945952D01*
X20058810Y-12945952D02*
X20039762Y-12955476D01*
X20039762Y-12955476D02*
X20020714Y-12955476D01*
X20020714Y-12955476D02*
X20001667Y-12945952D01*
X20001667Y-12945952D02*
X19992143Y-12936428D01*
X19992143Y-12936428D02*
X19982619Y-12917381D01*
X19982619Y-12917381D02*
X19973095Y-12879286D01*
X19973095Y-12879286D02*
X19973095Y-12831667D01*
X19973095Y-12831667D02*
X19982619Y-12793571D01*
X19982619Y-12793571D02*
X19992143Y-12774524D01*
X19992143Y-12774524D02*
X20001667Y-12765000D01*
X20001667Y-12765000D02*
X20020714Y-12755476D01*
X20173095Y-12936428D02*
X20182619Y-12945952D01*
X20182619Y-12945952D02*
X20173095Y-12955476D01*
X20173095Y-12955476D02*
X20163572Y-12945952D01*
X20163572Y-12945952D02*
X20173095Y-12936428D01*
X20173095Y-12936428D02*
X20173095Y-12955476D01*
X20306429Y-12755476D02*
X20325476Y-12755476D01*
X20325476Y-12755476D02*
X20344524Y-12765000D01*
X20344524Y-12765000D02*
X20354048Y-12774524D01*
X20354048Y-12774524D02*
X20363572Y-12793571D01*
X20363572Y-12793571D02*
X20373095Y-12831667D01*
X20373095Y-12831667D02*
X20373095Y-12879286D01*
X20373095Y-12879286D02*
X20363572Y-12917381D01*
X20363572Y-12917381D02*
X20354048Y-12936428D01*
X20354048Y-12936428D02*
X20344524Y-12945952D01*
X20344524Y-12945952D02*
X20325476Y-12955476D01*
X20325476Y-12955476D02*
X20306429Y-12955476D01*
X20306429Y-12955476D02*
X20287381Y-12945952D01*
X20287381Y-12945952D02*
X20277857Y-12936428D01*
X20277857Y-12936428D02*
X20268333Y-12917381D01*
X20268333Y-12917381D02*
X20258810Y-12879286D01*
X20258810Y-12879286D02*
X20258810Y-12831667D01*
X20258810Y-12831667D02*
X20268333Y-12793571D01*
X20268333Y-12793571D02*
X20277857Y-12774524D01*
X20277857Y-12774524D02*
X20287381Y-12765000D01*
X20287381Y-12765000D02*
X20306429Y-12755476D01*
X20544524Y-12822143D02*
X20544524Y-12955476D01*
X20496905Y-12745952D02*
X20449286Y-12888809D01*
X20449286Y-12888809D02*
X20573095Y-12888809D01*
X20630238Y-12755476D02*
X20754048Y-12755476D01*
X20754048Y-12755476D02*
X20687381Y-12831667D01*
X20687381Y-12831667D02*
X20715953Y-12831667D01*
X20715953Y-12831667D02*
X20735000Y-12841190D01*
X20735000Y-12841190D02*
X20744524Y-12850714D01*
X20744524Y-12850714D02*
X20754048Y-12869762D01*
X20754048Y-12869762D02*
X20754048Y-12917381D01*
X20754048Y-12917381D02*
X20744524Y-12936428D01*
X20744524Y-12936428D02*
X20735000Y-12945952D01*
X20735000Y-12945952D02*
X20715953Y-12955476D01*
X20715953Y-12955476D02*
X20658810Y-12955476D01*
X20658810Y-12955476D02*
X20639762Y-12945952D01*
X20639762Y-12945952D02*
X20630238Y-12936428D01*
X20820714Y-12755476D02*
X20944524Y-12755476D01*
X20944524Y-12755476D02*
X20877857Y-12831667D01*
X20877857Y-12831667D02*
X20906429Y-12831667D01*
X20906429Y-12831667D02*
X20925476Y-12841190D01*
X20925476Y-12841190D02*
X20935000Y-12850714D01*
X20935000Y-12850714D02*
X20944524Y-12869762D01*
X20944524Y-12869762D02*
X20944524Y-12917381D01*
X20944524Y-12917381D02*
X20935000Y-12936428D01*
X20935000Y-12936428D02*
X20925476Y-12945952D01*
X20925476Y-12945952D02*
X20906429Y-12955476D01*
X20906429Y-12955476D02*
X20849286Y-12955476D01*
X20849286Y-12955476D02*
X20830238Y-12945952D01*
X20830238Y-12945952D02*
X20820714Y-12936428D01*
X21020714Y-12755476D02*
X21020714Y-12793571D01*
X21096905Y-12755476D02*
X21096905Y-12793571D01*
X21359762Y-13031667D02*
X21350238Y-13022143D01*
X21350238Y-13022143D02*
X21331191Y-12993571D01*
X21331191Y-12993571D02*
X21321667Y-12974524D01*
X21321667Y-12974524D02*
X21312143Y-12945952D01*
X21312143Y-12945952D02*
X21302619Y-12898333D01*
X21302619Y-12898333D02*
X21302619Y-12860238D01*
X21302619Y-12860238D02*
X21312143Y-12812619D01*
X21312143Y-12812619D02*
X21321667Y-12784048D01*
X21321667Y-12784048D02*
X21331191Y-12765000D01*
X21331191Y-12765000D02*
X21350238Y-12736428D01*
X21350238Y-12736428D02*
X21359762Y-12726905D01*
X21540714Y-12955476D02*
X21426429Y-12955476D01*
X21483572Y-12955476D02*
X21483572Y-12755476D01*
X21483572Y-12755476D02*
X21464524Y-12784048D01*
X21464524Y-12784048D02*
X21445476Y-12803095D01*
X21445476Y-12803095D02*
X21426429Y-12812619D01*
X21616905Y-12774524D02*
X21626429Y-12765000D01*
X21626429Y-12765000D02*
X21645476Y-12755476D01*
X21645476Y-12755476D02*
X21693095Y-12755476D01*
X21693095Y-12755476D02*
X21712143Y-12765000D01*
X21712143Y-12765000D02*
X21721667Y-12774524D01*
X21721667Y-12774524D02*
X21731191Y-12793571D01*
X21731191Y-12793571D02*
X21731191Y-12812619D01*
X21731191Y-12812619D02*
X21721667Y-12841190D01*
X21721667Y-12841190D02*
X21607381Y-12955476D01*
X21607381Y-12955476D02*
X21731191Y-12955476D01*
X21936905Y-12955476D02*
X21936905Y-12755476D01*
X22022619Y-12955476D02*
X22022619Y-12850714D01*
X22022619Y-12850714D02*
X22013095Y-12831667D01*
X22013095Y-12831667D02*
X21994048Y-12822143D01*
X21994048Y-12822143D02*
X21965476Y-12822143D01*
X21965476Y-12822143D02*
X21946429Y-12831667D01*
X21946429Y-12831667D02*
X21936905Y-12841190D01*
X22146429Y-12955476D02*
X22127381Y-12945952D01*
X22127381Y-12945952D02*
X22117857Y-12936428D01*
X22117857Y-12936428D02*
X22108334Y-12917381D01*
X22108334Y-12917381D02*
X22108334Y-12860238D01*
X22108334Y-12860238D02*
X22117857Y-12841190D01*
X22117857Y-12841190D02*
X22127381Y-12831667D01*
X22127381Y-12831667D02*
X22146429Y-12822143D01*
X22146429Y-12822143D02*
X22175000Y-12822143D01*
X22175000Y-12822143D02*
X22194048Y-12831667D01*
X22194048Y-12831667D02*
X22203572Y-12841190D01*
X22203572Y-12841190D02*
X22213095Y-12860238D01*
X22213095Y-12860238D02*
X22213095Y-12917381D01*
X22213095Y-12917381D02*
X22203572Y-12936428D01*
X22203572Y-12936428D02*
X22194048Y-12945952D01*
X22194048Y-12945952D02*
X22175000Y-12955476D01*
X22175000Y-12955476D02*
X22146429Y-12955476D01*
X22327381Y-12955476D02*
X22308334Y-12945952D01*
X22308334Y-12945952D02*
X22298810Y-12926905D01*
X22298810Y-12926905D02*
X22298810Y-12755476D01*
X22479762Y-12945952D02*
X22460714Y-12955476D01*
X22460714Y-12955476D02*
X22422619Y-12955476D01*
X22422619Y-12955476D02*
X22403572Y-12945952D01*
X22403572Y-12945952D02*
X22394048Y-12926905D01*
X22394048Y-12926905D02*
X22394048Y-12850714D01*
X22394048Y-12850714D02*
X22403572Y-12831667D01*
X22403572Y-12831667D02*
X22422619Y-12822143D01*
X22422619Y-12822143D02*
X22460714Y-12822143D01*
X22460714Y-12822143D02*
X22479762Y-12831667D01*
X22479762Y-12831667D02*
X22489286Y-12850714D01*
X22489286Y-12850714D02*
X22489286Y-12869762D01*
X22489286Y-12869762D02*
X22394048Y-12888809D01*
X22565476Y-12945952D02*
X22584524Y-12955476D01*
X22584524Y-12955476D02*
X22622619Y-12955476D01*
X22622619Y-12955476D02*
X22641667Y-12945952D01*
X22641667Y-12945952D02*
X22651191Y-12926905D01*
X22651191Y-12926905D02*
X22651191Y-12917381D01*
X22651191Y-12917381D02*
X22641667Y-12898333D01*
X22641667Y-12898333D02*
X22622619Y-12888809D01*
X22622619Y-12888809D02*
X22594048Y-12888809D01*
X22594048Y-12888809D02*
X22575000Y-12879286D01*
X22575000Y-12879286D02*
X22565476Y-12860238D01*
X22565476Y-12860238D02*
X22565476Y-12850714D01*
X22565476Y-12850714D02*
X22575000Y-12831667D01*
X22575000Y-12831667D02*
X22594048Y-12822143D01*
X22594048Y-12822143D02*
X22622619Y-12822143D01*
X22622619Y-12822143D02*
X22641667Y-12831667D01*
X22717857Y-13031667D02*
X22727381Y-13022143D01*
X22727381Y-13022143D02*
X22746429Y-12993571D01*
X22746429Y-12993571D02*
X22755953Y-12974524D01*
X22755953Y-12974524D02*
X22765476Y-12945952D01*
X22765476Y-12945952D02*
X22775000Y-12898333D01*
X22775000Y-12898333D02*
X22775000Y-12860238D01*
X22775000Y-12860238D02*
X22765476Y-12812619D01*
X22765476Y-12812619D02*
X22755953Y-12784048D01*
X22755953Y-12784048D02*
X22746429Y-12765000D01*
X22746429Y-12765000D02*
X22727381Y-12736428D01*
X22727381Y-12736428D02*
X22717857Y-12726905D01*
D16*
X17836500Y-13204500D02*
X17895000Y-13146000D01*
X17836500Y-13087500D01*
X17778000Y-13146000D01*
X17836500Y-13204500D01*
D11*
X18247381Y-13219476D02*
X18133095Y-13219476D01*
X18190238Y-13219476D02*
X18190238Y-13019476D01*
X18190238Y-13019476D02*
X18171190Y-13048048D01*
X18171190Y-13048048D02*
X18152143Y-13067095D01*
X18152143Y-13067095D02*
X18133095Y-13076619D01*
X18333095Y-13200428D02*
X18342619Y-13209952D01*
X18342619Y-13209952D02*
X18333095Y-13219476D01*
X18333095Y-13219476D02*
X18323571Y-13209952D01*
X18323571Y-13209952D02*
X18333095Y-13200428D01*
X18333095Y-13200428D02*
X18333095Y-13219476D01*
X18533095Y-13219476D02*
X18418810Y-13219476D01*
X18475952Y-13219476D02*
X18475952Y-13019476D01*
X18475952Y-13019476D02*
X18456905Y-13048048D01*
X18456905Y-13048048D02*
X18437857Y-13067095D01*
X18437857Y-13067095D02*
X18418810Y-13076619D01*
X18599762Y-13019476D02*
X18733095Y-13019476D01*
X18733095Y-13019476D02*
X18647381Y-13219476D01*
X18847381Y-13019476D02*
X18866429Y-13019476D01*
X18866429Y-13019476D02*
X18885476Y-13029000D01*
X18885476Y-13029000D02*
X18895000Y-13038524D01*
X18895000Y-13038524D02*
X18904524Y-13057571D01*
X18904524Y-13057571D02*
X18914048Y-13095667D01*
X18914048Y-13095667D02*
X18914048Y-13143286D01*
X18914048Y-13143286D02*
X18904524Y-13181381D01*
X18904524Y-13181381D02*
X18895000Y-13200428D01*
X18895000Y-13200428D02*
X18885476Y-13209952D01*
X18885476Y-13209952D02*
X18866429Y-13219476D01*
X18866429Y-13219476D02*
X18847381Y-13219476D01*
X18847381Y-13219476D02*
X18828333Y-13209952D01*
X18828333Y-13209952D02*
X18818810Y-13200428D01*
X18818810Y-13200428D02*
X18809286Y-13181381D01*
X18809286Y-13181381D02*
X18799762Y-13143286D01*
X18799762Y-13143286D02*
X18799762Y-13095667D01*
X18799762Y-13095667D02*
X18809286Y-13057571D01*
X18809286Y-13057571D02*
X18818810Y-13038524D01*
X18818810Y-13038524D02*
X18828333Y-13029000D01*
X18828333Y-13029000D02*
X18847381Y-13019476D01*
X18999762Y-13219476D02*
X18999762Y-13086143D01*
X18999762Y-13105190D02*
X19009286Y-13095667D01*
X19009286Y-13095667D02*
X19028333Y-13086143D01*
X19028333Y-13086143D02*
X19056905Y-13086143D01*
X19056905Y-13086143D02*
X19075952Y-13095667D01*
X19075952Y-13095667D02*
X19085476Y-13114714D01*
X19085476Y-13114714D02*
X19085476Y-13219476D01*
X19085476Y-13114714D02*
X19095000Y-13095667D01*
X19095000Y-13095667D02*
X19114048Y-13086143D01*
X19114048Y-13086143D02*
X19142619Y-13086143D01*
X19142619Y-13086143D02*
X19161667Y-13095667D01*
X19161667Y-13095667D02*
X19171191Y-13114714D01*
X19171191Y-13114714D02*
X19171191Y-13219476D01*
X19266429Y-13219476D02*
X19266429Y-13086143D01*
X19266429Y-13105190D02*
X19275952Y-13095667D01*
X19275952Y-13095667D02*
X19295000Y-13086143D01*
X19295000Y-13086143D02*
X19323572Y-13086143D01*
X19323572Y-13086143D02*
X19342619Y-13095667D01*
X19342619Y-13095667D02*
X19352143Y-13114714D01*
X19352143Y-13114714D02*
X19352143Y-13219476D01*
X19352143Y-13114714D02*
X19361667Y-13095667D01*
X19361667Y-13095667D02*
X19380714Y-13086143D01*
X19380714Y-13086143D02*
X19409286Y-13086143D01*
X19409286Y-13086143D02*
X19428333Y-13095667D01*
X19428333Y-13095667D02*
X19437857Y-13114714D01*
X19437857Y-13114714D02*
X19437857Y-13219476D01*
X19795952Y-13009952D02*
X19624524Y-13267095D01*
X20020714Y-13019476D02*
X20039762Y-13019476D01*
X20039762Y-13019476D02*
X20058810Y-13029000D01*
X20058810Y-13029000D02*
X20068333Y-13038524D01*
X20068333Y-13038524D02*
X20077857Y-13057571D01*
X20077857Y-13057571D02*
X20087381Y-13095667D01*
X20087381Y-13095667D02*
X20087381Y-13143286D01*
X20087381Y-13143286D02*
X20077857Y-13181381D01*
X20077857Y-13181381D02*
X20068333Y-13200428D01*
X20068333Y-13200428D02*
X20058810Y-13209952D01*
X20058810Y-13209952D02*
X20039762Y-13219476D01*
X20039762Y-13219476D02*
X20020714Y-13219476D01*
X20020714Y-13219476D02*
X20001667Y-13209952D01*
X20001667Y-13209952D02*
X19992143Y-13200428D01*
X19992143Y-13200428D02*
X19982619Y-13181381D01*
X19982619Y-13181381D02*
X19973095Y-13143286D01*
X19973095Y-13143286D02*
X19973095Y-13095667D01*
X19973095Y-13095667D02*
X19982619Y-13057571D01*
X19982619Y-13057571D02*
X19992143Y-13038524D01*
X19992143Y-13038524D02*
X20001667Y-13029000D01*
X20001667Y-13029000D02*
X20020714Y-13019476D01*
X20173095Y-13200428D02*
X20182619Y-13209952D01*
X20182619Y-13209952D02*
X20173095Y-13219476D01*
X20173095Y-13219476D02*
X20163572Y-13209952D01*
X20163572Y-13209952D02*
X20173095Y-13200428D01*
X20173095Y-13200428D02*
X20173095Y-13219476D01*
X20306429Y-13019476D02*
X20325476Y-13019476D01*
X20325476Y-13019476D02*
X20344524Y-13029000D01*
X20344524Y-13029000D02*
X20354048Y-13038524D01*
X20354048Y-13038524D02*
X20363572Y-13057571D01*
X20363572Y-13057571D02*
X20373095Y-13095667D01*
X20373095Y-13095667D02*
X20373095Y-13143286D01*
X20373095Y-13143286D02*
X20363572Y-13181381D01*
X20363572Y-13181381D02*
X20354048Y-13200428D01*
X20354048Y-13200428D02*
X20344524Y-13209952D01*
X20344524Y-13209952D02*
X20325476Y-13219476D01*
X20325476Y-13219476D02*
X20306429Y-13219476D01*
X20306429Y-13219476D02*
X20287381Y-13209952D01*
X20287381Y-13209952D02*
X20277857Y-13200428D01*
X20277857Y-13200428D02*
X20268333Y-13181381D01*
X20268333Y-13181381D02*
X20258810Y-13143286D01*
X20258810Y-13143286D02*
X20258810Y-13095667D01*
X20258810Y-13095667D02*
X20268333Y-13057571D01*
X20268333Y-13057571D02*
X20277857Y-13038524D01*
X20277857Y-13038524D02*
X20287381Y-13029000D01*
X20287381Y-13029000D02*
X20306429Y-13019476D01*
X20544524Y-13086143D02*
X20544524Y-13219476D01*
X20496905Y-13009952D02*
X20449286Y-13152809D01*
X20449286Y-13152809D02*
X20573095Y-13152809D01*
X20735000Y-13019476D02*
X20696905Y-13019476D01*
X20696905Y-13019476D02*
X20677857Y-13029000D01*
X20677857Y-13029000D02*
X20668333Y-13038524D01*
X20668333Y-13038524D02*
X20649286Y-13067095D01*
X20649286Y-13067095D02*
X20639762Y-13105190D01*
X20639762Y-13105190D02*
X20639762Y-13181381D01*
X20639762Y-13181381D02*
X20649286Y-13200428D01*
X20649286Y-13200428D02*
X20658810Y-13209952D01*
X20658810Y-13209952D02*
X20677857Y-13219476D01*
X20677857Y-13219476D02*
X20715953Y-13219476D01*
X20715953Y-13219476D02*
X20735000Y-13209952D01*
X20735000Y-13209952D02*
X20744524Y-13200428D01*
X20744524Y-13200428D02*
X20754048Y-13181381D01*
X20754048Y-13181381D02*
X20754048Y-13133762D01*
X20754048Y-13133762D02*
X20744524Y-13114714D01*
X20744524Y-13114714D02*
X20735000Y-13105190D01*
X20735000Y-13105190D02*
X20715953Y-13095667D01*
X20715953Y-13095667D02*
X20677857Y-13095667D01*
X20677857Y-13095667D02*
X20658810Y-13105190D01*
X20658810Y-13105190D02*
X20649286Y-13114714D01*
X20649286Y-13114714D02*
X20639762Y-13133762D01*
X20944524Y-13219476D02*
X20830238Y-13219476D01*
X20887381Y-13219476D02*
X20887381Y-13019476D01*
X20887381Y-13019476D02*
X20868333Y-13048048D01*
X20868333Y-13048048D02*
X20849286Y-13067095D01*
X20849286Y-13067095D02*
X20830238Y-13076619D01*
X21020714Y-13019476D02*
X21020714Y-13057571D01*
X21096905Y-13019476D02*
X21096905Y-13057571D01*
X21359762Y-13295667D02*
X21350238Y-13286143D01*
X21350238Y-13286143D02*
X21331191Y-13257571D01*
X21331191Y-13257571D02*
X21321667Y-13238524D01*
X21321667Y-13238524D02*
X21312143Y-13209952D01*
X21312143Y-13209952D02*
X21302619Y-13162333D01*
X21302619Y-13162333D02*
X21302619Y-13124238D01*
X21302619Y-13124238D02*
X21312143Y-13076619D01*
X21312143Y-13076619D02*
X21321667Y-13048048D01*
X21321667Y-13048048D02*
X21331191Y-13029000D01*
X21331191Y-13029000D02*
X21350238Y-13000428D01*
X21350238Y-13000428D02*
X21359762Y-12990905D01*
X21540714Y-13219476D02*
X21426429Y-13219476D01*
X21483572Y-13219476D02*
X21483572Y-13019476D01*
X21483572Y-13019476D02*
X21464524Y-13048048D01*
X21464524Y-13048048D02*
X21445476Y-13067095D01*
X21445476Y-13067095D02*
X21426429Y-13076619D01*
X21746429Y-13219476D02*
X21746429Y-13019476D01*
X21832143Y-13219476D02*
X21832143Y-13114714D01*
X21832143Y-13114714D02*
X21822619Y-13095667D01*
X21822619Y-13095667D02*
X21803572Y-13086143D01*
X21803572Y-13086143D02*
X21775000Y-13086143D01*
X21775000Y-13086143D02*
X21755953Y-13095667D01*
X21755953Y-13095667D02*
X21746429Y-13105190D01*
X21955953Y-13219476D02*
X21936905Y-13209952D01*
X21936905Y-13209952D02*
X21927381Y-13200428D01*
X21927381Y-13200428D02*
X21917857Y-13181381D01*
X21917857Y-13181381D02*
X21917857Y-13124238D01*
X21917857Y-13124238D02*
X21927381Y-13105190D01*
X21927381Y-13105190D02*
X21936905Y-13095667D01*
X21936905Y-13095667D02*
X21955953Y-13086143D01*
X21955953Y-13086143D02*
X21984524Y-13086143D01*
X21984524Y-13086143D02*
X22003572Y-13095667D01*
X22003572Y-13095667D02*
X22013095Y-13105190D01*
X22013095Y-13105190D02*
X22022619Y-13124238D01*
X22022619Y-13124238D02*
X22022619Y-13181381D01*
X22022619Y-13181381D02*
X22013095Y-13200428D01*
X22013095Y-13200428D02*
X22003572Y-13209952D01*
X22003572Y-13209952D02*
X21984524Y-13219476D01*
X21984524Y-13219476D02*
X21955953Y-13219476D01*
X22136905Y-13219476D02*
X22117857Y-13209952D01*
X22117857Y-13209952D02*
X22108334Y-13190905D01*
X22108334Y-13190905D02*
X22108334Y-13019476D01*
X22289286Y-13209952D02*
X22270238Y-13219476D01*
X22270238Y-13219476D02*
X22232143Y-13219476D01*
X22232143Y-13219476D02*
X22213095Y-13209952D01*
X22213095Y-13209952D02*
X22203572Y-13190905D01*
X22203572Y-13190905D02*
X22203572Y-13114714D01*
X22203572Y-13114714D02*
X22213095Y-13095667D01*
X22213095Y-13095667D02*
X22232143Y-13086143D01*
X22232143Y-13086143D02*
X22270238Y-13086143D01*
X22270238Y-13086143D02*
X22289286Y-13095667D01*
X22289286Y-13095667D02*
X22298810Y-13114714D01*
X22298810Y-13114714D02*
X22298810Y-13133762D01*
X22298810Y-13133762D02*
X22203572Y-13152809D01*
X22365476Y-13295667D02*
X22375000Y-13286143D01*
X22375000Y-13286143D02*
X22394048Y-13257571D01*
X22394048Y-13257571D02*
X22403572Y-13238524D01*
X22403572Y-13238524D02*
X22413095Y-13209952D01*
X22413095Y-13209952D02*
X22422619Y-13162333D01*
X22422619Y-13162333D02*
X22422619Y-13124238D01*
X22422619Y-13124238D02*
X22413095Y-13076619D01*
X22413095Y-13076619D02*
X22403572Y-13048048D01*
X22403572Y-13048048D02*
X22394048Y-13029000D01*
X22394048Y-13029000D02*
X22375000Y-13000428D01*
X22375000Y-13000428D02*
X22365476Y-12990905D01*
D10*
X17745000Y-13335000D02*
X17895000Y-13485000D01*
X17895000Y-13335000D02*
X17745000Y-13485000D01*
X17895000Y-13410000D02*
G75*
G03*
X17895000Y-13410000I-75000J0D01*
G01*
D11*
X18247381Y-13483476D02*
X18133095Y-13483476D01*
X18190238Y-13483476D02*
X18190238Y-13283476D01*
X18190238Y-13283476D02*
X18171190Y-13312048D01*
X18171190Y-13312048D02*
X18152143Y-13331095D01*
X18152143Y-13331095D02*
X18133095Y-13340619D01*
X18333095Y-13464428D02*
X18342619Y-13473952D01*
X18342619Y-13473952D02*
X18333095Y-13483476D01*
X18333095Y-13483476D02*
X18323571Y-13473952D01*
X18323571Y-13473952D02*
X18333095Y-13464428D01*
X18333095Y-13464428D02*
X18333095Y-13483476D01*
X18523571Y-13283476D02*
X18428333Y-13283476D01*
X18428333Y-13283476D02*
X18418810Y-13378714D01*
X18418810Y-13378714D02*
X18428333Y-13369190D01*
X18428333Y-13369190D02*
X18447381Y-13359667D01*
X18447381Y-13359667D02*
X18495000Y-13359667D01*
X18495000Y-13359667D02*
X18514048Y-13369190D01*
X18514048Y-13369190D02*
X18523571Y-13378714D01*
X18523571Y-13378714D02*
X18533095Y-13397762D01*
X18533095Y-13397762D02*
X18533095Y-13445381D01*
X18533095Y-13445381D02*
X18523571Y-13464428D01*
X18523571Y-13464428D02*
X18514048Y-13473952D01*
X18514048Y-13473952D02*
X18495000Y-13483476D01*
X18495000Y-13483476D02*
X18447381Y-13483476D01*
X18447381Y-13483476D02*
X18428333Y-13473952D01*
X18428333Y-13473952D02*
X18418810Y-13464428D01*
X18656905Y-13283476D02*
X18675952Y-13283476D01*
X18675952Y-13283476D02*
X18695000Y-13293000D01*
X18695000Y-13293000D02*
X18704524Y-13302524D01*
X18704524Y-13302524D02*
X18714048Y-13321571D01*
X18714048Y-13321571D02*
X18723571Y-13359667D01*
X18723571Y-13359667D02*
X18723571Y-13407286D01*
X18723571Y-13407286D02*
X18714048Y-13445381D01*
X18714048Y-13445381D02*
X18704524Y-13464428D01*
X18704524Y-13464428D02*
X18695000Y-13473952D01*
X18695000Y-13473952D02*
X18675952Y-13483476D01*
X18675952Y-13483476D02*
X18656905Y-13483476D01*
X18656905Y-13483476D02*
X18637857Y-13473952D01*
X18637857Y-13473952D02*
X18628333Y-13464428D01*
X18628333Y-13464428D02*
X18618810Y-13445381D01*
X18618810Y-13445381D02*
X18609286Y-13407286D01*
X18609286Y-13407286D02*
X18609286Y-13359667D01*
X18609286Y-13359667D02*
X18618810Y-13321571D01*
X18618810Y-13321571D02*
X18628333Y-13302524D01*
X18628333Y-13302524D02*
X18637857Y-13293000D01*
X18637857Y-13293000D02*
X18656905Y-13283476D01*
X18847381Y-13283476D02*
X18866429Y-13283476D01*
X18866429Y-13283476D02*
X18885476Y-13293000D01*
X18885476Y-13293000D02*
X18895000Y-13302524D01*
X18895000Y-13302524D02*
X18904524Y-13321571D01*
X18904524Y-13321571D02*
X18914048Y-13359667D01*
X18914048Y-13359667D02*
X18914048Y-13407286D01*
X18914048Y-13407286D02*
X18904524Y-13445381D01*
X18904524Y-13445381D02*
X18895000Y-13464428D01*
X18895000Y-13464428D02*
X18885476Y-13473952D01*
X18885476Y-13473952D02*
X18866429Y-13483476D01*
X18866429Y-13483476D02*
X18847381Y-13483476D01*
X18847381Y-13483476D02*
X18828333Y-13473952D01*
X18828333Y-13473952D02*
X18818810Y-13464428D01*
X18818810Y-13464428D02*
X18809286Y-13445381D01*
X18809286Y-13445381D02*
X18799762Y-13407286D01*
X18799762Y-13407286D02*
X18799762Y-13359667D01*
X18799762Y-13359667D02*
X18809286Y-13321571D01*
X18809286Y-13321571D02*
X18818810Y-13302524D01*
X18818810Y-13302524D02*
X18828333Y-13293000D01*
X18828333Y-13293000D02*
X18847381Y-13283476D01*
X18999762Y-13483476D02*
X18999762Y-13350143D01*
X18999762Y-13369190D02*
X19009286Y-13359667D01*
X19009286Y-13359667D02*
X19028333Y-13350143D01*
X19028333Y-13350143D02*
X19056905Y-13350143D01*
X19056905Y-13350143D02*
X19075952Y-13359667D01*
X19075952Y-13359667D02*
X19085476Y-13378714D01*
X19085476Y-13378714D02*
X19085476Y-13483476D01*
X19085476Y-13378714D02*
X19095000Y-13359667D01*
X19095000Y-13359667D02*
X19114048Y-13350143D01*
X19114048Y-13350143D02*
X19142619Y-13350143D01*
X19142619Y-13350143D02*
X19161667Y-13359667D01*
X19161667Y-13359667D02*
X19171191Y-13378714D01*
X19171191Y-13378714D02*
X19171191Y-13483476D01*
X19266429Y-13483476D02*
X19266429Y-13350143D01*
X19266429Y-13369190D02*
X19275952Y-13359667D01*
X19275952Y-13359667D02*
X19295000Y-13350143D01*
X19295000Y-13350143D02*
X19323572Y-13350143D01*
X19323572Y-13350143D02*
X19342619Y-13359667D01*
X19342619Y-13359667D02*
X19352143Y-13378714D01*
X19352143Y-13378714D02*
X19352143Y-13483476D01*
X19352143Y-13378714D02*
X19361667Y-13359667D01*
X19361667Y-13359667D02*
X19380714Y-13350143D01*
X19380714Y-13350143D02*
X19409286Y-13350143D01*
X19409286Y-13350143D02*
X19428333Y-13359667D01*
X19428333Y-13359667D02*
X19437857Y-13378714D01*
X19437857Y-13378714D02*
X19437857Y-13483476D01*
X19795952Y-13273952D02*
X19624524Y-13531095D01*
X20020714Y-13283476D02*
X20039762Y-13283476D01*
X20039762Y-13283476D02*
X20058810Y-13293000D01*
X20058810Y-13293000D02*
X20068333Y-13302524D01*
X20068333Y-13302524D02*
X20077857Y-13321571D01*
X20077857Y-13321571D02*
X20087381Y-13359667D01*
X20087381Y-13359667D02*
X20087381Y-13407286D01*
X20087381Y-13407286D02*
X20077857Y-13445381D01*
X20077857Y-13445381D02*
X20068333Y-13464428D01*
X20068333Y-13464428D02*
X20058810Y-13473952D01*
X20058810Y-13473952D02*
X20039762Y-13483476D01*
X20039762Y-13483476D02*
X20020714Y-13483476D01*
X20020714Y-13483476D02*
X20001667Y-13473952D01*
X20001667Y-13473952D02*
X19992143Y-13464428D01*
X19992143Y-13464428D02*
X19982619Y-13445381D01*
X19982619Y-13445381D02*
X19973095Y-13407286D01*
X19973095Y-13407286D02*
X19973095Y-13359667D01*
X19973095Y-13359667D02*
X19982619Y-13321571D01*
X19982619Y-13321571D02*
X19992143Y-13302524D01*
X19992143Y-13302524D02*
X20001667Y-13293000D01*
X20001667Y-13293000D02*
X20020714Y-13283476D01*
X20173095Y-13464428D02*
X20182619Y-13473952D01*
X20182619Y-13473952D02*
X20173095Y-13483476D01*
X20173095Y-13483476D02*
X20163572Y-13473952D01*
X20163572Y-13473952D02*
X20173095Y-13464428D01*
X20173095Y-13464428D02*
X20173095Y-13483476D01*
X20306429Y-13283476D02*
X20325476Y-13283476D01*
X20325476Y-13283476D02*
X20344524Y-13293000D01*
X20344524Y-13293000D02*
X20354048Y-13302524D01*
X20354048Y-13302524D02*
X20363572Y-13321571D01*
X20363572Y-13321571D02*
X20373095Y-13359667D01*
X20373095Y-13359667D02*
X20373095Y-13407286D01*
X20373095Y-13407286D02*
X20363572Y-13445381D01*
X20363572Y-13445381D02*
X20354048Y-13464428D01*
X20354048Y-13464428D02*
X20344524Y-13473952D01*
X20344524Y-13473952D02*
X20325476Y-13483476D01*
X20325476Y-13483476D02*
X20306429Y-13483476D01*
X20306429Y-13483476D02*
X20287381Y-13473952D01*
X20287381Y-13473952D02*
X20277857Y-13464428D01*
X20277857Y-13464428D02*
X20268333Y-13445381D01*
X20268333Y-13445381D02*
X20258810Y-13407286D01*
X20258810Y-13407286D02*
X20258810Y-13359667D01*
X20258810Y-13359667D02*
X20268333Y-13321571D01*
X20268333Y-13321571D02*
X20277857Y-13302524D01*
X20277857Y-13302524D02*
X20287381Y-13293000D01*
X20287381Y-13293000D02*
X20306429Y-13283476D01*
X20554048Y-13283476D02*
X20458810Y-13283476D01*
X20458810Y-13283476D02*
X20449286Y-13378714D01*
X20449286Y-13378714D02*
X20458810Y-13369190D01*
X20458810Y-13369190D02*
X20477857Y-13359667D01*
X20477857Y-13359667D02*
X20525476Y-13359667D01*
X20525476Y-13359667D02*
X20544524Y-13369190D01*
X20544524Y-13369190D02*
X20554048Y-13378714D01*
X20554048Y-13378714D02*
X20563572Y-13397762D01*
X20563572Y-13397762D02*
X20563572Y-13445381D01*
X20563572Y-13445381D02*
X20554048Y-13464428D01*
X20554048Y-13464428D02*
X20544524Y-13473952D01*
X20544524Y-13473952D02*
X20525476Y-13483476D01*
X20525476Y-13483476D02*
X20477857Y-13483476D01*
X20477857Y-13483476D02*
X20458810Y-13473952D01*
X20458810Y-13473952D02*
X20449286Y-13464428D01*
X20658810Y-13483476D02*
X20696905Y-13483476D01*
X20696905Y-13483476D02*
X20715953Y-13473952D01*
X20715953Y-13473952D02*
X20725476Y-13464428D01*
X20725476Y-13464428D02*
X20744524Y-13435857D01*
X20744524Y-13435857D02*
X20754048Y-13397762D01*
X20754048Y-13397762D02*
X20754048Y-13321571D01*
X20754048Y-13321571D02*
X20744524Y-13302524D01*
X20744524Y-13302524D02*
X20735000Y-13293000D01*
X20735000Y-13293000D02*
X20715953Y-13283476D01*
X20715953Y-13283476D02*
X20677857Y-13283476D01*
X20677857Y-13283476D02*
X20658810Y-13293000D01*
X20658810Y-13293000D02*
X20649286Y-13302524D01*
X20649286Y-13302524D02*
X20639762Y-13321571D01*
X20639762Y-13321571D02*
X20639762Y-13369190D01*
X20639762Y-13369190D02*
X20649286Y-13388238D01*
X20649286Y-13388238D02*
X20658810Y-13397762D01*
X20658810Y-13397762D02*
X20677857Y-13407286D01*
X20677857Y-13407286D02*
X20715953Y-13407286D01*
X20715953Y-13407286D02*
X20735000Y-13397762D01*
X20735000Y-13397762D02*
X20744524Y-13388238D01*
X20744524Y-13388238D02*
X20754048Y-13369190D01*
X20944524Y-13483476D02*
X20830238Y-13483476D01*
X20887381Y-13483476D02*
X20887381Y-13283476D01*
X20887381Y-13283476D02*
X20868333Y-13312048D01*
X20868333Y-13312048D02*
X20849286Y-13331095D01*
X20849286Y-13331095D02*
X20830238Y-13340619D01*
X21020714Y-13283476D02*
X21020714Y-13321571D01*
X21096905Y-13283476D02*
X21096905Y-13321571D01*
X21359762Y-13559667D02*
X21350238Y-13550143D01*
X21350238Y-13550143D02*
X21331191Y-13521571D01*
X21331191Y-13521571D02*
X21321667Y-13502524D01*
X21321667Y-13502524D02*
X21312143Y-13473952D01*
X21312143Y-13473952D02*
X21302619Y-13426333D01*
X21302619Y-13426333D02*
X21302619Y-13388238D01*
X21302619Y-13388238D02*
X21312143Y-13340619D01*
X21312143Y-13340619D02*
X21321667Y-13312048D01*
X21321667Y-13312048D02*
X21331191Y-13293000D01*
X21331191Y-13293000D02*
X21350238Y-13264428D01*
X21350238Y-13264428D02*
X21359762Y-13254905D01*
X21540714Y-13483476D02*
X21426429Y-13483476D01*
X21483572Y-13483476D02*
X21483572Y-13283476D01*
X21483572Y-13283476D02*
X21464524Y-13312048D01*
X21464524Y-13312048D02*
X21445476Y-13331095D01*
X21445476Y-13331095D02*
X21426429Y-13340619D01*
X21746429Y-13483476D02*
X21746429Y-13283476D01*
X21832143Y-13483476D02*
X21832143Y-13378714D01*
X21832143Y-13378714D02*
X21822619Y-13359667D01*
X21822619Y-13359667D02*
X21803572Y-13350143D01*
X21803572Y-13350143D02*
X21775000Y-13350143D01*
X21775000Y-13350143D02*
X21755953Y-13359667D01*
X21755953Y-13359667D02*
X21746429Y-13369190D01*
X21955953Y-13483476D02*
X21936905Y-13473952D01*
X21936905Y-13473952D02*
X21927381Y-13464428D01*
X21927381Y-13464428D02*
X21917857Y-13445381D01*
X21917857Y-13445381D02*
X21917857Y-13388238D01*
X21917857Y-13388238D02*
X21927381Y-13369190D01*
X21927381Y-13369190D02*
X21936905Y-13359667D01*
X21936905Y-13359667D02*
X21955953Y-13350143D01*
X21955953Y-13350143D02*
X21984524Y-13350143D01*
X21984524Y-13350143D02*
X22003572Y-13359667D01*
X22003572Y-13359667D02*
X22013095Y-13369190D01*
X22013095Y-13369190D02*
X22022619Y-13388238D01*
X22022619Y-13388238D02*
X22022619Y-13445381D01*
X22022619Y-13445381D02*
X22013095Y-13464428D01*
X22013095Y-13464428D02*
X22003572Y-13473952D01*
X22003572Y-13473952D02*
X21984524Y-13483476D01*
X21984524Y-13483476D02*
X21955953Y-13483476D01*
X22136905Y-13483476D02*
X22117857Y-13473952D01*
X22117857Y-13473952D02*
X22108334Y-13454905D01*
X22108334Y-13454905D02*
X22108334Y-13283476D01*
X22289286Y-13473952D02*
X22270238Y-13483476D01*
X22270238Y-13483476D02*
X22232143Y-13483476D01*
X22232143Y-13483476D02*
X22213095Y-13473952D01*
X22213095Y-13473952D02*
X22203572Y-13454905D01*
X22203572Y-13454905D02*
X22203572Y-13378714D01*
X22203572Y-13378714D02*
X22213095Y-13359667D01*
X22213095Y-13359667D02*
X22232143Y-13350143D01*
X22232143Y-13350143D02*
X22270238Y-13350143D01*
X22270238Y-13350143D02*
X22289286Y-13359667D01*
X22289286Y-13359667D02*
X22298810Y-13378714D01*
X22298810Y-13378714D02*
X22298810Y-13397762D01*
X22298810Y-13397762D02*
X22203572Y-13416809D01*
X22365476Y-13559667D02*
X22375000Y-13550143D01*
X22375000Y-13550143D02*
X22394048Y-13521571D01*
X22394048Y-13521571D02*
X22403572Y-13502524D01*
X22403572Y-13502524D02*
X22413095Y-13473952D01*
X22413095Y-13473952D02*
X22422619Y-13426333D01*
X22422619Y-13426333D02*
X22422619Y-13388238D01*
X22422619Y-13388238D02*
X22413095Y-13340619D01*
X22413095Y-13340619D02*
X22403572Y-13312048D01*
X22403572Y-13312048D02*
X22394048Y-13293000D01*
X22394048Y-13293000D02*
X22375000Y-13264428D01*
X22375000Y-13264428D02*
X22365476Y-13254905D01*
M02*
