%TF.GenerationSoftware,KiCad,Pcbnew,(7.0.0)*%
%TF.CreationDate,2023-07-04T16:48:48+02:00*%
%TF.ProjectId,attiny85_remote,61747469-6e79-4383-955f-72656d6f7465,rev?*%
%TF.SameCoordinates,Original*%
%TF.FileFunction,Drillmap*%
%TF.FilePolarity,Positive*%
%FSLAX45Y45*%
G04 Gerber Fmt 4.5, Leading zero omitted, Abs format (unit mm)*
G04 Created by KiCad (PCBNEW (7.0.0)) date 2023-07-04 16:48:48*
%MOMM*%
%LPD*%
G01*
G04 APERTURE LIST*
%ADD10C,0.150000*%
%ADD11C,0.200000*%
G04 APERTURE END LIST*
D10*
X17902500Y-8895000D02*
X18750000Y-8895000D01*
X17902500Y-11442500D02*
X17902500Y-8895000D01*
X20317500Y-8895000D02*
X20317500Y-11442500D01*
X20317500Y-4642500D02*
X20317500Y-4445000D01*
X17902500Y-4445000D02*
X17902500Y-4642500D01*
X20317500Y-7495000D02*
X20317500Y-4642500D01*
X18750000Y-7495000D02*
X17902500Y-7495000D01*
X19465000Y-7495000D02*
X20317500Y-7495000D01*
X19465000Y-8895000D02*
X19465000Y-7495000D01*
X18750000Y-8895000D02*
X18750000Y-7495000D01*
X20317500Y-4445000D02*
X17902500Y-4445000D01*
X20317500Y-11442500D02*
X17902500Y-11442500D01*
X17902500Y-7495000D02*
X17902500Y-4642500D01*
X19465000Y-8895000D02*
X20317500Y-8895000D01*
D11*
X18142619Y-11743476D02*
X18142619Y-11543476D01*
X18142619Y-11543476D02*
X18190238Y-11543476D01*
X18190238Y-11543476D02*
X18218810Y-11553000D01*
X18218810Y-11553000D02*
X18237857Y-11572048D01*
X18237857Y-11572048D02*
X18247381Y-11591095D01*
X18247381Y-11591095D02*
X18256905Y-11629190D01*
X18256905Y-11629190D02*
X18256905Y-11657762D01*
X18256905Y-11657762D02*
X18247381Y-11695857D01*
X18247381Y-11695857D02*
X18237857Y-11714905D01*
X18237857Y-11714905D02*
X18218810Y-11733952D01*
X18218810Y-11733952D02*
X18190238Y-11743476D01*
X18190238Y-11743476D02*
X18142619Y-11743476D01*
X18342619Y-11743476D02*
X18342619Y-11610143D01*
X18342619Y-11648238D02*
X18352143Y-11629190D01*
X18352143Y-11629190D02*
X18361667Y-11619667D01*
X18361667Y-11619667D02*
X18380714Y-11610143D01*
X18380714Y-11610143D02*
X18399762Y-11610143D01*
X18466429Y-11743476D02*
X18466429Y-11610143D01*
X18466429Y-11543476D02*
X18456905Y-11553000D01*
X18456905Y-11553000D02*
X18466429Y-11562524D01*
X18466429Y-11562524D02*
X18475952Y-11553000D01*
X18475952Y-11553000D02*
X18466429Y-11543476D01*
X18466429Y-11543476D02*
X18466429Y-11562524D01*
X18590238Y-11743476D02*
X18571190Y-11733952D01*
X18571190Y-11733952D02*
X18561667Y-11714905D01*
X18561667Y-11714905D02*
X18561667Y-11543476D01*
X18695000Y-11743476D02*
X18675952Y-11733952D01*
X18675952Y-11733952D02*
X18666429Y-11714905D01*
X18666429Y-11714905D02*
X18666429Y-11543476D01*
X18891190Y-11743476D02*
X18891190Y-11543476D01*
X18891190Y-11543476D02*
X18957857Y-11686333D01*
X18957857Y-11686333D02*
X19024524Y-11543476D01*
X19024524Y-11543476D02*
X19024524Y-11743476D01*
X19205476Y-11743476D02*
X19205476Y-11638714D01*
X19205476Y-11638714D02*
X19195952Y-11619667D01*
X19195952Y-11619667D02*
X19176905Y-11610143D01*
X19176905Y-11610143D02*
X19138809Y-11610143D01*
X19138809Y-11610143D02*
X19119762Y-11619667D01*
X19205476Y-11733952D02*
X19186429Y-11743476D01*
X19186429Y-11743476D02*
X19138809Y-11743476D01*
X19138809Y-11743476D02*
X19119762Y-11733952D01*
X19119762Y-11733952D02*
X19110238Y-11714905D01*
X19110238Y-11714905D02*
X19110238Y-11695857D01*
X19110238Y-11695857D02*
X19119762Y-11676809D01*
X19119762Y-11676809D02*
X19138809Y-11667286D01*
X19138809Y-11667286D02*
X19186429Y-11667286D01*
X19186429Y-11667286D02*
X19205476Y-11657762D01*
X19300714Y-11610143D02*
X19300714Y-11810143D01*
X19300714Y-11619667D02*
X19319762Y-11610143D01*
X19319762Y-11610143D02*
X19357857Y-11610143D01*
X19357857Y-11610143D02*
X19376905Y-11619667D01*
X19376905Y-11619667D02*
X19386429Y-11629190D01*
X19386429Y-11629190D02*
X19395952Y-11648238D01*
X19395952Y-11648238D02*
X19395952Y-11705381D01*
X19395952Y-11705381D02*
X19386429Y-11724428D01*
X19386429Y-11724428D02*
X19376905Y-11733952D01*
X19376905Y-11733952D02*
X19357857Y-11743476D01*
X19357857Y-11743476D02*
X19319762Y-11743476D01*
X19319762Y-11743476D02*
X19300714Y-11733952D01*
X19481667Y-11724428D02*
X19491190Y-11733952D01*
X19491190Y-11733952D02*
X19481667Y-11743476D01*
X19481667Y-11743476D02*
X19472143Y-11733952D01*
X19472143Y-11733952D02*
X19481667Y-11724428D01*
X19481667Y-11724428D02*
X19481667Y-11743476D01*
X19481667Y-11619667D02*
X19491190Y-11629190D01*
X19491190Y-11629190D02*
X19481667Y-11638714D01*
X19481667Y-11638714D02*
X19472143Y-11629190D01*
X19472143Y-11629190D02*
X19481667Y-11619667D01*
X19481667Y-11619667D02*
X19481667Y-11638714D01*
M02*
