%TF.GenerationSoftware,KiCad,Pcbnew,(7.0.0)*%
%TF.CreationDate,2023-07-04T16:48:58+02:00*%
%TF.ProjectId,attiny85_remote,61747469-6e79-4383-955f-72656d6f7465,rev?*%
%TF.SameCoordinates,Original*%
%TF.FileFunction,Legend,Top*%
%TF.FilePolarity,Positive*%
%FSLAX46Y46*%
G04 Gerber Fmt 4.6, Leading zero omitted, Abs format (unit mm)*
G04 Created by KiCad (PCBNEW (7.0.0)) date 2023-07-04 16:48:58*
%MOMM*%
%LPD*%
G01*
G04 APERTURE LIST*
%ADD10C,0.150000*%
%ADD11C,0.127000*%
%ADD12C,0.120000*%
%ADD13C,0.100000*%
G04 APERTURE END LIST*
D10*
X190575000Y-108825000D02*
X191575000Y-108825000D01*
X191200000Y-81200000D02*
X191200000Y-83450000D01*
X191200000Y-83450000D02*
X191200000Y-82375000D01*
X193850000Y-83450000D02*
X191200000Y-83450000D01*
X193850000Y-81800000D02*
X193850000Y-83450000D01*
X193850000Y-82475000D02*
X193850000Y-82375000D01*
X193550000Y-81200000D02*
X191200000Y-81200000D01*
X193550000Y-81200000D02*
X193850000Y-81200000D01*
X193850000Y-81800000D02*
X193850000Y-81200000D01*
X190045238Y-73957380D02*
X190378571Y-74957380D01*
X190378571Y-74957380D02*
X190711904Y-73957380D01*
X191616666Y-74862142D02*
X191569047Y-74909761D01*
X191569047Y-74909761D02*
X191426190Y-74957380D01*
X191426190Y-74957380D02*
X191330952Y-74957380D01*
X191330952Y-74957380D02*
X191188095Y-74909761D01*
X191188095Y-74909761D02*
X191092857Y-74814523D01*
X191092857Y-74814523D02*
X191045238Y-74719285D01*
X191045238Y-74719285D02*
X190997619Y-74528809D01*
X190997619Y-74528809D02*
X190997619Y-74385952D01*
X190997619Y-74385952D02*
X191045238Y-74195476D01*
X191045238Y-74195476D02*
X191092857Y-74100238D01*
X191092857Y-74100238D02*
X191188095Y-74005000D01*
X191188095Y-74005000D02*
X191330952Y-73957380D01*
X191330952Y-73957380D02*
X191426190Y-73957380D01*
X191426190Y-73957380D02*
X191569047Y-74005000D01*
X191569047Y-74005000D02*
X191616666Y-74052619D01*
X192616666Y-74862142D02*
X192569047Y-74909761D01*
X192569047Y-74909761D02*
X192426190Y-74957380D01*
X192426190Y-74957380D02*
X192330952Y-74957380D01*
X192330952Y-74957380D02*
X192188095Y-74909761D01*
X192188095Y-74909761D02*
X192092857Y-74814523D01*
X192092857Y-74814523D02*
X192045238Y-74719285D01*
X192045238Y-74719285D02*
X191997619Y-74528809D01*
X191997619Y-74528809D02*
X191997619Y-74385952D01*
X191997619Y-74385952D02*
X192045238Y-74195476D01*
X192045238Y-74195476D02*
X192092857Y-74100238D01*
X192092857Y-74100238D02*
X192188095Y-74005000D01*
X192188095Y-74005000D02*
X192330952Y-73957380D01*
X192330952Y-73957380D02*
X192426190Y-73957380D01*
X192426190Y-73957380D02*
X192569047Y-74005000D01*
X192569047Y-74005000D02*
X192616666Y-74052619D01*
%TO.C,BT1*%
X176967000Y-111055000D02*
X177033666Y-110855000D01*
X177033666Y-110855000D02*
X177100333Y-110788333D01*
X177100333Y-110788333D02*
X177233666Y-110721666D01*
X177233666Y-110721666D02*
X177433666Y-110721666D01*
X177433666Y-110721666D02*
X177567000Y-110788333D01*
X177567000Y-110788333D02*
X177633666Y-110855000D01*
X177633666Y-110855000D02*
X177700333Y-110988333D01*
X177700333Y-110988333D02*
X177700333Y-111521666D01*
X177700333Y-111521666D02*
X176300333Y-111521666D01*
X176300333Y-111521666D02*
X176300333Y-111055000D01*
X176300333Y-111055000D02*
X176367000Y-110921666D01*
X176367000Y-110921666D02*
X176433666Y-110855000D01*
X176433666Y-110855000D02*
X176567000Y-110788333D01*
X176567000Y-110788333D02*
X176700333Y-110788333D01*
X176700333Y-110788333D02*
X176833666Y-110855000D01*
X176833666Y-110855000D02*
X176900333Y-110921666D01*
X176900333Y-110921666D02*
X176967000Y-111055000D01*
X176967000Y-111055000D02*
X176967000Y-111521666D01*
X176300333Y-110321666D02*
X176300333Y-109521666D01*
X177700333Y-109921666D02*
X176300333Y-109921666D01*
X177700333Y-108321666D02*
X177700333Y-109121666D01*
X177700333Y-108721666D02*
X176300333Y-108721666D01*
X176300333Y-108721666D02*
X176500333Y-108854999D01*
X176500333Y-108854999D02*
X176633666Y-108988333D01*
X176633666Y-108988333D02*
X176700333Y-109121666D01*
%TO.C,C2*%
X183058333Y-90797142D02*
X183010714Y-90844761D01*
X183010714Y-90844761D02*
X182867857Y-90892380D01*
X182867857Y-90892380D02*
X182772619Y-90892380D01*
X182772619Y-90892380D02*
X182629762Y-90844761D01*
X182629762Y-90844761D02*
X182534524Y-90749523D01*
X182534524Y-90749523D02*
X182486905Y-90654285D01*
X182486905Y-90654285D02*
X182439286Y-90463809D01*
X182439286Y-90463809D02*
X182439286Y-90320952D01*
X182439286Y-90320952D02*
X182486905Y-90130476D01*
X182486905Y-90130476D02*
X182534524Y-90035238D01*
X182534524Y-90035238D02*
X182629762Y-89940000D01*
X182629762Y-89940000D02*
X182772619Y-89892380D01*
X182772619Y-89892380D02*
X182867857Y-89892380D01*
X182867857Y-89892380D02*
X183010714Y-89940000D01*
X183010714Y-89940000D02*
X183058333Y-89987619D01*
X183439286Y-89987619D02*
X183486905Y-89940000D01*
X183486905Y-89940000D02*
X183582143Y-89892380D01*
X183582143Y-89892380D02*
X183820238Y-89892380D01*
X183820238Y-89892380D02*
X183915476Y-89940000D01*
X183915476Y-89940000D02*
X183963095Y-89987619D01*
X183963095Y-89987619D02*
X184010714Y-90082857D01*
X184010714Y-90082857D02*
X184010714Y-90178095D01*
X184010714Y-90178095D02*
X183963095Y-90320952D01*
X183963095Y-90320952D02*
X183391667Y-90892380D01*
X183391667Y-90892380D02*
X184010714Y-90892380D01*
%TO.C,C1*%
X198758333Y-90772142D02*
X198710714Y-90819761D01*
X198710714Y-90819761D02*
X198567857Y-90867380D01*
X198567857Y-90867380D02*
X198472619Y-90867380D01*
X198472619Y-90867380D02*
X198329762Y-90819761D01*
X198329762Y-90819761D02*
X198234524Y-90724523D01*
X198234524Y-90724523D02*
X198186905Y-90629285D01*
X198186905Y-90629285D02*
X198139286Y-90438809D01*
X198139286Y-90438809D02*
X198139286Y-90295952D01*
X198139286Y-90295952D02*
X198186905Y-90105476D01*
X198186905Y-90105476D02*
X198234524Y-90010238D01*
X198234524Y-90010238D02*
X198329762Y-89915000D01*
X198329762Y-89915000D02*
X198472619Y-89867380D01*
X198472619Y-89867380D02*
X198567857Y-89867380D01*
X198567857Y-89867380D02*
X198710714Y-89915000D01*
X198710714Y-89915000D02*
X198758333Y-89962619D01*
X199710714Y-90867380D02*
X199139286Y-90867380D01*
X199425000Y-90867380D02*
X199425000Y-89867380D01*
X199425000Y-89867380D02*
X199329762Y-90010238D01*
X199329762Y-90010238D02*
X199234524Y-90105476D01*
X199234524Y-90105476D02*
X199139286Y-90153095D01*
%TO.C,U1*%
X190338095Y-51892380D02*
X190338095Y-52701904D01*
X190338095Y-52701904D02*
X190385714Y-52797142D01*
X190385714Y-52797142D02*
X190433333Y-52844761D01*
X190433333Y-52844761D02*
X190528571Y-52892380D01*
X190528571Y-52892380D02*
X190719047Y-52892380D01*
X190719047Y-52892380D02*
X190814285Y-52844761D01*
X190814285Y-52844761D02*
X190861904Y-52797142D01*
X190861904Y-52797142D02*
X190909523Y-52701904D01*
X190909523Y-52701904D02*
X190909523Y-51892380D01*
X191909523Y-52892380D02*
X191338095Y-52892380D01*
X191623809Y-52892380D02*
X191623809Y-51892380D01*
X191623809Y-51892380D02*
X191528571Y-52035238D01*
X191528571Y-52035238D02*
X191433333Y-52130476D01*
X191433333Y-52130476D02*
X191338095Y-52178095D01*
X189385714Y-63892380D02*
X189052381Y-63416190D01*
X188814286Y-63892380D02*
X188814286Y-62892380D01*
X188814286Y-62892380D02*
X189195238Y-62892380D01*
X189195238Y-62892380D02*
X189290476Y-62940000D01*
X189290476Y-62940000D02*
X189338095Y-62987619D01*
X189338095Y-62987619D02*
X189385714Y-63082857D01*
X189385714Y-63082857D02*
X189385714Y-63225714D01*
X189385714Y-63225714D02*
X189338095Y-63320952D01*
X189338095Y-63320952D02*
X189290476Y-63368571D01*
X189290476Y-63368571D02*
X189195238Y-63416190D01*
X189195238Y-63416190D02*
X188814286Y-63416190D01*
X190242857Y-63892380D02*
X190242857Y-63368571D01*
X190242857Y-63368571D02*
X190195238Y-63273333D01*
X190195238Y-63273333D02*
X190100000Y-63225714D01*
X190100000Y-63225714D02*
X189909524Y-63225714D01*
X189909524Y-63225714D02*
X189814286Y-63273333D01*
X190242857Y-63844761D02*
X190147619Y-63892380D01*
X190147619Y-63892380D02*
X189909524Y-63892380D01*
X189909524Y-63892380D02*
X189814286Y-63844761D01*
X189814286Y-63844761D02*
X189766667Y-63749523D01*
X189766667Y-63749523D02*
X189766667Y-63654285D01*
X189766667Y-63654285D02*
X189814286Y-63559047D01*
X189814286Y-63559047D02*
X189909524Y-63511428D01*
X189909524Y-63511428D02*
X190147619Y-63511428D01*
X190147619Y-63511428D02*
X190242857Y-63463809D01*
X190719048Y-63511428D02*
X191480953Y-63511428D01*
X192147619Y-62892380D02*
X192242857Y-62892380D01*
X192242857Y-62892380D02*
X192338095Y-62940000D01*
X192338095Y-62940000D02*
X192385714Y-62987619D01*
X192385714Y-62987619D02*
X192433333Y-63082857D01*
X192433333Y-63082857D02*
X192480952Y-63273333D01*
X192480952Y-63273333D02*
X192480952Y-63511428D01*
X192480952Y-63511428D02*
X192433333Y-63701904D01*
X192433333Y-63701904D02*
X192385714Y-63797142D01*
X192385714Y-63797142D02*
X192338095Y-63844761D01*
X192338095Y-63844761D02*
X192242857Y-63892380D01*
X192242857Y-63892380D02*
X192147619Y-63892380D01*
X192147619Y-63892380D02*
X192052381Y-63844761D01*
X192052381Y-63844761D02*
X192004762Y-63797142D01*
X192004762Y-63797142D02*
X191957143Y-63701904D01*
X191957143Y-63701904D02*
X191909524Y-63511428D01*
X191909524Y-63511428D02*
X191909524Y-63273333D01*
X191909524Y-63273333D02*
X191957143Y-63082857D01*
X191957143Y-63082857D02*
X192004762Y-62987619D01*
X192004762Y-62987619D02*
X192052381Y-62940000D01*
X192052381Y-62940000D02*
X192147619Y-62892380D01*
X192861905Y-62987619D02*
X192909524Y-62940000D01*
X192909524Y-62940000D02*
X193004762Y-62892380D01*
X193004762Y-62892380D02*
X193242857Y-62892380D01*
X193242857Y-62892380D02*
X193338095Y-62940000D01*
X193338095Y-62940000D02*
X193385714Y-62987619D01*
X193385714Y-62987619D02*
X193433333Y-63082857D01*
X193433333Y-63082857D02*
X193433333Y-63178095D01*
X193433333Y-63178095D02*
X193385714Y-63320952D01*
X193385714Y-63320952D02*
X192814286Y-63892380D01*
X192814286Y-63892380D02*
X193433333Y-63892380D01*
D11*
%TO.C,BT1*%
X191075000Y-115900000D02*
X191075000Y-114900000D01*
X191075000Y-93000000D02*
X191075000Y-92000000D01*
X190575000Y-92500000D02*
X191575000Y-92500000D01*
X187325000Y-89710000D02*
X187325000Y-92405000D01*
X187325000Y-89710000D02*
X189605000Y-89710000D01*
X194825000Y-89710000D02*
X194825000Y-92405000D01*
X194825000Y-89710000D02*
X192545000Y-89710000D01*
X187325000Y-92405001D02*
G75*
G03*
X194825000Y-92405001I3750000J-10530059D01*
G01*
D12*
%TO.C,J3*%
X194050000Y-77150000D02*
X191250000Y-77150000D01*
X194050000Y-75150000D02*
X194050000Y-77150000D01*
X191250000Y-77150000D02*
X191250000Y-75150000D01*
X191250000Y-75150000D02*
X194050000Y-75150000D01*
%TO.C,C2*%
X187345000Y-91895000D02*
X187345000Y-89155000D01*
X187345000Y-91895000D02*
X179105000Y-91895000D01*
X187345000Y-89155000D02*
X179105000Y-89155000D01*
X179105000Y-91895000D02*
X179105000Y-89155000D01*
%TO.C,C1*%
X194805000Y-89155000D02*
X194805000Y-91895000D01*
X194805000Y-89155000D02*
X203045000Y-89155000D01*
X194805000Y-91895000D02*
X203045000Y-91895000D01*
X203045000Y-89155000D02*
X203045000Y-91895000D01*
D13*
%TO.C,Q1*%
X194025000Y-82825000D02*
X194025000Y-82825000D01*
X194125000Y-82825000D02*
X194125000Y-82825000D01*
X194125000Y-82825000D02*
G75*
G03*
X194025000Y-82825000I-50000J0D01*
G01*
X194025000Y-82825000D02*
G75*
G03*
X194125000Y-82825000I50000J0D01*
G01*
D10*
%TO.C,U1*%
X182850000Y-44775000D02*
X199350000Y-44775000D01*
X182850000Y-45525000D02*
X182850000Y-44775000D01*
X182850000Y-61525000D02*
X182850000Y-62275000D01*
X182850000Y-62275000D02*
X199350000Y-62275000D01*
X199350000Y-44775000D02*
X199350000Y-45525000D01*
X199350000Y-62275000D02*
X199350000Y-61525000D01*
%TD*%
M02*
