M48
; DRILL file {KiCad (7.0.0)} date Tue Jul  4 16:48:50 2023
; FORMAT={-:-/ absolute / inch / decimal}
; #@! TF.CreationDate,2023-07-04T16:48:50+02:00
; #@! TF.GenerationSoftware,Kicad,Pcbnew,(7.0.0)
; #@! TF.FileFunction,Plated,1,2,PTH
FMAT,2
INCH
; #@! TA.AperFunction,Plated,PTH,ViaDrill
T1C0.0118
; #@! TA.AperFunction,Plated,PTH,ViaDrill
T2C0.0157
; #@! TA.AperFunction,Plated,PTH,ComponentDrill
T3C0.0315
; #@! TA.AperFunction,Plated,PTH,ComponentDrill
T4C0.0433
; #@! TA.AperFunction,Plated,PTH,ComponentDrill
T5C0.0461
; #@! TA.AperFunction,Plated,PTH,ComponentDrill
T6C0.0591
%
G90
G05
T1
X7.1152Y-2.0187
X7.1191Y-3.7165
X7.125Y-4.4518
X7.2087Y-1.8317
X7.2254Y-2.5138
X7.2805Y-1.9045
X7.2884Y-2.2657
X7.2913Y-2.0797
X7.2943Y-2.2126
X7.3287Y-4.2352
X7.3484Y-2.3573
X7.3986Y-2.2894
X7.4026Y-2.2372
X7.4213Y-1.9902
X7.439Y-2.0453
X7.4805Y-1.8317
X7.4872Y-2.1289
X7.5049Y-2.3356
X7.5059Y-2.3763
X7.5128Y-2.1663
X7.5207Y-1.9341
X7.5241Y-2.0458
X7.5404Y-3.7628
X7.5443Y-2.1289
X7.5659Y-1.8602
X7.5659Y-2.0433
X7.5856Y-2.0846
X7.6102Y-1.8819
X7.6122Y-2.2825
X7.626Y-3.5551
X7.6348Y-2.0768
X7.6526Y-1.8602
X7.6526Y-2.0197
X7.6575Y-2.3031
X7.687Y-2.1329
X7.6939Y-1.9321
X7.6969Y-2.0955
X7.7303Y-2.122
X7.7323Y-4.253
X7.7608Y-2.2037
X7.7608Y-2.2431
X7.7736Y-1.9213
X7.811Y-1.9902
X7.811Y-2.0689
X7.811Y-2.1486
X7.815Y-1.8179
X7.8209Y-3.5581
X7.8671Y-1.8484
X7.9193Y-3.7116
X7.9449Y-4.4498
T2
X7.437Y-3.4783
X7.438Y-3.1211
X7.4439Y-3.2392
X7.501Y-3.0463
X7.5541Y-3.3701
T3
X7.1102Y-1.8368
X7.1102Y-2.1368
X7.1102Y-2.2195
X7.1102Y-2.5195
X7.1152Y-3.564
X7.312Y-3.564
X7.374Y-2.5118
X7.436Y-2.9764
X7.436Y-3.3764
X7.6093Y-3.0882
X7.6093Y-3.4882
X7.674Y-2.5118
X7.7333Y-3.564
X7.9301Y-3.564
X7.937Y-1.8368
X7.937Y-2.1368
X7.937Y-2.2195
X7.937Y-2.5195
T4
X7.1102Y-2.6201
X7.1102Y-2.876
X7.2874Y-2.6201
X7.2874Y-2.876
X7.435Y-2.6201
X7.435Y-2.876
X7.6122Y-2.6201
X7.6122Y-2.876
X7.7598Y-2.6201
X7.7598Y-2.876
X7.937Y-2.6201
X7.937Y-2.876
T5
X7.5226Y-4.3465
T6
X7.5226Y-3.5591
T0
M30
